<svg width="278" height="305" viewBox="0 0 278 305" xmlns="http://www.w3.org/2000/svg" xmlns:xlink="http://www.w3.org/1999/xlink"><title>Pattern</title><defs><path id="a" d="M0 0h360v383H0z"/><path d="M158.92 0C91.566 1.3 32.782 37.744 0 91.83h158.92V0z" id="c"/><path d="M195.916 1.234A186.81 186.81 0 0 0 174.441 0C95.903 0 28.551 49.002 0 118.754h195.916V1.234z" id="e"/><path d="M231.026 5.905C216.013 2.05 200.289 0 184.092 0 95.649 0 21.305 61.093 0 143.861h231.026V5.905z" id="g"/><path d="M260.321 14.236C238.111 5.06 213.784 0 188.281 0 91.234 0 11.215 73.28 0 167.793h260.321V14.236z" id="i"/><path d="M.017 191.57c-.011-.848-.017-1.697-.017-2.547C0 84.629 84.932 0 189.704 0c35.583 0 68.877 9.761 97.333 26.742V191.57H.017z" id="k"/><path d="M2.031 219.322A193.854 193.854 0 0 1 0 191.273C0 85.637 85.187 0 190.274 0c46.879 0 89.798 17.041 122.961 45.297v174.025H2.031z" id="m"/><path d="M7.55 243.748C2.634 226.837 0 208.954 0 190.456 0 85.271 85.2 0 190.304 0c59.956 0 113.437 27.748 148.32 71.112v172.636H7.549z" id="o"/><path d="M16.967 269.992C6.07 245.937 0 219.22 0 191.08 0 85.55 85.372 0 190.686 0 268.17 0 334.86 46.31 364.697 112.814V269.35c-.096.214-.192.428-.29.641H16.968z" id="q"/><path d="M30.865 295.412C11.345 265.412 0 229.569 0 191.066 0 85.543 85.225 0 190.359 0c105.133 0 190.363 85.543 190.363 191.066 0 38.503-11.347 74.346-30.867 104.346H30.865z" id="s"/><path d="M50.655 321.524C19.216 287.374 0 241.674 0 191.462 0 85.722 85.225 0 190.359 0c105.133 0 190.363 85.721 190.363 191.462 0 50.212-19.217 95.911-50.657 130.062H50.655z" id="u"/><path d="M79.337 345.116C31.29 310.548 0 254.135 0 190.413 0 85.251 85.225 0 190.359 0c105.133 0 190.363 85.251 190.363 190.413 0 63.722-31.291 120.135-79.34 154.703H79.337z" id="w"/><path d="M128.255 369.677C53.615 343.975 0 273.237 0 190.004 0 85.068 85.225 0 190.359 0c105.133 0 190.363 85.068 190.363 190.004 0 83.234-53.619 153.971-128.26 179.673H128.256z" id="y"/><path d="M0 190.648c0 105.295 85.225 190.66 190.359 190.66 105.133 0 190.363-85.365 190.363-190.66C380.722 85.357 295.492 0 190.359 0 85.225 0 0 85.357 0 190.648z" id="A"/><path d="M0 190.648c0 105.295 85.225 190.66 190.359 190.66 105.133 0 190.363-85.365 190.363-190.66C380.722 85.357 295.492 0 190.359 0 85.225 0 0 85.357 0 190.648z" id="C"/><path d="M0 190.648c0 105.295 85.225 190.66 190.359 190.66 105.133 0 190.363-85.365 190.363-190.66C380.722 85.357 295.492 0 190.359 0 85.225 0 0 85.357 0 190.648z" id="E"/><path d="M0 190.648c0 105.295 85.225 190.66 190.359 190.66 105.133 0 190.363-85.365 190.363-190.66C380.722 85.357 295.492 0 190.359 0 85.225 0 0 85.357 0 190.648z" id="G"/><path d="M0 190.648c0 105.295 85.225 190.66 190.359 190.66 105.133 0 190.363-85.365 190.363-190.66C380.722 85.357 295.492 0 190.359 0 85.225 0 0 85.357 0 190.648z" id="I"/><path d="M0 190.648c0 105.295 85.225 190.66 190.359 190.66 105.133 0 190.363-85.365 190.363-190.66C380.722 85.357 295.492 0 190.359 0 85.225 0 0 85.357 0 190.648z" id="K"/><path d="M0 190.648c0 105.295 85.225 190.66 190.359 190.66 105.133 0 190.363-85.365 190.363-190.66C380.722 85.357 295.492 0 190.359 0 85.225 0 0 85.357 0 190.648z" id="M"/><path d="M0 190.648c0 105.295 85.225 190.66 190.359 190.66 105.133 0 190.363-85.365 190.363-190.66C380.722 85.357 295.492 0 190.359 0 85.225 0 0 85.357 0 190.648z" id="O"/><path d="M0 190.648c0 105.295 85.225 190.66 190.359 190.66 105.133 0 190.363-85.365 190.363-190.66C380.722 85.357 295.492 0 190.359 0 85.225 0 0 85.357 0 190.648z" id="Q"/><path d="M0 190.648c0 105.295 85.225 190.66 190.359 190.66 105.133 0 190.363-85.365 190.363-190.66C380.722 85.357 295.492 0 190.359 0 85.225 0 0 85.357 0 190.648z" id="S"/><path d="M0 190.648c0 105.295 85.225 190.66 190.359 190.66 105.133 0 190.363-85.365 190.363-190.66C380.722 85.357 295.492 0 190.359 0 85.225 0 0 85.357 0 190.648z" id="U"/><path d="M0 190.648c0 105.295 85.225 190.66 190.359 190.66 105.133 0 190.363-85.365 190.363-190.66C380.722 85.357 295.492 0 190.359 0 85.225 0 0 85.357 0 190.648z" id="W"/><path d="M0 190.648c0 105.295 85.225 190.66 190.359 190.66 105.133 0 190.363-85.365 190.363-190.66C380.722 85.357 295.492 0 190.359 0 85.225 0 0 85.357 0 190.648z" id="Y"/><path d="M0 190.648c0 105.295 85.225 190.66 190.359 190.66 105.133 0 190.363-85.365 190.363-190.66C380.722 85.357 295.492 0 190.359 0 85.225 0 0 85.357 0 190.648z" id="aa"/><path d="M0 190.648c0 105.295 85.225 190.66 190.359 190.66 105.133 0 190.363-85.365 190.363-190.66C380.722 85.357 295.492 0 190.359 0 85.225 0 0 85.357 0 190.648z" id="ac"/><path d="M0 190.648c0 105.295 85.225 190.66 190.359 190.66 105.133 0 190.363-85.365 190.363-190.66C380.722 85.357 295.492 0 190.359 0 85.225 0 0 85.357 0 190.648z" id="ae"/><path d="M0 190.648c0 105.295 85.225 190.66 190.359 190.66 105.133 0 190.363-85.365 190.363-190.66C380.722 85.357 295.492 0 190.359 0 85.225 0 0 85.357 0 190.648z" id="ag"/><path d="M0 190.648c0 105.295 85.225 190.66 190.359 190.66 105.133 0 190.363-85.365 190.363-190.66C380.722 85.357 295.492 0 190.359 0 85.225 0 0 85.357 0 190.648z" id="ai"/><path d="M0 190.648c0 105.295 85.225 190.66 190.359 190.66 105.133 0 190.363-85.365 190.363-190.66C380.722 85.357 295.492 0 190.359 0 85.225 0 0 85.357 0 190.648z" id="ak"/><path d="M0 190.648c0 105.295 85.225 190.66 190.359 190.66 105.133 0 190.363-85.365 190.363-190.66C380.722 85.357 295.492 0 190.359 0 85.225 0 0 85.357 0 190.648z" id="am"/><path d="M0 190.648c0 105.295 85.225 190.66 190.359 190.66 105.133 0 190.363-85.365 190.363-190.66C380.722 85.357 295.492 0 190.359 0 85.225 0 0 85.357 0 190.648z" id="ao"/><path d="M0 190.648c0 105.295 85.225 190.66 190.359 190.66 105.133 0 190.363-85.365 190.363-190.66C380.722 85.357 295.492 0 190.359 0 85.225 0 0 85.357 0 190.648z" id="aq"/><path d="M0 190.648c0 105.295 85.225 190.66 190.359 190.66 105.133 0 190.363-85.365 190.363-190.66C380.722 85.357 295.492 0 190.359 0 85.225 0 0 85.357 0 190.648z" id="as"/><path d="M0 190.648c0 105.295 85.225 190.66 190.359 190.66 105.133 0 190.363-85.365 190.363-190.66C380.722 85.357 295.492 0 190.359 0 85.225 0 0 85.357 0 190.648z" id="au"/><path d="M0 190.648c0 105.295 85.225 190.66 190.359 190.66 105.133 0 190.363-85.365 190.363-190.66C380.722 85.357 295.492 0 190.359 0 85.225 0 0 85.357 0 190.648z" id="aw"/><path d="M0 190.648c0 105.295 85.225 190.66 190.359 190.66 105.133 0 190.363-85.365 190.363-190.66C380.722 85.357 295.492 0 190.359 0 85.225 0 0 85.357 0 190.648z" id="ay"/><path d="M0 282.502c32.396 58.9 94.982 98.806 166.876 98.806 105.149 0 190.39-85.365 190.39-190.66C357.267 85.357 272.026 0 166.877 0 94.982 0 32.396 39.903 0 98.798v183.704z" id="aA"/><path d="M0 318.19c34.687 38.752 84.946 63.118 140.862 63.118 104.66 0 189.507-85.365 189.507-190.66C330.37 85.357 245.523 0 140.862 0 84.946 0 34.687 24.363 0 63.114v255.075z" id="aC"/><path d="M0 341.713c32.17 24.827 72.492 39.595 116.261 39.595 105.232 0 190.542-85.365 190.542-190.66C306.803 85.357 221.493 0 116.26 0 72.492 0 32.171 14.766 0 39.592v302.12z" id="aE"/><path d="M0 334.323c27.093 14.745 58.146 23.122 91.154 23.122 105.54 0 191.099-85.64 191.099-191.273 0-71.15-38.819-133.227-96.415-166.172H0v334.323z" id="aG"/><path d="M0 318.147c20.494 7.457 42.632 11.527 65.727 11.527 105.572 0 191.156-85.045 191.156-189.946 0-55.266-23.756-105.02-61.676-139.728H0v318.147z" id="aI"/><path d="M0 300.83a191.685 191.685 0 0 0 40.172 4.233c105.299 0 190.663-85.236 190.663-190.373 0-43.067-14.325-82.794-38.477-114.69H0v300.83z" id="aK"/><path d="M0 279.922c4.863.375 9.777.566 14.735.566 104.96 0 190.05-85.473 190.05-190.901 0-32.378-8.026-62.872-22.188-89.587H0v279.922z" id="aM"/><path d="M0 254.526c100.448-5.507 180.202-88.659 180.202-190.42 0-22.49-3.895-44.072-11.05-64.106H0v254.526z" id="aO"/><path d="M0 227.41c86.688-16.938 152.206-94.88 152.206-188.464 0-13.344-1.332-26.37-3.868-38.946H0v227.41z" id="aQ"/><path d="M0 192.293c75.852-25.344 130.428-95.953 130.428-179.09 0-4.438-.156-8.84-.462-13.203H0v192.293z" id="aS"/><path d="M0 158.58C58.345 128.572 99.288 69.272 103.597 0H0v158.58z" id="aU"/></defs><g transform="rotate(-180 180 152.5)" fill="none" fill-rule="evenodd" opacity=".674"><mask id="b" fill="#fff"><use xlink:href="#a"/></mask><g opacity=".08" mask="url(#b)"><g transform="translate(110.61 -77)"><mask id="d" fill="#fff"><use xlink:href="#c"/></mask><path fill="#223B98" mask="url(#d)" d="M-353.41 91.884V79.886l503.744-505.843 2.985-3.002 5.97 6z"/></g><g transform="translate(97.146 -77)"><mask id="f" fill="#fff"><use xlink:href="#e"/></mask><path fill="#223B98" mask="url(#f)" d="M-339.105 119.002V106.86l525.662-537.842 2.965-3.034 5.94 6.073z"/></g><g transform="translate(89.573 -77)"><mask id="h" fill="#fff"><use xlink:href="#g"/></mask><path fill="#223B98" mask="url(#h)" d="M-332.373 143.847v-12.086l554.29-561.07 2.984-3.02 5.969 6.04z"/></g><g transform="translate(84.524 -77)"><mask id="j" fill="#fff"><use xlink:href="#i"/></mask><path fill="#223B98" mask="url(#j)" d="M-326.483 167.626v-11.969L251.31-425.126l2.979-2.99 5.949 5.98z"/></g><g transform="translate(82 -77)"><mask id="l" fill="#fff"><use xlink:href="#k"/></mask><path fill="#223B98" mask="url(#l)" d="M-324.8 192.075v-11.866l603.292-601.142 2.98-2.97 5.956 5.936z"/></g><g transform="translate(82 -77)"><mask id="n" fill="#fff"><use xlink:href="#m"/></mask><path fill="#223B98" mask="url(#n)" d="M-325.642 219.821v-12.006l630.445-633.769 2.989-3.005 5.97 6.006z"/></g><g transform="translate(82 -77)"><mask id="p" fill="#fff"><use xlink:href="#o"/></mask><path fill="#223B98" mask="url(#p)" d="M-325.642 244.099v-11.96l655.884-656.42 2.99-2.992 5.97 5.98z"/></g><g transform="translate(82 -77)"><mask id="r" fill="#fff"><use xlink:href="#q"/></mask><path fill="#223B98" mask="url(#r)" d="M-326.483 270.056v-11.998l682.592-684.019 2.992-2.998 5.987 5.996z"/></g><g transform="translate(82 -77)"><mask id="t" fill="#fff"><use xlink:href="#s"/></mask><path fill="#223B98" mask="url(#t)" d="M-325.642 295.444V283.45l706.773-709.41 2.986-2.998 5.972 5.995z"/></g><g transform="translate(82 -77)"><mask id="v" fill="#fff"><use xlink:href="#u"/></mask><path fill="#223B98" mask="url(#v)" d="M-325.642 321.607v-12.023l732.12-736.378 2.985-3.007 5.977 6.011z"/></g><g transform="translate(82 -77)"><mask id="x" fill="#fff"><use xlink:href="#w"/></mask><path fill="#223B98" mask="url(#x)" d="M-325.642 345.37v-11.953l757.466-757.703 2.986-2.987 5.977 5.978z"/></g><g transform="translate(82 -77)"><mask id="z" fill="#fff"><use xlink:href="#y"/></mask><path fill="#223B98" mask="url(#z)" d="M-325.642 369.85v-11.932L457.17-423.45l2.99-2.98 5.973 5.961z"/></g><g transform="translate(82 -77)"><mask id="B" fill="#fff"><use xlink:href="#A"/></mask><path fill="#223B98" mask="url(#B)" d="M-325.642 396.254v-11.967l808.163-809.412 2.986-2.99 5.973 5.985z"/></g><g transform="translate(82 -77)"><mask id="D" fill="#fff"><use xlink:href="#C"/></mask><path fill="#223B98" mask="url(#D)" d="M-325.642 421.644v-11.971l833.51-834.798 2.99-2.99 5.973 5.98z"/></g><g transform="translate(82 -77)"><mask id="F" fill="#fff"><use xlink:href="#E"/></mask><path fill="#223B98" mask="url(#F)" d="M-325.642 447.03v-11.972l858.86-860.183 2.987-2.99 5.976 5.98z"/></g><g transform="translate(82 -77)"><mask id="H" fill="#fff"><use xlink:href="#G"/></mask><path fill="#223B98" mask="url(#H)" d="M-325.642 472.42v-11.968l884.207-885.577 2.99-2.99 5.973 5.989z"/></g><g transform="translate(82 -77)"><mask id="J" fill="#fff"><use xlink:href="#I"/></mask><path fill="#223B98" mask="url(#J)" d="M-325.642 497.805v-11.971l909.554-910.959 2.994-2.99 5.973 5.98z"/></g><g transform="translate(82 -77)"><mask id="L" fill="#fff"><use xlink:href="#K"/></mask><path fill="#223B98" mask="url(#L)" d="M-325.642 523.19v-11.97l934.904-936.345 2.99-2.99 5.973 5.98z"/></g><g transform="translate(82 -77)"><mask id="N" fill="#fff"><use xlink:href="#M"/></mask><path fill="#223B98" mask="url(#N)" d="M-325.642 548.58v-11.967L634.61-425.125l2.99-2.99 5.977 5.985z"/></g><g transform="translate(82 -77)"><mask id="P" fill="#fff"><use xlink:href="#O"/></mask><path fill="#223B98" mask="url(#P)" d="M-325.642 573.97V562L659.96-425.125l2.986-2.99 5.976 5.98z"/></g><g transform="translate(82 -77)"><mask id="R" fill="#fff"><use xlink:href="#Q"/></mask><path fill="#223B98" mask="url(#R)" d="M-325.642 599.356v-11.972L685.31-425.125l2.987-2.99 5.972 5.985z"/></g><g transform="translate(82 -77)"><mask id="T" fill="#fff"><use xlink:href="#S"/></mask><path fill="#223B98" mask="url(#T)" d="M-325.642 624.742v-11.968L710.657-425.125l2.99-2.99 5.977 5.98z"/></g><g transform="translate(82 -77)"><mask id="V" fill="#fff"><use xlink:href="#U"/></mask><path fill="#223B98" mask="url(#V)" d="M-325.642 650.131V638.16L736.004-425.125l2.99-2.99 5.976 5.98z"/></g><g transform="translate(82 -77)"><mask id="X" fill="#fff"><use xlink:href="#W"/></mask><path fill="#223B98" mask="url(#X)" d="M-325.642 663.55L761.354-425.125l2.99-2.99 3.905 3.918v4.138L-325.64 675.52z"/></g><g transform="translate(82 -77)"><mask id="Z" fill="#fff"><use xlink:href="#Y"/></mask><path fill="#223B98" mask="url(#Z)" d="M-325.642 697.428v-8.056L768.25-406.204v11.963L-321.733 697.429z"/></g><g transform="translate(82 -77)"><mask id="ab" fill="#fff"><use xlink:href="#aa"/></mask><path fill="#223B98" mask="url(#ab)" d="M-302.46 697.325l-2.987-2.99L768.147-380.923v11.972L-296.488 697.325z"/></g><g transform="translate(82 -77)"><mask id="ad" fill="#fff"><use xlink:href="#ac"/></mask><path fill="#223B98" mask="url(#ad)" d="M-277.213 697.222l-2.99-2.99L768.052-355.64v11.972L-271.24 697.222z"/></g><g transform="translate(82 -77)"><mask id="af" fill="#fff"><use xlink:href="#ae"/></mask><path fill="#223B98" mask="url(#af)" d="M-251.97 697.115l-2.99-2.991L767.941-330.357v11.967L-245.997 697.115z"/></g><g transform="translate(82 -77)"><mask id="ah" fill="#fff"><use xlink:href="#ag"/></mask><path fill="#223B98" mask="url(#ah)" d="M-226.73 697.011l-2.986-2.99 997.554-999.096v11.972L-220.758 697.01z"/></g><g transform="translate(82 -77)"><mask id="aj" fill="#fff"><use xlink:href="#ai"/></mask><path fill="#223B98" mask="url(#aj)" d="M-201.482 696.908l-2.99-2.99 972.203-973.71v11.971l-963.24 964.73z"/></g><g transform="translate(82 -77)"><mask id="al" fill="#fff"><use xlink:href="#ak"/></mask><path fill="#223B98" mask="url(#al)" d="M-176.239 696.797l-2.99-2.991L767.628-254.51v11.964l-937.894 939.343z"/></g><g transform="translate(82 -77)"><mask id="an" fill="#fff"><use xlink:href="#am"/></mask><path fill="#223B98" mask="url(#an)" d="M-150.154 697.54l-2.99-2.99L768.37-228.385v11.972L-144.18 697.54z"/></g><g transform="translate(82 -77)"><mask id="ap" fill="#fff"><use xlink:href="#ao"/></mask><path fill="#223B98" mask="url(#ap)" d="M-124.91 697.437l-2.99-2.99 896.16-897.55v11.972l-887.198 888.568z"/></g><g transform="translate(82 -77)"><mask id="ar" fill="#fff"><use xlink:href="#aq"/></mask><path fill="#223B98" mask="url(#ar)" d="M-99.675 697.33l-2.982-2.991L768.156-177.82v11.972L-93.698 697.33z"/></g><g transform="translate(82 -77)"><mask id="at" fill="#fff"><use xlink:href="#as"/></mask><path fill="#223B98" mask="url(#at)" d="M-74.423 697.227l-2.99-2.991 845.462-846.773v11.971l-836.5 837.793z"/></g><g transform="translate(82 -77)"><mask id="av" fill="#fff"><use xlink:href="#au"/></mask><path fill="#223B98" mask="url(#av)" d="M-49.184 697.12l-2.986-2.992 820.112-821.383v11.968l-811.15 812.406z"/></g><g transform="translate(82 -77)"><mask id="ax" fill="#fff"><use xlink:href="#aw"/></mask><path fill="#223B98" mask="url(#ax)" d="M-23.94 697.012l-2.986-2.99 794.765-795.994v11.967L-17.968 697.012z"/></g><g transform="translate(82 -77)"><mask id="az" fill="#fff"><use xlink:href="#ay"/></mask><path fill="#223B98" mask="url(#az)" d="M1.307 696.909l-2.99-2.991L767.74-76.69v11.971L7.28 696.91z"/></g><g transform="translate(105.56 -77)"><mask id="aB" fill="#fff"><use xlink:href="#aA"/></mask><path fill="#223B98" mask="url(#aB)" d="M2.99 696.801L0 693.811 744.183-51.408v11.972L8.964 696.8z"/></g><g transform="translate(132.487 -77)"><mask id="aD" fill="#fff"><use xlink:href="#aC"/></mask><path fill="#223B98" mask="url(#aD)" d="M2.969 697.54L0 694.55 715.492-25.282v11.967L8.918 697.541z"/></g><g transform="translate(156.048 -77)"><mask id="aF" fill="#fff"><use xlink:href="#aE"/></mask><path fill="#223B98" mask="url(#aF)" d="M2.989 697.434L0 694.443 694.02 0v11.967L8.972 697.434z"/></g><g transform="translate(180.45 -53.403)"><mask id="aH" fill="#fff"><use xlink:href="#aG"/></mask><path fill="#223B98" mask="url(#aH)" d="M2.998 674.21l-2.998-3L670.607 0v12.01L8.997 674.21z"/></g><g transform="translate(206.535 -25.592)"><mask id="aJ" fill="#fff"><use xlink:href="#aI"/></mask><path fill="#223B98" mask="url(#aJ)" d="M2.999 644.24L0 641.26 645.353 0v11.927L8.996 644.24z"/></g><g transform="translate(232.62 -.31)"><mask id="aL" fill="#fff"><use xlink:href="#aK"/></mask><path fill="#223B98" mask="url(#aL)" d="M2.995 620.337L0 617.35 618.305 0v11.953L8.977 620.337z"/></g><g transform="translate(258.705 24.13)"><mask id="aN" fill="#fff"><use xlink:href="#aM"/></mask><path fill="#223B98" mask="url(#aN)" d="M2.985 596.635L0 593.641 591.005 0v11.983L8.948 596.635z"/></g><g transform="translate(283.107 48.57)"><mask id="aP" fill="#fff"><use xlink:href="#aO"/></mask><path fill="#223B98" mask="url(#aP)" d="M2.99 570.65L0 567.66 567.993 0v11.97L8.98 570.65z"/></g><g transform="translate(310.875 76.38)"><mask id="aR" fill="#fff"><use xlink:href="#aQ"/></mask><path fill="#223B98" mask="url(#aR)" d="M2.943 548.595L0 545.585 533.51 0v12.044L8.833 548.594z"/></g><g transform="translate(332.753 99.977)"><mask id="aT" fill="#fff"><use xlink:href="#aS"/></mask><path fill="#223B98" mask="url(#aT)" d="M3.018 515.48L0 512.514 521.342 0v11.874L9.057 515.48z"/></g><g transform="translate(359.679 124.417)"><mask id="aV" fill="#fff"><use xlink:href="#aU"/></mask><path fill="#223B98" mask="url(#aV)" d="M2.993 496.965L0 493.96 491.762 0v12.035L8.98 496.965z"/></g></g></g></svg>