<svg width="214" height="218" viewBox="0 0 214 218" xmlns="http://www.w3.org/2000/svg" xmlns:xlink="http://www.w3.org/1999/xlink"><title>Pattern</title><defs><path id="a" d="M0 0h280.289v298H0z"/><path d="M152.436.961A145.255 145.255 0 0 0 135.727 0C74.62 0 22.215 38.153 0 92.46h152.436V.961z" id="c"/><path d="M179.754 4.598A146.52 146.52 0 0 0 143.236 0C74.42 0 16.576 47.567 0 112.009h179.754V4.598z" id="e"/><path d="M202.548 11.084C185.266 3.94 166.338 0 146.496 0 70.986 0 8.725 57.055 0 130.641h202.548V11.084z" id="g"/><path d="M.013 149.154A145.44 145.44 0 0 1 0 147.171C0 65.89 66.083 0 147.603 0c27.685 0 53.59 7.6 75.732 20.821v128.333H.013z" id="i"/><path d="M1.58 170.761A151.03 151.03 0 0 1 0 148.923C0 66.675 66.282 0 148.046 0c36.475 0 69.869 13.268 95.672 35.268V170.76H1.58z" id="k"/><path d="M5.874 189.779C2.05 176.612 0 162.689 0 148.287 0 66.39 66.292 0 148.07 0c46.65 0 88.261 21.604 115.402 55.367v134.412H5.874z" id="m"/><path d="M13.202 210.212C4.722 191.483 0 170.681 0 148.772 0 66.608 66.425 0 148.367 0c60.287 0 112.177 36.056 135.392 87.835v121.878l-.225.5H13.202z" id="o"/><path d="M24.015 230.003C8.828 206.646 0 178.74 0 148.761 0 66.603 66.311 0 148.112 0c81.801 0 148.115 66.603 148.115 148.761 0 29.978-8.828 57.885-24.016 81.242H24.015z" id="q"/><path d="M39.413 250.334C14.951 223.744 0 188.164 0 149.07 0 66.74 66.311 0 148.112 0c81.801 0 148.115 66.741 148.115 149.07 0 39.094-14.952 74.675-39.414 101.264h-217.4z" id="s"/><path d="M61.73 268.702C24.345 241.79 0 197.866 0 148.253 0 66.376 66.311 0 148.112 0c81.801 0 148.115 66.376 148.115 148.253 0 49.613-24.346 93.536-61.732 120.45H61.73z" id="u"/><path d="M99.791 287.825C41.717 267.815 0 212.74 0 147.935 0 66.232 66.311 0 148.112 0c81.801 0 148.115 66.233 148.115 147.934 0 64.805-41.718 119.88-99.794 139.891H99.791z" id="w"/><path d="M0 148.436C0 230.417 66.311 296.88 148.112 296.88c81.801 0 148.115-66.464 148.115-148.445C296.227 66.457 229.913 0 148.112 0 66.311 0 0 66.457 0 148.436z" id="y"/><path d="M0 148.436C0 230.417 66.311 296.88 148.112 296.88c81.801 0 148.115-66.464 148.115-148.445C296.227 66.457 229.913 0 148.112 0 66.311 0 0 66.457 0 148.436z" id="A"/><path d="M0 148.436C0 230.417 66.311 296.88 148.112 296.88c81.801 0 148.115-66.464 148.115-148.445C296.227 66.457 229.913 0 148.112 0 66.311 0 0 66.457 0 148.436z" id="C"/><path d="M0 148.436C0 230.417 66.311 296.88 148.112 296.88c81.801 0 148.115-66.464 148.115-148.445C296.227 66.457 229.913 0 148.112 0 66.311 0 0 66.457 0 148.436z" id="E"/><path d="M0 148.436C0 230.417 66.311 296.88 148.112 296.88c81.801 0 148.115-66.464 148.115-148.445C296.227 66.457 229.913 0 148.112 0 66.311 0 0 66.457 0 148.436z" id="G"/><path d="M0 148.436C0 230.417 66.311 296.88 148.112 296.88c81.801 0 148.115-66.464 148.115-148.445C296.227 66.457 229.913 0 148.112 0 66.311 0 0 66.457 0 148.436z" id="I"/><path d="M0 148.436C0 230.417 66.311 296.88 148.112 296.88c81.801 0 148.115-66.464 148.115-148.445C296.227 66.457 229.913 0 148.112 0 66.311 0 0 66.457 0 148.436z" id="K"/><path d="M0 148.436C0 230.417 66.311 296.88 148.112 296.88c81.801 0 148.115-66.464 148.115-148.445C296.227 66.457 229.913 0 148.112 0 66.311 0 0 66.457 0 148.436z" id="M"/><path d="M0 148.436C0 230.417 66.311 296.88 148.112 296.88c81.801 0 148.115-66.464 148.115-148.445C296.227 66.457 229.913 0 148.112 0 66.311 0 0 66.457 0 148.436z" id="O"/><path d="M0 148.436C0 230.417 66.311 296.88 148.112 296.88c81.801 0 148.115-66.464 148.115-148.445C296.227 66.457 229.913 0 148.112 0 66.311 0 0 66.457 0 148.436z" id="Q"/><path d="M0 148.436C0 230.417 66.311 296.88 148.112 296.88c81.801 0 148.115-66.464 148.115-148.445C296.227 66.457 229.913 0 148.112 0 66.311 0 0 66.457 0 148.436z" id="S"/><path d="M0 148.436C0 230.417 66.311 296.88 148.112 296.88c81.801 0 148.115-66.464 148.115-148.445C296.227 66.457 229.913 0 148.112 0 66.311 0 0 66.457 0 148.436z" id="U"/><path d="M0 148.436C0 230.417 66.311 296.88 148.112 296.88c81.801 0 148.115-66.464 148.115-148.445C296.227 66.457 229.913 0 148.112 0 66.311 0 0 66.457 0 148.436z" id="W"/><path d="M0 148.436C0 230.417 66.311 296.88 148.112 296.88c81.801 0 148.115-66.464 148.115-148.445C296.227 66.457 229.913 0 148.112 0 66.311 0 0 66.457 0 148.436z" id="Y"/><path d="M0 148.436C0 230.417 66.311 296.88 148.112 296.88c81.801 0 148.115-66.464 148.115-148.445C296.227 66.457 229.913 0 148.112 0 66.311 0 0 66.457 0 148.436z" id="aa"/><path d="M0 148.436C0 230.417 66.311 296.88 148.112 296.88c81.801 0 148.115-66.464 148.115-148.445C296.227 66.457 229.913 0 148.112 0 66.311 0 0 66.457 0 148.436z" id="ac"/><path d="M0 148.436C0 230.417 66.311 296.88 148.112 296.88c81.801 0 148.115-66.464 148.115-148.445C296.227 66.457 229.913 0 148.112 0 66.311 0 0 66.457 0 148.436z" id="ae"/><path d="M0 148.436C0 230.417 66.311 296.88 148.112 296.88c81.801 0 148.115-66.464 148.115-148.445C296.227 66.457 229.913 0 148.112 0 66.311 0 0 66.457 0 148.436z" id="ag"/><path d="M0 148.436C0 230.417 66.311 296.88 148.112 296.88c81.801 0 148.115-66.464 148.115-148.445C296.227 66.457 229.913 0 148.112 0 66.311 0 0 66.457 0 148.436z" id="ai"/><path d="M0 148.436C0 230.417 66.311 296.88 148.112 296.88c81.801 0 148.115-66.464 148.115-148.445C296.227 66.457 229.913 0 148.112 0 66.311 0 0 66.457 0 148.436z" id="ak"/><path d="M0 148.436C0 230.417 66.311 296.88 148.112 296.88c81.801 0 148.115-66.464 148.115-148.445C296.227 66.457 229.913 0 148.112 0 66.311 0 0 66.457 0 148.436z" id="am"/><path d="M0 148.436C0 230.417 66.311 296.88 148.112 296.88c81.801 0 148.115-66.464 148.115-148.445C296.227 66.457 229.913 0 148.112 0 66.311 0 0 66.457 0 148.436z" id="ao"/><path d="M0 148.436C0 230.417 66.311 296.88 148.112 296.88c81.801 0 148.115-66.464 148.115-148.445C296.227 66.457 229.913 0 148.112 0 66.311 0 0 66.457 0 148.436z" id="aq"/><path d="M0 148.436C0 230.417 66.311 296.88 148.112 296.88c81.801 0 148.115-66.464 148.115-148.445C296.227 66.457 229.913 0 148.112 0 66.311 0 0 66.457 0 148.436z" id="as"/><path d="M0 148.436C0 230.417 66.311 296.88 148.112 296.88c81.801 0 148.115-66.464 148.115-148.445C296.227 66.457 229.913 0 148.112 0 66.311 0 0 66.457 0 148.436z" id="au"/><path d="M0 148.436C0 230.417 66.311 296.88 148.112 296.88c81.801 0 148.115-66.464 148.115-148.445C296.227 66.457 229.913 0 148.112 0 66.311 0 0 66.457 0 148.436z" id="aw"/><path d="M0 219.952c25.207 45.858 73.902 76.93 129.84 76.93 81.814 0 148.138-66.465 148.138-148.446C277.978 66.457 211.654 0 129.84 0 73.902 0 25.207 31.068 0 76.923v143.03z" id="ay"/><path d="M0 247.738c26.988 30.172 66.093 49.143 109.6 49.143 81.433 0 147.45-66.464 147.45-148.445C257.05 66.457 191.033 0 109.6 0 66.093 0 26.988 18.969 0 49.14v198.598z" id="aA"/><path d="M0 266.053c25.03 19.33 56.404 30.828 90.46 30.828 81.877 0 148.253-66.464 148.253-148.445C238.713 66.457 172.337 0 90.46 0 56.404 0 25.031 11.497 0 30.826v235.227z" id="aC"/><path d="M0 260.299c21.08 11.48 45.241 18.003 70.924 18.003 82.117 0 148.688-66.678 148.688-148.923 0-55.397-30.204-103.728-75.017-129.379H0v260.299z" id="aE"/><path d="M0 247.705c15.946 5.806 33.17 8.974 51.14 8.974 82.142 0 148.733-66.215 148.733-147.889 0-43.03-18.485-81.766-47.989-108.79H0v247.705z" id="aG"/><path d="M0 234.222a149.049 149.049 0 0 0 31.256 3.296c81.93 0 148.35-66.364 148.35-148.222 0-33.531-11.147-64.462-29.938-89.296H0v234.222z" id="aI"/><path d="M0 217.944c3.784.291 7.607.44 11.465.44 81.666 0 147.871-66.548 147.871-148.633 0-25.209-6.244-48.951-17.263-69.751H0v217.944z" id="aK"/><path d="M0 198.17c78.155-4.287 140.21-69.028 140.21-148.259 0-17.51-3.032-34.313-8.598-49.911H0v198.17z" id="aM"/><path d="M0 177.059c67.449-13.189 118.426-73.872 118.426-146.736 0-10.39-1.036-20.531-3.009-30.323H0v177.059z" id="aO"/><path d="M0 149.716C59.018 129.984 101.481 75.01 101.481 10.28c0-3.456-.12-6.884-.359-10.28H0v149.716z" id="aQ"/><path d="M0 123.468C45.396 100.104 77.253 53.934 80.606 0H0v123.468z" id="aS"/></defs><g transform="matrix(0 1 1 0 -24 -62.383)" fill="none" fill-rule="evenodd" opacity=".674"><mask id="b" fill="#fff"><use xlink:href="#a"/></mask><g opacity=".08" mask="url(#b)"><g transform="translate(74.927 -59.292)"><mask id="d" fill="#fff"><use xlink:href="#c"/></mask><path fill="#223B98" mask="url(#d)" d="M-263.847 92.653V83.2l409-418.756 2.308-2.362 4.621 4.728z"/></g><g transform="translate(69.034 -59.292)"><mask id="f" fill="#fff"><use xlink:href="#e"/></mask><path fill="#223B98" mask="url(#f)" d="M-258.609 111.997v-9.41l431.276-436.84 2.321-2.353 4.644 4.704z"/></g><g transform="translate(65.106 -59.292)"><mask id="h" fill="#fff"><use xlink:href="#g"/></mask><path fill="#223B98" mask="url(#h)" d="M-254.026 130.511v-9.319l449.562-452.189 2.318-2.328 4.629 4.656z"/></g><g transform="translate(63.142 -59.292)"><mask id="j" fill="#fff"><use xlink:href="#i"/></mask><path fill="#223B98" mask="url(#j)" d="M-252.717 149.547v-9.238l469.403-468.041 2.319-2.312 4.634 4.62z"/></g><g transform="translate(63.142 -59.292)"><mask id="l" fill="#fff"><use xlink:href="#k"/></mask><path fill="#223B98" mask="url(#l)" d="M-253.371 171.15v-9.348l490.528-493.444 2.326-2.34 4.645 4.677z"/></g><g transform="translate(63.142 -59.292)"><mask id="n" fill="#fff"><use xlink:href="#m"/></mask><path fill="#223B98" mask="url(#n)" d="M-253.371 190.052v-9.311L256.95-330.34l2.326-2.33 4.646 4.656z"/></g><g transform="translate(63.142 -59.292)"><mask id="p" fill="#fff"><use xlink:href="#o"/></mask><path fill="#223B98" mask="url(#p)" d="M-254.026 210.262v-9.342l531.103-532.567 2.328-2.334 4.658 4.668z"/></g><g transform="translate(63.142 -59.292)"><mask id="r" fill="#fff"><use xlink:href="#q"/></mask><path fill="#223B98" mask="url(#r)" d="M-253.371 230.028v-9.338l549.916-552.337 2.324-2.334 4.647 4.667z"/></g><g transform="translate(63.142 -59.292)"><mask id="t" fill="#fff"><use xlink:href="#s"/></mask><path fill="#223B98" mask="url(#t)" d="M-253.371 250.399v-9.36l569.638-573.335 2.323-2.341 4.65 4.68z"/></g><g transform="translate(63.142 -59.292)"><mask id="v" fill="#fff"><use xlink:href="#u"/></mask><path fill="#223B98" mask="url(#v)" d="M-253.371 268.9v-9.306l589.36-589.937 2.323-2.326 4.65 4.655z"/></g><g transform="translate(63.142 -59.292)"><mask id="x" fill="#fff"><use xlink:href="#w"/></mask><path fill="#223B98" mask="url(#x)" d="M-253.371 287.96v-9.29l609.08-608.362 2.327-2.32 4.647 4.64z"/></g><g transform="translate(63.142 -59.292)"><mask id="z" fill="#fff"><use xlink:href="#y"/></mask><path fill="#223B98" mask="url(#z)" d="M-253.371 308.518V299.2l628.805-630.196 2.324-2.329 4.647 4.66z"/></g><g transform="translate(63.142 -59.292)"><mask id="B" fill="#fff"><use xlink:href="#A"/></mask><path fill="#223B98" mask="url(#B)" d="M-253.371 328.286v-9.32l648.527-649.962 2.326-2.329 4.647 4.657z"/></g><g transform="translate(63.142 -59.292)"><mask id="D" fill="#fff"><use xlink:href="#C"/></mask><path fill="#223B98" mask="url(#D)" d="M-253.371 348.051v-9.32L414.88-330.997l2.324-2.329 4.65 4.657z"/></g><g transform="translate(63.142 -59.292)"><mask id="F" fill="#fff"><use xlink:href="#E"/></mask><path fill="#223B98" mask="url(#F)" d="M-253.371 367.82v-9.318l687.973-689.498 2.326-2.329 4.647 4.664z"/></g><g transform="translate(63.142 -59.292)"><mask id="H" fill="#fff"><use xlink:href="#G"/></mask><path fill="#223B98" mask="url(#H)" d="M-253.371 387.584v-9.32l707.694-709.26 2.33-2.329 4.647 4.657z"/></g><g transform="translate(63.142 -59.292)"><mask id="J" fill="#fff"><use xlink:href="#I"/></mask><path fill="#223B98" mask="url(#J)" d="M-253.371 407.35v-9.322l727.418-729.024 2.327-2.329 4.647 4.657z"/></g><g transform="translate(63.142 -59.292)"><mask id="L" fill="#fff"><use xlink:href="#K"/></mask><path fill="#223B98" mask="url(#L)" d="M-253.371 427.117V417.8l747.14-748.795 2.327-2.329 4.65 4.66z"/></g><g transform="translate(63.142 -59.292)"><mask id="N" fill="#fff"><use xlink:href="#M"/></mask><path fill="#223B98" mask="url(#N)" d="M-253.371 446.885v-9.32l766.864-768.561 2.324-2.329 4.65 4.657z"/></g><g transform="translate(63.142 -59.292)"><mask id="P" fill="#fff"><use xlink:href="#O"/></mask><path fill="#223B98" mask="url(#P)" d="M-253.371 466.65v-9.32l786.589-788.326 2.323-2.329 4.647 4.66z"/></g><g transform="translate(63.142 -59.292)"><mask id="R" fill="#fff"><use xlink:href="#Q"/></mask><path fill="#223B98" mask="url(#R)" d="M-253.371 486.415v-9.318l806.31-808.093 2.327-2.329 4.65 4.657z"/></g><g transform="translate(63.142 -59.292)"><mask id="T" fill="#fff"><use xlink:href="#S"/></mask><path fill="#223B98" mask="url(#T)" d="M-253.371 506.183v-9.32l826.032-827.86 2.326-2.328 4.65 4.657z"/></g><g transform="translate(63.142 -59.292)"><mask id="V" fill="#fff"><use xlink:href="#U"/></mask><path fill="#223B98" mask="url(#V)" d="M-253.371 516.63l845.756-847.626 2.327-2.329 3.038 3.051v3.222L-253.37 525.95z"/></g><g transform="translate(63.142 -59.292)"><mask id="X" fill="#fff"><use xlink:href="#W"/></mask><path fill="#223B98" mask="url(#X)" d="M-253.371 543.008v-6.273l851.121-853v9.314l-848.08 849.96z"/></g><g transform="translate(63.142 -59.292)"><mask id="Z" fill="#fff"><use xlink:href="#Y"/></mask><path fill="#223B98" mask="url(#Z)" d="M-235.335 542.928l-2.323-2.329L597.67-296.58v9.321l-828.359 830.188z"/></g><g transform="translate(63.142 -59.292)"><mask id="ab" fill="#fff"><use xlink:href="#aa"/></mask><path fill="#223B98" mask="url(#ab)" d="M-215.69 542.847l-2.327-2.328 815.614-817.415v9.32l-808.64 810.423z"/></g><g transform="translate(63.142 -59.292)"><mask id="ad" fill="#fff"><use xlink:href="#ac"/></mask><path fill="#223B98" mask="url(#ad)" d="M-196.05 542.764l-2.326-2.329L597.51-257.21v9.317l-788.912 790.658z"/></g><g transform="translate(63.142 -59.292)"><mask id="af" fill="#fff"><use xlink:href="#ae"/></mask><path fill="#223B98" mask="url(#af)" d="M-176.411 542.683l-2.324-2.328L597.43-237.527v9.32l-769.194 770.89z"/></g><g transform="translate(63.142 -59.292)"><mask id="ah" fill="#fff"><use xlink:href="#ag"/></mask><path fill="#223B98" mask="url(#ah)" d="M-156.767 542.603l-2.327-2.329 756.44-758.116v9.32L-152.12 542.603z"/></g><g transform="translate(63.142 -59.292)"><mask id="aj" fill="#fff"><use xlink:href="#ai"/></mask><path fill="#223B98" mask="url(#aj)" d="M-137.126 542.516l-2.326-2.328 736.719-738.346v9.315l-729.746 731.36z"/></g><g transform="translate(63.142 -59.292)"><mask id="al" fill="#fff"><use xlink:href="#ak"/></mask><path fill="#223B98" mask="url(#al)" d="M-116.83 543.095l-2.327-2.328 717.001-718.584v9.32l-710.027 711.592z"/></g><g transform="translate(63.142 -59.292)"><mask id="an" fill="#fff"><use xlink:href="#am"/></mask><path fill="#223B98" mask="url(#an)" d="M-97.189 543.015l-2.326-2.329 697.273-698.819v9.321l-690.3 691.827z"/></g><g transform="translate(63.142 -59.292)"><mask id="ap" fill="#fff"><use xlink:href="#ao"/></mask><path fill="#223B98" mask="url(#ap)" d="M-77.554 542.931l-2.32-2.328 677.552-679.051v9.32l-670.582 672.06z"/></g><g transform="translate(63.142 -59.292)"><mask id="ar" fill="#fff"><use xlink:href="#aq"/></mask><path fill="#223B98" mask="url(#ar)" d="M-57.906 542.85l-2.327-2.328 657.827-659.285v9.32L-53.259 542.851z"/></g><g transform="translate(63.142 -59.292)"><mask id="at" fill="#fff"><use xlink:href="#as"/></mask><path fill="#223B98" mask="url(#at)" d="M-38.268 542.767l-2.324-2.328L597.511-99.08v9.318L-33.62 542.767z"/></g><g transform="translate(63.142 -59.292)"><mask id="av" fill="#fff"><use xlink:href="#au"/></mask><path fill="#223B98" mask="url(#av)" d="M-18.627 542.684l-2.324-2.329 618.382-619.75v9.318L-13.98 542.683z"/></g><g transform="translate(63.142 -59.292)"><mask id="ax" fill="#fff"><use xlink:href="#aw"/></mask><path fill="#223B98" mask="url(#ax)" d="M1.017 542.603l-2.326-2.328L597.354-59.71v9.321L5.664 542.603z"/></g><g transform="translate(81.474 -59.292)"><mask id="az" fill="#fff"><use xlink:href="#ay"/></mask><path fill="#223B98" mask="url(#az)" d="M2.327 542.52L0 540.19 579.025-40.025v9.32L6.975 542.52z"/></g><g transform="translate(102.424 -59.292)"><mask id="aB" fill="#fff"><use xlink:href="#aA"/></mask><path fill="#223B98" mask="url(#aB)" d="M2.31 543.096L0 540.767 556.702-19.685v9.318L6.939 543.096z"/></g><g transform="translate(120.756 -59.292)"><mask id="aD" fill="#fff"><use xlink:href="#aC"/></mask><path fill="#223B98" mask="url(#aD)" d="M2.326 543.012L0 540.683 539.995 0v9.318L6.98 543.012z"/></g><g transform="translate(139.743 -40.92)"><mask id="aF" fill="#fff"><use xlink:href="#aE"/></mask><path fill="#223B98" mask="url(#aF)" d="M2.332 524.93L0 522.594 521.778 0v9.35L7.001 524.93z"/></g><g transform="translate(160.039 -19.267)"><mask id="aH" fill="#fff"><use xlink:href="#aG"/></mask><path fill="#223B98" mask="url(#aH)" d="M2.333 501.596L0 499.276 502.129 0v9.286L6.999 501.596z"/></g><g transform="translate(180.335 .418)"><mask id="aJ" fill="#fff"><use xlink:href="#aI"/></mask><path fill="#223B98" mask="url(#aJ)" d="M2.33 482.985L0 480.66 481.083 0v9.307L6.985 482.985z"/></g><g transform="translate(200.63 19.446)"><mask id="aL" fill="#fff"><use xlink:href="#aK"/></mask><path fill="#223B98" mask="url(#aL)" d="M2.323 464.532L0 462.2 459.842 0v9.33L6.962 464.531z"/></g><g transform="translate(219.617 38.475)"><mask id="aN" fill="#fff"><use xlink:href="#aM"/></mask><path fill="#223B98" mask="url(#aN)" d="M2.326 444.3L0 441.972 441.937 0v9.32L6.987 444.3z"/></g><g transform="translate(241.222 60.128)"><mask id="aP" fill="#fff"><use xlink:href="#aO"/></mask><path fill="#223B98" mask="url(#aP)" d="M2.29 427.128L0 424.785 415.106 0v9.377L6.873 427.128z"/></g><g transform="translate(258.245 78.5)"><mask id="aR" fill="#fff"><use xlink:href="#aQ"/></mask><path fill="#223B98" mask="url(#aR)" d="M2.348 401.346L0 399.036 405.64 0v9.245L7.047 401.345z"/></g><g transform="translate(279.195 97.528)"><mask id="aT" fill="#fff"><use xlink:href="#aS"/></mask><path fill="#223B98" mask="url(#aT)" d="M2.33 386.93L0 384.59 382.624 0v9.37L6.987 386.93z"/></g></g></g></svg>