<svg width="227" height="249" viewBox="0 0 227 249" xmlns="http://www.w3.org/2000/svg" xmlns:xlink="http://www.w3.org/1999/xlink"><title>Pattern</title><defs><path d="M195.107 5.218a155.466 155.466 0 0 0-39.631-5.11C80.796.108 18.02 52.976.03 124.6h195.077V5.218z" id="a"/><path d="M220.444 12.295C201.65 4.428 181.065.09 159.486.09 77.366.09 9.656 62.914.166 143.94h220.278V12.295z" id="c"/><path d="M.33 166.647c-.01-.737-.015-1.475-.015-2.215C.315 73.666 72.395.084 161.312.084c30.198 0 58.454 8.487 82.604 23.252v143.311H.33z" id="e"/><path d="M2.054 188.699a167.704 167.704 0 0 1-1.736-24.12C.318 73.739 73.126.099 162.941.099c40.065 0 76.747 14.654 105.091 38.952v149.648H2.054z" id="g"/><path d="M6.735 210.423C2.558 195.831.319 180.4.319 164.438.32 73.675 72.726.095 162.046.095 213 .095 258.45 24.04 288.093 61.457v148.966H6.735z" id="i"/><path d="M14.72 231.28C5.472 210.684.321 187.806.321 163.71.321 73.349 72.77.096 162.141.096c65.755 0 122.35 39.653 147.67 96.599V230.73c-.08.184-.163.367-.245.55H14.72z" id="k"/><path d="M26.525 253.485C9.952 227.754.319 197.01.319 163.983.319 73.472 72.679.098 161.944.098c89.264 0 161.628 73.374 161.628 163.885 0 33.026-9.634 63.77-26.207 89.502H26.525z" id="m"/><path d="M43.328 276.036C16.634 246.728.319 207.508.319 164.416.319 73.665 72.679.1 161.944.1c89.264 0 161.628 73.567 161.628 164.315 0 43.093-16.316 82.313-43.01 111.621H43.328z" id="o"/><path d="M67.68 298.664C26.886 268.76.32 219.954.32 164.825.319 73.845 72.679.091 161.944.091c89.264 0 161.628 73.755 161.628 164.734 0 55.128-26.567 103.934-67.364 133.84H67.681z" id="q"/><path d="M109.214 319.522C45.842 297.314.32 236.19.32 164.269.319 73.596 72.679.091 161.944.091c89.264 0 161.628 73.505 161.628 164.178 0 71.921-45.525 133.045-108.899 155.253H109.214z" id="s"/><path d="M.319 164.42c0 90.758 72.36 164.337 161.625 164.337 89.264 0 161.628-73.579 161.628-164.337C323.572 73.666 251.208.094 161.944.094 72.68.094.319 73.666.319 164.42z" id="u"/><path d="M.319 164.42c0 90.758 72.36 164.337 161.625 164.337 89.264 0 161.628-73.579 161.628-164.337C323.572 73.666 251.208.094 161.944.094 72.68.094.319 73.666.319 164.42z" id="w"/><path d="M.319 164.42c0 90.758 72.36 164.337 161.625 164.337 89.264 0 161.628-73.579 161.628-164.337C323.572 73.666 251.208.094 161.944.094 72.68.094.319 73.666.319 164.42z" id="y"/><path d="M.319 164.42c0 90.758 72.36 164.337 161.625 164.337 89.264 0 161.628-73.579 161.628-164.337C323.572 73.666 251.208.094 161.944.094 72.68.094.319 73.666.319 164.42z" id="A"/><path d="M.319 164.42c0 90.758 72.36 164.337 161.625 164.337 89.264 0 161.628-73.579 161.628-164.337C323.572 73.666 251.208.094 161.944.094 72.68.094.319 73.666.319 164.42z" id="C"/><path d="M.319 164.42c0 90.758 72.36 164.337 161.625 164.337 89.264 0 161.628-73.579 161.628-164.337C323.572 73.666 251.208.094 161.944.094 72.68.094.319 73.666.319 164.42z" id="E"/><path d="M.319 164.42c0 90.758 72.36 164.337 161.625 164.337 89.264 0 161.628-73.579 161.628-164.337C323.572 73.666 251.208.094 161.944.094 72.68.094.319 73.666.319 164.42z" id="G"/><path d="M.319 164.42c0 90.758 72.36 164.337 161.625 164.337 89.264 0 161.628-73.579 161.628-164.337C323.572 73.666 251.208.094 161.944.094 72.68.094.319 73.666.319 164.42z" id="I"/><path d="M.319 164.42c0 90.758 72.36 164.337 161.625 164.337 89.264 0 161.628-73.579 161.628-164.337C323.572 73.666 251.208.094 161.944.094 72.68.094.319 73.666.319 164.42z" id="K"/><path d="M.319 164.42c0 90.758 72.36 164.337 161.625 164.337 89.264 0 161.628-73.579 161.628-164.337C323.572 73.666 251.208.094 161.944.094 72.68.094.319 73.666.319 164.42z" id="M"/><path d="M.319 164.42c0 90.758 72.36 164.337 161.625 164.337 89.264 0 161.628-73.579 161.628-164.337C323.572 73.666 251.208.094 161.944.094 72.68.094.319 73.666.319 164.42z" id="O"/><path d="M.319 164.42c0 90.758 72.36 164.337 161.625 164.337 89.264 0 161.628-73.579 161.628-164.337C323.572 73.666 251.208.094 161.944.094 72.68.094.319 73.666.319 164.42z" id="Q"/><path d="M.319 164.42c0 90.758 72.36 164.337 161.625 164.337 89.264 0 161.628-73.579 161.628-164.337C323.572 73.666 251.208.094 161.944.094 72.68.094.319 73.666.319 164.42z" id="S"/><path d="M.319 164.42c0 90.758 72.36 164.337 161.625 164.337 89.264 0 161.628-73.579 161.628-164.337C323.572 73.666 251.208.094 161.944.094 72.68.094.319 73.666.319 164.42z" id="U"/><path d="M.319 164.42c0 90.758 72.36 164.337 161.625 164.337 89.264 0 161.628-73.579 161.628-164.337C323.572 73.666 251.208.094 161.944.094 72.68.094.319 73.666.319 164.42z" id="W"/><path d="M.319 164.42c0 90.758 72.36 164.337 161.625 164.337 89.264 0 161.628-73.579 161.628-164.337C323.572 73.666 251.208.094 161.944.094 72.68.094.319 73.666.319 164.42z" id="Y"/><path d="M.319 164.42c0 90.758 72.36 164.337 161.625 164.337 89.264 0 161.628-73.579 161.628-164.337C323.572 73.666 251.208.094 161.944.094 72.68.094.319 73.666.319 164.42z" id="aa"/><path d="M.319 164.42c0 90.758 72.36 164.337 161.625 164.337 89.264 0 161.628-73.579 161.628-164.337C323.572 73.666 251.208.094 161.944.094 72.68.094.319 73.666.319 164.42z" id="ac"/><path d="M.319 164.42c0 90.758 72.36 164.337 161.625 164.337 89.264 0 161.628-73.579 161.628-164.337C323.572 73.666 251.208.094 161.944.094 72.68.094.319 73.666.319 164.42z" id="ae"/><path d="M.319 164.42c0 90.758 72.36 164.337 161.625 164.337 89.264 0 161.628-73.579 161.628-164.337C323.572 73.666 251.208.094 161.944.094 72.68.094.319 73.666.319 164.42z" id="ag"/><path d="M.319 164.42c0 90.758 72.36 164.337 161.625 164.337 89.264 0 161.628-73.579 161.628-164.337C323.572 73.666 251.208.094 161.944.094 72.68.094.319 73.666.319 164.42z" id="ai"/><path d="M.319 164.42c0 90.758 72.36 164.337 161.625 164.337 89.264 0 161.628-73.579 161.628-164.337C323.572 73.666 251.208.094 161.944.094 72.68.094.319 73.666.319 164.42z" id="ak"/><path d="M.319 164.42c0 90.758 72.36 164.337 161.625 164.337 89.264 0 161.628-73.579 161.628-164.337C323.572 73.666 251.208.094 161.944.094 72.68.094.319 73.666.319 164.42z" id="am"/><path d="M.319 164.42c0 90.758 72.36 164.337 161.625 164.337 89.264 0 161.628-73.579 161.628-164.337C323.572 73.666 251.208.094 161.944.094 72.68.094.319 73.666.319 164.42z" id="ao"/><path d="M.319 164.42c0 90.758 72.36 164.337 161.625 164.337 89.264 0 161.628-73.579 161.628-164.337C323.572 73.666 251.208.094 161.944.094 72.68.094.319 73.666.319 164.42z" id="aq"/><path d="M.319 164.42c0 90.758 72.36 164.337 161.625 164.337 89.264 0 161.628-73.579 161.628-164.337C323.572 73.666 251.208.094 161.944.094 72.68.094.319 73.666.319 164.42z" id="as"/><path d="M.035 243.593c27.482 50.767 80.574 85.164 141.561 85.164 89.198 0 161.509-73.579 161.509-164.337 0-90.754-72.31-164.326-161.509-164.326C80.61.094 27.517 34.488.036 85.252v158.34z" id="au"/><path d="M.21 274.352c29.578 33.403 72.434 54.405 120.115 54.405 89.245 0 161.595-73.579 161.595-164.337C281.92 73.666 209.57.094 120.325.094c-47.68 0-90.537 21-120.115 54.4v219.858z" id="aw"/><path d="M.209 294.628c27.261 21.4 61.43 34.129 98.52 34.129 89.173 0 161.464-73.579 161.464-164.337C260.193 73.666 187.903.094 98.73.094 61.639.094 27.47 12.82.209 34.219v260.41z" id="ay"/><path d="M.33 288.996c23.062 12.732 49.495 19.965 77.591 19.965 89.837 0 162.665-73.946 162.665-165.157 0-61.436-33.043-115.036-82.069-143.483H.331v288.675z" id="aA"/><path d="M.237 272.863c17.325 6.389 36.04 9.875 55.563 9.875 89.245 0 161.595-72.86 161.595-162.733 0-47.348-20.083-89.974-52.139-119.71H.237v272.568z" id="aC"/><path d="M.41 260.658a158.153 158.153 0 0 0 33.92 3.662c88.914 0 160.994-73.729 160.994-164.672 0-37.253-12.096-71.616-32.49-99.207H.41v260.217z" id="aE"/><path d="M.383 242.531c4.102.325 8.247.49 12.43.49 88.544 0 160.324-74.05 160.324-165.39 0-28.052-6.77-54.471-18.717-77.616H.383v242.516z" id="aG"/><path d="M.531 219.648c85.28-4.74 152.993-76.326 152.993-163.933 0-19.361-3.308-37.94-9.382-55.187H.531v219.12z" id="aI"/><path d="M.04 195.245c74.356-14.504 130.554-81.241 130.554-161.374A168.32 168.32 0 0 0 127.277.523H.04v194.722z" id="aK"/><path d="M.624 166.375c63.381-21.844 108.984-82.702 108.984-154.357 0-3.825-.13-7.62-.386-11.38H.624v165.737z" id="aM"/><path d="M.6 137.322C49.796 111.369 84.317 60.084 87.95.173H.6v137.149z" id="aO"/></defs><g fill="none" fill-rule="evenodd" opacity=".126"><g transform="rotate(-90 70.1 172.1)"><mask id="b" fill="#fff"><use xlink:href="#a"/></mask><path fill="#FFF" mask="url(#b)" d="M-280.491 124.6v-10.459L187.547-371.39l2.52-2.614 5.04 5.228z"/></g><g transform="rotate(-90 72.82 174.82)"><mask id="d" fill="#fff"><use xlink:href="#c"/></mask><path fill="#FFF" mask="url(#d)" d="M-276.025 143.94v-10.26L212.89-364.23l2.52-2.563 5.035 5.127z"/></g><g transform="rotate(-90 73.5 175.5)"><mask id="f" fill="#fff"><use xlink:href="#e"/></mask><path fill="#FFF" mask="url(#f)" d="M-275.667 166.647V156.33l512-522.67 2.529-2.581 5.054 5.16z"/></g><g transform="rotate(-90 73.5 175.5)"><mask id="h" fill="#fff"><use xlink:href="#g"/></mask><path fill="#FFF" mask="url(#h)" d="M-278.45 188.699v-10.325l538.825-544.992 2.555-2.583 5.102 5.164z"/></g><g transform="rotate(-90 73.5 175.5)"><mask id="j" fill="#fff"><use xlink:href="#i"/></mask><path fill="#FFF" mask="url(#j)" d="M-276.913 210.423v-10.32l557.392-566.418 2.54-2.582 5.074 5.16z"/></g><g transform="rotate(-90 73.5 175.5)"><mask id="l" fill="#fff"><use xlink:href="#k"/></mask><path fill="#FFF" mask="url(#l)" d="M-277.072 231.28v-10.273l579.265-585.704 2.538-2.567 5.08 5.133z"/></g><g transform="rotate(-90 73.5 175.5)"><mask id="n" fill="#fff"><use xlink:href="#m"/></mask><path fill="#FFF" mask="url(#n)" d="M-276.738 253.485v-10.287l600.087-608.494 2.536-2.57 5.07 5.141z"/></g><g transform="rotate(-90 73.5 175.5)"><mask id="p" fill="#fff"><use xlink:href="#o"/></mask><path fill="#FFF" mask="url(#p)" d="M-276.738 276.036v-10.318l621.608-631.97 2.536-2.582 5.074 5.159z"/></g><g transform="rotate(-90 73.5 175.5)"><mask id="r" fill="#fff"><use xlink:href="#q"/></mask><path fill="#FFF" mask="url(#r)" d="M-276.738 298.664v-10.34l643.129-655.52 2.535-2.584 5.075 5.172z"/></g><g transform="rotate(-90 73.5 175.5)"><mask id="t" fill="#fff"><use xlink:href="#s"/></mask><path fill="#FFF" mask="url(#t)" d="M-276.738 319.522v-10.31l664.65-675.165 2.538-2.576 5.071 5.151z"/></g><g transform="rotate(-90 73.5 175.5)"><mask id="v" fill="#fff"><use xlink:href="#u"/></mask><path fill="#FFF" mask="url(#v)" d="M-276.738 341.694v-10.315l686.173-697.661 2.536-2.578 5.07 5.159z"/></g><g transform="rotate(-90 73.5 175.5)"><mask id="x" fill="#fff"><use xlink:href="#w"/></mask><path fill="#FFF" mask="url(#x)" d="M-276.738 363.579V353.26l707.694-719.542 2.539-2.578 5.071 5.156z"/></g><g transform="rotate(-90 73.5 175.5)"><mask id="z" fill="#fff"><use xlink:href="#y"/></mask><path fill="#FFF" mask="url(#z)" d="M-276.738 385.46v-10.318L452.48-366.281l2.536-2.578 5.074 5.156z"/></g><g transform="rotate(-90 73.5 175.5)"><mask id="B" fill="#fff"><use xlink:href="#A"/></mask><path fill="#FFF" mask="url(#B)" d="M-276.738 407.342v-10.315L474-366.284l2.539-2.578 5.07 5.163z"/></g><g transform="rotate(-90 73.5 175.5)"><mask id="D" fill="#fff"><use xlink:href="#C"/></mask><path fill="#FFF" mask="url(#D)" d="M-276.738 429.225v-10.319l772.26-785.188 2.542-2.578 5.07 5.156z"/></g><g transform="rotate(-90 73.5 175.5)"><mask id="F" fill="#fff"><use xlink:href="#E"/></mask><path fill="#FFF" mask="url(#F)" d="M-276.738 451.108v-10.319L517.046-366.28l2.539-2.577 5.07 5.155z"/></g><g transform="rotate(-90 73.5 175.5)"><mask id="H" fill="#fff"><use xlink:href="#G"/></mask><path fill="#FFF" mask="url(#H)" d="M-276.738 472.99v-10.316l815.304-828.957 2.54-2.578 5.074 5.16z"/></g><g transform="rotate(-90 73.5 175.5)"><mask id="J" fill="#fff"><use xlink:href="#I"/></mask><path fill="#FFF" mask="url(#J)" d="M-276.738 494.874v-10.319L560.09-366.282l2.536-2.578 5.074 5.156z"/></g><g transform="rotate(-90 73.5 175.5)"><mask id="L" fill="#fff"><use xlink:href="#K"/></mask><path fill="#FFF" mask="url(#L)" d="M-276.738 516.754v-10.32l858.352-872.717 2.536-2.578 5.07 5.159z"/></g><g transform="rotate(-90 73.5 175.5)"><mask id="N" fill="#fff"><use xlink:href="#M"/></mask><path fill="#FFF" mask="url(#N)" d="M-276.738 538.637v-10.315l879.873-894.603 2.539-2.578 5.074 5.156z"/></g><g transform="rotate(-90 73.5 175.5)"><mask id="P" fill="#fff"><use xlink:href="#O"/></mask><path fill="#FFF" mask="url(#P)" d="M-276.738 560.52V550.2l901.394-916.483 2.539-2.578 5.074 5.156z"/></g><g transform="rotate(-90 73.5 175.5)"><mask id="R" fill="#fff"><use xlink:href="#Q"/></mask><path fill="#FFF" mask="url(#R)" d="M-276.738 572.084L646.18-366.284l2.539-2.578 3.315 3.378v3.567l-928.772 944.32z"/></g><g transform="rotate(-90 73.5 175.5)"><mask id="T" fill="#fff"><use xlink:href="#S"/></mask><path fill="#FFF" mask="url(#T)" d="M-276.738 600.912v-6.944l928.772-944.317v10.312l-925.453 940.95z"/></g><g transform="rotate(-90 73.5 175.5)"><mask id="V" fill="#fff"><use xlink:href="#U"/></mask><path fill="#FFF" mask="url(#V)" d="M-256.972 600.912l-2.535-2.578 911.54-926.802v10.319l-903.934 919.061z"/></g><g transform="rotate(-90 73.5 175.5)"><mask id="X" fill="#fff"><use xlink:href="#W"/></mask><path fill="#FFF" mask="url(#X)" d="M-235.449 600.912l-2.539-2.578 890.026-904.92v10.318l-882.416 897.18z"/></g><g transform="rotate(-90 73.5 175.5)"><mask id="Z" fill="#fff"><use xlink:href="#Y"/></mask><path fill="#FFF" mask="url(#Z)" d="M-213.926 600.912l-2.539-2.578 868.498-883.037v10.316l-860.888 875.3z"/></g><g transform="rotate(-90 73.5 175.5)"><mask id="ab" fill="#fff"><use xlink:href="#aa"/></mask><path fill="#FFF" mask="url(#ab)" d="M-192.405 600.912l-2.535-2.578 846.977-861.156v10.319l-839.37 853.415z"/></g><g transform="rotate(-90 73.5 175.5)"><mask id="ad" fill="#fff"><use xlink:href="#ac"/></mask><path fill="#FFF" mask="url(#ad)" d="M-170.882 600.912l-2.539-2.578L652.032-240.94v10.319L-165.81 600.912z"/></g><g transform="rotate(-90 73.5 175.5)"><mask id="af" fill="#fff"><use xlink:href="#ae"/></mask><path fill="#FFF" mask="url(#af)" d="M-149.359 600.912l-2.539-2.578 803.933-817.387v10.312l-796.323 809.653z"/></g><g transform="rotate(-90 73.5 175.5)"><mask id="ah" fill="#fff"><use xlink:href="#ag"/></mask><path fill="#FFF" mask="url(#ah)" d="M-127.84 600.912l-2.538-2.578 782.415-795.51v10.319l-774.806 787.77z"/></g><g transform="rotate(-90 73.5 175.5)"><mask id="aj" fill="#fff"><use xlink:href="#ai"/></mask><path fill="#FFF" mask="url(#aj)" d="M-106.317 600.912l-2.538-2.578 760.887-773.629v10.319l-753.278 765.888z"/></g><g transform="rotate(-90 73.5 175.5)"><mask id="al" fill="#fff"><use xlink:href="#ak"/></mask><path fill="#FFF" mask="url(#al)" d="M-84.797 600.912l-2.532-2.578L652.038-153.41v10.32l-731.76 744.003z"/></g><g transform="rotate(-90 73.5 175.5)"><mask id="an" fill="#fff"><use xlink:href="#am"/></mask><path fill="#FFF" mask="url(#an)" d="M-63.27 600.912l-2.54-2.578L652.033-131.53v10.319L-58.2 600.912z"/></g><g transform="rotate(-90 73.5 175.5)"><mask id="ap" fill="#fff"><use xlink:href="#ao"/></mask><path fill="#FFF" mask="url(#ap)" d="M-41.751 600.912l-2.536-2.578 696.32-707.98v10.316l-688.71 700.242z"/></g><g transform="rotate(-90 73.5 175.5)"><mask id="ar" fill="#fff"><use xlink:href="#aq"/></mask><path fill="#FFF" mask="url(#ar)" d="M-20.228 600.912l-2.536-2.578L652.034-87.76v10.315L-15.157 600.912z"/></g><g transform="rotate(-90 73.5 175.5)"><mask id="at" fill="#fff"><use xlink:href="#as"/></mask><path fill="#FFF" mask="url(#at)" d="M1.294 600.912l-2.539-2.578L652.037-65.88v10.318L6.365 600.912z"/></g><g transform="rotate(-90 62.801 164.801)"><mask id="av" fill="#fff"><use xlink:href="#au"/></mask><path fill="#FFF" mask="url(#av)" d="M2.572 600.912l-2.537-2.578 631.29-642.33v10.319L7.64 600.913z"/></g><g transform="rotate(-90 52.423 154.423)"><mask id="ax" fill="#fff"><use xlink:href="#aw"/></mask><path fill="#FFF" mask="url(#ax)" d="M2.742 600.912L.21 598.334l610.11-620.45V-11.8L7.814 600.912z"/></g><g transform="rotate(-90 41.544 143.544)"><mask id="az" fill="#fff"><use xlink:href="#ay"/></mask><path fill="#FFF" mask="url(#az)" d="M2.742 600.912l-2.533-2.578L588.322-.23v10.315L7.812 600.912z"/></g><g transform="rotate(-90 42.395 123.656)"><mask id="aB" fill="#fff"><use xlink:href="#aA"/></mask><path fill="#FFF" mask="url(#aB)" d="M2.882 582.475l-2.551-2.591L571.156.321v10.37L7.99 582.475z"/></g><g transform="rotate(-90 42.768 100.525)"><mask id="aD" fill="#fff"><use xlink:href="#aC"/></mask><path fill="#FFF" mask="url(#aD)" d="M2.772 552.238l-2.535-2.552L545.79.296v10.217L7.842 552.238z"/></g><g transform="rotate(-90 42.759 79.777)"><mask id="aF" fill="#fff"><use xlink:href="#aE"/></mask><path fill="#FFF" mask="url(#aF)" d="M2.938 537.03L.41 534.447 522.501.441v10.34L7.989 537.031z"/></g><g transform="rotate(-90 41.558 57.86)"><mask id="aH" fill="#fff"><use xlink:href="#aG"/></mask><path fill="#FFF" mask="url(#aH)" d="M2.901 516.922l-2.518-2.595L498.95.015v10.381L7.931 516.922z"/></g><g transform="rotate(-90 42.42 37.96)"><mask id="aJ" fill="#fff"><use xlink:href="#aI"/></mask><path fill="#FFF" mask="url(#aJ)" d="M3.069 491.798l-2.538-2.575L482.759.528v10.305L8.155 491.798z"/></g><g transform="rotate(-90 43.316 12.587)"><mask id="aL" fill="#fff"><use xlink:href="#aK"/></mask><path fill="#FFF" mask="url(#aL)" d="M2.564 470.26L.04 467.685 457.658.524v10.312L7.617 470.261z"/></g><g transform="rotate(-90 42.796 -7.29)"><mask id="aN" fill="#fff"><use xlink:href="#aM"/></mask><path fill="#FFF" mask="url(#aN)" d="M3.145 444.93l-2.521-2.556L436.254.638v10.234L8.19 444.93z"/></g><g transform="rotate(-90 42.978 -29.229)"><mask id="aP" fill="#fff"><use xlink:href="#aO"/></mask><path fill="#FFF" mask="url(#aP)" d="M3.125 429.976l-2.524-2.6L415.235.173v10.409L8.173 429.976z"/></g></g></svg>