<svg width="389" height="396" viewBox="0 0 389 396" xmlns="http://www.w3.org/2000/svg" xmlns:xlink="http://www.w3.org/1999/xlink"><title>bg_pattern_circle_dark</title><defs><path d="M64.931.19A194.822 194.822 0 0 0 .1 33.535h64.831V.189z" id="a"/><path d="M117.203.832C70.756 8.105 29.766 32.303.451 67.07h116.752V.832z" id="c"/><path d="M162.479.148C93.756 1.52 33.778 39.994.329 97.092h162.15V.148z" id="e"/><path d="M199.312 1.392a189.135 189.135 0 0 0-21.79-1.255C97.824.137 29.481 49.975.508 120.917h198.803V1.391z" id="g"/><path d="M234.037 6.281A185.866 185.866 0 0 0 186.498.13C96.917.13 21.615 63.772.036 149.993h234V6.281z" id="i"/><path d="M264.43 14.8C241.886 5.33 217.194.11 191.31.11 92.803.109 11.582 75.735.2 173.274h264.23V14.8z" id="k"/><path d="M.395 200.608c-.012-.887-.017-1.776-.017-2.666C.378 88.678 86.84.102 193.499.102c36.224 0 70.118 10.216 99.087 27.99v172.516H.395z" id="m"/><path d="M2.464 227.153A202.583 202.583 0 0 1 .38 198.118c0-109.351 87.336-198 195.072-198 48.06 0 92.06 17.641 126.06 46.891v180.144H2.463z" id="o"/><path d="M8.079 253.305C3.069 235.739.383 217.163.383 197.949.383 88.689 87.237.115 194.38.115c61.12 0 115.638 28.823 151.197 73.866v179.324H8.08z" id="q"/><path d="M17.657 278.413C6.563 253.618.385 226.077.385 197.073.385 88.296 87.29.113 194.495.113c78.874 0 146.762 47.735 177.134 116.286v161.353l-.294.661H17.657z" id="s"/><path d="M31.818 305.143C11.938 274.167.383 237.157.383 197.4.383 88.445 87.182.117 194.257.117c107.075 0 193.878 88.328 193.878 197.284 0 39.756-11.556 76.766-31.436 107.742H31.818z" id="u"/><path d="M51.973 332.289C19.953 297.008.383 249.796.383 197.921.383 88.68 87.182.12 194.257.12c107.075 0 193.878 88.56 193.878 197.801 0 51.875-19.571 99.087-51.592 134.368H51.973z" id="w"/><path d="M81.185 359.529C32.25 323.529.383 264.777.383 198.415.383 88.895 87.182.11 194.257.11c107.075 0 193.878 88.784 193.878 198.305 0 66.362-31.868 125.114-80.805 161.114H81.185z" id="y"/><path d="M131.006 384.637C54.99 357.903.383 284.323.383 197.746.383 88.595 87.182.109 194.257.109c107.075 0 193.878 88.486 193.878 197.637 0 86.577-54.608 160.157-130.627 186.891H131.006z" id="A"/><path d="M.383 197.927c0 109.253 86.799 197.827 193.874 197.827 107.075 0 193.878-88.574 193.878-197.827C388.135 88.677 301.332.113 194.257.113 87.182.113.383 88.678.383 197.927z" id="C"/><path d="M.383 197.927c0 109.253 86.799 197.827 193.874 197.827 107.075 0 193.878-88.574 193.878-197.827C388.135 88.677 301.332.113 194.257.113 87.182.113.383 88.678.383 197.927z" id="E"/><path d="M.383 197.927c0 109.253 86.799 197.827 193.874 197.827 107.075 0 193.878-88.574 193.878-197.827C388.135 88.677 301.332.113 194.257.113 87.182.113.383 88.678.383 197.927z" id="G"/><path d="M.383 197.927c0 109.253 86.799 197.827 193.874 197.827 107.075 0 193.878-88.574 193.878-197.827C388.135 88.677 301.332.113 194.257.113 87.182.113.383 88.678.383 197.927z" id="I"/><path d="M.383 197.927c0 109.253 86.799 197.827 193.874 197.827 107.075 0 193.878-88.574 193.878-197.827C388.135 88.677 301.332.113 194.257.113 87.182.113.383 88.678.383 197.927z" id="K"/><path d="M.383 197.927c0 109.253 86.799 197.827 193.874 197.827 107.075 0 193.878-88.574 193.878-197.827C388.135 88.677 301.332.113 194.257.113 87.182.113.383 88.678.383 197.927z" id="M"/><path d="M.383 197.927c0 109.253 86.799 197.827 193.874 197.827 107.075 0 193.878-88.574 193.878-197.827C388.135 88.677 301.332.113 194.257.113 87.182.113.383 88.678.383 197.927z" id="O"/><path d="M.383 197.927c0 109.253 86.799 197.827 193.874 197.827 107.075 0 193.878-88.574 193.878-197.827C388.135 88.677 301.332.113 194.257.113 87.182.113.383 88.678.383 197.927z" id="Q"/><path d="M.383 197.927c0 109.253 86.799 197.827 193.874 197.827 107.075 0 193.878-88.574 193.878-197.827C388.135 88.677 301.332.113 194.257.113 87.182.113.383 88.678.383 197.927z" id="S"/><path d="M.383 197.927c0 109.253 86.799 197.827 193.874 197.827 107.075 0 193.878-88.574 193.878-197.827C388.135 88.677 301.332.113 194.257.113 87.182.113.383 88.678.383 197.927z" id="U"/><path d="M.383 197.927c0 109.253 86.799 197.827 193.874 197.827 107.075 0 193.878-88.574 193.878-197.827C388.135 88.677 301.332.113 194.257.113 87.182.113.383 88.678.383 197.927z" id="W"/><path d="M.383 197.927c0 109.253 86.799 197.827 193.874 197.827 107.075 0 193.878-88.574 193.878-197.827C388.135 88.677 301.332.113 194.257.113 87.182.113.383 88.678.383 197.927z" id="Y"/><path d="M.383 197.927c0 109.253 86.799 197.827 193.874 197.827 107.075 0 193.878-88.574 193.878-197.827C388.135 88.677 301.332.113 194.257.113 87.182.113.383 88.678.383 197.927z" id="aa"/><path d="M.383 197.927c0 109.253 86.799 197.827 193.874 197.827 107.075 0 193.878-88.574 193.878-197.827C388.135 88.677 301.332.113 194.257.113 87.182.113.383 88.678.383 197.927z" id="ac"/><path d="M.383 197.927c0 109.253 86.799 197.827 193.874 197.827 107.075 0 193.878-88.574 193.878-197.827C388.135 88.677 301.332.113 194.257.113 87.182.113.383 88.678.383 197.927z" id="ae"/><path d="M.383 197.927c0 109.253 86.799 197.827 193.874 197.827 107.075 0 193.878-88.574 193.878-197.827C388.135 88.677 301.332.113 194.257.113 87.182.113.383 88.678.383 197.927z" id="ag"/><path d="M.383 197.927c0 109.253 86.799 197.827 193.874 197.827 107.075 0 193.878-88.574 193.878-197.827C388.135 88.677 301.332.113 194.257.113 87.182.113.383 88.678.383 197.927z" id="ai"/><path d="M.383 197.927c0 109.253 86.799 197.827 193.874 197.827 107.075 0 193.878-88.574 193.878-197.827C388.135 88.677 301.332.113 194.257.113 87.182.113.383 88.678.383 197.927z" id="ak"/><path d="M.383 197.927c0 109.253 86.799 197.827 193.874 197.827 107.075 0 193.878-88.574 193.878-197.827C388.135 88.677 301.332.113 194.257.113 87.182.113.383 88.678.383 197.927z" id="am"/><path d="M.383 197.927c0 109.253 86.799 197.827 193.874 197.827 107.075 0 193.878-88.574 193.878-197.827C388.135 88.677 301.332.113 194.257.113 87.182.113.383 88.678.383 197.927z" id="ao"/><path d="M.383 197.927c0 109.253 86.799 197.827 193.874 197.827 107.075 0 193.878-88.574 193.878-197.827C388.135 88.677 301.332.113 194.257.113 87.182.113.383 88.678.383 197.927z" id="aq"/><path d="M.383 197.927c0 109.253 86.799 197.827 193.874 197.827 107.075 0 193.878-88.574 193.878-197.827C388.135 88.677 301.332.113 194.257.113 87.182.113.383 88.678.383 197.927z" id="as"/><path d="M.383 197.927c0 109.253 86.799 197.827 193.874 197.827 107.075 0 193.878-88.574 193.878-197.827C388.135 88.677 301.332.113 194.257.113 87.182.113.383 88.678.383 197.927z" id="au"/><path d="M.383 197.927c0 109.253 86.799 197.827 193.874 197.827 107.075 0 193.878-88.574 193.878-197.827C388.135 88.677 301.332.113 194.257.113 87.182.113.383 88.678.383 197.927z" id="aw"/><path d="M.383 197.927c0 109.253 86.799 197.827 193.874 197.827 107.075 0 193.878-88.574 193.878-197.827C388.135 88.677 301.332.113 194.257.113 87.182.113.383 88.678.383 197.927z" id="ay"/><path d="M.383 197.927c0 109.253 86.799 197.827 193.874 197.827 107.075 0 193.878-88.574 193.878-197.827C388.135 88.677 301.332.113 194.257.113 87.182.113.383 88.678.383 197.927z" id="aA"/><path d="M.247 293.234c32.965 61.113 96.65 102.52 169.806 102.52 106.996 0 193.736-88.574 193.736-197.827 0-109.25-86.74-197.814-193.736-197.814C96.897.113 33.213 41.516.247 102.625v190.609z" id="aC"/><path d="M.252 330.262c35.48 40.21 86.887 65.492 144.081 65.492 107.054 0 193.84-88.574 193.84-197.827 0-109.25-86.786-197.814-193.84-197.814C87.14.113 35.732 25.392.253 65.599v264.663z" id="aE"/><path d="M.25 354.67c32.701 25.76 73.688 41.084 118.178 41.084 106.967 0 193.683-88.574 193.683-197.827C312.11 88.677 225.395.113 118.428.113 73.938.113 32.951 15.434.251 41.193V354.67z" id="aG"/><path d="M.396 347.89c27.663 15.326 59.37 24.033 93.073 24.033 107.762 0 195.122-89.015 195.122-198.814 0-73.955-39.636-138.479-98.444-172.723H.397V347.89z" id="aI"/><path d="M.135 328.47c20.782 7.69 43.23 11.887 66.65 11.887 107.052 0 193.838-87.709 193.838-195.896 0-56.998-24.09-108.31-62.542-144.105H.135v328.113z" id="aK"/><path d="M.49 313.777a189.066 189.066 0 0 0 40.69 4.408c106.655 0 193.118-88.754 193.118-198.23 0-44.844-14.51-86.211-38.972-119.424H.49v313.246z" id="aM"/><path d="M.46 291.956c4.92.39 9.893.59 14.91.59 106.211 0 192.314-89.142 192.314-199.096 0-33.767-8.121-65.57-22.452-93.432H.46v291.938z" id="aO"/><path d="M.637 264.41c102.297-5.707 183.52-91.88 183.52-197.34 0-23.308-3.968-45.673-11.253-66.435H.637V264.41z" id="aQ"/><path d="M.047 235.034c89.194-17.46 156.605-97.798 156.605-194.26A203.24 203.24 0 0 0 152.672.63H.048v234.404z" id="aS"/><path d="M.748 200.28c76.028-26.295 130.73-99.555 130.73-185.813 0-4.605-.156-9.173-.462-13.7H.748V200.28z" id="aU"/><path d="M.72 165.307C59.73 134.065 101.14 72.328 105.5.209H.721v165.098z" id="aW"/><path d="M.898 121.338C40.784 92.805 69.53 50.166 79.53.891H.898v120.447z" id="aY"/><path d="M.274 74.152C18.947 53.474 33.516 28.575 42.59.935H.274v73.217z" id="ba"/><path d="M.16 11.092A177.152 177.152 0 0 0 6.15.922H.16v10.17z" id="bc"/></defs><g fill="none" fill-rule="evenodd" opacity=".126"><g transform="translate(73.402 9.675)"><mask id="b" fill="#fff"><use xlink:href="#a"/></mask><path fill="#FFF" fill-rule="nonzero" mask="url(#b)" d="M-407.812 33.536V21.437L55.761-437.51l3.058-3.023 6.112 6.051z"/></g><g transform="translate(47.304 1.664)"><mask id="d" fill="#fff"><use xlink:href="#c"/></mask><path fill="#FFF" fill-rule="nonzero" mask="url(#d)" d="M-376.941 67.07V54.697l485.061-495.6 3.03-3.092 6.053 6.185z"/></g><g transform="translate(28.725)"><mask id="f" fill="#fff"><use xlink:href="#e"/></mask><path fill="#FFF" fill-rule="nonzero" mask="url(#f)" d="M-360.637 97.092V84.426l513.98-534.02 3.045-3.168 6.09 6.333z"/></g><g transform="translate(14.68)"><mask id="h" fill="#fff"><use xlink:href="#g"/></mask><path fill="#FFF" fill-rule="nonzero" mask="url(#h)" d="M-343.13 120.916v-12.348l533.407-547.015 3.009-3.086 6.026 6.176z"/></g><g transform="translate(8.156)"><mask id="j" fill="#fff"><use xlink:href="#i"/></mask><path fill="#FFF" fill-rule="nonzero" mask="url(#j)" d="M-336.459 149.993v-12.59l561.429-584.48 3.023-3.146 6.045 6.293z"/></g><g transform="translate(1.631)"><mask id="l" fill="#fff"><use xlink:href="#k"/></mask><path fill="#FFF" fill-rule="nonzero" mask="url(#l)" d="M-331.1 173.274v-12.352l586.468-599.378 3.023-3.086 6.04 6.172z"/></g><mask id="n" fill="#fff"><use xlink:href="#m"/></mask><path fill="#FFF" fill-rule="nonzero" mask="url(#n)" d="M-330.672 200.608v-12.42l614.16-629.183 3.035-3.108 6.063 6.212z"/><mask id="p" fill="#fff"><use xlink:href="#o"/></mask><path fill="#FFF" fill-rule="nonzero" mask="url(#p)" d="M-334.01 227.153v-12.429L312.33-441.33l3.064-3.11 6.12 6.216z"/><mask id="r" fill="#fff"><use xlink:href="#q"/></mask><path fill="#FFF" fill-rule="nonzero" mask="url(#r)" d="M-332.167 253.305v-12.423l668.61-681.848 3.048-3.108 6.086 6.212z"/><mask id="t" fill="#fff"><use xlink:href="#s"/></mask><path fill="#FFF" fill-rule="nonzero" mask="url(#t)" d="M-332.357 278.413v-12.368L362.49-439.019l3.045-3.09 6.094 6.18z"/><mask id="v" fill="#fff"><use xlink:href="#u"/></mask><path fill="#FFF" fill-rule="nonzero" mask="url(#v)" d="M-331.957 305.143v-12.384L387.868-439.74l3.042-3.095 6.082 6.19z"/><mask id="x" fill="#fff"><use xlink:href="#w"/></mask><path fill="#FFF" fill-rule="nonzero" mask="url(#x)" d="M-331.957 332.289v-12.42l745.64-760.76 3.041-3.107 6.087 6.21z"/><mask id="z" fill="#fff"><use xlink:href="#y"/></mask><path fill="#FFF" fill-rule="nonzero" mask="url(#z)" d="M-331.957 359.529V347.08l771.455-789.107 3.041-3.11 6.087 6.225z"/><mask id="B" fill="#fff"><use xlink:href="#A"/></mask><path fill="#FFF" fill-rule="nonzero" mask="url(#B)" d="M-331.957 384.637v-12.41l797.27-812.757 3.045-3.1 6.083 6.2z"/><mask id="D" fill="#fff"><use xlink:href="#C"/></mask><path fill="#FFF" fill-rule="nonzero" mask="url(#D)" d="M-331.957 411.327V398.91l823.088-839.837 3.042-3.103 6.083 6.21z"/><mask id="F" fill="#fff"><use xlink:href="#E"/></mask><path fill="#FFF" fill-rule="nonzero" mask="url(#F)" d="M-331.957 437.672V425.25l848.903-866.176 3.046-3.103 6.082 6.206z"/><mask id="H" fill="#fff"><use xlink:href="#G"/></mask><path fill="#FFF" fill-rule="nonzero" mask="url(#H)" d="M-331.957 464.013V451.59l874.722-892.516 3.041-3.104 6.087 6.207z"/><mask id="J" fill="#fff"><use xlink:href="#I"/></mask><path fill="#FFF" fill-rule="nonzero" mask="url(#J)" d="M-331.957 490.353v-12.417L568.58-440.929l3.045-3.103 6.083 6.215z"/><mask id="L" fill="#fff"><use xlink:href="#K"/></mask><path fill="#FFF" fill-rule="nonzero" mask="url(#L)" d="M-331.957 516.696v-12.422l926.351-945.2 3.05-3.103 6.083 6.206z"/><mask id="N" fill="#fff"><use xlink:href="#M"/></mask><path fill="#FFF" fill-rule="nonzero" mask="url(#N)" d="M-331.957 543.039v-12.422l952.17-971.54 3.046-3.103 6.083 6.206z"/><mask id="P" fill="#fff"><use xlink:href="#O"/></mask><path fill="#FFF" fill-rule="nonzero" mask="url(#P)" d="M-331.957 569.379v-12.417l977.985-997.889 3.046-3.103 6.087 6.21z"/><mask id="R" fill="#fff"><use xlink:href="#Q"/></mask><path fill="#FFF" fill-rule="nonzero" mask="url(#R)" d="M-331.957 595.723v-12.421L671.847-440.927l3.041-3.103 6.087 6.207z"/><mask id="T" fill="#fff"><use xlink:href="#S"/></mask><path fill="#FFF" fill-rule="nonzero" mask="url(#T)" d="M-331.957 622.062v-12.421L697.666-440.928l3.041-3.103 6.083 6.21z"/><mask id="V" fill="#fff"><use xlink:href="#U"/></mask><path fill="#FFF" fill-rule="nonzero" mask="url(#V)" d="M-331.957 648.405v-12.417L723.481-440.925l3.045-3.103 6.087 6.206z"/><mask id="X" fill="#fff"><use xlink:href="#W"/></mask><path fill="#FFF" fill-rule="nonzero" mask="url(#X)" d="M-331.957 674.747v-12.421L749.295-440.927l3.046-3.103 6.087 6.207z"/><mask id="Z" fill="#fff"><use xlink:href="#Y"/></mask><path fill="#FFF" fill-rule="nonzero" mask="url(#Z)" d="M-331.957 688.668L775.114-440.928l3.046-3.103 3.977 4.066v4.293L-331.957 701.09z"/><mask id="ab" fill="#fff"><use xlink:href="#aa"/></mask><path fill="#FFF" fill-rule="nonzero" mask="url(#ab)" d="M-331.957 723.371v-8.359L782.137-421.746v12.413L-327.976 723.371z"/><mask id="ad" fill="#fff"><use xlink:href="#ac"/></mask><path fill="#FFF" fill-rule="nonzero" mask="url(#ad)" d="M-308.246 723.371l-3.042-3.103L782.134-395.406v12.422L-302.163 723.37z"/><mask id="af" fill="#fff"><use xlink:href="#ae"/></mask><path fill="#FFF" fill-rule="nonzero" mask="url(#af)" d="M-282.429 723.371l-3.045-3.103L782.14-369.066v12.422L-276.346 723.37z"/><mask id="ah" fill="#fff"><use xlink:href="#ag"/></mask><path fill="#FFF" fill-rule="nonzero" mask="url(#ah)" d="M-256.611 723.371l-3.046-3.103L782.135-342.722v12.418L-250.529 723.37z"/><mask id="aj" fill="#fff"><use xlink:href="#ai"/></mask><path fill="#FFF" fill-rule="nonzero" mask="url(#aj)" d="M-230.796 723.371l-3.041-3.103L782.14-316.382v12.422L-224.713 723.37z"/><mask id="al" fill="#fff"><use xlink:href="#ak"/></mask><path fill="#FFF" fill-rule="nonzero" mask="url(#al)" d="M-204.979 723.371l-3.045-3.103 990.159-1010.31v12.422l-981.03 1000.99z"/><mask id="an" fill="#fff"><use xlink:href="#am"/></mask><path fill="#FFF" fill-rule="nonzero" mask="url(#an)" d="M-179.16 723.371l-3.046-3.103 964.343-983.962v12.413l-955.215 974.652z"/><mask id="ap" fill="#fff"><use xlink:href="#ao"/></mask><path fill="#FFF" fill-rule="nonzero" mask="url(#ap)" d="M-153.348 723.371l-3.045-3.103L782.14-237.358v12.422L-147.265 723.37z"/><mask id="ar" fill="#fff"><use xlink:href="#aq"/></mask><path fill="#FFF" fill-rule="nonzero" mask="url(#ar)" d="M-127.53 723.371l-3.046-3.103 912.71-931.286v12.421l-903.581 921.968z"/><mask id="at" fill="#fff"><use xlink:href="#as"/></mask><path fill="#FFF" fill-rule="nonzero" mask="url(#at)" d="M-101.717 723.371l-3.037-3.103L782.14-184.674v12.422L-95.63 723.37z"/><mask id="av" fill="#fff"><use xlink:href="#au"/></mask><path fill="#FFF" fill-rule="nonzero" mask="url(#av)" d="M-75.895 723.371l-3.046-3.103 861.077-878.602v12.421L-69.813 723.371z"/><mask id="ax" fill="#fff"><use xlink:href="#aw"/></mask><path fill="#FFF" fill-rule="nonzero" mask="url(#ax)" d="M-50.082 723.371l-3.042-3.103L782.134-131.99v12.417l-826.13 842.944z"/><mask id="az" fill="#fff"><use xlink:href="#ay"/></mask><path fill="#FFF" fill-rule="nonzero" mask="url(#az)" d="M-24.265 723.371l-3.041-3.103 809.443-825.914v12.417l-800.319 816.6z"/><mask id="aB" fill="#fff"><use xlink:href="#aA"/></mask><path fill="#FFF" fill-rule="nonzero" mask="url(#aB)" d="M1.553 723.371l-3.046-3.103L782.14-79.306v12.422L7.635 723.37z"/><g transform="translate(25.463)"><mask id="aD" fill="#fff"><use xlink:href="#aC"/></mask><path fill="#FFF" fill-rule="nonzero" mask="url(#aD)" d="M3.29 723.371l-3.043-3.103L757.5-52.962v12.422L9.368 723.37z"/></g><g transform="translate(50.566)"><mask id="aF" fill="#fff"><use xlink:href="#aE"/></mask><path fill="#FFF" fill-rule="nonzero" mask="url(#aF)" d="M3.289 723.371l-3.037-3.103 731.846-746.89v12.417L9.374 723.371z"/></g><g transform="translate(76.665)"><mask id="aH" fill="#fff"><use xlink:href="#aG"/></mask><path fill="#FFF" fill-rule="nonzero" mask="url(#aH)" d="M3.289 723.371l-3.038-3.103L705.71-.278V12.14L9.37 723.371z"/></g><g transform="translate(99.501 24.965)"><mask id="aJ" fill="#fff"><use xlink:href="#aI"/></mask><path fill="#FFF" fill-rule="nonzero" mask="url(#aJ)" d="M3.457 701.176l-3.06-3.118L685.12.386V12.87L9.583 701.176z"/></g><g transform="translate(126.949 53.26)"><mask id="aL" fill="#fff"><use xlink:href="#aK"/></mask><path fill="#FFF" fill-rule="nonzero" mask="url(#aL)" d="M3.176 664.778l-3.04-3.073L654.543.355v12.3L9.257 664.779z"/></g><g transform="translate(151.698 78.224)"><mask id="aN" fill="#fff"><use xlink:href="#aM"/></mask><path fill="#FFF" fill-rule="nonzero" mask="url(#aN)" d="M3.524 646.47l-3.033-3.109L626.757.531v12.447L9.583 646.471z"/></g><g transform="translate(179.428 103.162)"><mask id="aP" fill="#fff"><use xlink:href="#aO"/></mask><path fill="#FFF" fill-rule="nonzero" mask="url(#aP)" d="M3.48 622.264l-3.02-3.123L598.506.018v12.497L9.514 622.265z"/></g><g transform="translate(202.264 128.155)"><mask id="aR" fill="#fff"><use xlink:href="#aQ"/></mask><path fill="#FFF" fill-rule="nonzero" mask="url(#aR)" d="M3.681 592.021l-3.044-3.1L579.086.635v12.406L9.783 592.02z"/></g><g transform="translate(231.625 159.777)"><mask id="aT" fill="#fff"><use xlink:href="#aS"/></mask><path fill="#FFF" fill-rule="nonzero" mask="url(#aT)" d="M3.076 566.095l-3.029-3.103L548.977.63v12.414L9.136 566.094z"/></g><g transform="translate(256.093 183.078)"><mask id="aV" fill="#fff"><use xlink:href="#aU"/></mask><path fill="#FFF" fill-rule="nonzero" mask="url(#aV)" d="M3.773 535.602l-3.025-3.078L523.3.768v12.32L9.826 535.601z"/></g><g transform="translate(282.191 209.708)"><mask id="aX" fill="#fff"><use xlink:href="#aW"/></mask><path fill="#FFF" fill-rule="nonzero" mask="url(#aX)" d="M3.748 517.6l-3.027-3.13L498.089.21v12.53L9.803 517.6z"/></g><g transform="translate(306.659 236.337)"><mask id="aZ" fill="#fff"><use xlink:href="#aY"/></mask><path fill="#FFF" fill-rule="nonzero" mask="url(#aZ)" d="M4.045 484.756L.898 481.67 490.59.891v12.352L10.33 484.756z"/></g><g transform="translate(334.389 261.303)"><mask id="bb" fill="#fff"><use xlink:href="#ba"/></mask><path fill="#FFF" fill-rule="nonzero" mask="url(#bb)" d="M3.256 470.393l-2.982-3.165L438.835.935v12.667L9.21 470.393z"/></g><g transform="translate(359.852 287.932)"><mask id="bd" fill="#fff"><use xlink:href="#bc"/></mask><path fill="#FFF" fill-rule="nonzero" mask="url(#bd)" d="M3.089 394.05l-2.93-2.812L406.758.922v11.251L8.947 394.05z"/></g></g></svg>