<svg width="22" height="20" viewBox="0 0 22 20" xmlns="http://www.w3.org/2000/svg"><title>iconmonstr-school-7</title><path d="M6.196 8.182a3.4 3.4 0 0 0 1.55-.397c.693-.381 2.471-1.493 3.195-1.93a.465.465 0 0 1 .6.102l.007.01a.454.454 0 0 1-.04.618c-.57.543-2.239 2.117-3.088 2.921a2.53 2.53 0 0 0-.782 1.731c-.087 2.007-.24 6.284-.304 8.03a.765.765 0 0 1-.767.733c-.408 0-.721-.315-.767-.716-.102-.892-.302-2.982-.39-3.83-.037-.349-.257-.557-.537-.559-.279 0-.48.206-.503.554-.056.837-.243 2.953-.313 3.836a.772.772 0 0 1-.77.715.77.77 0 0 1-.773-.735l-.338-8.149-1.18 2.119a.533.533 0 0 1-.655.236.526.526 0 0 1-.32-.635l1.14-3.993a.916.916 0 0 1 .881-.661h4.154zM22 13.636H9.167v-1.818h6.416v-.909h2.75v.91h1.834v-10H1.833v3.96L0 7.595V0h22v13.636zm-6.417-4.545h-2.75v-.91h2.75v.91zM4.926 3.636c1.138 0 2.063.917 2.063 2.046a2.055 2.055 0 0 1-2.063 2.045 2.055 2.055 0 0 1-2.062-2.045c0-1.13.924-2.046 2.062-2.046zm13.407 3.637h-5.5v-.91h5.5v.91zm0-1.818h-5.5v-.91h5.5v.91z" fill="#179FDC" fill-rule="evenodd"/></svg>