<svg width="18" height="19" viewBox="0 0 18 19" xmlns="http://www.w3.org/2000/svg"><title>Shape</title><path d="M18 2v17H0V2h2.25v.773c0 .852.673 1.545 1.5 1.545s1.5-.693 1.5-1.545V2h7.5v.773c0 .852.673 1.545 1.5 1.545s1.5-.693 1.5-1.545V2H18zm-1 4H2v11h15V6zM16 .75c0-.414-.447-.75-1-.75-.553 0-1 .336-1 .75v1.5c0 .414.447.75 1 .75.553 0 1-.336 1-.75V.75zM5 2.25C5 2.664 4.553 3 4 3c-.553 0-1-.336-1-.75V.75C3 .336 3.447 0 4 0c.553 0 1 .336 1 .75v1.5zm0 8.784l.684-.55c.8.336 1.308.592 2.208 1.15C9.582 9.966 10.701 9.121 12.777 8l.223.444C11.287 9.743 10.033 11.187 8.226 14 7.112 12.861 6.37 12.135 5 11.034z" fill="#179FDC"/></svg>