<svg width="61" height="59" viewBox="0 0 61 59" xmlns="http://www.w3.org/2000/svg"><title>“</title><path d="M41.021 27.705c0-7.595 1.856-13.68 5.57-18.254C50.302 4.876 55.056 1.726 60.851 0v9.58c-2.173 1.381-4.256 3.28-6.248 5.697-1.992 2.416-2.988 6.214-2.988 11.393v8.803h9.236V58.26h-19.83V27.705zM0 27.705c0-7.595 1.856-13.68 5.57-18.254C9.281 4.876 14.035 1.726 19.83 0v9.58c-2.173 1.381-4.256 3.28-6.248 5.697-1.992 2.416-2.988 6.214-2.988 11.393v8.803h9.236V58.26H0V27.705z" fill="#FFF" fill-rule="evenodd" opacity=".111"/></svg>