<svg version="1" xmlns="http://www.w3.org/2000/svg" width="1365.333" height="1365.333" viewBox="0 0 1024.000000 1024.000000"><path d="M472 59.8c-26.7 27-83.1 84-125.5 126.7C304.2 229.2 258 275.8 244 290c-14 14.2-56 56.6-93.4 94.2-37.3 37.7-68.1 69-68.5 69.7-1.1 1.7 0 21.7 2.3 43.1.9 8 6.3 40.1 6.9 40.6.3.4 89.8-89.6 191.2-192.1 16-16.2 65.9-66.6 111.1-112.2 45.2-45.5 93.2-94.1 106.8-107.8 13.6-13.8 42.2-42.6 63.7-64.2C585.5 39.8 603 22 603 21.7c0-.2-3.3-1-7.2-1.7-4-.7-8.2-1.4-9.3-1.6-1.1-.3-3.6-.7-5.5-1-1.9-.3-4.6-.7-6-.9-12.4-2.1-23.2-3.2-39.5-4-6.6-.3-12.7-.8-13.5-1.1-1-.4-17.7 15.9-50 48.4zM404 25.1c-64.5 17-124.8 48.9-174.6 92.4-8 7-30.5 29.3-38.3 38-12.8 14.3-39 49.1-43.3 57.5-.7 1.4-2.8 4.9-4.7 7.9-13 20.7-28.7 54.8-38.3 83.1-5.7 16.7-13.1 44.3-11.6 43.4.9-.6 56.7-56.6 108.8-109.4 13.9-14 60.6-61.2 103.9-104.8 43.2-43.6 85.5-86.3 93.9-94.8 9.1-9.2 14.5-15.4 13.5-15.3-1 0-5.2.9-9.3 2zM641.6 77.4c-18.2 18.4-66.8 67.5-108.1 109.1C492.3 228.1 443 277.8 424 297c-19 19.2-67.1 67.8-107 108-39.9 40.3-85.2 86.1-100.8 101.8-15.6 15.8-45 45.4-65.3 65.8-20.3 20.4-36.9 37.6-36.9 38.1 0 2 12 27.6 18.5 39.5 3.7 6.8 7.6 13.9 8.6 15.9 3.7 7.2 3.5 7.3 17.9-7.3 7.3-7.3 50.4-50.9 96-96.8 45.5-45.9 94.2-95.1 108.1-109.2 14-14.1 61.2-61.7 104.9-105.8 43.7-44.1 91.9-92.7 107-108 15.1-15.3 57.4-58 94-94.9 36.6-36.9 66.6-67.5 66.7-67.9.5-1.6-36.5-21.5-55.1-29.7l-6-2.6-33 33.5zM716.9 190.1c-40.4 40.7-86.4 87.2-102.2 103.2-15.9 16.1-66.1 66.8-111.7 112.7-45.5 45.9-93.6 94.5-107 108-13.3 13.5-60.3 60.9-104.4 105.3-44 44.5-86.1 86.9-93.4 94.3l-13.3 13.5 2.3 3.2c2.8 4.1 38.4 39.8 41.9 42.1l2.7 1.7 8.7-8.8c28.1-28.4 179.9-181.5 221.4-223.3l49.1-49.5 47.7 48.2c26.3 26.4 80.4 81 120.3 121.3 39.9 40.2 81.2 81.9 91.8 92.6 10.6 10.7 19.7 19.4 20.2 19.4 1.2 0 37.7-36.3 42.4-42.2l3.7-4.7-17.3-17.4c-34.2-34.5-170.9-172.5-200.1-202-16.4-16.6-37.1-37.5-45.9-46.4l-16.1-16.2 23.4-23.6 23.4-23.6 38.9 39.3c21.3 21.6 73.3 74.1 115.5 116.6 42.1 42.6 85.8 86.6 97 97.9 16.8 17 20.5 20.3 21.6 19.2 4.6-5.1 30.5-56.2 30.5-60.4 0-.6 1.7 1.2-98.5-99.9-42.3-42.8-95.3-96.2-117.6-118.8l-40.6-41.1 23.3-23.6 23.3-23.6 32.3 32.6c44.7 45.2 183.7 185.5 192.7 194.5 4.1 4.1 7.5 7.3 7.7 7.2.1-.2.7-3 1.4-6.3.6-3.3 1.3-7 1.6-8.2 1-5.3 1.5-8.4 2.8-18.8 2.1-15.8 2.5-18.8 3.2-30 .9-15.5 1-19.5.4-20.5-.3-.5-29.2-29.8-64-65.1-117.1-118.2-126.5-127.7-128.8-130.2l-2.3-2.4 23.3-23.6 23.3-23.5 25.3 25.6C870.3 288.9 929 348 929.4 348c.3 0 0-1.6-.6-3.6-.5-2-1.1-4.4-1.3-5.3-.4-2.3-2.5-10-3.6-13.6-.5-1.7-2-6.6-3.3-11-11.2-36.7-29.7-75.7-52-109.5-6.5-9.9-17.2-24.9-18.5-26-.3-.3-1.9-2.3-3.6-4.5-10-13.4-41.5-46.8-52.2-55.3l-4-3.1-73.4 74z"/><path d="M479 618.9c-61.2 62-187.5 189.5-190.2 191.9-1.6 1.4-2.8 2.9-2.8 3.3 0 1.8 36 21.1 54.9 29.5l6.4 2.8 64.3-65c35.4-35.7 64.4-64.7 64.5-64.4 0 .3.1 66.9.2 148l.2 147.4 32.5.1c17.9 0 33.4-.1 34.6-.3l2-.4V864.4c-.1-81.1.1-147.4.4-147.4.3 0 29.3 29 64.5 64.6l64 64.6 6.5-2.7c8-3.4 31.8-15.2 38.5-19.2 2.8-1.6 5.7-3.2 6.5-3.6 2.1-1.1 5.1-2.9 7.9-4.9l2.4-1.7-5.4-5.4c-125.8-127-165.6-167.1-190-191.8-16.3-16.4-29.8-29.9-30-29.9-.2 0-14.6 14.4-31.9 31.9z"/></svg>