<?xml version="1.0" encoding="UTF-8"?>
<svg width="336px" height="327px" viewBox="0 0 336 327" version="1.1" xmlns="http://www.w3.org/2000/svg" xmlns:xlink="http://www.w3.org/1999/xlink">
    <!-- Generator: Sketch 48.1 (47250) - http://www.bohemiancoding.com/sketch -->
    <title>Pattern</title>
    <desc>Created with Sketch.</desc>
    <defs>
        <path d="M232.83149,1.46454713 C224.45531,0.497013541 215.939571,0 207.310209,0 C113.973043,0 33.9315217,58.146019 0,140.913209 L232.83149,140.913209 L232.83149,1.46454713 Z" id="path-1"></path>
        <path d="M274.556501,7.00691497 C256.71527,2.43140796 238.027892,2.76073796e-13 218.778659,0 C113.671278,0 25.3191936,72.4932199 0,170.705238 L274.556501,170.705238 L274.556501,7.00691497 Z" id="path-3"></path>
        <path d="M309.371656,16.8920189 C282.975475,6.00420562 254.065475,0 223.758272,0 C108.423147,0 13.3265762,86.953487 0,199.101923 L309.371656,199.101923 L309.371656,16.8919949 L309.371656,16.8920189 Z" id="path-5"></path>
        <path d="M0.0200477783,227.315956 C0.00669652718,226.310094 0,225.302635 0,224.29362 C0,100.420301 100.935432,0 225.448983,0 C267.735628,0 307.303368,11.5822985 341.121697,31.7320433 L341.121697,227.315956 L0.0200477783,227.315956 Z" id="path-7"></path>
        <path d="M2.41386554,260.246704 C0.82359926,249.383647 0,238.270403 0,226.964132 C0,101.615937 101.238737,0 226.126443,0 C281.837519,0 332.843507,20.2211353 372.255923,53.749682 L372.255923,260.246704 L2.41386554,260.246704 Z" id="path-9"></path>
        <path d="M8.97198505,289.230312 C3.131339,269.163527 0,247.944265 0,225.994358 C0,101.181752 101.254673,0 226.162038,0 C297.415085,-2.73075526e-13 360.972875,32.9255454 402.428435,84.380929 L402.428435,289.230312 L8.97198505,289.230312 Z" id="path-11"></path>
        <path d="M20.1644312,320.371561 C7.21277839,291.827783 0,260.123814 0,226.734731 C0,101.51323 101.457659,0 226.615427,0 C318.698927,0 397.955871,54.9503767 433.414318,133.864145 L433.414287,319.60995 C433.300123,319.864041 433.185485,320.117926 433.070394,320.371561 L20.1643826,320.371553 L20.1644312,320.371561 Z" id="path-13"></path>
        <path d="M36.680584,350.534054 C13.4837033,314.936991 0,272.404851 0,226.717356 C0,101.505451 101.283607,0 226.226664,0 C351.169722,0 452.458138,101.505451 452.458138,226.717356 C452.458138,272.404851 438.973794,314.936991 415.7761,350.534054 L36.680584,350.534054 Z" id="path-15"></path>
        <path d="M60.1994389,381.518169 C22.8367203,340.995465 0,286.769306 0,227.187976 C0,101.716156 101.283607,0 226.226664,0 C351.169722,0 452.458138,101.716156 452.458138,227.187976 C452.458138,286.769306 429.620333,340.995465 392.256476,381.518169 L60.1994389,381.518169 Z" id="path-17"></path>
        <path d="M94.2862561,409.512335 C37.184639,368.495154 0,301.555314 0,225.943504 C0,101.158984 101.283607,0 226.226664,0 C351.169722,0 452.458138,101.158984 452.458138,225.943504 C452.458138,301.555314 415.271733,368.495154 358.168725,409.512335 L94.2862561,409.512335 Z" id="path-19"></path>
        <path d="M152.421268,438.656852 C63.718138,408.159444 0,324.22229 0,225.457172 C0,100.941245 101.283607,0 226.226664,0 C351.169722,0 452.458138,100.941245 452.458138,225.457172 C452.458138,324.22229 388.736974,408.159444 300.032593,438.656852 L152.421268,438.656852 Z" id="path-21"></path>
        <path d="M0,226.221856 C0,351.164913 101.283607,452.458138 226.226664,452.458138 C351.169722,452.458138 452.458138,351.164913 452.458138,226.221856 C452.458138,101.283607 351.169722,0 226.226664,0 C101.283607,0 0,101.283607 0,226.221856 Z" id="path-23"></path>
        <path d="M0,226.221856 C0,351.164913 101.283607,452.458138 226.226664,452.458138 C351.169722,452.458138 452.458138,351.164913 452.458138,226.221856 C452.458138,101.283607 351.169722,0 226.226664,0 C101.283607,0 0,101.283607 0,226.221856 Z" id="path-25"></path>
        <path d="M0,226.221856 C0,351.164913 101.283607,452.458138 226.226664,452.458138 C351.169722,452.458138 452.458138,351.164913 452.458138,226.221856 C452.458138,101.283607 351.169722,0 226.226664,0 C101.283607,0 0,101.283607 0,226.221856 Z" id="path-27"></path>
        <path d="M0,226.221856 C0,351.164913 101.283607,452.458138 226.226664,452.458138 C351.169722,452.458138 452.458138,351.164913 452.458138,226.221856 C452.458138,101.283607 351.169722,0 226.226664,0 C101.283607,0 0,101.283607 0,226.221856 Z" id="path-29"></path>
        <path d="M0,226.221856 C0,351.164913 101.283607,452.458138 226.226664,452.458138 C351.169722,452.458138 452.458138,351.164913 452.458138,226.221856 C452.458138,101.283607 351.169722,0 226.226664,0 C101.283607,0 0,101.283607 0,226.221856 Z" id="path-31"></path>
        <path d="M0,226.221856 C0,351.164913 101.283607,452.458138 226.226664,452.458138 C351.169722,452.458138 452.458138,351.164913 452.458138,226.221856 C452.458138,101.283607 351.169722,0 226.226664,0 C101.283607,0 0,101.283607 0,226.221856 Z" id="path-33"></path>
        <path d="M0,226.221856 C0,351.164913 101.283607,452.458138 226.226664,452.458138 C351.169722,452.458138 452.458138,351.164913 452.458138,226.221856 C452.458138,101.283607 351.169722,0 226.226664,0 C101.283607,0 0,101.283607 0,226.221856 Z" id="path-35"></path>
        <path d="M0,226.221856 C0,351.164913 101.283607,452.458138 226.226664,452.458138 C351.169722,452.458138 452.458138,351.164913 452.458138,226.221856 C452.458138,101.283607 351.169722,0 226.226664,0 C101.283607,0 0,101.283607 0,226.221856 Z" id="path-37"></path>
        <path d="M0,226.221856 C0,351.164913 101.283607,452.458138 226.226664,452.458138 C351.169722,452.458138 452.458138,351.164913 452.458138,226.221856 C452.458138,101.283607 351.169722,0 226.226664,0 C101.283607,0 0,101.283607 0,226.221856 Z" id="path-39"></path>
        <path d="M0,226.221856 C0,351.164913 101.283607,452.458138 226.226664,452.458138 C351.169722,452.458138 452.458138,351.164913 452.458138,226.221856 C452.458138,101.283607 351.169722,0 226.226664,0 C101.283607,0 0,101.283607 0,226.221856 Z" id="path-41"></path>
        <path d="M0,226.221856 C0,351.164913 101.283607,452.458138 226.226664,452.458138 C351.169722,452.458138 452.458138,351.164913 452.458138,226.221856 C452.458138,101.283607 351.169722,0 226.226664,0 C101.283607,0 0,101.283607 0,226.221856 Z" id="path-43"></path>
        <path d="M0,226.221856 C0,351.164913 101.283607,452.458138 226.226664,452.458138 C351.169722,452.458138 452.458138,351.164913 452.458138,226.221856 C452.458138,101.283607 351.169722,0 226.226664,0 C101.283607,0 0,101.283607 0,226.221856 Z" id="path-45"></path>
        <path d="M0,226.221856 C0,351.164913 101.283607,452.458138 226.226664,452.458138 C351.169722,452.458138 452.458138,351.164913 452.458138,226.221856 C452.458138,101.283607 351.169722,0 226.226664,0 C101.283607,0 0,101.283607 0,226.221856 Z" id="path-47"></path>
        <path d="M0,226.221856 C0,351.164913 101.283607,452.458138 226.226664,452.458138 C351.169722,452.458138 452.458138,351.164913 452.458138,226.221856 C452.458138,101.283607 351.169722,0 226.226664,0 C101.283607,0 0,101.283607 0,226.221856 Z" id="path-49"></path>
        <path d="M0,226.221856 C0,351.164913 101.283607,452.458138 226.226664,452.458138 C351.169722,452.458138 452.458138,351.164913 452.458138,226.221856 C452.458138,101.283607 351.169722,0 226.226664,0 C101.283607,0 0,101.283607 0,226.221856 Z" id="path-51"></path>
        <path d="M0,226.221856 C0,351.164913 101.283607,452.458138 226.226664,452.458138 C351.169722,452.458138 452.458138,351.164913 452.458138,226.221856 C452.458138,101.283607 351.169722,0 226.226664,0 C101.283607,0 0,101.283607 0,226.221856 Z" id="path-53"></path>
        <path d="M0,226.221856 C0,351.164913 101.283607,452.458138 226.226664,452.458138 C351.169722,452.458138 452.458138,351.164913 452.458138,226.221856 C452.458138,101.283607 351.169722,0 226.226664,0 C101.283607,0 0,101.283607 0,226.221856 Z" id="path-55"></path>
        <path d="M0,226.221856 C0,351.164913 101.283607,452.458138 226.226664,452.458138 C351.169722,452.458138 452.458138,351.164913 452.458138,226.221856 C452.458138,101.283607 351.169722,0 226.226664,0 C101.283607,0 0,101.283607 0,226.221856 Z" id="path-57"></path>
        <path d="M0,226.221856 C0,351.164913 101.283607,452.458138 226.226664,452.458138 C351.169722,452.458138 452.458138,351.164913 452.458138,226.221856 C452.458138,101.283607 351.169722,0 226.226664,0 C101.283607,0 0,101.283607 0,226.221856 Z" id="path-59"></path>
        <path d="M0,226.221856 C0,351.164913 101.283607,452.458138 226.226664,452.458138 C351.169722,452.458138 452.458138,351.164913 452.458138,226.221856 C452.458138,101.283607 351.169722,0 226.226664,0 C101.283607,0 0,101.283607 0,226.221856 Z" id="path-61"></path>
        <path d="M0,226.221856 C0,351.164913 101.283607,452.458138 226.226664,452.458138 C351.169722,452.458138 452.458138,351.164913 452.458138,226.221856 C452.458138,101.283607 351.169722,0 226.226664,0 C101.283607,0 0,101.283607 0,226.221856 Z" id="path-63"></path>
        <path d="M0,226.221856 C0,351.164913 101.283607,452.458138 226.226664,452.458138 C351.169722,452.458138 452.458138,351.164913 452.458138,226.221856 C452.458138,101.283607 351.169722,0 226.226664,0 C101.283607,0 0,101.283607 0,226.221856 Z" id="path-65"></path>
        <path d="M0,226.221856 C0,351.164913 101.283607,452.458138 226.226664,452.458138 C351.169722,452.458138 452.458138,351.164913 452.458138,226.221856 C452.458138,101.283607 351.169722,0 226.226664,0 C101.283607,0 0,101.283607 0,226.221856 Z" id="path-67"></path>
        <path d="M0,226.221856 C0,351.164913 101.283607,452.458138 226.226664,452.458138 C351.169722,452.458138 452.458138,351.164913 452.458138,226.221856 C452.458138,101.283607 351.169722,0 226.226664,0 C101.283607,0 0,101.283607 0,226.221856 Z" id="path-69"></path>
        <path d="M0,226.221856 C0,351.164913 101.283607,452.458138 226.226664,452.458138 C351.169722,452.458138 452.458138,351.164913 452.458138,226.221856 C452.458138,101.283607 351.169722,0 226.226664,0 C101.283607,0 0,101.283607 0,226.221856 Z" id="path-71"></path>
        <path d="M0,226.221856 C0,351.164913 101.283607,452.458138 226.226664,452.458138 C351.169722,452.458138 452.458138,351.164913 452.458138,226.221856 C452.458138,101.283607 351.169722,0 226.226664,0 C101.283607,0 0,101.283607 0,226.221856 Z" id="path-73"></path>
        <path d="M0,335.215686 C38.5006855,405.104782 112.878694,452.458138 198.318859,452.458138 C323.28055,452.458138 424.584072,351.164913 424.584072,226.221856 C424.584072,101.283607 323.28055,0 198.318859,0 C112.878694,0 38.5006855,47.3488592 0,117.233574 L7.87432638e-06,335.215701 L0,335.215686 Z" id="path-75"></path>
        <path d="M0,377.561665 C41.222254,423.545947 100.95129,452.458138 167.40312,452.458138 C291.784863,452.458138 392.618235,351.164913 392.618235,226.221856 C392.618235,101.283607 291.784863,0 167.40312,0 C100.95129,0 41.222254,28.9094459 0,74.8904366 L2.72122374e-13,377.561665 Z" id="path-77"></path>
        <path d="M0,405.474593 C38.2318567,434.934689 86.1512292,452.458138 138.16746,452.458138 C263.22771,452.458138 364.61113,351.164913 364.61113,226.221856 C364.61113,101.283607 263.22771,0 138.16746,0 C86.1512292,0 38.2318567,17.521785 2.73606809e-13,46.979591 L2.73606809e-13,405.474593 Z" id="path-79"></path>
        <path d="M0,396.705424 C32.1973533,414.202344 69.1018036,424.142268 108.329467,424.142268 C233.755716,424.142268 335.435844,322.523228 335.435844,197.178284 C335.435844,112.751977 289.30287,39.0924659 220.854087,0 L0,0 L3.84638767e-05,396.705445 L0,396.705424 Z" id="path-81"></path>
        <path d="M0,377.51129 C24.3561257,386.359774 50.6651513,391.188891 78.1110953,391.188891 C203.575213,391.188891 305.28604,290.275122 305.28604,165.800115 C305.28604,100.221791 277.053047,41.184948 231.988053,0 L0,0 L1.45205418e-10,377.51129 Z" id="path-83"></path>
        <path d="M0,356.963169 C15.3915425,360.254052 31.3632394,361.986385 47.7408139,361.986385 C172.880979,361.986385 274.329185,260.84575 274.329185,136.090909 C274.329185,84.987675 257.305258,37.8479245 228.602534,0 L0,0 L2.73781649e-13,356.963169 Z" id="path-85"></path>
        <path d="M0,332.154265 C5.77894943,332.598729 11.6187795,332.825059 17.5113206,332.825059 C142.248574,332.825059 243.370149,231.403886 243.370149,106.303006 C243.370149,67.884276 233.832474,31.6994438 217.002208,0 L0,0 L1.14618067e-11,332.154265 Z" id="path-87"></path>
        <path d="M0,302.019426 C119.374166,295.484745 214.156569,196.817492 214.156569,76.0668357 C214.156569,49.3802552 209.526707,23.7726079 201.024758,0 L0,0 L0,302.019426 Z" id="path-89"></path>
        <path d="M0,269.844441 C103.021591,249.744794 180.884824,157.260397 180.884824,46.2128168 C180.884824,30.3790339 179.301692,14.9227583 176.28823,0 L0,0 L0,269.844441 Z" id="path-91"></path>
        <path d="M0,228.173608 C90.1444272,198.100925 155.003081,114.316457 155.003081,15.6676106 C155.003081,10.40072 154.818186,5.17621254 154.454419,0 L0,0 L0,228.173608 Z" id="path-93"></path>
        <path d="M0,188.170079 C69.338402,152.562772 117.995898,82.1979451 123.117501,0 L0,0 L0,188.170079 Z" id="path-95"></path>
    </defs>
    <g id="FB-Country-Pages---Creating-opportuinity-v3.2" stroke="none" stroke-width="1" fill="none" fill-rule="evenodd" transform="translate(-944.000000, -2603.000000)" opacity="0.7">
        <g id="4_Events" transform="translate(-1.000000, 2603.000000)">
            <g id="Blue-BG">
                <g id="Pattern" transform="translate(883.000000, 0.000000)">
                    <g transform="translate(62.000000, -126.000000)">
                        <g id="Group-244" transform="translate(18.000000, 0.000000)">
                            <mask id="mask-2" fill="white">
                                <use xlink:href="#path-1"></use>
                            </mask>
                            <g id="Clip-243"></g>
                            <polygon id="Fill-242" fill="#F5F6F7" mask="url(#mask-2)" points="-403 141.206848 -403 126.800321 221.708367 -511.399588 225.232694 -515 232.290898 -507.794297"></polygon>
                        </g>
                        <g id="Group-247" transform="translate(9.000000, 0.000000)">
                            <mask id="mask-4" fill="white">
                                <use xlink:href="#path-3"></use>
                            </mask>
                            <g id="Clip-246"></g>
                            <polygon id="Fill-245" fill="#F5F6F7" mask="url(#mask-4)" points="-395 170.688368 -395 156.34641 263.731361 -509.415725 267.277784 -513 274.370631 -505.831449"></polygon>
                        </g>
                        <g id="Group-250" transform="translate(3.000000, 0.000000)">
                            <mask id="mask-6" fill="white">
                                <use xlink:href="#path-5"></use>
                            </mask>
                            <g id="Clip-249"></g>
                            <polygon id="Fill-248" fill="#F5F6F7" mask="url(#mask-6)" points="-388 198.903846 -388 184.701923 298.66224 -504.451923 302.202279 -508 309.272777 -500.903846"></polygon>
                        </g>
                        <g id="Group-253">
                            <mask id="mask-8" fill="white">
                                <use xlink:href="#path-7"></use>
                            </mask>
                            <g id="Clip-252"></g>
                            <polygon id="Fill-251" fill="#F5F6F7" mask="url(#mask-8)" points="-386 227.915042 -386 213.835602 330.966487 -499.476564 334.507997 -503 341.586225 -495.957896"></polygon>
                        </g>
                        <g id="Group-256">
                            <mask id="mask-10" fill="white">
                                <use xlink:href="#path-9"></use>
                            </mask>
                            <g id="Clip-255"></g>
                            <polygon id="Fill-254" fill="#F5F6F7" mask="url(#mask-10)" points="-387 260.838906 -387 246.591832 362.23491 -505.434613 365.787062 -509 372.881753 -501.874051"></polygon>
                        </g>
                        <g id="Group-259">
                            <mask id="mask-12" fill="white">
                                <use xlink:href="#path-11"></use>
                            </mask>
                            <g id="Clip-258"></g>
                            <polygon id="Fill-257" fill="#F5F6F7" mask="url(#mask-12)" points="-387 289.646567 -387 275.455565 392.466763 -503.449847 396.019474 -507 403.115282 -499.904499"></polygon>
                        </g>
                        <g id="Group-262">
                            <mask id="mask-14" fill="white">
                                <use xlink:href="#path-13"></use>
                            </mask>
                            <g id="Clip-261"></g>
                            <polygon id="Fill-260" fill="#F5F6F7" mask="url(#mask-14)" points="-388 320.447246 -388 306.209752 423.208466 -505.443037 426.763482 -509 433.878332 -501.886073"></polygon>
                        </g>
                        <g id="Group-265">
                            <mask id="mask-16" fill="white">
                                <use xlink:href="#path-15"></use>
                            </mask>
                            <g id="Clip-264"></g>
                            <polygon id="Fill-263" fill="#F5F6F7" mask="url(#mask-16)" points="-387 350.572181 -387 336.340598 452.944154 -505.443309 456.493072 -509 463.590907 -501.886618"></polygon>
                        </g>
                        <g id="Group-268">
                            <mask id="mask-18" fill="white">
                                <use xlink:href="#path-17"></use>
                            </mask>
                            <g id="Clip-267"></g>
                            <polygon id="Fill-266" fill="#F5F6F7" mask="url(#mask-18)" points="-387 381.617304 -387 367.35135 483.066674 -506.431097 486.615592 -510 493.718236 -502.867023"></polygon>
                        </g>
                        <g id="Group-271">
                            <mask id="mask-20" fill="white">
                                <use xlink:href="#path-19"></use>
                            </mask>
                            <g id="Clip-270"></g>
                            <polygon id="Fill-269" fill="#F5F6F7" mask="url(#mask-20)" points="-387 409.81393 -387 395.630924 513.189194 -503.455449 516.738112 -507 523.840756 -499.906095"></polygon>
                        </g>
                        <g id="Group-274">
                            <mask id="mask-22" fill="white">
                                <use xlink:href="#path-21"></use>
                            </mask>
                            <g id="Clip-273"></g>
                            <polygon id="Fill-272" fill="#F5F6F7" mask="url(#mask-22)" points="-387 438.861234 -387 424.703963 543.311714 -502.463079 546.86544 -506 553.963275 -498.926157"></polygon>
                        </g>
                        <g id="Group-277">
                            <mask id="mask-24" fill="white">
                                <use xlink:href="#path-23"></use>
                            </mask>
                            <g id="Clip-276"></g>
                            <polygon id="Fill-275" fill="#F5F6F7" mask="url(#mask-24)" points="-387 470.193248 -387 455.992769 573.439043 -504.451082 576.98796 -508 584.085795 -500.897356"></polygon>
                        </g>
                        <g id="Group-280">
                            <mask id="mask-26" fill="white">
                                <use xlink:href="#path-25"></use>
                            </mask>
                            <g id="Clip-279"></g>
                            <polygon id="Fill-278" fill="#F5F6F7" mask="url(#mask-26)" points="-387 500.320577 -387 486.115289 603.561563 -504.451082 607.115289 -508 614.213124 -500.902165"></polygon>
                        </g>
                        <g id="Group-283">
                            <mask id="mask-28" fill="white">
                                <use xlink:href="#path-27"></use>
                            </mask>
                            <g id="Clip-282"></g>
                            <polygon id="Fill-281" fill="#F5F6F7" mask="url(#mask-28)" points="-387 530.443097 -387 516.237809 633.688891 -504.451082 637.237809 -508 644.340453 -500.902165"></polygon>
                        </g>
                        <g id="Group-286">
                            <mask id="mask-30" fill="white">
                                <use xlink:href="#path-29"></use>
                            </mask>
                            <g id="Clip-285"></g>
                            <polygon id="Fill-284" fill="#F5F6F7" mask="url(#mask-30)" points="-387 560.570426 -387 546.369946 663.811411 -504.451082 667.365138 -508 674.462973 -500.892547"></polygon>
                        </g>
                        <g id="Group-289">
                            <mask id="mask-32" fill="white">
                                <use xlink:href="#path-31"></use>
                            </mask>
                            <g id="Clip-288"></g>
                            <polygon id="Fill-287" fill="#F5F6F7" mask="url(#mask-32)" points="-387 590.692945 -387 576.487657 693.933931 -504.451082 697.492466 -508 704.590301 -500.902165"></polygon>
                        </g>
                        <g id="Group-292">
                            <mask id="mask-34" fill="white">
                                <use xlink:href="#path-33"></use>
                            </mask>
                            <g id="Clip-291"></g>
                            <polygon id="Fill-290" fill="#F5F6F7" mask="url(#mask-34)" points="-387 620.815465 -387 606.610177 724.06126 -504.451082 727.614986 -508 734.712821 -500.902165"></polygon>
                        </g>
                        <g id="Group-295">
                            <mask id="mask-36" fill="white">
                                <use xlink:href="#path-35"></use>
                            </mask>
                            <g id="Clip-294"></g>
                            <polygon id="Fill-293" fill="#F5F6F7" mask="url(#mask-36)" points="-387 650.942794 -387 636.742315 754.18378 -504.451082 757.737506 -508 764.84015 -500.897356"></polygon>
                        </g>
                        <g id="Group-298">
                            <mask id="mask-38" fill="white">
                                <use xlink:href="#path-37"></use>
                            </mask>
                            <g id="Clip-297"></g>
                            <polygon id="Fill-296" fill="#F5F6F7" mask="url(#mask-38)" points="-387 681.070123 -387 666.864835 784.311108 -504.451082 787.860026 -508 794.96267 -500.902165"></polygon>
                        </g>
                        <g id="Group-301">
                            <mask id="mask-40" fill="white">
                                <use xlink:href="#path-39"></use>
                            </mask>
                            <g id="Clip-300"></g>
                            <polygon id="Fill-299" fill="#F5F6F7" mask="url(#mask-40)" points="-387 711.192643 -387 696.987355 814.438437 -504.451082 817.987355 -508 825.08519 -500.897356"></polygon>
                        </g>
                        <g id="Group-304">
                            <mask id="mask-42" fill="white">
                                <use xlink:href="#path-41"></use>
                            </mask>
                            <g id="Clip-303"></g>
                            <polygon id="Fill-302" fill="#F5F6F7" mask="url(#mask-42)" points="-387 741.315163 -387 727.114683 844.560957 -504.451082 848.114683 -508 855.217327 -500.902165"></polygon>
                        </g>
                        <g id="Group-307">
                            <mask id="mask-44" fill="white">
                                <use xlink:href="#path-43"></use>
                            </mask>
                            <g id="Clip-306"></g>
                            <polygon id="Fill-305" fill="#F5F6F7" mask="url(#mask-44)" points="-387 771.442491 -387 757.237203 874.683477 -504.451082 878.237203 -508 885.339847 -500.902165"></polygon>
                        </g>
                        <g id="Group-310">
                            <mask id="mask-46" fill="white">
                                <use xlink:href="#path-45"></use>
                            </mask>
                            <g id="Clip-309"></g>
                            <polygon id="Fill-308" fill="#F5F6F7" mask="url(#mask-46)" points="-387 787.364532 904.810806 -504.451082 908.364532 -508 913.005054 -503.34986 913.005054 -498.440043 -387 801.56982"></polygon>
                        </g>
                        <g id="Group-313">
                            <mask id="mask-48" fill="white">
                                <use xlink:href="#path-47"></use>
                            </mask>
                            <g id="Clip-312"></g>
                            <polygon id="Fill-311" fill="#F5F6F7" mask="url(#mask-48)" points="-387 827.565011 -387 818.005054 913.005054 -482 913.005054 -467.80433 -382.354669 827.565011"></polygon>
                        </g>
                        <g id="Group-316">
                            <mask id="mask-50" fill="white">
                                <use xlink:href="#path-49"></use>
                            </mask>
                            <g id="Clip-315"></g>
                            <polygon id="Fill-314" fill="#F5F6F7" mask="url(#mask-50)" points="-359.451082 827.442491 -363 823.893574 912.883956 -452 912.883956 -437.794712 -352.353247 827.442491"></polygon>
                        </g>
                        <g id="Group-319">
                            <mask id="mask-52" fill="white">
                                <use xlink:href="#path-51"></use>
                            </mask>
                            <g id="Clip-318"></g>
                            <polygon id="Fill-317" fill="#F5F6F7" mask="url(#mask-52)" points="-329.446274 827.319971 -333 823.771054 912.771054 -422 912.771054 -407.794712 -322.348438 827.319971"></polygon>
                        </g>
                        <g id="Group-322">
                            <mask id="mask-54" fill="white">
                                <use xlink:href="#path-53"></use>
                            </mask>
                            <g id="Clip-321"></g>
                            <polygon id="Fill-320" fill="#F5F6F7" mask="url(#mask-54)" points="-299.446274 827.192643 -303 823.643725 912.638916 -392 912.638916 -377.799521 -292.348438 827.192643"></polygon>
                        </g>
                        <g id="Group-325">
                            <mask id="mask-56" fill="white">
                                <use xlink:href="#path-55"></use>
                            </mask>
                            <g id="Clip-324"></g>
                            <polygon id="Fill-323" fill="#F5F6F7" mask="url(#mask-56)" points="-269.451082 827.070123 -273 823.521205 912.516396 -362 912.516396 -347.794712 -262.353247 827.070123"></polygon>
                        </g>
                        <g id="Group-328">
                            <mask id="mask-58" fill="white">
                                <use xlink:href="#path-57"></use>
                            </mask>
                            <g id="Clip-327"></g>
                            <polygon id="Fill-326" fill="#F5F6F7" mask="url(#mask-58)" points="-239.446274 826.947603 -243 823.398685 912.389068 -332 912.389068 -317.794712 -232.348438 826.947603"></polygon>
                        </g>
                        <g id="Group-331">
                            <mask id="mask-60" fill="white">
                                <use xlink:href="#path-59"></use>
                            </mask>
                            <g id="Clip-330"></g>
                            <polygon id="Fill-329" fill="#F5F6F7" mask="url(#mask-60)" points="-209.446274 826.815465 -213 823.266548 912.266548 -302 912.266548 -287.80433 -202.348438 826.815465"></polygon>
                        </g>
                        <g id="Group-334">
                            <mask id="mask-62" fill="white">
                                <use xlink:href="#path-61"></use>
                            </mask>
                            <g id="Clip-333"></g>
                            <polygon id="Fill-332" fill="#F5F6F7" mask="url(#mask-62)" points="-178.446274 827.697754 -182 824.148837 913.148837 -271 913.148837 -256.794712 -171.348438 827.697754"></polygon>
                        </g>
                        <g id="Group-337">
                            <mask id="mask-64" fill="white">
                                <use xlink:href="#path-63"></use>
                            </mask>
                            <g id="Clip-336"></g>
                            <polygon id="Fill-335" fill="#F5F6F7" mask="url(#mask-64)" points="-148.446274 827.575234 -152 824.026317 913.016699 -241 913.016699 -226.794712 -141.348438 827.575234"></polygon>
                        </g>
                        <g id="Group-340">
                            <mask id="mask-66" fill="white">
                                <use xlink:href="#path-65"></use>
                            </mask>
                            <g id="Clip-339"></g>
                            <polygon id="Fill-338" fill="#F5F6F7" mask="url(#mask-66)" points="-118.455891 827.447906 -122 823.898988 912.894179 -211 912.894179 -196.794712 -111.353247 827.447906"></polygon>
                        </g>
                        <g id="Group-343">
                            <mask id="mask-68" fill="white">
                                <use xlink:href="#path-67"></use>
                            </mask>
                            <g id="Clip-342"></g>
                            <polygon id="Fill-341" fill="#F5F6F7" mask="url(#mask-68)" points="-88.4462736 827.325386 -92 823.776468 912.76685 -181 912.76685 -166.794712 -81.3484384 827.325386"></polygon>
                        </g>
                        <g id="Group-346">
                            <mask id="mask-70" fill="white">
                                <use xlink:href="#path-69"></use>
                            </mask>
                            <g id="Clip-345"></g>
                            <polygon id="Fill-344" fill="#F5F6F7" mask="url(#mask-70)" points="-58.4510824 827.198057 -62 823.649139 912.639522 -151 912.639522 -136.799521 -51.3484384 827.198057"></polygon>
                        </g>
                        <g id="Group-349">
                            <mask id="mask-72" fill="white">
                                <use xlink:href="#path-71"></use>
                            </mask>
                            <g id="Clip-348"></g>
                            <polygon id="Fill-347" fill="#F5F6F7" mask="url(#mask-72)" points="-28.4510824 827.070728 -32 823.521811 912.517002 -121 912.517002 -106.799521 -21.3532473 827.070728"></polygon>
                        </g>
                        <g id="Group-352">
                            <mask id="mask-74" fill="white">
                                <use xlink:href="#path-73"></use>
                            </mask>
                            <g id="Clip-351"></g>
                            <polygon id="Fill-350" fill="#F5F6F7" mask="url(#mask-74)" points="1.5537264 826.948208 -2 823.399291 912.399291 -91 912.399291 -76.794712 8.65156155 826.948208"></polygon>
                        </g>
                        <g id="Group-355" transform="translate(28.000000, 0.000000)">
                            <mask id="mask-76" fill="white">
                                <use xlink:href="#path-75"></use>
                            </mask>
                            <g id="Clip-354"></g>
                            <polygon id="Fill-353" fill="#F5F6F7" mask="url(#mask-76)" points="3.55425641 826.82088 0 823.271962 884.403844 -61 884.403844 -46.794712 10.6531501 826.82088"></polygon>
                        </g>
                        <g id="Group-358" transform="translate(60.000000, 0.000000)">
                            <mask id="mask-78" fill="white">
                                <use xlink:href="#path-77"></use>
                            </mask>
                            <g id="Clip-357"></g>
                            <polygon id="Fill-356" fill="#F5F6F7" mask="url(#mask-78)" points="3.52818662 827.69836 0 824.149442 850.307337 -30 850.307337 -15.7995209 10.5989215 827.69836"></polygon>
                        </g>
                        <g id="Group-361" transform="translate(88.000000, 0.000000)">
                            <mask id="mask-80" fill="white">
                                <use xlink:href="#path-79"></use>
                            </mask>
                            <g id="Clip-360"></g>
                            <polygon id="Fill-359" fill="#F5F6F7" mask="url(#mask-80)" points="3.55224632 827.571031 0 824.022113 824.7902 0 824.7902 14.2004791 10.6615523 827.571031"></polygon>
                        </g>
                        <g id="Group-364" transform="translate(117.000000, 28.000000)">
                            <mask id="mask-82" fill="white">
                                <use xlink:href="#path-81"></use>
                            </mask>
                            <g id="Clip-363"></g>
                            <polygon id="Fill-362" fill="#F5F6F7" mask="url(#mask-82)" points="3.56264229 800.013552 0 796.453219 796.96501 0 796.96501 14.2509801 10.6927543 800.013552"></polygon>
                        </g>
                        <g id="Group-367" transform="translate(148.000000, 61.000000)">
                            <mask id="mask-84" fill="white">
                                <use xlink:href="#path-83"></use>
                            </mask>
                            <g id="Clip-366"></g>
                            <polygon id="Fill-365" fill="#F5F6F7" mask="url(#mask-84)" points="3.56371792 764.451503 0 760.91588 766.952659 0 766.952659 14.1520734 10.6911538 764.451503"></polygon>
                        </g>
                        <g id="Group-370" transform="translate(179.000000, 91.000000)">
                            <mask id="mask-86" fill="white">
                                <use xlink:href="#path-85"></use>
                            </mask>
                            <g id="Clip-369"></g>
                            <polygon id="Fill-368" fill="#F5F6F7" mask="url(#mask-86)" points="3.55933268 736.088135 0 732.544563 734.807134 0 734.807134 14.1838889 10.6683652 736.088135"></polygon>
                        </g>
                        <g id="Group-373" transform="translate(210.000000, 120.000000)">
                            <mask id="mask-88" fill="white">
                                <use xlink:href="#path-87"></use>
                            </mask>
                            <g id="Clip-372"></g>
                            <polygon id="Fill-371" fill="#F5F6F7" mask="url(#mask-88)" points="3.54787277 707.964472 0 704.411071 702.363586 0 702.363586 14.2184165 10.6340165 707.964472"></polygon>
                        </g>
                        <g id="Group-376" transform="translate(239.000000, 149.000000)">
                            <mask id="mask-90" fill="white">
                                <use xlink:href="#path-89"></use>
                            </mask>
                            <g id="Clip-375"></g>
                            <polygon id="Fill-374" fill="#F5F6F7" mask="url(#mask-90)" points="3.55266171 677.130917 0 673.581044 675.015365 0 675.015365 14.2042991 10.6724464 677.130917"></polygon>
                        </g>
                        <g id="Group-379" transform="translate(272.000000, 182.000000)">
                            <mask id="mask-92" fill="white">
                                <use xlink:href="#path-91"></use>
                            </mask>
                            <g id="Clip-378"></g>
                            <polygon id="Fill-377" fill="#F5F6F7" mask="url(#mask-92)" points="3.4979509 650.959519 0 647.387897 634.034409 0 634.034409 14.2913265 10.4985925 650.959519"></polygon>
                        </g>
                        <g id="Group-382" transform="translate(298.000000, 210.000000)">
                            <mask id="mask-94" fill="white">
                                <use xlink:href="#path-93"></use>
                            </mask>
                            <g id="Clip-381"></g>
                            <polygon id="Fill-380" fill="#F5F6F7" mask="url(#mask-94)" points="3.58613333 611.665922 0 608.145968 619.574993 0 619.574993 14.0893548 10.7632593 611.665922"></polygon>
                        </g>
                        <g id="Group-385" transform="translate(330.000000, 239.000000)">
                            <mask id="mask-96" fill="white">
                                <use xlink:href="#path-95"></use>
                            </mask>
                            <g id="Clip-384"></g>
                            <polygon id="Fill-383" fill="#F5F6F7" mask="url(#mask-96)" points="3.55743176 589.696417 0 586.128623 584.421445 0 584.421445 14.2808452 10.6722953 589.696417"></polygon>
                        </g>
                    </g>
                </g>
            </g>
        </g>
    </g>
</svg>