<?xml version="1.0" encoding="UTF-8"?>
<svg width="12px" height="12px" viewBox="0 0 12 12" version="1.1" xmlns="http://www.w3.org/2000/svg" xmlns:xlink="http://www.w3.org/1999/xlink">
    <!-- Generator: Sketch 48.2 (47327) - http://www.bohemiancoding.com/sketch -->
    <title>Shape</title>
    <desc>Created with Sketch.</desc>
    <defs></defs>
    <g id="Page-1" stroke="none" stroke-width="1" fill="none" fill-rule="evenodd">
        <path d="M6,1.34693878 L6,2.03309591e-14 L10.6530612,2.03309591e-14 C11.0204082,2.03309591e-14 11.2653061,0.12244898 11.6326531,0.367346939 C11.877551,0.612244898 12,0.979591837 12,1.34693878 L12,10.6530612 C12,11.0204082 11.877551,11.3877551 11.6326531,11.6326531 C11.3877551,11.877551 11.0204082,12 10.6530612,12 L1.34693878,12 C0.979591837,12 0.734693878,11.877551 0.367346939,11.6326531 C0.12244898,11.3877551 -1.77635684e-14,11.0204082 -1.77635684e-14,10.6530612 L-1.77635684e-14,6 L1.34693878,6 L1.34693878,10.6530612 L10.6530612,10.6530612 L10.6530612,1.34693878 L6,1.34693878 Z M-1.77635684e-14,4.65306122 L-1.77635684e-14,2.03309591e-14 L4.65306122,2.03309591e-14 L4.65306122,1.34693878 L2.32653061,1.34693878 L8.81632653,7.83673469 L7.83673469,8.81632653 L1.34693878,2.32653061 L1.34693878,4.65306122 L-1.77635684e-14,4.65306122 Z" id="Shape" fill="#179FDC" fill-rule="nonzero" transform="translate(6.000000, 6.000000) rotate(90.000000) translate(-6.000000, -6.000000) "></path>
    </g>
</svg>