<?xml version="1.0" encoding="UTF-8"?>
<svg width="12px" height="12px" viewBox="0 0 12 12" version="1.1" xmlns="http://www.w3.org/2000/svg" xmlns:xlink="http://www.w3.org/1999/xlink">
    <!-- Generator: Sketch 48.2 (47327) - http://www.bohemiancoding.com/sketch -->
    <title>Shape</title>
    <desc>Created with Sketch.</desc>
    <defs></defs>
    <g id="Page-1" stroke="none" stroke-width="1" fill="none" fill-rule="evenodd">
        <path d="M10.6530612,10.6530612 L10.6530612,6 L12,6 L12,10.6530612 C12,11.0204082 11.877551,11.2653061 11.6326531,11.6326531 C11.3877551,11.877551 11.0204082,12 10.6530612,12 L1.34693878,12 C0.979591837,12 0.612244898,11.877551 0.367346939,11.6326531 C0.12244898,11.3877551 0,11.0204082 0,10.6530612 L0,1.34693878 C0,0.979591837 0.12244898,0.734693878 0.367346939,0.367346939 C0.612244898,0.12244898 0.979591837,0 1.34693878,0 L6,0 L6,1.34693878 L1.34693878,1.34693878 L1.34693878,10.6530612 L10.6530612,10.6530612 Z M7.34693878,0 L12,0 L12,4.65306122 L10.6530612,4.65306122 L10.6530612,2.32653061 L4.16326531,8.81632653 L3.18367347,7.83673469 L9.67346939,1.34693878 L7.34693878,1.34693878 L7.34693878,0 Z" id="Shape" fill="#FFFFFF" fill-rule="nonzero"></path>
    </g>
</svg>