<?xml version="1.0" encoding="UTF-8"?>
<svg width="297px" height="272px" viewBox="0 0 297 272" version="1.1" xmlns="http://www.w3.org/2000/svg" xmlns:xlink="http://www.w3.org/1999/xlink">
    <!-- Generator: Sketch 48.1 (47250) - http://www.bohemiancoding.com/sketch -->
    <title>Pattern</title>
    <desc>Created with Sketch.</desc>
    <defs>
        <rect id="path-1" x="0" y="0" width="529" height="525"></rect>
        <path d="M154.35596,0 C88.9357694,1.26332319 31.8406931,36.6845791 0,89.2514089 L154.35596,89.2514089 L154.35596,0 Z" id="path-3"></path>
        <path d="M190.289546,1.19959381 C183.443825,0.407098109 176.484044,0 169.431401,0 C93.1483908,0 27.7317036,47.6267393 0,115.420398 L190.289546,115.420398 L190.289546,1.19959381 Z" id="path-5"></path>
        <path d="M224.390747,5.73928394 C209.809387,1.99153846 194.536485,2.26128889e-13 178.804386,0 C92.9017627,0 20.6929821,59.3783675 0,139.822709 L224.390747,139.822709 L224.390747,5.73928394 Z" id="path-7"></path>
        <path d="M252.84463,13.8360595 C231.271443,4.91797617 207.643751,0 182.874146,0 C88.6125473,0 10.8916029,71.222607 0,163.082109 L252.84463,163.082109 L252.84463,13.8360399 L252.84463,13.8360595 Z" id="path-9"></path>
        <path d="M0.0163847365,186.1919 C0.00547296724,185.36801 0,184.542812 0,183.71634 C0,82.2531206 82.4929548,0 184.255938,0 C218.816154,0 251.154251,9.48692823 278.793444,25.9913539 L278.793444,186.1919 L0.0163847365,186.1919 Z" id="path-11"></path>
        <path d="M1.97281466,213.1651 C0.673114832,204.267294 0,195.164563 0,185.903725 C0,83.2324524 82.7408411,0 184.809616,0 C230.341409,0 272.027808,16.5629007 304.238961,44.0257499 L304.238961,213.1651 L1.97281466,213.1651 Z" id="path-13"></path>
        <path d="M7.33266347,236.905241 C2.55919453,220.468767 0,203.088312 0,185.109395 C0,82.8768165 82.7538655,0 184.838707,0 C243.072711,-2.23673041e-13 295.017502,26.9689378 328.898484,69.1154541 L328.898484,236.905241 L7.33266347,236.905241 Z" id="path-15"></path>
        <path d="M16.4800752,262.412683 C5.8948913,239.0328 0,213.064442 0,185.715826 C0,83.1483264 82.9197627,0 185.209254,0 C260.467663,0 325.243128,45.0092252 354.222764,109.64659 L354.222738,261.788856 C354.129434,261.996979 354.035742,262.204933 353.94168,262.412683 L16.4800354,262.412676 L16.4800752,262.412683 Z" id="path-17"></path>
        <path d="M29.9784693,287.118436 C11.0200205,257.961288 0,223.123699 0,185.701594 C0,83.1419545 82.7775126,0 184.891525,0 C287.005538,0 369.78698,83.1419545 369.78698,185.701594 C369.78698,223.123699 358.766437,257.961288 339.807323,287.118436 L29.9784693,287.118436 Z" id="path-19"></path>
        <path d="M49.2000627,312.49717 C18.6640954,279.305486 0,234.88946 0,186.087073 C0,83.3145407 82.7775126,0 184.891525,0 C287.005538,0 369.78698,83.3145407 369.78698,186.087073 C369.78698,234.88946 351.121999,279.305486 320.585101,312.49717 L49.2000627,312.49717 Z" id="path-21"></path>
        <path d="M77.0586868,335.426871 C30.3904256,301.830167 0,247.00051 0,185.067741 C0,82.8581672 82.7775126,0 184.891525,0 C287.005538,0 369.78698,82.8581672 369.78698,185.067741 C369.78698,247.00051 339.395112,301.830167 292.725713,335.426871 L77.0586868,335.426871 Z" id="path-23"></path>
        <path d="M124.571526,359.298812 C52.0758406,334.318734 0,265.56677 0,184.669392 C0,82.6798192 82.7775126,0 184.891525,0 C287.005538,0 369.78698,82.6798192 369.78698,184.669392 C369.78698,265.56677 317.708667,334.318734 245.211959,359.298812 L124.571526,359.298812 Z" id="path-25"></path>
        <path d="M0,185.295735 C0,287.635165 82.7775126,370.603287 184.891525,370.603287 C287.005538,370.603287 369.78698,287.635165 369.78698,185.295735 C369.78698,82.9602444 287.005538,0 184.891525,0 C82.7775126,0 0,82.9602444 0,185.295735 Z" id="path-27"></path>
        <path d="M0,185.295735 C0,287.635165 82.7775126,370.603287 184.891525,370.603287 C287.005538,370.603287 369.78698,287.635165 369.78698,185.295735 C369.78698,82.9602444 287.005538,0 184.891525,0 C82.7775126,0 0,82.9602444 0,185.295735 Z" id="path-29"></path>
        <path d="M0,185.295735 C0,287.635165 82.7775126,370.603287 184.891525,370.603287 C287.005538,370.603287 369.78698,287.635165 369.78698,185.295735 C369.78698,82.9602444 287.005538,0 184.891525,0 C82.7775126,0 0,82.9602444 0,185.295735 Z" id="path-31"></path>
        <path d="M0,185.295735 C0,287.635165 82.7775126,370.603287 184.891525,370.603287 C287.005538,370.603287 369.78698,287.635165 369.78698,185.295735 C369.78698,82.9602444 287.005538,0 184.891525,0 C82.7775126,0 0,82.9602444 0,185.295735 Z" id="path-33"></path>
        <path d="M0,185.295735 C0,287.635165 82.7775126,370.603287 184.891525,370.603287 C287.005538,370.603287 369.78698,287.635165 369.78698,185.295735 C369.78698,82.9602444 287.005538,0 184.891525,0 C82.7775126,0 0,82.9602444 0,185.295735 Z" id="path-35"></path>
        <path d="M0,185.295735 C0,287.635165 82.7775126,370.603287 184.891525,370.603287 C287.005538,370.603287 369.78698,287.635165 369.78698,185.295735 C369.78698,82.9602444 287.005538,0 184.891525,0 C82.7775126,0 0,82.9602444 0,185.295735 Z" id="path-37"></path>
        <path d="M0,185.295735 C0,287.635165 82.7775126,370.603287 184.891525,370.603287 C287.005538,370.603287 369.78698,287.635165 369.78698,185.295735 C369.78698,82.9602444 287.005538,0 184.891525,0 C82.7775126,0 0,82.9602444 0,185.295735 Z" id="path-39"></path>
        <path d="M0,185.295735 C0,287.635165 82.7775126,370.603287 184.891525,370.603287 C287.005538,370.603287 369.78698,287.635165 369.78698,185.295735 C369.78698,82.9602444 287.005538,0 184.891525,0 C82.7775126,0 0,82.9602444 0,185.295735 Z" id="path-41"></path>
        <path d="M0,185.295735 C0,287.635165 82.7775126,370.603287 184.891525,370.603287 C287.005538,370.603287 369.78698,287.635165 369.78698,185.295735 C369.78698,82.9602444 287.005538,0 184.891525,0 C82.7775126,0 0,82.9602444 0,185.295735 Z" id="path-43"></path>
        <path d="M0,185.295735 C0,287.635165 82.7775126,370.603287 184.891525,370.603287 C287.005538,370.603287 369.78698,287.635165 369.78698,185.295735 C369.78698,82.9602444 287.005538,0 184.891525,0 C82.7775126,0 0,82.9602444 0,185.295735 Z" id="path-45"></path>
        <path d="M0,185.295735 C0,287.635165 82.7775126,370.603287 184.891525,370.603287 C287.005538,370.603287 369.78698,287.635165 369.78698,185.295735 C369.78698,82.9602444 287.005538,0 184.891525,0 C82.7775126,0 0,82.9602444 0,185.295735 Z" id="path-47"></path>
        <path d="M0,185.295735 C0,287.635165 82.7775126,370.603287 184.891525,370.603287 C287.005538,370.603287 369.78698,287.635165 369.78698,185.295735 C369.78698,82.9602444 287.005538,0 184.891525,0 C82.7775126,0 0,82.9602444 0,185.295735 Z" id="path-49"></path>
        <path d="M0,185.295735 C0,287.635165 82.7775126,370.603287 184.891525,370.603287 C287.005538,370.603287 369.78698,287.635165 369.78698,185.295735 C369.78698,82.9602444 287.005538,0 184.891525,0 C82.7775126,0 0,82.9602444 0,185.295735 Z" id="path-51"></path>
        <path d="M0,185.295735 C0,287.635165 82.7775126,370.603287 184.891525,370.603287 C287.005538,370.603287 369.78698,287.635165 369.78698,185.295735 C369.78698,82.9602444 287.005538,0 184.891525,0 C82.7775126,0 0,82.9602444 0,185.295735 Z" id="path-53"></path>
        <path d="M0,185.295735 C0,287.635165 82.7775126,370.603287 184.891525,370.603287 C287.005538,370.603287 369.78698,287.635165 369.78698,185.295735 C369.78698,82.9602444 287.005538,0 184.891525,0 C82.7775126,0 0,82.9602444 0,185.295735 Z" id="path-55"></path>
        <path d="M0,185.295735 C0,287.635165 82.7775126,370.603287 184.891525,370.603287 C287.005538,370.603287 369.78698,287.635165 369.78698,185.295735 C369.78698,82.9602444 287.005538,0 184.891525,0 C82.7775126,0 0,82.9602444 0,185.295735 Z" id="path-57"></path>
        <path d="M0,185.295735 C0,287.635165 82.7775126,370.603287 184.891525,370.603287 C287.005538,370.603287 369.78698,287.635165 369.78698,185.295735 C369.78698,82.9602444 287.005538,0 184.891525,0 C82.7775126,0 0,82.9602444 0,185.295735 Z" id="path-59"></path>
        <path d="M0,185.295735 C0,287.635165 82.7775126,370.603287 184.891525,370.603287 C287.005538,370.603287 369.78698,287.635165 369.78698,185.295735 C369.78698,82.9602444 287.005538,0 184.891525,0 C82.7775126,0 0,82.9602444 0,185.295735 Z" id="path-61"></path>
        <path d="M0,185.295735 C0,287.635165 82.7775126,370.603287 184.891525,370.603287 C287.005538,370.603287 369.78698,287.635165 369.78698,185.295735 C369.78698,82.9602444 287.005538,0 184.891525,0 C82.7775126,0 0,82.9602444 0,185.295735 Z" id="path-63"></path>
        <path d="M0,185.295735 C0,287.635165 82.7775126,370.603287 184.891525,370.603287 C287.005538,370.603287 369.78698,287.635165 369.78698,185.295735 C369.78698,82.9602444 287.005538,0 184.891525,0 C82.7775126,0 0,82.9602444 0,185.295735 Z" id="path-65"></path>
        <path d="M0,185.295735 C0,287.635165 82.7775126,370.603287 184.891525,370.603287 C287.005538,370.603287 369.78698,287.635165 369.78698,185.295735 C369.78698,82.9602444 287.005538,0 184.891525,0 C82.7775126,0 0,82.9602444 0,185.295735 Z" id="path-67"></path>
        <path d="M0,185.295735 C0,287.635165 82.7775126,370.603287 184.891525,370.603287 C287.005538,370.603287 369.78698,287.635165 369.78698,185.295735 C369.78698,82.9602444 287.005538,0 184.891525,0 C82.7775126,0 0,82.9602444 0,185.295735 Z" id="path-69"></path>
        <path d="M0,185.295735 C0,287.635165 82.7775126,370.603287 184.891525,370.603287 C287.005538,370.603287 369.78698,287.635165 369.78698,185.295735 C369.78698,82.9602444 287.005538,0 184.891525,0 C82.7775126,0 0,82.9602444 0,185.295735 Z" id="path-71"></path>
        <path d="M0,185.295735 C0,287.635165 82.7775126,370.603287 184.891525,370.603287 C287.005538,370.603287 369.78698,287.635165 369.78698,185.295735 C369.78698,82.9602444 287.005538,0 184.891525,0 C82.7775126,0 0,82.9602444 0,185.295735 Z" id="path-73"></path>
        <path d="M0,185.295735 C0,287.635165 82.7775126,370.603287 184.891525,370.603287 C287.005538,370.603287 369.78698,287.635165 369.78698,185.295735 C369.78698,82.9602444 287.005538,0 184.891525,0 C82.7775126,0 0,82.9602444 0,185.295735 Z" id="path-75"></path>
        <path d="M0,185.295735 C0,287.635165 82.7775126,370.603287 184.891525,370.603287 C287.005538,370.603287 369.78698,287.635165 369.78698,185.295735 C369.78698,82.9602444 287.005538,0 184.891525,0 C82.7775126,0 0,82.9602444 0,185.295735 Z" id="path-77"></path>
        <path d="M0,274.571336 C31.4660099,331.816695 92.2539964,370.603287 162.082911,370.603287 C264.212152,370.603287 347.005941,287.635165 347.005941,185.295735 C347.005941,82.9602444 264.212152,0 162.082911,0 C92.2539964,0 31.4660099,38.7829092 0,96.0246801 L6.43556416e-06,274.571348 L0,274.571336 Z" id="path-79"></path>
        <path d="M0,309.256443 C33.6903054,346.921642 82.5059153,370.603287 136.81596,370.603287 C238.471219,370.603287 320.880761,287.635165 320.880761,185.295735 C320.880761,82.9602444 238.471219,0 136.81596,0 C82.5059153,0 33.6903054,23.6793966 0,61.3419003 L2.22401373e-13,309.256443 Z" id="path-81"></path>
        <path d="M0,332.119603 C31.2463003,356.250031 70.4100562,370.603287 112.922111,370.603287 C215.131902,370.603287 297.990991,287.635165 297.990991,185.295735 C297.990991,82.9602444 215.131902,0 112.922111,0 C70.4100562,0 31.2463003,14.3518937 2.23614579e-13,38.4804458 L2.23614579e-13,332.119603 Z" id="path-83"></path>
        <path d="M0,324.936877 C26.3143947,339.268404 56.4758265,347.410082 88.5359838,347.410082 C191.044901,347.410082 274.146484,264.175088 274.146484,161.506478 C274.146484,92.3538555 236.442724,32.0201918 180.500602,0 L0,0 L3.14359266e-05,324.936894 L0,324.936877 Z" id="path-85"></path>
        <path d="M0,309.215181 C19.9058818,316.462874 41.4078381,320.418348 63.8389801,320.418348 C166.378847,320.418348 249.50552,237.761034 249.50552,135.804979 C249.50552,82.0905227 226.431135,33.73412 189.600218,0 L0,0 L1.18674124e-10,309.215181 Z" id="path-87"></path>
        <path d="M0,292.38445 C12.5792677,295.079975 25.6326865,296.498909 39.0178227,296.498909 C141.292928,296.498909 224.204965,213.655771 224.204965,111.470507 C224.204965,69.6124328 210.291575,31.0008022 186.833287,0 L0,0 L2.23757472e-13,292.38445 Z" id="path-89"></path>
        <path d="M0,272.063761 C4.72304525,272.427816 9.4958473,272.6132 14.3117293,272.6132 C116.257541,272.6132 198.902628,189.540277 198.902628,87.0715769 C198.902628,55.6032343 191.107634,25.964652 177.352521,0 L0,0 L9.36755588e-12,272.063761 Z" id="path-91"></path>
        <path d="M0,247.380658 C97.5626447,242.028176 175.026824,161.210957 175.026824,62.3054754 C175.026824,40.4468024 171.24291,19.4718713 164.2944,0 L0,0 L0,247.380658 Z" id="path-93"></path>
        <path d="M0,221.026496 C84.1979399,204.563105 147.834346,128.810193 147.834346,37.8523899 C147.834346,24.8831193 146.540477,12.2230607 144.077621,0 L0,0 L0,221.026496 Z" id="path-95"></path>
        <path d="M0,186.894393 C73.6736347,162.262202 126.681601,93.635303 126.681601,12.8331607 C126.681601,8.51911083 126.530489,4.23977651 126.233188,0 L0,0 L0,186.894393 Z" id="path-97"></path>
        <path d="M0,154.12796 C56.6691947,124.962422 96.4362078,67.327397 100.622014,0 L0,0 L0,154.12796 Z" id="path-99"></path>
    </defs>
    <g id="FB-Country-Pages---Creating-opportuinity-v3.2" stroke="none" stroke-width="1" fill="none" fill-rule="evenodd" transform="translate(-983.000000, -737.000000)">
        <g id="Pattern" transform="translate(1017.500000, 744.500000) rotate(-270.000000) translate(-1017.500000, -744.500000) translate(753.000000, 482.000000)">
            <mask id="mask-2" fill="white">
                <use xlink:href="#path-1"></use>
            </mask>
            <g id="Mask"></g>
            <g opacity="0.0797101449" mask="url(#mask-2)">
                <g transform="translate(258.000000, -74.000000)">
                    <g id="Group-241" transform="translate(27.787670, 0.000000)">
                        <mask id="mask-4" fill="white">
                            <use xlink:href="#path-3"></use>
                        </mask>
                        <g id="Clip-240"></g>
                        <polygon id="Fill-239" fill="#223B98" mask="url(#mask-4)" points="-343.259451 89.3042153 -343.259451 77.6437367 146.016287 -413.998987 148.915385 -416.91608 154.71358 -411.085841"></polygon>
                    </g>
                    <g id="Group-244" transform="translate(14.711119, 0.000000)">
                        <mask id="mask-6" fill="white">
                            <use xlink:href="#path-5"></use>
                        </mask>
                        <g id="Clip-243"></g>
                        <polygon id="Fill-242" fill="#223B98" mask="url(#mask-6)" points="-329.365616 115.660915 -329.365616 103.860693 181.198791 -418.881555 184.079168 -421.830612 189.847729 -415.928502"></polygon>
                    </g>
                    <g id="Group-247" transform="translate(7.355560, 0.000000)">
                        <mask id="mask-8" fill="white">
                            <use xlink:href="#path-7"></use>
                        </mask>
                        <g id="Clip-246"></g>
                        <polygon id="Fill-245" fill="#223B98" mask="url(#mask-8)" points="-322.82734 139.808891 -322.82734 128.061557 215.543529 -417.256595 218.441965 -420.192434 224.238839 -414.320757"></polygon>
                    </g>
                    <g id="Group-250" transform="translate(2.451853, 0.000000)">
                        <mask id="mask-10" fill="white">
                            <use xlink:href="#path-9"></use>
                        </mask>
                        <g id="Clip-249"></g>
                        <polygon id="Fill-248" fill="#223B98" mask="url(#mask-10)" points="-317.10635 162.919866 -317.10635 151.287233 244.091991 -413.190802 246.98521 -416.096992 252.763818 -410.284613"></polygon>
                    </g>
                    <g id="Group-253">
                        <mask id="mask-12" fill="white">
                            <use xlink:href="#path-11"></use>
                        </mask>
                        <g id="Clip-252"></g>
                        <polygon id="Fill-251" fill="#223B98" mask="url(#mask-12)" points="-315.471781 186.682605 -315.471781 175.150297 270.493749 -409.115543 273.38817 -412.001549 279.173095 -406.233442"></polygon>
                    </g>
                    <g id="Group-256">
                        <mask id="mask-14" fill="white">
                            <use xlink:href="#path-13"></use>
                        </mask>
                        <g id="Clip-255"></g>
                        <polygon id="Fill-254" fill="#223B98" mask="url(#mask-14)" points="-316.289065 213.650166 -316.289065 201.98055 296.048943 -413.995713 298.952062 -416.91608 304.750442 -411.079297"></polygon>
                    </g>
                    <g id="Group-259">
                        <mask id="mask-16" fill="white">
                            <use xlink:href="#path-15"></use>
                        </mask>
                        <g id="Clip-258"></g>
                        <polygon id="Fill-257" fill="#223B98" mask="url(#mask-16)" points="-316.289065 237.246191 -316.289065 225.622504 320.756965 -412.370014 323.660541 -415.277903 329.459834 -409.466059"></polygon>
                    </g>
                    <g id="Group-262">
                        <mask id="mask-18" fill="white">
                            <use xlink:href="#path-17"></use>
                        </mask>
                        <g id="Clip-261"></g>
                        <polygon id="Fill-260" fill="#223B98" mask="url(#mask-18)" points="-317.10635 262.474675 -317.10635 250.812907 345.88168 -414.002612 348.787139 -416.91608 354.601995 -411.089144"></polygon>
                    </g>
                    <g id="Group-265">
                        <mask id="mask-20" fill="white">
                            <use xlink:href="#path-19"></use>
                        </mask>
                        <g id="Clip-264"></g>
                        <polygon id="Fill-263" fill="#223B98" mask="url(#mask-20)" points="-316.289065 287.149665 -316.289065 275.492738 370.184194 -414.002835 373.084669 -416.91608 378.885619 -411.08959"></polygon>
                    </g>
                    <g id="Group-268">
                        <mask id="mask-22" fill="white">
                            <use xlink:href="#path-21"></use>
                        </mask>
                        <g id="Clip-267"></g>
                        <polygon id="Fill-266" fill="#223B98" mask="url(#mask-22)" points="-316.289065 312.578371 -316.289065 300.893291 394.80286 -414.811921 397.703335 -417.735169 403.508215 -411.892629"></polygon>
                    </g>
                    <g id="Group-271">
                        <mask id="mask-24" fill="white">
                            <use xlink:href="#path-23"></use>
                        </mask>
                        <g id="Clip-270"></g>
                        <polygon id="Fill-269" fill="#223B98" mask="url(#mask-24)" points="-316.289065 335.673904 -316.289065 324.056766 419.421526 -412.374602 422.322001 -415.277903 428.126881 -409.467367"></polygon>
                    </g>
                    <g id="Group-274">
                        <mask id="mask-26" fill="white">
                            <use xlink:href="#path-25"></use>
                        </mask>
                        <g id="Clip-273"></g>
                        <polygon id="Fill-272" fill="#223B98" mask="url(#mask-26)" points="-316.289065 359.466219 -316.289065 347.87016 444.040191 -411.561763 446.944597 -414.458814 452.745547 -408.664711"></polygon>
                    </g>
                    <g id="Group-277">
                        <mask id="mask-28" fill="white">
                            <use xlink:href="#path-27"></use>
                        </mask>
                        <g id="Clip-276"></g>
                        <polygon id="Fill-275" fill="#223B98" mask="url(#mask-28)" points="-316.289065 385.129913 -316.289065 373.498463 468.662787 -413.190114 471.563262 -416.096992 477.364212 -410.279297"></polygon>
                    </g>
                    <g id="Group-280">
                        <mask id="mask-30" fill="white">
                            <use xlink:href="#path-29"></use>
                        </mask>
                        <g id="Clip-279"></g>
                        <polygon id="Fill-278" fill="#223B98" mask="url(#mask-30)" points="-316.289065 409.806864 -316.289065 398.171475 493.281453 -413.190114 496.185858 -416.096992 501.986808 -410.283236"></polygon>
                    </g>
                    <g id="Group-283">
                        <mask id="mask-32" fill="white">
                            <use xlink:href="#path-31"></use>
                        </mask>
                        <g id="Clip-282"></g>
                        <polygon id="Fill-281" fill="#223B98" mask="url(#mask-32)" points="-316.289065 434.479876 -316.289065 422.844487 517.904049 -413.190114 520.804524 -416.096992 526.609404 -410.283236"></polygon>
                    </g>
                    <g id="Group-286">
                        <mask id="mask-34" fill="white">
                            <use xlink:href="#path-33"></use>
                        </mask>
                        <g id="Clip-285"></g>
                        <polygon id="Fill-284" fill="#223B98" mask="url(#mask-34)" points="-316.289065 459.156826 -316.289065 447.525376 542.522715 -413.190114 545.42712 -416.096992 551.22807 -410.275358"></polygon>
                    </g>
                    <g id="Group-289">
                        <mask id="mask-36" fill="white">
                            <use xlink:href="#path-35"></use>
                        </mask>
                        <g id="Clip-288"></g>
                        <polygon id="Fill-287" fill="#223B98" mask="url(#mask-36)" points="-316.289065 483.829838 -316.289065 472.194449 567.141381 -413.190114 570.049716 -416.096992 575.850666 -410.283236"></polygon>
                    </g>
                    <g id="Group-292">
                        <mask id="mask-38" fill="white">
                            <use xlink:href="#path-37"></use>
                        </mask>
                        <g id="Clip-291"></g>
                        <polygon id="Fill-290" fill="#223B98" mask="url(#mask-38)" points="-316.289065 508.502849 -316.289065 496.86746 591.763977 -413.190114 594.668382 -416.096992 600.469332 -410.283236"></polygon>
                    </g>
                    <g id="Group-295">
                        <mask id="mask-40" fill="white">
                            <use xlink:href="#path-39"></use>
                        </mask>
                        <g id="Clip-294"></g>
                        <polygon id="Fill-293" fill="#223B98" mask="url(#mask-40)" points="-316.289065 533.1798 -316.289065 521.54835 616.382643 -413.190114 619.287048 -416.096992 625.091928 -410.279297"></polygon>
                    </g>
                    <g id="Group-298">
                        <mask id="mask-42" fill="white">
                            <use xlink:href="#path-41"></use>
                        </mask>
                        <g id="Clip-297"></g>
                        <polygon id="Fill-296" fill="#223B98" mask="url(#mask-42)" points="-316.289065 557.85675 -316.289065 546.221361 641.005238 -413.190114 643.905713 -416.096992 649.710594 -410.283236"></polygon>
                    </g>
                    <g id="Group-301">
                        <mask id="mask-44" fill="white">
                            <use xlink:href="#path-43"></use>
                        </mask>
                        <g id="Clip-300"></g>
                        <polygon id="Fill-299" fill="#223B98" mask="url(#mask-44)" points="-316.289065 582.529762 -316.289065 570.894373 665.627834 -413.190114 668.528309 -416.096992 674.329259 -410.279297"></polygon>
                    </g>
                    <g id="Group-304">
                        <mask id="mask-46" fill="white">
                            <use xlink:href="#path-45"></use>
                        </mask>
                        <g id="Clip-303"></g>
                        <polygon id="Fill-302" fill="#223B98" mask="url(#mask-46)" points="-316.289065 607.202773 -316.289065 595.571323 690.2465 -413.190114 693.150905 -416.096992 698.955786 -410.283236"></polygon>
                    </g>
                    <g id="Group-307">
                        <mask id="mask-48" fill="white">
                            <use xlink:href="#path-47"></use>
                        </mask>
                        <g id="Clip-306"></g>
                        <polygon id="Fill-305" fill="#223B98" mask="url(#mask-48)" points="-316.289065 631.879724 -316.289065 620.244335 714.865166 -413.190114 717.769571 -416.096992 723.574451 -410.283236"></polygon>
                    </g>
                    <g id="Group-310">
                        <mask id="mask-50" fill="white">
                            <use xlink:href="#path-49"></use>
                        </mask>
                        <g id="Clip-309"></g>
                        <polygon id="Fill-308" fill="#223B98" mask="url(#mask-50)" points="-316.289065 644.921285 739.487762 -413.190114 742.392167 -416.096992 746.184794 -412.288115 746.184794 -408.26654 -316.289065 656.556674"></polygon>
                    </g>
                    <g id="Group-313">
                        <mask id="mask-52" fill="white">
                            <use xlink:href="#path-51"></use>
                        </mask>
                        <g id="Clip-312"></g>
                        <polygon id="Fill-311" fill="#223B98" mask="url(#mask-52)" points="-316.289065 677.849038 -316.289065 670.018587 746.184794 -394.800689 746.184794 -383.173178 -312.492509 677.849038"></polygon>
                    </g>
                    <g id="Group-316">
                        <mask id="mask-54" fill="white">
                            <use xlink:href="#path-53"></use>
                        </mask>
                        <g id="Clip-315"></g>
                        <polygon id="Fill-314" fill="#223B98" mask="url(#mask-54)" points="-293.773764 677.748684 -296.674239 674.841806 746.085822 -370.228032 746.085822 -358.592643 -287.972814 677.748684"></polygon>
                    </g>
                    <g id="Group-319">
                        <mask id="mask-56" fill="white">
                            <use xlink:href="#path-55"></use>
                        </mask>
                        <g id="Clip-318"></g>
                        <polygon id="Fill-317" fill="#223B98" mask="url(#mask-56)" points="-269.251302 677.648329 -272.155707 674.741451 745.993549 -345.655375 745.993549 -334.019986 -263.450352 677.648329"></polygon>
                    </g>
                    <g id="Group-322">
                        <mask id="mask-58" fill="white">
                            <use xlink:href="#path-57"></use>
                        </mask>
                        <g id="Clip-321"></g>
                        <polygon id="Fill-320" fill="#223B98" mask="url(#mask-58)" points="-244.73277 677.544036 -247.637175 674.637158 745.885555 -321.082718 745.885555 -309.451268 -238.93182 677.544036"></polygon>
                    </g>
                    <g id="Group-325">
                        <mask id="mask-60" fill="white">
                            <use xlink:href="#path-59"></use>
                        </mask>
                        <g id="Clip-324"></g>
                        <polygon id="Fill-323" fill="#223B98" mask="url(#mask-60)" points="-220.218168 677.443681 -223.118643 674.536803 745.785421 -296.510061 745.785421 -284.874672 -214.417218 677.443681"></polygon>
                    </g>
                    <g id="Group-328">
                        <mask id="mask-62" fill="white">
                            <use xlink:href="#path-61"></use>
                        </mask>
                        <g id="Clip-327"></g>
                        <polygon id="Fill-326" fill="#223B98" mask="url(#mask-62)" points="-195.695706 677.343326 -198.600111 674.436448 745.681357 -271.937404 745.681357 -260.302015 -189.894756 677.343326"></polygon>
                    </g>
                    <g id="Group-331">
                        <mask id="mask-64" fill="white">
                            <use xlink:href="#path-63"></use>
                        </mask>
                        <g id="Clip-330"></g>
                        <polygon id="Fill-329" fill="#223B98" mask="url(#mask-64)" points="-171.177173 677.235094 -174.081579 674.328216 745.581224 -247.364747 745.581224 -235.737236 -165.376223 677.235094"></polygon>
                    </g>
                    <g id="Group-334">
                        <mask id="mask-66" fill="white">
                            <use xlink:href="#path-65"></use>
                        </mask>
                        <g id="Clip-333"></g>
                        <polygon id="Fill-332" fill="#223B98" mask="url(#mask-66)" points="-145.841357 677.957767 -148.745762 675.050889 746.302305 -221.973001 746.302305 -210.337612 -140.040407 677.957767"></polygon>
                    </g>
                    <g id="Group-337">
                        <mask id="mask-68" fill="white">
                            <use xlink:href="#path-67"></use>
                        </mask>
                        <g id="Clip-336"></g>
                        <polygon id="Fill-335" fill="#223B98" mask="url(#mask-68)" points="-121.322825 677.857412 -124.22723 674.950534 746.194311 -197.400344 746.194311 -185.764955 -115.521875 677.857412"></polygon>
                    </g>
                    <g id="Group-340">
                        <mask id="mask-70" fill="white">
                            <use xlink:href="#path-69"></use>
                        </mask>
                        <g id="Clip-339"></g>
                        <polygon id="Fill-338" fill="#223B98" mask="url(#mask-70)" points="-96.8121527 677.753118 -99.7086976 674.846241 746.094177 -172.827687 746.094177 -161.192298 -91.0072726 677.753118"></polygon>
                    </g>
                    <g id="Group-343">
                        <mask id="mask-72" fill="white">
                            <use xlink:href="#path-71"></use>
                        </mask>
                        <g id="Clip-342"></g>
                        <polygon id="Fill-341" fill="#223B98" mask="url(#mask-72)" points="-72.2857602 677.652764 -75.1901654 674.745886 745.990113 -148.25503 745.990113 -136.619642 -66.4848102 677.652764"></polygon>
                    </g>
                    <g id="Group-346">
                        <mask id="mask-74" fill="white">
                            <use xlink:href="#path-73"></use>
                        </mask>
                        <g id="Clip-345"></g>
                        <polygon id="Fill-344" fill="#223B98" mask="url(#mask-74)" points="-47.7711582 677.54847 -50.6716332 674.641593 745.88605 -123.682373 745.88605 -112.050923 -41.966278 677.54847"></polygon>
                    </g>
                    <g id="Group-349">
                        <mask id="mask-76" fill="white">
                            <use xlink:href="#path-75"></use>
                        </mask>
                        <g id="Clip-348"></g>
                        <polygon id="Fill-347" fill="#223B98" mask="url(#mask-76)" points="-23.252626 677.444177 -26.153101 674.537299 745.785916 -99.1097165 745.785916 -87.4782664 -17.451676 677.444177"></polygon>
                    </g>
                    <g id="Group-352">
                        <mask id="mask-78" fill="white">
                            <use xlink:href="#path-77"></use>
                        </mask>
                        <g id="Clip-351"></g>
                        <polygon id="Fill-350" fill="#223B98" mask="url(#mask-78)" points="1.26983636 677.343822 -1.63456881 674.436944 745.689713 -74.5370595 745.689713 -62.9016706 7.07078635 677.343822"></polygon>
                    </g>
                    <g id="Group-355" transform="translate(22.883963, 0.000000)">
                        <mask id="mask-80" fill="white">
                            <use xlink:href="#path-79"></use>
                        </mask>
                        <g id="Clip-354"></g>
                        <polygon id="Fill-353" fill="#223B98" mask="url(#mask-80)" points="2.90483834 677.239529 0 674.332651 722.80947 -49.9644025 722.80947 -38.3290136 8.70665349 677.239529"></polygon>
                    </g>
                    <g id="Group-358" transform="translate(49.037064, 0.000000)">
                        <mask id="mask-82" fill="white">
                            <use xlink:href="#path-81"></use>
                        </mask>
                        <g id="Clip-357"></g>
                        <polygon id="Fill-356" fill="#223B98" mask="url(#mask-82)" points="2.88353191 677.958263 0 675.051385 694.942927 -24.572657 694.942927 -12.9412069 8.6623333 677.958263"></polygon>
                    </g>
                    <g id="Group-361" transform="translate(71.921028, 0.000000)">
                        <mask id="mask-84" fill="white">
                            <use xlink:href="#path-83"></use>
                        </mask>
                        <g id="Clip-360"></g>
                        <polygon id="Fill-359" fill="#223B98" mask="url(#mask-84)" points="2.90319552 677.853969 0 674.947091 674.088169 0 674.088169 11.6314501 8.71352044 677.853969"></polygon>
                    </g>
                    <g id="Group-364" transform="translate(95.622276, 22.934480)">
                        <mask id="mask-86" fill="white">
                            <use xlink:href="#path-85"></use>
                        </mask>
                        <g id="Clip-363"></g>
                        <polygon id="Fill-362" fill="#223B98" mask="url(#mask-86)" points="2.91169199 655.281953 0 652.365725 651.347075 0 651.347075 11.6728149 8.73902134 655.281953"></polygon>
                    </g>
                    <g id="Group-367" transform="translate(120.958092, 49.964403)">
                        <mask id="mask-88" fill="white">
                            <use xlink:href="#path-87"></use>
                        </mask>
                        <g id="Clip-366"></g>
                        <polygon id="Fill-365" fill="#223B98" mask="url(#mask-88)" points="2.91257108 626.153486 0 623.257497 626.818448 0 626.818448 11.5918015 8.73771325 626.153486"></polygon>
                    </g>
                    <g id="Group-370" transform="translate(146.293909, 74.537060)">
                        <mask id="mask-90" fill="white">
                            <use xlink:href="#path-89"></use>
                        </mask>
                        <g id="Clip-369"></g>
                        <polygon id="Fill-368" fill="#223B98" mask="url(#mask-90)" points="2.9089871 602.921375 0 600.018876 600.546412 0 600.546412 11.6178612 8.71908853 602.921375"></polygon>
                    </g>
                    <g id="Group-373" transform="translate(171.629725, 98.290628)">
                        <mask id="mask-92" fill="white">
                            <use xlink:href="#path-91"></use>
                        </mask>
                        <g id="Clip-372"></g>
                        <polygon id="Fill-371" fill="#223B98" mask="url(#mask-92)" points="2.89962109 579.885604 0 576.975054 574.030806 0 574.030806 11.6461424 8.69101585 579.885604"></polygon>
                    </g>
                    <g id="Group-376" transform="translate(195.330973, 122.044196)">
                        <mask id="mask-94" fill="white">
                            <use xlink:href="#path-93"></use>
                        </mask>
                        <g id="Clip-375"></g>
                        <polygon id="Fill-374" fill="#223B98" mask="url(#mask-94)" points="2.90353501 554.630191 0 551.722532 551.679532 0 551.679532 11.634579 8.72242404 554.630191"></polygon>
                    </g>
                    <g id="Group-379" transform="translate(222.301358, 149.074119)">
                        <mask id="mask-96" fill="white">
                            <use xlink:href="#path-95"></use>
                        </mask>
                        <g id="Clip-378"></g>
                        <polygon id="Fill-377" fill="#223B98" mask="url(#mask-96)" points="2.85882072 533.193499 0 530.268024 518.186436 0 518.186436 11.7058622 8.58033591 533.193499"></polygon>
                    </g>
                    <g id="Group-382" transform="translate(243.550753, 172.008599)">
                        <mask id="mask-98" fill="white">
                            <use xlink:href="#path-97"></use>
                        </mask>
                        <g id="Clip-381"></g>
                        <polygon id="Fill-380" fill="#223B98" mask="url(#mask-98)" points="2.93089085 501.008563 0 498.125409 506.36898 0 506.36898 11.5404295 8.79664395 501.008563"></polygon>
                    </g>
                    <g id="Group-385" transform="translate(269.703854, 195.762167)">
                        <mask id="mask-100" fill="white">
                            <use xlink:href="#path-99"></use>
                        </mask>
                        <g id="Clip-384"></g>
                        <polygon id="Fill-383" fill="#223B98" mask="url(#mask-100)" points="2.9074335 483.013593 0 480.091253 477.638533 0 477.638533 11.697277 8.7223005 483.013593"></polygon>
                    </g>
                </g>
            </g>
        </g>
    </g>
</svg>