<?xml version="1.0" encoding="UTF-8"?>
<svg width="231px" height="211px" viewBox="0 0 231 211" version="1.1" xmlns="http://www.w3.org/2000/svg" xmlns:xlink="http://www.w3.org/1999/xlink">
    <!-- Generator: Sketch 48.2 (47327) - http://www.bohemiancoding.com/sketch -->
    <title>Pattern</title>
    <desc>Created with Sketch.</desc>
    <defs>
        <rect id="path-1" x="0" y="0" width="412" height="409"></rect>
        <path d="M120.331259,0 C69.3316482,0.984848722 24.8220457,28.5981934 0,69.5777113 L120.331259,69.5777113 L120.331259,0 Z" id="path-3"></path>
        <path d="M148.344001,0.935167217 C143.007283,0.317361429 137.581648,0 132.083619,0 C72.615681,0 21.6188012,37.128372 0,89.9782674 L148.344001,89.9782674 L148.344001,0.935167217 Z" id="path-5"></path>
        <path d="M174.928271,4.47417296 C163.561082,1.55254342 151.654786,1.76283274e-13 139.390516,0 C72.4234171,0 16.1316258,46.2895876 0,109.001574 L174.928271,109.001574 L174.928271,4.47417296 Z" id="path-7"></path>
        <path d="M197.110061,10.7861754 C180.292254,3.83390615 161.872817,0 142.563179,0 C69.079674,0 8.49076573,55.5230001 0,127.133902 L197.110061,127.133902 L197.110061,10.7861601 L197.110061,10.7861754 Z" id="path-9"></path>
        <path d="M0.0127730473,145.1496 C0.00426656048,144.50732 0,143.86402 0,143.219727 C0,64.1220564 64.3090239,0 143.640382,0 C170.582486,0 195.792292,7.39572362 217.338975,20.2620769 L217.338975,145.1496 L0.0127730473,145.1496 Z" id="path-11"></path>
        <path d="M1.53794691,166.177094 C0.524740058,159.240632 0,152.144417 0,144.924947 C0,64.885514 64.5022686,0 144.072012,0 C179.567228,0 212.064689,12.9119387 237.175534,34.3211491 L237.175534,166.177094 L1.53794691,166.177094 Z" id="path-13"></path>
        <path d="M5.71632367,184.684193 C1.99507101,171.870813 0,158.321534 0,144.305711 C0,64.6082709 64.512422,0 144.094691,0 C189.492167,-1.74368769e-13 229.986762,21.0241719 256.399356,53.8803271 L256.399356,184.684193 L5.71632367,184.684193 Z" id="path-15"></path>
        <path d="M12.8473704,204.569027 C4.59547978,186.342775 0,166.098624 0,144.778466 C0,64.8199319 64.6417505,0 144.383559,0 C203.052748,0 253.54975,35.0878369 276.141402,85.4771807 L276.141382,204.08271 C276.068644,204.244957 275.995605,204.407071 275.922278,204.569027 L12.8473395,204.569021 L12.8473704,204.569027 Z" id="path-17"></path>
        <path d="M23.3703121,223.828888 C8.59087616,201.098854 0,173.940518 0,144.767371 C0,64.8149645 64.5308566,0 144.135866,0 C223.740876,0 288.274797,64.8149645 288.274797,144.767371 C288.274797,173.940518 279.683512,201.098854 264.903558,223.828888 L23.3703121,223.828888 Z" id="path-19"></path>
        <path d="M38.3548876,243.613385 C14.5499668,217.738148 0,183.112751 0,145.06788 C0,64.9495075 64.5308566,0 144.135866,0 C223.740876,0 288.274797,64.9495075 288.274797,145.06788 C288.274797,183.112751 273.724139,217.738148 249.918493,243.613385 L38.3548876,243.613385 Z" id="path-21"></path>
        <path d="M60.0726322,261.48869 C23.6914608,235.297711 0,192.554161 0,144.273239 C0,64.5937325 64.5308566,0 144.135866,0 C223.740876,0 288.274797,64.5937325 288.274797,144.273239 C288.274797,192.554161 264.582211,235.297711 228.200153,261.48869 L60.0726322,261.48869 Z" id="path-23"></path>
        <path d="M97.112211,280.098536 C40.5967574,260.624819 0,207.027859 0,143.962698 C0,64.4546978 64.5308566,0 144.135866,0 C223.740876,0 288.274797,64.4546978 288.274797,143.962698 C288.274797,207.027859 247.676112,260.624819 191.159861,280.098536 L97.112211,280.098536 Z" id="path-25"></path>
        <path d="M0,144.450976 C0,224.231715 64.5308566,288.911165 144.135866,288.911165 C223.740876,288.911165 288.274797,224.231715 288.274797,144.450976 C288.274797,64.6733088 223.740876,0 144.135866,0 C64.5308566,0 0,64.6733088 0,144.450976 Z" id="path-27"></path>
        <path d="M0,144.450976 C0,224.231715 64.5308566,288.911165 144.135866,288.911165 C223.740876,288.911165 288.274797,224.231715 288.274797,144.450976 C288.274797,64.6733088 223.740876,0 144.135866,0 C64.5308566,0 0,64.6733088 0,144.450976 Z" id="path-29"></path>
        <path d="M0,144.450976 C0,224.231715 64.5308566,288.911165 144.135866,288.911165 C223.740876,288.911165 288.274797,224.231715 288.274797,144.450976 C288.274797,64.6733088 223.740876,0 144.135866,0 C64.5308566,0 0,64.6733088 0,144.450976 Z" id="path-31"></path>
        <path d="M0,144.450976 C0,224.231715 64.5308566,288.911165 144.135866,288.911165 C223.740876,288.911165 288.274797,224.231715 288.274797,144.450976 C288.274797,64.6733088 223.740876,0 144.135866,0 C64.5308566,0 0,64.6733088 0,144.450976 Z" id="path-33"></path>
        <path d="M0,144.450976 C0,224.231715 64.5308566,288.911165 144.135866,288.911165 C223.740876,288.911165 288.274797,224.231715 288.274797,144.450976 C288.274797,64.6733088 223.740876,0 144.135866,0 C64.5308566,0 0,64.6733088 0,144.450976 Z" id="path-35"></path>
        <path d="M0,144.450976 C0,224.231715 64.5308566,288.911165 144.135866,288.911165 C223.740876,288.911165 288.274797,224.231715 288.274797,144.450976 C288.274797,64.6733088 223.740876,0 144.135866,0 C64.5308566,0 0,64.6733088 0,144.450976 Z" id="path-37"></path>
        <path d="M0,144.450976 C0,224.231715 64.5308566,288.911165 144.135866,288.911165 C223.740876,288.911165 288.274797,224.231715 288.274797,144.450976 C288.274797,64.6733088 223.740876,0 144.135866,0 C64.5308566,0 0,64.6733088 0,144.450976 Z" id="path-39"></path>
        <path d="M0,144.450976 C0,224.231715 64.5308566,288.911165 144.135866,288.911165 C223.740876,288.911165 288.274797,224.231715 288.274797,144.450976 C288.274797,64.6733088 223.740876,0 144.135866,0 C64.5308566,0 0,64.6733088 0,144.450976 Z" id="path-41"></path>
        <path d="M0,144.450976 C0,224.231715 64.5308566,288.911165 144.135866,288.911165 C223.740876,288.911165 288.274797,224.231715 288.274797,144.450976 C288.274797,64.6733088 223.740876,0 144.135866,0 C64.5308566,0 0,64.6733088 0,144.450976 Z" id="path-43"></path>
        <path d="M0,144.450976 C0,224.231715 64.5308566,288.911165 144.135866,288.911165 C223.740876,288.911165 288.274797,224.231715 288.274797,144.450976 C288.274797,64.6733088 223.740876,0 144.135866,0 C64.5308566,0 0,64.6733088 0,144.450976 Z" id="path-45"></path>
        <path d="M0,144.450976 C0,224.231715 64.5308566,288.911165 144.135866,288.911165 C223.740876,288.911165 288.274797,224.231715 288.274797,144.450976 C288.274797,64.6733088 223.740876,0 144.135866,0 C64.5308566,0 0,64.6733088 0,144.450976 Z" id="path-47"></path>
        <path d="M0,144.450976 C0,224.231715 64.5308566,288.911165 144.135866,288.911165 C223.740876,288.911165 288.274797,224.231715 288.274797,144.450976 C288.274797,64.6733088 223.740876,0 144.135866,0 C64.5308566,0 0,64.6733088 0,144.450976 Z" id="path-49"></path>
        <path d="M0,144.450976 C0,224.231715 64.5308566,288.911165 144.135866,288.911165 C223.740876,288.911165 288.274797,224.231715 288.274797,144.450976 C288.274797,64.6733088 223.740876,0 144.135866,0 C64.5308566,0 0,64.6733088 0,144.450976 Z" id="path-51"></path>
        <path d="M0,144.450976 C0,224.231715 64.5308566,288.911165 144.135866,288.911165 C223.740876,288.911165 288.274797,224.231715 288.274797,144.450976 C288.274797,64.6733088 223.740876,0 144.135866,0 C64.5308566,0 0,64.6733088 0,144.450976 Z" id="path-53"></path>
        <path d="M0,144.450976 C0,224.231715 64.5308566,288.911165 144.135866,288.911165 C223.740876,288.911165 288.274797,224.231715 288.274797,144.450976 C288.274797,64.6733088 223.740876,0 144.135866,0 C64.5308566,0 0,64.6733088 0,144.450976 Z" id="path-55"></path>
        <path d="M0,144.450976 C0,224.231715 64.5308566,288.911165 144.135866,288.911165 C223.740876,288.911165 288.274797,224.231715 288.274797,144.450976 C288.274797,64.6733088 223.740876,0 144.135866,0 C64.5308566,0 0,64.6733088 0,144.450976 Z" id="path-57"></path>
        <path d="M0,144.450976 C0,224.231715 64.5308566,288.911165 144.135866,288.911165 C223.740876,288.911165 288.274797,224.231715 288.274797,144.450976 C288.274797,64.6733088 223.740876,0 144.135866,0 C64.5308566,0 0,64.6733088 0,144.450976 Z" id="path-59"></path>
        <path d="M0,144.450976 C0,224.231715 64.5308566,288.911165 144.135866,288.911165 C223.740876,288.911165 288.274797,224.231715 288.274797,144.450976 C288.274797,64.6733088 223.740876,0 144.135866,0 C64.5308566,0 0,64.6733088 0,144.450976 Z" id="path-61"></path>
        <path d="M0,144.450976 C0,224.231715 64.5308566,288.911165 144.135866,288.911165 C223.740876,288.911165 288.274797,224.231715 288.274797,144.450976 C288.274797,64.6733088 223.740876,0 144.135866,0 C64.5308566,0 0,64.6733088 0,144.450976 Z" id="path-63"></path>
        <path d="M0,144.450976 C0,224.231715 64.5308566,288.911165 144.135866,288.911165 C223.740876,288.911165 288.274797,224.231715 288.274797,144.450976 C288.274797,64.6733088 223.740876,0 144.135866,0 C64.5308566,0 0,64.6733088 0,144.450976 Z" id="path-65"></path>
        <path d="M0,144.450976 C0,224.231715 64.5308566,288.911165 144.135866,288.911165 C223.740876,288.911165 288.274797,224.231715 288.274797,144.450976 C288.274797,64.6733088 223.740876,0 144.135866,0 C64.5308566,0 0,64.6733088 0,144.450976 Z" id="path-67"></path>
        <path d="M0,144.450976 C0,224.231715 64.5308566,288.911165 144.135866,288.911165 C223.740876,288.911165 288.274797,224.231715 288.274797,144.450976 C288.274797,64.6733088 223.740876,0 144.135866,0 C64.5308566,0 0,64.6733088 0,144.450976 Z" id="path-69"></path>
        <path d="M0,144.450976 C0,224.231715 64.5308566,288.911165 144.135866,288.911165 C223.740876,288.911165 288.274797,224.231715 288.274797,144.450976 C288.274797,64.6733088 223.740876,0 144.135866,0 C64.5308566,0 0,64.6733088 0,144.450976 Z" id="path-71"></path>
        <path d="M0,144.450976 C0,224.231715 64.5308566,288.911165 144.135866,288.911165 C223.740876,288.911165 288.274797,224.231715 288.274797,144.450976 C288.274797,64.6733088 223.740876,0 144.135866,0 C64.5308566,0 0,64.6733088 0,144.450976 Z" id="path-73"></path>
        <path d="M0,144.450976 C0,224.231715 64.5308566,288.911165 144.135866,288.911165 C223.740876,288.911165 288.274797,224.231715 288.274797,144.450976 C288.274797,64.6733088 223.740876,0 144.135866,0 C64.5308566,0 0,64.6733088 0,144.450976 Z" id="path-75"></path>
        <path d="M0,144.450976 C0,224.231715 64.5308566,288.911165 144.135866,288.911165 C223.740876,288.911165 288.274797,224.231715 288.274797,144.450976 C288.274797,64.6733088 223.740876,0 144.135866,0 C64.5308566,0 0,64.6733088 0,144.450976 Z" id="path-77"></path>
        <path d="M0,214.047547 C24.5299539,258.674305 71.918438,288.911165 126.354957,288.911165 C205.971839,288.911165 270.515384,224.231715 270.515384,144.450976 C270.515384,64.6733088 205.971839,0 126.354957,0 C71.918438,0 24.5299539,30.2339884 0,74.8579495 L5.01697206e-06,214.047556 L0,214.047547 Z" id="path-79"></path>
        <path d="M0,241.087012 C26.2639478,270.449667 64.3191276,288.911165 106.657603,288.911165 C185.904982,288.911165 250.14898,224.231715 250.14898,144.450976 C250.14898,64.6733088 185.904982,0 106.657603,0 C64.3191276,0 26.2639478,18.4597447 0,47.8202987 L1.73377415e-13,241.087012 Z" id="path-81"></path>
        <path d="M0,258.910443 C24.358675,277.721798 54.8895599,288.911165 88.0306778,288.911165 C167.710354,288.911165 232.304805,224.231715 232.304805,144.450976 C232.304805,64.6733088 167.710354,0 88.0306778,0 C54.8895599,0 24.358675,11.1883043 1.74323193e-13,29.998197 L1.74323193e-13,258.910443 Z" id="path-83"></path>
        <path d="M0,253.311006 C20.5139099,264.483433 44.026854,270.83044 69.0199873,270.83044 C148.932853,270.83044 213.716345,205.942945 213.716345,125.905587 C213.716345,71.9962852 184.323629,24.9619775 140.712835,0 L0,0 L2.4506502e-05,253.311019 L0,253.311006 Z" id="path-85"></path>
        <path d="M0,241.054846 C15.5180261,246.704928 32.2803039,249.788497 49.7669469,249.788497 C129.70394,249.788497 194.506992,185.351343 194.506992,105.869473 C194.506992,63.9953 176.518895,26.2981043 147.806622,0 L0,0 L9.25147741e-11,241.054846 Z" id="path-87"></path>
        <path d="M0,227.934115 C9.80641833,230.035464 19.9824707,231.141623 30.4171199,231.141623 C110.147713,231.141623 174.78344,166.559607 174.78344,86.8990514 C174.78344,54.2677568 163.93698,24.167292 145.649605,0 L0,0 L1.74434589e-13,227.934115 Z" id="path-89"></path>
        <path d="M0,212.092717 C3.68194388,212.376523 7.40267666,212.521043 11.1569932,212.521043 C90.630879,212.521043 155.0585,147.759893 155.0585,67.8783798 C155.0585,43.3466074 148.981758,20.241261 138.258685,0 L0,0 L7.30266453e-12,212.092717 Z" id="path-91"></path>
        <path d="M0,192.850513 C76.0569004,188.677879 136.445642,125.675209 136.445642,48.5714728 C136.445642,31.5311094 133.495817,15.1796846 128.078968,0 L0,0 L0,192.850513 Z" id="path-93"></path>
        <path d="M0,172.305602 C65.638179,159.471238 115.247205,100.416549 115.247205,29.5085835 C115.247205,19.3981306 114.238544,9.52873009 112.318576,0 L0,0 L0,172.305602 Z" id="path-95"></path>
        <path d="M0,145.697242 C57.4337475,126.494728 98.7571624,72.9952631 98.7571624,10.0043457 C98.7571624,6.64124232 98.63936,3.30520212 98.4075928,0 L0,0 L0,145.697242 Z" id="path-97"></path>
        <path d="M0,120.153517 C44.1775981,97.4169418 75.1787641,52.4864117 78.4418927,0 L0,0 L0,120.153517 Z" id="path-99"></path>
    </defs>
    <g id="Startup-Garage---Home-Page" stroke="none" stroke-width="1" fill="none" fill-rule="evenodd" transform="translate(0.000000, -1182.000000)" opacity="0.673913043">
        <g id="3_Meet-the-Startups" transform="translate(0.000000, 1182.000000)">
            <g id="Pattern" transform="translate(204.500000, 206.000000) rotate(-90.000000) translate(-204.500000, -206.000000) translate(-1.500000, 1.500000)">
                <mask id="mask-2" fill="white">
                    <use xlink:href="#path-1"></use>
                </mask>
                <g id="Mask"></g>
                <g opacity="0.0797101449" mask="url(#mask-2)">
                    <g transform="translate(201.000000, -58.000000)">
                        <g id="Group-241" transform="translate(21.662431, 0.000000)">
                            <mask id="mask-4" fill="white">
                                <use xlink:href="#path-3"></use>
                            </mask>
                            <g id="Clip-240"></g>
                            <polygon id="Fill-239" fill="#223B98" mask="url(#mask-4)" points="-267.594733 69.6188775 -267.594733 60.5287195 113.829901 -322.741146 116.089951 -325.015224 120.610049 -320.470145"></polygon>
                        </g>
                        <g id="Group-244" transform="translate(11.468346, 0.000000)">
                            <mask id="mask-6" fill="white">
                                <use xlink:href="#path-5"></use>
                            </mask>
                            <g id="Clip-243"></g>
                            <polygon id="Fill-242" fill="#223B98" mask="url(#mask-6)" points="-256.763518 90.165767 -256.763518 80.9666691 141.257122 -326.547449 143.502578 -328.846444 147.999573 -324.245338"></polygon>
                        </g>
                        <g id="Group-247" transform="translate(5.734173, 0.000000)">
                            <mask id="mask-8" fill="white">
                                <use xlink:href="#path-7"></use>
                            </mask>
                            <g id="Clip-246"></g>
                            <polygon id="Fill-245" fill="#223B98" mask="url(#mask-8)" points="-251.666475 108.990802 -251.666475 99.8329341 168.031245 -325.280679 170.290779 -327.569371 174.809847 -322.991988"></polygon>
                        </g>
                        <g id="Group-250" transform="translate(1.911391, 0.000000)">
                            <mask id="mask-10" fill="white">
                                <use xlink:href="#path-9"></use>
                            </mask>
                            <g id="Clip-249"></g>
                            <polygon id="Fill-248" fill="#223B98" mask="url(#mask-10)" points="-247.206563 127.007423 -247.206563 117.938972 190.286768 -322.111109 192.542234 -324.376687 197.047063 -319.845532"></polygon>
                        </g>
                        <g id="Group-253">
                            <mask id="mask-12" fill="white">
                                <use xlink:href="#path-11"></use>
                            </mask>
                            <g id="Clip-252"></g>
                            <polygon id="Fill-251" fill="#223B98" mask="url(#mask-12)" points="-245.932302 145.532138 -245.932302 136.541898 210.868783 -318.93416 213.125186 -321.184003 217.63494 -316.687361"></polygon>
                        </g>
                        <g id="Group-256">
                            <mask id="mask-14" fill="white">
                                <use xlink:href="#path-13"></use>
                            </mask>
                            <g id="Clip-255"></g>
                            <polygon id="Fill-254" fill="#223B98" mask="url(#mask-14)" points="-246.569433 166.555237 -246.569433 157.457956 230.790843 -322.738593 233.054027 -325.015224 237.574269 -320.465043"></polygon>
                        </g>
                        <g id="Group-259">
                            <mask id="mask-16" fill="white">
                                <use xlink:href="#path-15"></use>
                            </mask>
                            <g id="Clip-258"></g>
                            <polygon id="Fill-257" fill="#223B98" mask="url(#mask-16)" points="-246.569433 184.949988 -246.569433 175.888511 250.052473 -321.471247 252.316013 -323.73815 256.836967 -319.207412"></polygon>
                        </g>
                        <g id="Group-262">
                            <mask id="mask-18" fill="white">
                                <use xlink:href="#path-17"></use>
                            </mask>
                            <g id="Clip-261"></g>
                            <polygon id="Fill-260" fill="#223B98" mask="url(#mask-18)" points="-247.206563 204.617354 -247.206563 195.526191 269.638944 -322.743972 271.903953 -325.015224 276.437039 -320.47272"></polygon>
                        </g>
                        <g id="Group-265">
                            <mask id="mask-20" fill="white">
                                <use xlink:href="#path-19"></use>
                            </mask>
                            <g id="Clip-264"></g>
                            <polygon id="Fill-263" fill="#223B98" mask="url(#mask-20)" points="-246.569433 223.853233 -246.569433 214.765844 288.584452 -322.744146 290.845575 -325.015224 295.367821 -320.473068"></polygon>
                        </g>
                        <g id="Group-268">
                            <mask id="mask-22" fill="white">
                                <use xlink:href="#path-21"></use>
                            </mask>
                            <g id="Clip-267"></g>
                            <polygon id="Fill-266" fill="#223B98" mask="url(#mask-22)" points="-246.569433 243.676687 -246.569433 234.56735 307.776423 -323.374885 310.037546 -325.653761 314.562856 -321.099092"></polygon>
                        </g>
                        <g id="Group-271">
                            <mask id="mask-24" fill="white">
                                <use xlink:href="#path-23"></use>
                            </mask>
                            <g id="Clip-270"></g>
                            <polygon id="Fill-269" fill="#223B98" mask="url(#mask-24)" points="-246.569433 261.681269 -246.569433 252.624898 326.968394 -321.474824 329.229517 -323.73815 333.754826 -319.208431"></polygon>
                        </g>
                        <g id="Group-274">
                            <mask id="mask-26" fill="white">
                                <use xlink:href="#path-25"></use>
                            </mask>
                            <g id="Clip-273"></g>
                            <polygon id="Fill-272" fill="#223B98" mask="url(#mask-26)" points="-246.569433 280.229041 -246.569433 271.189103 346.160364 -320.841159 348.424551 -323.099613 352.946797 -318.582705"></polygon>
                        </g>
                        <g id="Group-277">
                            <mask id="mask-28" fill="white">
                                <use xlink:href="#path-27"></use>
                            </mask>
                            <g id="Clip-276"></g>
                            <polygon id="Fill-275" fill="#223B98" mask="url(#mask-28)" points="-246.569433 300.235685 -246.569433 291.168157 365.355399 -322.110573 367.616522 -324.376687 372.138768 -319.841388"></polygon>
                        </g>
                        <g id="Group-280">
                            <mask id="mask-30" fill="white">
                                <use xlink:href="#path-29"></use>
                            </mask>
                            <g id="Clip-279"></g>
                            <polygon id="Fill-278" fill="#223B98" mask="url(#mask-30)" points="-246.569433 319.473093 -246.569433 310.402494 384.547369 -322.110573 386.811556 -324.376687 391.333802 -319.844458"></polygon>
                        </g>
                        <g id="Group-283">
                            <mask id="mask-32" fill="white">
                                <use xlink:href="#path-31"></use>
                            </mask>
                            <g id="Clip-282"></g>
                            <polygon id="Fill-281" fill="#223B98" mask="url(#mask-32)" points="-246.569433 338.70743 -246.569433 329.636831 403.742404 -322.110573 406.003527 -324.376687 410.528837 -319.844458"></polygon>
                        </g>
                        <g id="Group-286">
                            <mask id="mask-34" fill="white">
                                <use xlink:href="#path-33"></use>
                            </mask>
                            <g id="Clip-285"></g>
                            <polygon id="Fill-284" fill="#223B98" mask="url(#mask-34)" points="-246.569433 357.944837 -246.569433 348.877309 422.934375 -322.110573 425.198561 -324.376687 429.720807 -319.838317"></polygon>
                        </g>
                        <g id="Group-289">
                            <mask id="mask-36" fill="white">
                                <use xlink:href="#path-35"></use>
                            </mask>
                            <g id="Clip-288"></g>
                            <polygon id="Fill-287" fill="#223B98" mask="url(#mask-36)" points="-246.569433 377.179174 -246.569433 368.108576 442.126345 -322.110573 444.393596 -324.376687 448.915842 -319.844458"></polygon>
                        </g>
                        <g id="Group-292">
                            <mask id="mask-38" fill="white">
                                <use xlink:href="#path-37"></use>
                            </mask>
                            <g id="Clip-291"></g>
                            <polygon id="Fill-290" fill="#223B98" mask="url(#mask-38)" points="-246.569433 396.413512 -246.569433 387.342913 461.32138 -322.110573 463.585567 -324.376687 468.107813 -319.844458"></polygon>
                        </g>
                        <g id="Group-295">
                            <mask id="mask-40" fill="white">
                                <use xlink:href="#path-39"></use>
                            </mask>
                            <g id="Clip-294"></g>
                            <polygon id="Fill-293" fill="#223B98" mask="url(#mask-40)" points="-246.569433 415.650919 -246.569433 406.583391 480.51335 -322.110573 482.777537 -324.376687 487.302847 -319.841388"></polygon>
                        </g>
                        <g id="Group-298">
                            <mask id="mask-42" fill="white">
                                <use xlink:href="#path-41"></use>
                            </mask>
                            <g id="Clip-297"></g>
                            <polygon id="Fill-296" fill="#223B98" mask="url(#mask-42)" points="-246.569433 434.888327 -246.569433 425.817728 499.708385 -322.110573 501.969508 -324.376687 506.494818 -319.844458"></polygon>
                        </g>
                        <g id="Group-301">
                            <mask id="mask-44" fill="white">
                                <use xlink:href="#path-43"></use>
                            </mask>
                            <g id="Clip-300"></g>
                            <polygon id="Fill-299" fill="#223B98" mask="url(#mask-44)" points="-246.569433 454.122664 -246.569433 445.052065 518.903419 -322.110573 521.164542 -324.376687 525.686788 -319.841388"></polygon>
                        </g>
                        <g id="Group-304">
                            <mask id="mask-46" fill="white">
                                <use xlink:href="#path-45"></use>
                            </mask>
                            <g id="Clip-303"></g>
                            <polygon id="Fill-302" fill="#223B98" mask="url(#mask-46)" points="-246.569433 473.357001 -246.569433 464.289473 538.09539 -322.110573 540.359577 -324.376687 544.884887 -319.844458"></polygon>
                        </g>
                        <g id="Group-307">
                            <mask id="mask-48" fill="white">
                                <use xlink:href="#path-47"></use>
                            </mask>
                            <g id="Clip-306"></g>
                            <polygon id="Fill-305" fill="#223B98" mask="url(#mask-48)" points="-246.569433 492.594408 -246.569433 483.52381 557.287361 -322.110573 559.551547 -324.376687 564.076857 -319.844458"></polygon>
                        </g>
                        <g id="Group-310">
                            <mask id="mask-50" fill="white">
                                <use xlink:href="#path-49"></use>
                            </mask>
                            <g id="Clip-309"></g>
                            <polygon id="Fill-308" fill="#223B98" mask="url(#mask-50)" points="-246.569433 502.761217 576.482395 -322.110573 578.746582 -324.376687 581.703199 -321.407402 581.703199 -318.272303 -246.569433 511.831816"></polygon>
                        </g>
                        <g id="Group-313">
                            <mask id="mask-52" fill="white">
                                <use xlink:href="#path-51"></use>
                            </mask>
                            <g id="Clip-312"></g>
                            <polygon id="Fill-311" fill="#223B98" mask="url(#mask-52)" points="-246.569433 528.430702 -246.569433 522.326318 581.703199 -307.774731 581.703199 -298.710273 -243.609751 528.430702"></polygon>
                        </g>
                        <g id="Group-316">
                            <mask id="mask-54" fill="white">
                                <use xlink:href="#path-53"></use>
                            </mask>
                            <g id="Clip-315"></g>
                            <polygon id="Fill-314" fill="#223B98" mask="url(#mask-54)" points="-229.017182 528.352468 -231.278305 526.086354 581.626044 -288.618627 581.626044 -279.548028 -224.494936 528.352468"></polygon>
                        </g>
                        <g id="Group-319">
                            <mask id="mask-56" fill="white">
                                <use xlink:href="#path-55"></use>
                            </mask>
                            <g id="Clip-318"></g>
                            <polygon id="Fill-317" fill="#223B98" mask="url(#mask-56)" points="-209.900209 528.274235 -212.164395 526.008121 581.554111 -269.462523 581.554111 -260.391925 -205.377963 528.274235"></polygon>
                        </g>
                        <g id="Group-322">
                            <mask id="mask-58" fill="white">
                                <use xlink:href="#path-57"></use>
                            </mask>
                            <g id="Clip-321"></g>
                            <polygon id="Fill-320" fill="#223B98" mask="url(#mask-58)" points="-190.786299 528.192931 -193.050486 525.926816 581.469922 -250.30642 581.469922 -241.238892 -186.264053 528.192931"></polygon>
                        </g>
                        <g id="Group-325">
                            <mask id="mask-60" fill="white">
                                <use xlink:href="#path-59"></use>
                            </mask>
                            <g id="Clip-324"></g>
                            <polygon id="Fill-323" fill="#223B98" mask="url(#mask-60)" points="-171.675453 528.114697 -173.936576 525.848583 581.391861 -231.150316 581.391861 -222.079717 -167.153208 528.114697"></polygon>
                        </g>
                        <g id="Group-328">
                            <mask id="mask-62" fill="white">
                                <use xlink:href="#path-61"></use>
                            </mask>
                            <g id="Clip-327"></g>
                            <polygon id="Fill-326" fill="#223B98" mask="url(#mask-62)" points="-152.55848 528.036464 -154.822667 525.77035 581.310736 -211.994213 581.310736 -202.923614 -148.036234 528.036464"></polygon>
                        </g>
                        <g id="Group-331">
                            <mask id="mask-64" fill="white">
                                <use xlink:href="#path-63"></use>
                            </mask>
                            <g id="Clip-330"></g>
                            <polygon id="Fill-329" fill="#223B98" mask="url(#mask-64)" points="-133.444571 527.952089 -135.708757 525.685975 581.232674 -192.838109 581.232674 -183.773652 -128.922325 527.952089"></polygon>
                        </g>
                        <g id="Group-334">
                            <mask id="mask-66" fill="white">
                                <use xlink:href="#path-65"></use>
                            </mask>
                            <g id="Clip-333"></g>
                            <polygon id="Fill-332" fill="#223B98" mask="url(#mask-66)" points="-113.693531 528.515463 -115.957718 526.249349 581.794807 -173.043469 581.794807 -163.97287 -109.171285 528.515463"></polygon>
                        </g>
                        <g id="Group-337">
                            <mask id="mask-68" fill="white">
                                <use xlink:href="#path-67"></use>
                            </mask>
                            <g id="Clip-336"></g>
                            <polygon id="Fill-335" fill="#223B98" mask="url(#mask-68)" points="-94.5796213 528.43723 -96.8438081 526.171115 581.710619 -153.887365 581.710619 -144.816766 -90.0573753 528.43723"></polygon>
                        </g>
                        <g id="Group-340">
                            <mask id="mask-70" fill="white">
                                <use xlink:href="#path-69"></use>
                            </mask>
                            <g id="Clip-339"></g>
                            <polygon id="Fill-338" fill="#223B98" mask="url(#mask-70)" points="-75.4718395 528.355926 -77.7298986 526.089811 581.632557 -134.731262 581.632557 -125.660663 -70.9465297 528.355926"></polygon>
                        </g>
                        <g id="Group-343">
                            <mask id="mask-72" fill="white">
                                <use xlink:href="#path-71"></use>
                            </mask>
                            <g id="Clip-342"></g>
                            <polygon id="Fill-341" fill="#223B98" mask="url(#mask-72)" points="-56.3518023 528.277692 -58.6159891 526.011578 581.551432 -115.575158 581.551432 -106.504559 -51.8295563 528.277692"></polygon>
                        </g>
                        <g id="Group-346">
                            <mask id="mask-74" fill="white">
                                <use xlink:href="#path-73"></use>
                            </mask>
                            <g id="Clip-345"></g>
                            <polygon id="Fill-344" fill="#223B98" mask="url(#mask-74)" points="-37.2409567 528.196388 -39.5020796 525.930274 581.470308 -96.4190546 581.470308 -87.3515263 -32.7156468 528.196388"></polygon>
                        </g>
                        <g id="Group-349">
                            <mask id="mask-76" fill="white">
                                <use xlink:href="#path-75"></use>
                            </mask>
                            <g id="Clip-348"></g>
                            <polygon id="Fill-347" fill="#223B98" mask="url(#mask-76)" points="-18.1270472 528.115084 -20.3881701 525.84897 581.392246 -77.262951 581.392246 -68.1954227 -13.6048012 528.115084"></polygon>
                        </g>
                        <g id="Group-352">
                            <mask id="mask-78" fill="white">
                                <use xlink:href="#path-77"></use>
                            </mask>
                            <g id="Clip-351"></g>
                            <polygon id="Fill-350" fill="#223B98" mask="url(#mask-78)" points="0.989926196 528.036851 -1.27426063 525.770736 581.317249 -58.1068475 581.317249 -49.0362486 5.51217215 528.036851"></polygon>
                        </g>
                        <g id="Group-355" transform="translate(17.839649, 0.000000)">
                            <mask id="mask-80" fill="white">
                                <use xlink:href="#path-79"></use>
                            </mask>
                            <g id="Clip-354"></g>
                            <polygon id="Fill-353" fill="#223B98" mask="url(#mask-80)" points="2.26452451 527.955547 0 525.689432 563.480501 -38.9507439 563.480501 -29.880145 6.78744492 527.955547"></polygon>
                        </g>
                        <g id="Group-358" transform="translate(38.227819, 0.000000)">
                            <mask id="mask-82" fill="white">
                                <use xlink:href="#path-81"></use>
                            </mask>
                            <g id="Clip-357"></g>
                            <polygon id="Fill-356" fill="#223B98" mask="url(#mask-82)" points="2.24791466 528.51585 0 526.249735 541.756583 -19.1561036 541.756583 -10.0885753 6.75289424 528.51585"></polygon>
                        </g>
                        <g id="Group-361" transform="translate(56.067468, 0.000000)">
                            <mask id="mask-84" fill="white">
                                <use xlink:href="#path-83"></use>
                            </mask>
                            <g id="Clip-360"></g>
                            <polygon id="Fill-359" fill="#223B98" mask="url(#mask-84)" points="2.26324382 528.434546 0 526.168431 525.498842 0 525.498842 9.06752829 6.79279819 528.434546"></polygon>
                        </g>
                        <g id="Group-364" transform="translate(74.544247, 17.879030)">
                            <mask id="mask-86" fill="white">
                                <use xlink:href="#path-85"></use>
                            </mask>
                            <g id="Clip-363"></g>
                            <polygon id="Fill-362" fill="#223B98" mask="url(#mask-86)" points="2.26986741 510.838082 0 508.564678 507.770569 0 507.770569 9.09977503 6.81267792 510.838082"></polygon>
                        </g>
                        <g id="Group-367" transform="translate(94.295287, 38.950744)">
                            <mask id="mask-88" fill="white">
                                <use xlink:href="#path-87"></use>
                            </mask>
                            <g id="Clip-366"></g>
                            <polygon id="Fill-365" fill="#223B98" mask="url(#mask-88)" points="2.27055273 488.130405 0 485.87278 488.64879 0 488.64879 9.03661944 6.81165818 488.130405"></polygon>
                        </g>
                        <g id="Group-370" transform="translate(114.046327, 58.106847)">
                            <mask id="mask-90" fill="white">
                                <use xlink:href="#path-89"></use>
                            </mask>
                            <g id="Clip-369"></g>
                            <polygon id="Fill-368" fill="#223B98" mask="url(#mask-90)" points="2.26775876 470.019351 0 467.756651 468.167902 0 468.167902 9.05693481 6.7971389 470.019351"></polygon>
                        </g>
                        <g id="Group-373" transform="translate(133.797367, 76.624414)">
                            <mask id="mask-92" fill="white">
                                <use xlink:href="#path-91"></use>
                            </mask>
                            <g id="Clip-372"></g>
                            <polygon id="Fill-371" fill="#223B98" mask="url(#mask-92)" points="2.2604573 452.061358 0 449.792381 447.497134 0 447.497134 9.07898195 6.77525429 452.061358"></polygon>
                        </g>
                        <g id="Group-376" transform="translate(152.274146, 95.141981)">
                            <mask id="mask-94" fill="white">
                                <use xlink:href="#path-93"></use>
                            </mask>
                            <g id="Clip-375"></g>
                            <polygon id="Fill-374" fill="#223B98" mask="url(#mask-94)" points="2.26350848 432.372999 0 430.106275 430.072753 0 430.072753 9.0699675 6.79973917 432.372999"></polygon>
                        </g>
                        <g id="Group-379" transform="translate(173.299446, 116.213695)">
                            <mask id="mask-96" fill="white">
                                <use xlink:href="#path-95"></use>
                            </mask>
                            <g id="Clip-378"></g>
                            <polygon id="Fill-377" fill="#223B98" mask="url(#mask-96)" points="2.22865056 415.661599 0 413.380987 403.962544 0 403.962544 9.12553771 6.68897155 415.661599"></polygon>
                        </g>
                        <g id="Group-382" transform="translate(189.864834, 134.092725)">
                            <mask id="mask-98" fill="white">
                                <use xlink:href="#path-97"></use>
                            </mask>
                            <g id="Clip-381"></g>
                            <polygon id="Fill-380" fill="#223B98" mask="url(#mask-98)" points="2.28483427 390.571191 0 388.323571 394.750011 0 394.750011 8.99657135 6.85759878 390.571191"></polygon>
                        </g>
                        <g id="Group-385" transform="translate(210.253005, 152.610292)">
                            <mask id="mask-100" fill="white">
                                <use xlink:href="#path-99"></use>
                            </mask>
                            <g id="Clip-384"></g>
                            <polygon id="Fill-383" fill="#223B98" mask="url(#mask-100)" points="2.26654762 376.542854 0 374.264687 372.35262 0 372.35262 9.11884498 6.79964287 376.542854"></polygon>
                        </g>
                    </g>
                </g>
            </g>
        </g>
    </g>
</svg>