<?xml version="1.0" encoding="UTF-8"?>
<svg width="227px" height="249px" viewBox="0 0 227 249" version="1.1" xmlns="http://www.w3.org/2000/svg" xmlns:xlink="http://www.w3.org/1999/xlink">
    <!-- Generator: Sketch 48.2 (47327) - http://www.bohemiancoding.com/sketch -->
    <title>Pattern</title>
    <desc>Created with Sketch.</desc>
    <defs>
        <path d="M195.106642,5.21771315 C182.43018,1.88085461 169.152517,0.107659994 155.475648,0.107659994 C80.7952766,0.107659994 18.0197953,52.9760348 0.0301284192,124.600799 L195.106642,124.600799 L195.106642,5.21771315 Z" id="path-1"></path>
        <path d="M220.444242,12.2946898 C201.649757,4.42831278 181.065394,0.0903117193 159.486201,0.0903117193 C77.365826,0.0903117193 9.65561116,62.913663 0.166884789,143.940208 L220.444242,143.940208 L220.444242,12.2946725 L220.444242,12.2946898 Z" id="path-3"></path>
        <path d="M0.329165657,166.64701 C0.319631273,165.909979 0.314849155,165.171777 0.314849155,164.432435 C0.314849155,73.6659607 72.3947719,0.0843632759 161.31228,0.0843632759 C191.509982,0.0843632759 219.766062,8.5711335 243.916378,23.3355825 L243.916378,166.64701 L0.329165657,166.64701 Z" id="path-5"></path>
        <path d="M2.05399893,188.698726 C0.91033247,180.826299 0.318027353,172.772563 0.318027353,164.57894 C0.318027353,73.7394603 73.1255503,0.0986792896 162.940623,0.0986792896 C203.00617,0.0986792896 239.687976,14.7528786 268.03207,39.0509211 L268.03207,188.698726 L2.05399893,188.698726 Z" id="path-7"></path>
        <path d="M6.73490372,210.423129 C2.55829234,195.830601 0.319090386,180.399994 0.319090386,164.438064 C0.319090386,73.6745742 72.7257071,0.0953964749 162.046224,0.0953964749 C212.998855,0.0953964749 258.448654,24.0387904 288.093279,61.4570474 L288.093279,210.423129 L6.73490372,210.423129 Z" id="path-9"></path>
        <path d="M14.7200211,231.280864 C5.47155945,210.683123 0.321089072,187.804928 0.321089072,163.710722 C0.321089072,73.3484729 72.7695465,0.0945688223 162.141677,0.0945688223 C227.896275,0.0945688223 284.491739,39.74782 309.811758,96.6935164 L309.811736,230.73127 C309.730214,230.914627 309.648354,231.097835 309.56617,231.280864 L14.7199864,231.280857 L14.7200211,231.280864 Z" id="path-11"></path>
        <path d="M26.5249462,253.485294 C9.95222581,227.753535 0.318963119,197.008674 0.318963119,163.982926 C0.318963119,73.4720169 72.6797656,0.097598214 161.943766,0.097598214 C251.207766,0.097598214 323.572004,73.4720169 323.572004,163.982926 C323.572004,197.008674 313.938284,227.753535 297.364982,253.485294 L26.5249462,253.485294 Z" id="path-13"></path>
        <path d="M43.3276971,276.036007 C16.6343715,246.727601 0.318963119,207.508051 0.318963119,164.415324 C0.318963119,73.6667158 72.6797656,0.0996021013 161.943766,0.0996021013 C251.207766,0.0996021013 323.572004,73.6667158 323.572004,164.415324 C323.572004,207.508051 307.255821,246.727601 280.561681,276.036007 L43.3276971,276.036007 Z" id="path-15"></path>
        <path d="M67.680596,298.664271 C26.885062,268.758866 0.318963119,219.953392 0.318963119,164.825231 C0.318963119,73.8455135 72.6797656,0.0910462514 161.943766,0.0910462514 C251.207766,0.0910462514 323.572004,73.8455135 323.572004,164.825231 C323.572004,219.953392 297.004644,268.758866 256.208115,298.664271 L67.680596,298.664271 Z" id="path-17"></path>
        <path d="M109.214426,319.522045 C45.8415875,297.313736 0.318963119,236.190435 0.318963119,164.269365 C0.318963119,73.5964724 72.6797656,0.0907392016 161.943766,0.0907392016 C251.207766,0.0907392016 323.572004,73.5964724 323.572004,164.269365 C323.572004,236.190435 278.047218,297.313736 214.673485,319.522045 L109.214426,319.522045 Z" id="path-19"></path>
        <path d="M0.318963119,164.420083 C0.318963119,255.178041 72.6797656,328.75689 161.943766,328.75689 C251.207766,328.75689 323.572004,255.178041 323.572004,164.420083 C323.572004,73.6656181 251.207766,0.0937562199 161.943766,0.0937562199 C72.6797656,0.0937562199 0.318963119,73.6656181 0.318963119,164.420083 Z" id="path-21"></path>
        <path d="M0.318963119,164.420083 C0.318963119,255.178041 72.6797656,328.75689 161.943766,328.75689 C251.207766,328.75689 323.572004,255.178041 323.572004,164.420083 C323.572004,73.6656181 251.207766,0.0937562199 161.943766,0.0937562199 C72.6797656,0.0937562199 0.318963119,73.6656181 0.318963119,164.420083 Z" id="path-23"></path>
        <path d="M0.318963119,164.420083 C0.318963119,255.178041 72.6797656,328.75689 161.943766,328.75689 C251.207766,328.75689 323.572004,255.178041 323.572004,164.420083 C323.572004,73.6656181 251.207766,0.0937562199 161.943766,0.0937562199 C72.6797656,0.0937562199 0.318963119,73.6656181 0.318963119,164.420083 Z" id="path-25"></path>
        <path d="M0.318963119,164.420083 C0.318963119,255.178041 72.6797656,328.75689 161.943766,328.75689 C251.207766,328.75689 323.572004,255.178041 323.572004,164.420083 C323.572004,73.6656181 251.207766,0.0937562199 161.943766,0.0937562199 C72.6797656,0.0937562199 0.318963119,73.6656181 0.318963119,164.420083 Z" id="path-27"></path>
        <path d="M0.318963119,164.420083 C0.318963119,255.178041 72.6797656,328.75689 161.943766,328.75689 C251.207766,328.75689 323.572004,255.178041 323.572004,164.420083 C323.572004,73.6656181 251.207766,0.0937562199 161.943766,0.0937562199 C72.6797656,0.0937562199 0.318963119,73.6656181 0.318963119,164.420083 Z" id="path-29"></path>
        <path d="M0.318963119,164.420083 C0.318963119,255.178041 72.6797656,328.75689 161.943766,328.75689 C251.207766,328.75689 323.572004,255.178041 323.572004,164.420083 C323.572004,73.6656181 251.207766,0.0937562199 161.943766,0.0937562199 C72.6797656,0.0937562199 0.318963119,73.6656181 0.318963119,164.420083 Z" id="path-31"></path>
        <path d="M0.318963119,164.420083 C0.318963119,255.178041 72.6797656,328.75689 161.943766,328.75689 C251.207766,328.75689 323.572004,255.178041 323.572004,164.420083 C323.572004,73.6656181 251.207766,0.0937562199 161.943766,0.0937562199 C72.6797656,0.0937562199 0.318963119,73.6656181 0.318963119,164.420083 Z" id="path-33"></path>
        <path d="M0.318963119,164.420083 C0.318963119,255.178041 72.6797656,328.75689 161.943766,328.75689 C251.207766,328.75689 323.572004,255.178041 323.572004,164.420083 C323.572004,73.6656181 251.207766,0.0937562199 161.943766,0.0937562199 C72.6797656,0.0937562199 0.318963119,73.6656181 0.318963119,164.420083 Z" id="path-35"></path>
        <path d="M0.318963119,164.420083 C0.318963119,255.178041 72.6797656,328.75689 161.943766,328.75689 C251.207766,328.75689 323.572004,255.178041 323.572004,164.420083 C323.572004,73.6656181 251.207766,0.0937562199 161.943766,0.0937562199 C72.6797656,0.0937562199 0.318963119,73.6656181 0.318963119,164.420083 Z" id="path-37"></path>
        <path d="M0.318963119,164.420083 C0.318963119,255.178041 72.6797656,328.75689 161.943766,328.75689 C251.207766,328.75689 323.572004,255.178041 323.572004,164.420083 C323.572004,73.6656181 251.207766,0.0937562199 161.943766,0.0937562199 C72.6797656,0.0937562199 0.318963119,73.6656181 0.318963119,164.420083 Z" id="path-39"></path>
        <path d="M0.318963119,164.420083 C0.318963119,255.178041 72.6797656,328.75689 161.943766,328.75689 C251.207766,328.75689 323.572004,255.178041 323.572004,164.420083 C323.572004,73.6656181 251.207766,0.0937562199 161.943766,0.0937562199 C72.6797656,0.0937562199 0.318963119,73.6656181 0.318963119,164.420083 Z" id="path-41"></path>
        <path d="M0.318963119,164.420083 C0.318963119,255.178041 72.6797656,328.75689 161.943766,328.75689 C251.207766,328.75689 323.572004,255.178041 323.572004,164.420083 C323.572004,73.6656181 251.207766,0.0937562199 161.943766,0.0937562199 C72.6797656,0.0937562199 0.318963119,73.6656181 0.318963119,164.420083 Z" id="path-43"></path>
        <path d="M0.318963119,164.420083 C0.318963119,255.178041 72.6797656,328.75689 161.943766,328.75689 C251.207766,328.75689 323.572004,255.178041 323.572004,164.420083 C323.572004,73.6656181 251.207766,0.0937562199 161.943766,0.0937562199 C72.6797656,0.0937562199 0.318963119,73.6656181 0.318963119,164.420083 Z" id="path-45"></path>
        <path d="M0.318963119,164.420083 C0.318963119,255.178041 72.6797656,328.75689 161.943766,328.75689 C251.207766,328.75689 323.572004,255.178041 323.572004,164.420083 C323.572004,73.6656181 251.207766,0.0937562199 161.943766,0.0937562199 C72.6797656,0.0937562199 0.318963119,73.6656181 0.318963119,164.420083 Z" id="path-47"></path>
        <path d="M0.318963119,164.420083 C0.318963119,255.178041 72.6797656,328.75689 161.943766,328.75689 C251.207766,328.75689 323.572004,255.178041 323.572004,164.420083 C323.572004,73.6656181 251.207766,0.0937562199 161.943766,0.0937562199 C72.6797656,0.0937562199 0.318963119,73.6656181 0.318963119,164.420083 Z" id="path-49"></path>
        <path d="M0.318963119,164.420083 C0.318963119,255.178041 72.6797656,328.75689 161.943766,328.75689 C251.207766,328.75689 323.572004,255.178041 323.572004,164.420083 C323.572004,73.6656181 251.207766,0.0937562199 161.943766,0.0937562199 C72.6797656,0.0937562199 0.318963119,73.6656181 0.318963119,164.420083 Z" id="path-51"></path>
        <path d="M0.318963119,164.420083 C0.318963119,255.178041 72.6797656,328.75689 161.943766,328.75689 C251.207766,328.75689 323.572004,255.178041 323.572004,164.420083 C323.572004,73.6656181 251.207766,0.0937562199 161.943766,0.0937562199 C72.6797656,0.0937562199 0.318963119,73.6656181 0.318963119,164.420083 Z" id="path-53"></path>
        <path d="M0.318963119,164.420083 C0.318963119,255.178041 72.6797656,328.75689 161.943766,328.75689 C251.207766,328.75689 323.572004,255.178041 323.572004,164.420083 C323.572004,73.6656181 251.207766,0.0937562199 161.943766,0.0937562199 C72.6797656,0.0937562199 0.318963119,73.6656181 0.318963119,164.420083 Z" id="path-55"></path>
        <path d="M0.318963119,164.420083 C0.318963119,255.178041 72.6797656,328.75689 161.943766,328.75689 C251.207766,328.75689 323.572004,255.178041 323.572004,164.420083 C323.572004,73.6656181 251.207766,0.0937562199 161.943766,0.0937562199 C72.6797656,0.0937562199 0.318963119,73.6656181 0.318963119,164.420083 Z" id="path-57"></path>
        <path d="M0.318963119,164.420083 C0.318963119,255.178041 72.6797656,328.75689 161.943766,328.75689 C251.207766,328.75689 323.572004,255.178041 323.572004,164.420083 C323.572004,73.6656181 251.207766,0.0937562199 161.943766,0.0937562199 C72.6797656,0.0937562199 0.318963119,73.6656181 0.318963119,164.420083 Z" id="path-59"></path>
        <path d="M0.318963119,164.420083 C0.318963119,255.178041 72.6797656,328.75689 161.943766,328.75689 C251.207766,328.75689 323.572004,255.178041 323.572004,164.420083 C323.572004,73.6656181 251.207766,0.0937562199 161.943766,0.0937562199 C72.6797656,0.0937562199 0.318963119,73.6656181 0.318963119,164.420083 Z" id="path-61"></path>
        <path d="M0.318963119,164.420083 C0.318963119,255.178041 72.6797656,328.75689 161.943766,328.75689 C251.207766,328.75689 323.572004,255.178041 323.572004,164.420083 C323.572004,73.6656181 251.207766,0.0937562199 161.943766,0.0937562199 C72.6797656,0.0937562199 0.318963119,73.6656181 0.318963119,164.420083 Z" id="path-63"></path>
        <path d="M0.318963119,164.420083 C0.318963119,255.178041 72.6797656,328.75689 161.943766,328.75689 C251.207766,328.75689 323.572004,255.178041 323.572004,164.420083 C323.572004,73.6656181 251.207766,0.0937562199 161.943766,0.0937562199 C72.6797656,0.0937562199 0.318963119,73.6656181 0.318963119,164.420083 Z" id="path-65"></path>
        <path d="M0.318963119,164.420083 C0.318963119,255.178041 72.6797656,328.75689 161.943766,328.75689 C251.207766,328.75689 323.572004,255.178041 323.572004,164.420083 C323.572004,73.6656181 251.207766,0.0937562199 161.943766,0.0937562199 C72.6797656,0.0937562199 0.318963119,73.6656181 0.318963119,164.420083 Z" id="path-67"></path>
        <path d="M0.318963119,164.420083 C0.318963119,255.178041 72.6797656,328.75689 161.943766,328.75689 C251.207766,328.75689 323.572004,255.178041 323.572004,164.420083 C323.572004,73.6656181 251.207766,0.0937562199 161.943766,0.0937562199 C72.6797656,0.0937562199 0.318963119,73.6656181 0.318963119,164.420083 Z" id="path-69"></path>
        <path d="M0.318963119,164.420083 C0.318963119,255.178041 72.6797656,328.75689 161.943766,328.75689 C251.207766,328.75689 323.572004,255.178041 323.572004,164.420083 C323.572004,73.6656181 251.207766,0.0937562199 161.943766,0.0937562199 C72.6797656,0.0937562199 0.318963119,73.6656181 0.318963119,164.420083 Z" id="path-71"></path>
        <path d="M0.0354087801,243.59261 C27.5173248,294.359669 80.6085921,328.75689 141.596063,328.75689 C230.79413,328.75689 303.104917,255.178041 303.104917,164.420083 C303.104917,73.6656181 230.79413,0.0937562199 141.596063,0.0937562199 C80.6085921,0.0937562199 27.5173248,34.4877103 0.0354087801,85.2515876 L0.0354144008,243.59262 L0.0354087801,243.59261 Z" id="path-73"></path>
        <path d="M0.210224917,274.352499 C29.7878387,307.755231 72.644359,328.75689 120.324589,328.75689 C209.570441,328.75689 281.919966,255.178041 281.919966,164.420083 C281.919966,73.6656181 209.570441,0.0937562199 120.324589,0.0937562199 C72.644359,0.0937562199 29.7878387,21.0934207 0.210224917,54.4937626 L0.210224917,274.352499 Z" id="path-75"></path>
        <path d="M0.209016807,294.628298 C27.4700678,316.027952 61.6387576,328.75689 98.728694,328.75689 C187.902334,328.75689 260.193319,255.178041 260.193319,164.420083 C260.193319,73.6656181 187.902334,0.0937562199 98.728694,0.0937562199 C61.6387576,0.0937562199 27.4700678,12.8214856 0.209016807,34.2194759 L0.209016807,294.628298 Z" id="path-77"></path>
        <path d="M0.330523029,288.995517 C23.3918528,301.727676 49.8246372,308.96076 77.9214209,308.96076 C167.757876,308.96076 240.586191,235.014619 240.586191,143.803613 C240.586191,82.3682802 207.543483,28.7677286 158.517095,0.320923993 L0.330523029,0.320923993 L0.330550579,288.995533 L0.330523029,288.995517 Z" id="path-79"></path>
        <path d="M0.237253681,272.863002 C17.5623754,279.251712 36.2766436,282.738391 55.7996304,282.738391 C145.045397,282.738391 217.394854,209.87746 217.394854,120.005036 C217.394854,72.6567126 197.312019,30.0314159 165.256161,0.29539762 L0.237253681,0.29539762 L0.237253682,272.863002 Z" id="path-81"></path>
        <path d="M0.409123922,260.658115 C11.3450458,263.057082 22.6931761,264.319907 34.3296884,264.319907 C123.243653,264.319907 195.324125,190.591052 195.324125,99.6480625 C195.324125,62.3951528 183.22837,28.0315179 162.834654,0.441379068 L0.409123922,0.441379068 L0.409123922,260.658115 Z" id="path-83"></path>
        <path d="M0.382980518,242.531114 C4.48512208,242.855631 8.63047928,243.020881 12.813253,243.020881 C101.357006,243.020881 173.137357,168.970168 173.137357,77.6301733 C173.137357,49.5794784 166.367113,23.1598211 154.420282,0.0150835292 L0.382980518,0.0150835292 L0.382980518,242.531114 Z" id="path-85"></path>
        <path d="M0.531018818,219.648132 C85.8114766,214.907102 153.52367,143.322212 153.52367,55.7154096 C153.52367,36.3538089 150.216114,17.774994 144.142354,0.527533654 L0.531018818,0.527533654 L0.531018818,219.648132 Z" id="path-87"></path>
        <path d="M0.039512122,195.245188 C74.3960698,180.74112 130.594405,114.003629 130.594405,33.8707929 C130.594405,22.4450066 129.451769,11.2916326 127.276782,0.523249115 L0.039512122,0.523249115 L0.039512122,195.245188 Z" id="path-89"></path>
        <path d="M0.623529184,166.37505 C64.0050607,144.531316 109.607889,83.6732407 109.607889,12.0182053 C109.607889,8.19252214 109.477887,4.39762458 109.222118,0.637806745 L0.623529184,0.637806745 L0.623529184,166.37505 Z" id="path-91"></path>
        <path d="M0.600787462,137.321909 C49.7949238,111.369357 84.3163931,60.0836247 87.9500626,0.173268723 L0.600787462,0.173268723 L0.600787462,137.321909 Z" id="path-93"></path>
    </defs>
    <g id="Startup-Garage---Startups" stroke="none" stroke-width="1" fill="none" fill-rule="evenodd" transform="translate(0.000000, -985.000000)" opacity="0.125742767">
        <g id="3_Meet-the-startups" transform="translate(0.000000, 985.000000)">
            <g id="BG">
                <g id="Pattern" transform="translate(63.000000, 86.000000) rotate(-90.000000) translate(-63.000000, -86.000000) translate(-100.000000, -79.000000)">
                    <g id="Group-247" transform="translate(6.799163, 0.000000)">
                        <mask id="mask-2" fill="white">
                            <use xlink:href="#path-1"></use>
                        </mask>
                        <g id="Clip-246"></g>
                        <polygon id="Fill-245" fill="#FFFFFF" mask="url(#mask-2)" points="-280.491234 124.600799 -280.491234 114.141394 187.54728 -371.390386 190.067067 -374.004352 195.106642 -368.77642"></polygon>
                    </g>
                    <g id="Group-250" transform="translate(1.359833, 0.000000)">
                        <mask id="mask-4" fill="white">
                            <use xlink:href="#path-3"></use>
                        </mask>
                        <g id="Clip-249"></g>
                        <polygon id="Fill-248" fill="#FFFFFF" mask="url(#mask-4)" points="-276.024655 143.940208 -276.024655 133.679407 212.889377 -364.229943 215.409939 -366.793406 220.444242 -361.666479"></polygon>
                    </g>
                    <g id="Group-253">
                        <mask id="mask-6" fill="white">
                            <use xlink:href="#path-5"></use>
                        </mask>
                        <g id="Clip-252"></g>
                        <polygon id="Fill-251" fill="#FFFFFF" mask="url(#mask-6)" points="-275.666862 166.64701 -275.666862 156.330494 236.33262 -366.339206 238.86168 -368.920955 243.916378 -363.76095"></polygon>
                    </g>
                    <g id="Group-256">
                        <mask id="mask-8" fill="white">
                            <use xlink:href="#path-7"></use>
                        </mask>
                        <g id="Clip-255"></g>
                        <polygon id="Fill-254" fill="#FFFFFF" mask="url(#mask-8)" points="-278.44954 188.698726 -278.44954 178.373913 260.375216 -366.617516 262.929805 -369.201341 268.03207 -364.037186"></polygon>
                    </g>
                    <g id="Group-259">
                        <mask id="mask-10" fill="white">
                            <use xlink:href="#path-9"></use>
                        </mask>
                        <g id="Clip-258"></g>
                        <polygon id="Fill-257" fill="#FFFFFF" mask="url(#mask-10)" points="-276.913476 210.423129 -276.913476 200.103458 280.478586 -366.315075 283.019109 -368.896739 288.093279 -363.736904"></polygon>
                    </g>
                    <g id="Group-262">
                        <mask id="mask-12" fill="white">
                            <use xlink:href="#path-11"></use>
                        </mask>
                        <g id="Clip-261"></g>
                        <polygon id="Fill-260" fill="#FFFFFF" mask="url(#mask-12)" points="-277.071678 231.280857 -277.071678 221.006808 302.192643 -364.697492 304.731194 -367.264265 309.811736 -362.130718"></polygon>
                    </g>
                    <g id="Group-265">
                        <mask id="mask-14" fill="white">
                            <use xlink:href="#path-13"></use>
                        </mask>
                        <g id="Clip-264"></g>
                        <polygon id="Fill-263" fill="#FFFFFF" mask="url(#mask-14)" points="-276.738188 253.485294 -276.738188 243.197826 323.349376 -365.29565 325.884856 -367.866646 330.955815 -362.724654"></polygon>
                    </g>
                    <g id="Group-268">
                        <mask id="mask-16" fill="white">
                            <use xlink:href="#path-15"></use>
                        </mask>
                        <g id="Clip-267"></g>
                        <polygon id="Fill-266" fill="#FFFFFF" mask="url(#mask-16)" points="-276.738188 276.036007 -276.738188 265.718029 344.870033 -366.252888 347.405512 -368.834129 352.479907 -363.67514"></polygon>
                    </g>
                    <g id="Group-271">
                        <mask id="mask-18" fill="white">
                            <use xlink:href="#path-17"></use>
                        </mask>
                        <g id="Clip-270"></g>
                        <polygon id="Fill-269" fill="#FFFFFF" mask="url(#mask-18)" points="-276.738188 298.664271 -276.738188 288.323518 366.390689 -367.195485 368.926169 -369.779798 374.000564 -364.60767"></polygon>
                    </g>
                    <g id="Group-274">
                        <mask id="mask-20" fill="white">
                            <use xlink:href="#path-19"></use>
                        </mask>
                        <g id="Clip-273"></g>
                        <polygon id="Fill-272" fill="#FFFFFF" mask="url(#mask-20)" points="-276.738188 319.522045 -276.738188 309.212675 387.911346 -365.953294 390.450261 -368.528891 395.52122 -363.377697"></polygon>
                    </g>
                    <g id="Group-277">
                        <mask id="mask-22" fill="white">
                            <use xlink:href="#path-21"></use>
                        </mask>
                        <g id="Clip-276"></g>
                        <polygon id="Fill-275" fill="#FFFFFF" mask="url(#mask-22)" points="-276.738188 341.693968 -276.738188 331.378817 409.435438 -366.282379 411.970917 -368.860294 417.041877 -363.700972"></polygon>
                    </g>
                    <g id="Group-280">
                        <mask id="mask-24" fill="white">
                            <use xlink:href="#path-23"></use>
                        </mask>
                        <g id="Clip-279"></g>
                        <polygon id="Fill-278" fill="#FFFFFF" mask="url(#mask-24)" points="-276.738188 363.578645 -276.738188 353.260001 430.956094 -366.28203 433.495009 -368.859944 438.565969 -363.704115"></polygon>
                    </g>
                    <g id="Group-283">
                        <mask id="mask-26" fill="white">
                            <use xlink:href="#path-25"></use>
                        </mask>
                        <g id="Clip-282"></g>
                        <polygon id="Fill-281" fill="#FFFFFF" mask="url(#mask-26)" points="-276.738188 385.460179 -276.738188 375.141535 452.480186 -366.281331 455.015666 -368.859246 460.090061 -363.703417"></polygon>
                    </g>
                    <g id="Group-286">
                        <mask id="mask-28" fill="white">
                            <use xlink:href="#path-27"></use>
                        </mask>
                        <g id="Clip-285"></g>
                        <polygon id="Fill-284" fill="#FFFFFF" mask="url(#mask-28)" points="-276.738188 407.341712 -276.738188 397.026561 474.000843 -366.284126 476.539758 -368.86204 481.610717 -363.699225"></polygon>
                    </g>
                    <g id="Group-289">
                        <mask id="mask-30" fill="white">
                            <use xlink:href="#path-29"></use>
                        </mask>
                        <g id="Clip-288"></g>
                        <polygon id="Fill-287" fill="#FFFFFF" mask="url(#mask-30)" points="-276.738188 429.224643 -276.738188 418.905999 495.521499 -366.28203 498.06385 -368.859944 503.134809 -363.704115"></polygon>
                    </g>
                    <g id="Group-292">
                        <mask id="mask-32" fill="white">
                            <use xlink:href="#path-31"></use>
                        </mask>
                        <g id="Clip-291"></g>
                        <polygon id="Fill-290" fill="#FFFFFF" mask="url(#mask-32)" points="-276.738188 451.107923 -276.738188 440.789279 517.045591 -366.279585 519.584507 -368.857499 524.655466 -363.70167"></polygon>
                    </g>
                    <g id="Group-295">
                        <mask id="mask-34" fill="white">
                            <use xlink:href="#path-33"></use>
                        </mask>
                        <g id="Clip-294"></g>
                        <polygon id="Fill-293" fill="#FFFFFF" mask="url(#mask-34)" points="-276.738188 472.989107 -276.738188 462.673956 538.566248 -366.282729 541.105163 -368.860643 546.179558 -363.701321"></polygon>
                    </g>
                    <g id="Group-298">
                        <mask id="mask-36" fill="white">
                            <use xlink:href="#path-35"></use>
                        </mask>
                        <g id="Clip-297"></g>
                        <polygon id="Fill-296" fill="#FFFFFF" mask="url(#mask-36)" points="-276.738188 494.873784 -276.738188 484.55514 560.09034 -366.282379 562.625819 -368.860294 567.700214 -363.704465"></polygon>
                    </g>
                    <g id="Group-301">
                        <mask id="mask-38" fill="white">
                            <use xlink:href="#path-37"></use>
                        </mask>
                        <g id="Clip-300"></g>
                        <polygon id="Fill-299" fill="#FFFFFF" mask="url(#mask-38)" points="-276.738188 516.753571 -276.738188 506.434927 581.614432 -366.283427 584.149912 -368.861342 589.220871 -363.70202"></polygon>
                    </g>
                    <g id="Group-304">
                        <mask id="mask-40" fill="white">
                            <use xlink:href="#path-39"></use>
                        </mask>
                        <g id="Clip-303"></g>
                        <polygon id="Fill-302" fill="#FFFFFF" mask="url(#mask-40)" points="-276.738188 538.636851 -276.738188 528.3217 603.135088 -366.280982 605.674004 -368.858896 610.748399 -363.703068"></polygon>
                    </g>
                    <g id="Group-307">
                        <mask id="mask-42" fill="white">
                            <use xlink:href="#path-41"></use>
                        </mask>
                        <g id="Clip-306"></g>
                        <polygon id="Fill-305" fill="#FFFFFF" mask="url(#mask-42)" points="-276.738188 560.519782 -276.738188 550.201138 624.655745 -366.282379 627.19466 -368.860294 632.269055 -363.704465"></polygon>
                    </g>
                    <g id="Group-310">
                        <mask id="mask-44" fill="white">
                            <use xlink:href="#path-43"></use>
                        </mask>
                        <g id="Clip-309"></g>
                        <polygon id="Fill-308" fill="#FFFFFF" mask="url(#mask-44)" points="-276.738188 572.084068 646.179837 -366.283776 648.718752 -368.861691 652.034115 -365.483854 652.034115 -361.91739 -276.738188 582.402712"></polygon>
                    </g>
                    <g id="Group-313">
                        <mask id="mask-46" fill="white">
                            <use xlink:href="#path-45"></use>
                        </mask>
                        <g id="Clip-312"></g>
                        <polygon id="Fill-311" fill="#FFFFFF" mask="url(#mask-46)" points="-276.738188 600.912348 -276.738188 593.968047 652.034115 -350.348562 652.034115 -340.036905 -273.41939 600.912348"></polygon>
                    </g>
                    <g id="Group-316">
                        <mask id="mask-48" fill="white">
                            <use xlink:href="#path-47"></use>
                        </mask>
                        <g id="Clip-315"></g>
                        <polygon id="Fill-314" fill="#FFFFFF" mask="url(#mask-48)" points="-256.971754 600.912348 -259.507233 598.334433 652.032054 -328.467728 652.032054 -318.149084 -251.900794 600.912348"></polygon>
                    </g>
                    <g id="Group-319">
                        <mask id="mask-50" fill="white">
                            <use xlink:href="#path-49"></use>
                        </mask>
                        <g id="Clip-318"></g>
                        <polygon id="Fill-317" fill="#FFFFFF" mask="url(#mask-50)" points="-235.449036 600.912348 -237.987951 598.334433 652.037551 -306.586893 652.037551 -296.268249 -230.378077 600.912348"></polygon>
                    </g>
                    <g id="Group-322">
                        <mask id="mask-52" fill="white">
                            <use xlink:href="#path-51"></use>
                        </mask>
                        <g id="Clip-321"></g>
                        <polygon id="Fill-320" fill="#FFFFFF" mask="url(#mask-52)" points="-213.925975 600.912348 -216.46489 598.334433 652.033084 -284.702565 652.033084 -274.387414 -208.855015 600.912348"></polygon>
                    </g>
                    <g id="Group-325">
                        <mask id="mask-54" fill="white">
                            <use xlink:href="#path-53"></use>
                        </mask>
                        <g id="Clip-324"></g>
                        <polygon id="Fill-323" fill="#FFFFFF" mask="url(#mask-54)" points="-192.404631 600.912348 -194.940111 598.334433 652.037207 -262.82173 652.037207 -252.503086 -187.333672 600.912348"></polygon>
                    </g>
                    <g id="Group-328">
                        <mask id="mask-56" fill="white">
                            <use xlink:href="#path-55"></use>
                        </mask>
                        <g id="Clip-327"></g>
                        <polygon id="Fill-326" fill="#FFFFFF" mask="url(#mask-56)" points="-170.881913 600.912348 -173.420828 598.334433 652.032397 -240.940895 652.032397 -230.622251 -165.810954 600.912348"></polygon>
                    </g>
                    <g id="Group-331">
                        <mask id="mask-58" fill="white">
                            <use xlink:href="#path-57"></use>
                        </mask>
                        <g id="Clip-330"></g>
                        <polygon id="Fill-329" fill="#FFFFFF" mask="url(#mask-58)" points="-149.358852 600.912348 -151.897767 598.334433 652.034802 -219.053074 652.034802 -208.741416 -144.287892 600.912348"></polygon>
                    </g>
                    <g id="Group-334">
                        <mask id="mask-60" fill="white">
                            <use xlink:href="#path-59"></use>
                        </mask>
                        <g id="Clip-333"></g>
                        <polygon id="Fill-332" fill="#FFFFFF" mask="url(#mask-60)" points="-127.839569 600.912348 -130.378485 598.334433 652.036864 -197.175733 652.036864 -186.857089 -122.76861 600.912348"></polygon>
                    </g>
                    <g id="Group-337">
                        <mask id="mask-62" fill="white">
                            <use xlink:href="#path-61"></use>
                        </mask>
                        <g id="Clip-336"></g>
                        <polygon id="Fill-335" fill="#FFFFFF" mask="url(#mask-62)" points="-106.316508 600.912348 -108.855423 598.334433 652.032397 -175.294898 652.032397 -164.976254 -101.245549 600.912348"></polygon>
                    </g>
                    <g id="Group-340">
                        <mask id="mask-64" fill="white">
                            <use xlink:href="#path-63"></use>
                        </mask>
                        <g id="Clip-339"></g>
                        <polygon id="Fill-338" fill="#FFFFFF" mask="url(#mask-64)" points="-84.7972259 600.912348 -87.3292699 598.334433 652.037894 -153.41057 652.037894 -143.091926 -79.722831 600.912348"></polygon>
                    </g>
                    <g id="Group-343">
                        <mask id="mask-66" fill="white">
                            <use xlink:href="#path-65"></use>
                        </mask>
                        <g id="Clip-342"></g>
                        <polygon id="Fill-341" fill="#FFFFFF" mask="url(#mask-66)" points="-63.2707289 600.912348 -65.8096441 598.334433 652.033428 -131.529735 652.033428 -121.211091 -58.1997696 600.912348"></polygon>
                    </g>
                    <g id="Group-346">
                        <mask id="mask-68" fill="white">
                            <use xlink:href="#path-67"></use>
                        </mask>
                        <g id="Clip-345"></g>
                        <polygon id="Fill-344" fill="#FFFFFF" mask="url(#mask-68)" points="-41.7514466 600.912348 -44.2869263 598.334433 652.032054 -109.645407 652.032054 -99.3302561 -36.6770517 600.912348"></polygon>
                    </g>
                    <g id="Group-349">
                        <mask id="mask-70" fill="white">
                            <use xlink:href="#path-69"></use>
                        </mask>
                        <g id="Clip-348"></g>
                        <polygon id="Fill-347" fill="#FFFFFF" mask="url(#mask-70)" points="-20.2283852 600.912348 -22.7638649 598.334433 652.034459 -87.7610791 652.034459 -77.4459282 -15.157426 600.912348"></polygon>
                    </g>
                    <g id="Group-352">
                        <mask id="mask-72" fill="white">
                            <use xlink:href="#path-71"></use>
                        </mask>
                        <g id="Clip-351"></g>
                        <polygon id="Fill-350" fill="#FFFFFF" mask="url(#mask-72)" points="1.29433259 600.912348 -1.24458266 598.334433 652.03652 -65.8802443 652.03652 -55.5616003 6.36529187 600.912348"></polygon>
                    </g>
                    <g id="Group-355" transform="translate(21.397490, 0.000000)">
                        <mask id="mask-74" fill="white">
                            <use xlink:href="#path-73"></use>
                        </mask>
                        <g id="Clip-354"></g>
                        <polygon id="Fill-353" fill="#FFFFFF" mask="url(#mask-74)" points="2.57245433 600.912348 0.0354144008 598.334433 631.325789 -43.9959164 631.325789 -33.6772723 7.63966804 600.912348"></polygon>
                    </g>
                    <g id="Group-358" transform="translate(42.154812, 0.000000)">
                        <mask id="mask-76" fill="white">
                            <use xlink:href="#path-75"></use>
                        </mask>
                        <g id="Clip-357"></g>
                        <polygon id="Fill-356" fill="#FFFFFF" mask="url(#mask-76)" points="2.74175415 600.912348 0.210224917 598.334433 610.319075 -22.1150815 610.319075 -11.7999306 7.81511735 600.912348"></polygon>
                    </g>
                    <g id="Group-361" transform="translate(63.912134, 0.000000)">
                        <mask id="mask-78" fill="white">
                            <use xlink:href="#path-77"></use>
                        </mask>
                        <g id="Clip-360"></g>
                        <polygon id="Fill-359" fill="#FFFFFF" mask="url(#mask-78)" points="2.74192984 600.912348 0.209016807 598.334433 588.321906 -0.230753607 588.321906 10.0843973 7.81118802 600.912348"></polygon>
                    </g>
                    <g id="Group-364" transform="translate(82.949791, 20.738870)">
                        <mask id="mask-80" fill="white">
                            <use xlink:href="#path-79"></use>
                        </mask>
                        <g id="Clip-363"></g>
                        <polygon id="Fill-362" fill="#FFFFFF" mask="url(#mask-80)" points="2.8822904 582.47477 0.330550579 579.883987 571.156132 0.320927732 571.156132 10.6910806 7.98922769 582.47477"></polygon>
                    </g>
                    <g id="Group-367" transform="translate(105.707113, 44.242923)">
                        <mask id="mask-82" fill="white">
                            <use xlink:href="#path-81"></use>
                        </mask>
                        <g id="Clip-366"></g>
                        <polygon id="Fill-365" fill="#FFFFFF" mask="url(#mask-82)" points="2.77221542 552.2384 0.237253682 549.685638 545.789872 0.29539762 545.789872 10.5133615 7.84213889 552.2384"></polygon>
                    </g>
                    <g id="Group-370" transform="translate(126.464435, 64.981793)">
                        <mask id="mask-84" fill="white">
                            <use xlink:href="#path-83"></use>
                        </mask>
                        <g id="Clip-369"></g>
                        <polygon id="Fill-368" fill="#FFFFFF" mask="url(#mask-84)" points="2.93808319 537.030217 0.409123922 534.447047 522.500617 0.441379068 522.500617 10.78106 7.98915746 537.030217"></polygon>
                    </g>
                    <g id="Group-373" transform="translate(149.581590, 85.697904)">
                        <mask id="mask-86" fill="white">
                            <use xlink:href="#path-85"></use>
                        </mask>
                        <g id="Clip-372"></g>
                        <polygon id="Fill-371" fill="#FFFFFF" mask="url(#mask-86)" points="2.90140995 516.921689 0.382980518 514.327242 498.950219 0.0150835292 498.950219 10.3963861 7.93145304 516.921689"></polygon>
                    </g>
                    <g id="Group-376" transform="translate(168.619247, 106.459533)">
                        <mask id="mask-88" fill="white">
                            <use xlink:href="#path-87"></use>
                        </mask>
                        <g id="Clip-375"></g>
                        <polygon id="Fill-374" fill="#FFFFFF" mask="url(#mask-88)" points="3.06902705 491.798357 0.531018818 489.22286 482.75947 0.527533654 482.75947 10.8330116 8.15537461 491.798357"></polygon>
                    </g>
                    <g id="Group-379" transform="translate(193.096234, 132.728769)">
                        <mask id="mask-90" fill="white">
                            <use xlink:href="#path-89"></use>
                        </mask>
                        <g id="Clip-378"></g>
                        <polygon id="Fill-377" fill="#FFFFFF" mask="url(#mask-90)" points="2.56418278 470.260923 0.039512122 467.683612 457.658304 0.523249115 457.658304 10.8359864 7.61694505 470.260923"></polygon>
                    </g>
                    <g id="Group-382" transform="translate(213.493724, 152.085048)">
                        <mask id="mask-92" fill="white">
                            <use xlink:href="#path-91"></use>
                        </mask>
                        <g id="Clip-381"></g>
                        <polygon id="Fill-380" fill="#FFFFFF" mask="url(#mask-92)" points="3.1449787 444.930313 0.623529184 442.373543 436.253475 0.637806745 436.253475 10.8718161 8.19129434 444.930313"></polygon>
                    </g>
                    <g id="Group-385" transform="translate(235.251046, 174.206509)">
                        <mask id="mask-94" fill="white">
                            <use xlink:href="#path-93"></use>
                        </mask>
                        <g id="Clip-384"></g>
                        <polygon id="Fill-383" fill="#FFFFFF" mask="url(#mask-94)" points="3.12471039 429.976255 0.600787462 427.375851 415.235498 0.173268723 415.235498 10.5819294 8.17255626 429.976255"></polygon>
                    </g>
                </g>
            </g>
        </g>
    </g>
</svg>