<?xml version="1.0" encoding="UTF-8"?>
<svg width="282px" height="309px" viewBox="0 0 282 309" version="1.1" xmlns="http://www.w3.org/2000/svg" xmlns:xlink="http://www.w3.org/1999/xlink">
    <!-- Generator: Sketch 48.2 (47327) - http://www.bohemiancoding.com/sketch -->
    <title>Pattern</title>
    <desc>Created with Sketch.</desc>
    <defs>
        <rect id="path-1" x="0" y="0" width="550" height="546"></rect>
        <path d="M160.579991,0 C92.5218892,1.31426364 33.124592,38.163796 0,92.8502561 L160.579991,92.8502561 L160.579991,0 Z" id="path-3"></path>
        <path d="M197.962512,1.24796453 C190.840754,0.423513355 183.600337,0 176.263312,0 C96.9043743,0 28.8499174,49.5471723 0,120.074447 L197.962512,120.074447 L197.962512,1.24796453 Z" id="path-5"></path>
        <path d="M233.438761,5.97070667 C218.269443,2.07184243 202.380698,2.3524699e-13 186.014241,0 C96.6478015,0 21.5273765,61.7726565 0,145.460721 L233.438761,145.460721 L233.438761,5.97070667 Z" id="path-7"></path>
        <path d="M263.039978,14.3939651 C240.596905,5.11628166 216.016483,0 190.248104,0 C92.1856339,0 11.3307805,74.0944863 0,169.658 L263.039978,169.658 L263.039978,14.3939447 L263.039978,14.3939651 Z" id="path-9"></path>
        <path d="M0.0170454114,193.699638 C0.0056936514,192.842527 0,191.984055 0,191.124257 C0,85.5697787 85.8192837,0 191.685613,0 C227.639386,0 261.281438,9.86946566 290.035115,27.0393923 L290.035115,193.699638 L0.0170454114,193.699638 Z" id="path-11"></path>
        <path d="M2.05236364,221.760467 C0.70025656,212.503878 0,203.034102 0,193.399843 C0,86.5885997 86.0771654,0 192.261617,0 C239.629369,0 282.996672,17.2307596 316.506661,45.8009818 L316.506661,221.760467 L2.05236364,221.760467 Z" id="path-13"></path>
        <path d="M7.62833539,246.457872 C2.66238786,229.358637 0,211.277357 0,192.573484 C0,86.2186236 86.0907149,0 192.291881,0 C252.87403,-2.32692115e-13 306.913369,28.056395 342.16052,71.9023676 L342.16052,246.457872 L7.62833539,246.457872 Z" id="path-15"></path>
        <path d="M17.1445943,272.993839 C6.13258853,248.67122 0,221.65575 0,193.204367 C0,86.5010815 86.2633015,0 192.677369,0 C270.970392,0 338.35777,46.8241134 368.50594,114.067824 L368.505913,272.344858 C368.408846,272.561373 368.311377,272.777713 368.213522,272.993839 L17.144553,272.993832 L17.1445943,272.993839 Z" id="path-17"></path>
        <path d="M31.1872785,298.695792 C11.4643761,268.362953 0,232.120622 0,193.189561 C0,86.4944527 86.1153155,0 192.346829,0 C298.578342,0 384.697746,86.4944527 384.697746,193.189561 C384.697746,232.120622 373.232825,268.362953 353.509231,298.695792 L31.1872785,298.695792 Z" id="path-19"></path>
        <path d="M51.1839362,325.097862 C19.4166799,290.567804 0,244.360809 0,193.590584 C0,86.673998 86.1153155,0 192.346829,0 C298.578342,0 384.697746,86.673998 384.697746,193.590584 C384.697746,244.360809 365.280144,290.567804 333.511919,325.097862 L51.1839362,325.097862 Z" id="path-21"></path>
        <path d="M80.1658919,348.952149 C31.615846,314.000738 0,256.960208 0,192.53015 C0,86.1992223 86.1153155,0 192.346829,0 C298.578342,0 384.697746,86.1992223 384.697746,192.53015 C384.697746,256.960208 353.080399,314.000738 304.52917,348.952149 L80.1658919,348.952149 Z" id="path-23"></path>
        <path d="M129.594571,373.786667 C54.1756729,347.799328 0,276.275108 0,192.115739 C0,86.0136829 86.1153155,0 192.346829,0 C298.578342,0 384.697746,86.0136829 384.697746,192.115739 C384.697746,276.275108 330.519501,347.799328 255.099538,373.786667 L129.594571,373.786667 Z" id="path-25"></path>
        <path d="M0,192.767338 C0,299.233357 86.1153155,385.546968 192.346829,385.546968 C298.578342,385.546968 384.697746,299.233357 384.697746,192.767338 C384.697746,86.3054155 298.578342,0 192.346829,0 C86.1153155,0 0,86.3054155 0,192.767338 Z" id="path-27"></path>
        <path d="M0,192.767338 C0,299.233357 86.1153155,385.546968 192.346829,385.546968 C298.578342,385.546968 384.697746,299.233357 384.697746,192.767338 C384.697746,86.3054155 298.578342,0 192.346829,0 C86.1153155,0 0,86.3054155 0,192.767338 Z" id="path-29"></path>
        <path d="M0,192.767338 C0,299.233357 86.1153155,385.546968 192.346829,385.546968 C298.578342,385.546968 384.697746,299.233357 384.697746,192.767338 C384.697746,86.3054155 298.578342,0 192.346829,0 C86.1153155,0 0,86.3054155 0,192.767338 Z" id="path-31"></path>
        <path d="M0,192.767338 C0,299.233357 86.1153155,385.546968 192.346829,385.546968 C298.578342,385.546968 384.697746,299.233357 384.697746,192.767338 C384.697746,86.3054155 298.578342,0 192.346829,0 C86.1153155,0 0,86.3054155 0,192.767338 Z" id="path-33"></path>
        <path d="M0,192.767338 C0,299.233357 86.1153155,385.546968 192.346829,385.546968 C298.578342,385.546968 384.697746,299.233357 384.697746,192.767338 C384.697746,86.3054155 298.578342,0 192.346829,0 C86.1153155,0 0,86.3054155 0,192.767338 Z" id="path-35"></path>
        <path d="M0,192.767338 C0,299.233357 86.1153155,385.546968 192.346829,385.546968 C298.578342,385.546968 384.697746,299.233357 384.697746,192.767338 C384.697746,86.3054155 298.578342,0 192.346829,0 C86.1153155,0 0,86.3054155 0,192.767338 Z" id="path-37"></path>
        <path d="M0,192.767338 C0,299.233357 86.1153155,385.546968 192.346829,385.546968 C298.578342,385.546968 384.697746,299.233357 384.697746,192.767338 C384.697746,86.3054155 298.578342,0 192.346829,0 C86.1153155,0 0,86.3054155 0,192.767338 Z" id="path-39"></path>
        <path d="M0,192.767338 C0,299.233357 86.1153155,385.546968 192.346829,385.546968 C298.578342,385.546968 384.697746,299.233357 384.697746,192.767338 C384.697746,86.3054155 298.578342,0 192.346829,0 C86.1153155,0 0,86.3054155 0,192.767338 Z" id="path-41"></path>
        <path d="M0,192.767338 C0,299.233357 86.1153155,385.546968 192.346829,385.546968 C298.578342,385.546968 384.697746,299.233357 384.697746,192.767338 C384.697746,86.3054155 298.578342,0 192.346829,0 C86.1153155,0 0,86.3054155 0,192.767338 Z" id="path-43"></path>
        <path d="M0,192.767338 C0,299.233357 86.1153155,385.546968 192.346829,385.546968 C298.578342,385.546968 384.697746,299.233357 384.697746,192.767338 C384.697746,86.3054155 298.578342,0 192.346829,0 C86.1153155,0 0,86.3054155 0,192.767338 Z" id="path-45"></path>
        <path d="M0,192.767338 C0,299.233357 86.1153155,385.546968 192.346829,385.546968 C298.578342,385.546968 384.697746,299.233357 384.697746,192.767338 C384.697746,86.3054155 298.578342,0 192.346829,0 C86.1153155,0 0,86.3054155 0,192.767338 Z" id="path-47"></path>
        <path d="M0,192.767338 C0,299.233357 86.1153155,385.546968 192.346829,385.546968 C298.578342,385.546968 384.697746,299.233357 384.697746,192.767338 C384.697746,86.3054155 298.578342,0 192.346829,0 C86.1153155,0 0,86.3054155 0,192.767338 Z" id="path-49"></path>
        <path d="M0,192.767338 C0,299.233357 86.1153155,385.546968 192.346829,385.546968 C298.578342,385.546968 384.697746,299.233357 384.697746,192.767338 C384.697746,86.3054155 298.578342,0 192.346829,0 C86.1153155,0 0,86.3054155 0,192.767338 Z" id="path-51"></path>
        <path d="M0,192.767338 C0,299.233357 86.1153155,385.546968 192.346829,385.546968 C298.578342,385.546968 384.697746,299.233357 384.697746,192.767338 C384.697746,86.3054155 298.578342,0 192.346829,0 C86.1153155,0 0,86.3054155 0,192.767338 Z" id="path-53"></path>
        <path d="M0,192.767338 C0,299.233357 86.1153155,385.546968 192.346829,385.546968 C298.578342,385.546968 384.697746,299.233357 384.697746,192.767338 C384.697746,86.3054155 298.578342,0 192.346829,0 C86.1153155,0 0,86.3054155 0,192.767338 Z" id="path-55"></path>
        <path d="M0,192.767338 C0,299.233357 86.1153155,385.546968 192.346829,385.546968 C298.578342,385.546968 384.697746,299.233357 384.697746,192.767338 C384.697746,86.3054155 298.578342,0 192.346829,0 C86.1153155,0 0,86.3054155 0,192.767338 Z" id="path-57"></path>
        <path d="M0,192.767338 C0,299.233357 86.1153155,385.546968 192.346829,385.546968 C298.578342,385.546968 384.697746,299.233357 384.697746,192.767338 C384.697746,86.3054155 298.578342,0 192.346829,0 C86.1153155,0 0,86.3054155 0,192.767338 Z" id="path-59"></path>
        <path d="M0,192.767338 C0,299.233357 86.1153155,385.546968 192.346829,385.546968 C298.578342,385.546968 384.697746,299.233357 384.697746,192.767338 C384.697746,86.3054155 298.578342,0 192.346829,0 C86.1153155,0 0,86.3054155 0,192.767338 Z" id="path-61"></path>
        <path d="M0,192.767338 C0,299.233357 86.1153155,385.546968 192.346829,385.546968 C298.578342,385.546968 384.697746,299.233357 384.697746,192.767338 C384.697746,86.3054155 298.578342,0 192.346829,0 C86.1153155,0 0,86.3054155 0,192.767338 Z" id="path-63"></path>
        <path d="M0,192.767338 C0,299.233357 86.1153155,385.546968 192.346829,385.546968 C298.578342,385.546968 384.697746,299.233357 384.697746,192.767338 C384.697746,86.3054155 298.578342,0 192.346829,0 C86.1153155,0 0,86.3054155 0,192.767338 Z" id="path-65"></path>
        <path d="M0,192.767338 C0,299.233357 86.1153155,385.546968 192.346829,385.546968 C298.578342,385.546968 384.697746,299.233357 384.697746,192.767338 C384.697746,86.3054155 298.578342,0 192.346829,0 C86.1153155,0 0,86.3054155 0,192.767338 Z" id="path-67"></path>
        <path d="M0,192.767338 C0,299.233357 86.1153155,385.546968 192.346829,385.546968 C298.578342,385.546968 384.697746,299.233357 384.697746,192.767338 C384.697746,86.3054155 298.578342,0 192.346829,0 C86.1153155,0 0,86.3054155 0,192.767338 Z" id="path-69"></path>
        <path d="M0,192.767338 C0,299.233357 86.1153155,385.546968 192.346829,385.546968 C298.578342,385.546968 384.697746,299.233357 384.697746,192.767338 C384.697746,86.3054155 298.578342,0 192.346829,0 C86.1153155,0 0,86.3054155 0,192.767338 Z" id="path-71"></path>
        <path d="M0,192.767338 C0,299.233357 86.1153155,385.546968 192.346829,385.546968 C298.578342,385.546968 384.697746,299.233357 384.697746,192.767338 C384.697746,86.3054155 298.578342,0 192.346829,0 C86.1153155,0 0,86.3054155 0,192.767338 Z" id="path-73"></path>
        <path d="M0,192.767338 C0,299.233357 86.1153155,385.546968 192.346829,385.546968 C298.578342,385.546968 384.697746,299.233357 384.697746,192.767338 C384.697746,86.3054155 298.578342,0 192.346829,0 C86.1153155,0 0,86.3054155 0,192.767338 Z" id="path-75"></path>
        <path d="M0,192.767338 C0,299.233357 86.1153155,385.546968 192.346829,385.546968 C298.578342,385.546968 384.697746,299.233357 384.697746,192.767338 C384.697746,86.3054155 298.578342,0 192.346829,0 C86.1153155,0 0,86.3054155 0,192.767338 Z" id="path-77"></path>
        <path d="M0,285.642761 C32.7348006,345.196401 95.9739156,385.546968 168.618512,385.546968 C274.865868,385.546968 360.998116,299.233357 360.998116,192.767338 C360.998116,86.3054155 274.865868,0 168.618512,0 C95.9739156,0 32.7348006,40.3467362 0,99.896643 L6.69506271e-06,285.642773 L0,285.642761 Z" id="path-79"></path>
        <path d="M0,321.726461 C35.0487855,360.910418 85.8327668,385.546968 142.332732,385.546968 C248.086994,385.546968 333.819501,299.233357 333.819501,192.767338 C333.819501,86.3054155 248.086994,0 142.332732,0 C85.8327668,0 35.0487855,24.634211 0,63.8153641 L2.3136917e-13,321.726461 Z" id="path-81"></path>
        <path d="M0,345.511523 C32.5062318,370.614951 73.2491713,385.546968 117.475422,385.546968 C223.806576,385.546968 310.006757,299.233357 310.006757,192.767338 C310.006757,86.3054155 223.806576,0 117.475422,0 C73.2491713,0 32.5062318,14.9305991 2.32631296e-13,40.0320767 L2.32631296e-13,345.511523 Z" id="path-83"></path>
        <path d="M0,338.03917 C27.375459,352.948581 58.7530776,361.418553 92.1059831,361.418553 C198.748325,361.418553 285.200778,274.82731 285.200778,168.018835 C285.200778,96.0778013 245.976705,33.3113286 187.778852,0 L0,0 L3.27035043e-05,338.039188 L0,338.03917 Z" id="path-85"></path>
        <path d="M0,321.683535 C20.7085383,329.223473 43.077509,333.338443 66.4131326,333.338443 C173.087672,333.338443 259.566227,247.348172 259.566227,141.280986 C259.566227,85.4006245 235.561422,35.0943668 197.245388,0 L0,0 L1.23459371e-10,321.683535 Z" id="path-87"></path>
        <path d="M0,304.174146 C13.0864962,306.978361 26.6662626,308.45451 40.591122,308.45451 C146.990223,308.45451 233.245488,222.270923 233.245488,115.965286 C233.245488,72.4193858 218.771074,32.2508345 194.366887,0 L0,0 L2.32779951e-13,304.174146 Z" id="path-89"></path>
        <path d="M0,283.034074 C4.91349063,283.412809 9.87874437,283.605668 14.8888151,283.605668 C120.945345,283.605668 206.922895,197.18303 206.922895,90.5825275 C206.922895,57.8453002 198.813587,27.0116138 184.503832,0 L0,0 L9.74527991e-12,283.034074 Z" id="path-91"></path>
        <path d="M0,257.355685 C101.496622,251.787377 182.084357,167.711399 182.084357,64.817793 C182.084357,42.0777219 178.147866,20.2570274 170.919174,0 L0,0 L0,257.355685 Z" id="path-93"></path>
        <path d="M0,229.938855 C87.5930182,212.811617 153.795408,134.004153 153.795408,39.3786959 C153.795408,25.8864709 152.449367,12.715926 149.887203,0 L0,0 L0,229.938855 Z" id="path-95"></path>
        <path d="M0,194.430457 C76.6443458,168.805033 131.78973,97.41092 131.78973,13.3506269 C131.78973,8.86262337 131.632525,4.41073524 131.323236,0 L0,0 L0,194.430457 Z" id="path-97"></path>
        <path d="M0,160.342797 C58.9542429,130.001229 100.324765,70.0422114 104.679353,0 L0,0 L0,160.342797 Z" id="path-99"></path>
    </defs>
    <g id="Startup-Garage---FAQ" stroke="none" stroke-width="1" fill="none" fill-rule="evenodd" transform="translate(0.000000, -1476.000000)" opacity="0.673913043">
        <g id="1_FAQs" transform="translate(0.000000, 601.000000)">
            <g id="BG">
                <g id="Pattern" transform="translate(275.000000, 911.000000) rotate(-180.000000) translate(-275.000000, -911.000000) translate(0.000000, 638.000000)">
                    <mask id="mask-2" fill="white">
                        <use xlink:href="#path-1"></use>
                    </mask>
                    <g id="Mask"></g>
                    <g opacity="0.0797101449" mask="url(#mask-2)">
                        <g transform="translate(268.000000, -77.000000)">
                            <g id="Group-241" transform="translate(28.908140, 0.000000)">
                                <mask id="mask-4" fill="white">
                                    <use xlink:href="#path-3"></use>
                                </mask>
                                <g id="Clip-240"></g>
                                <polygon id="Fill-239" fill="#223B98" mask="url(#mask-4)" points="-357.100557 92.9051917 -357.100557 80.7745325 151.904041 -430.692494 154.920038 -433.727212 160.952031 -427.661883"></polygon>
                            </g>
                            <g id="Group-244" transform="translate(15.304310, 0.000000)">
                                <mask id="mask-6" fill="white">
                                    <use xlink:href="#path-5"></use>
                                </mask>
                                <g id="Clip-243"></g>
                                <polygon id="Fill-242" fill="#223B98" mask="url(#mask-6)" points="-342.646487 120.324662 -342.646487 108.048624 188.505194 -435.77194 191.501716 -438.83991 197.502879 -432.699813"></polygon>
                            </g>
                            <g id="Group-247" transform="translate(7.652155, 0.000000)">
                                <mask id="mask-8" fill="white">
                                    <use xlink:href="#path-7"></use>
                                </mask>
                                <g id="Clip-246"></g>
                                <polygon id="Fill-245" fill="#223B98" mask="url(#mask-8)" points="-335.844572 145.446346 -335.844572 133.225329 224.2348 -434.081458 227.250109 -437.135678 233.280727 -431.027239"></polygon>
                            </g>
                            <g id="Group-250" transform="translate(2.550718, 0.000000)">
                                <mask id="mask-10" fill="white">
                                    <use xlink:href="#path-9"></use>
                                </mask>
                                <g id="Clip-249"></g>
                                <polygon id="Fill-248" fill="#223B98" mask="url(#mask-10)" points="-329.892896 169.489216 -329.892896 157.387525 253.93441 -429.851722 256.944291 -432.875096 262.955908 -426.828347"></polygon>
                            </g>
                            <g id="Group-253">
                                <mask id="mask-12" fill="white">
                                    <use xlink:href="#path-11"></use>
                                </mask>
                                <g id="Clip-252"></g>
                                <polygon id="Fill-251" fill="#223B98" mask="url(#mask-12)" points="-328.192417 194.210129 -328.192417 182.212809 281.400755 -425.612137 284.411886 -428.614514 290.430075 -422.613823"></polygon>
                            </g>
                            <g id="Group-256">
                                <mask id="mask-14" fill="white">
                                    <use xlink:href="#path-13"></use>
                                </mask>
                                <g id="Clip-255"></g>
                                <polygon id="Fill-254" fill="#223B98" mask="url(#mask-14)" points="-329.042657 222.265092 -329.042657 210.124928 307.986401 -430.689088 311.00658 -433.727212 317.038766 -427.655075"></polygon>
                            </g>
                            <g id="Group-259">
                                <mask id="mask-16" fill="white">
                                    <use xlink:href="#path-15"></use>
                                </mask>
                                <g id="Clip-258"></g>
                                <polygon id="Fill-257" fill="#223B98" mask="url(#mask-16)" points="-329.042657 246.81257 -329.042657 234.720185 333.690714 -428.997837 336.711369 -432.02298 342.744504 -425.976787"></polygon>
                            </g>
                            <g id="Group-262">
                                <mask id="mask-18" fill="white">
                                    <use xlink:href="#path-17"></use>
                                </mask>
                                <g id="Clip-261"></g>
                                <polygon id="Fill-260" fill="#223B98" mask="url(#mask-18)" points="-329.892896 273.058331 -329.892896 260.926331 359.828522 -430.696266 362.851137 -433.727212 368.900462 -427.665319"></polygon>
                            </g>
                            <g id="Group-265">
                                <mask id="mask-20" fill="white">
                                    <use xlink:href="#path-19"></use>
                                </mask>
                                <g id="Clip-264"></g>
                                <polygon id="Fill-263" fill="#223B98" mask="url(#mask-20)" points="-329.042657 298.72828 -329.042657 286.601316 385.110976 -430.696498 388.128406 -433.727212 394.163265 -427.665784"></polygon>
                            </g>
                            <g id="Group-268">
                                <mask id="mask-22" fill="white">
                                    <use xlink:href="#path-21"></use>
                                </mask>
                                <g id="Clip-267"></g>
                                <polygon id="Fill-266" fill="#223B98" mask="url(#mask-22)" points="-329.042657 325.182337 -329.042657 313.026085 410.72233 -431.538208 413.73976 -434.579329 419.778708 -428.501202"></polygon>
                            </g>
                            <g id="Group-271">
                                <mask id="mask-24" fill="white">
                                    <use xlink:href="#path-23"></use>
                                </mask>
                                <g id="Clip-270"></g>
                                <polygon id="Fill-269" fill="#223B98" mask="url(#mask-24)" points="-329.042657 349.209142 -329.042657 337.123571 436.333684 -429.00261 439.351114 -432.02298 445.390062 -425.978148"></polygon>
                            </g>
                            <g id="Group-274">
                                <mask id="mask-26" fill="white">
                                    <use xlink:href="#path-25"></use>
                                </mask>
                                <g id="Clip-273"></g>
                                <polygon id="Fill-272" fill="#223B98" mask="url(#mask-26)" points="-329.042657 373.960824 -329.042657 361.897183 461.945038 -428.156995 464.966556 -431.170863 471.001415 -425.143126"></polygon>
                            </g>
                            <g id="Group-277">
                                <mask id="mask-28" fill="white">
                                    <use xlink:href="#path-27"></use>
                                </mask>
                                <g id="Clip-276"></g>
                                <polygon id="Fill-275" fill="#223B98" mask="url(#mask-28)" points="-329.042657 400.659345 -329.042657 388.558885 487.560481 -429.851005 490.57791 -432.875096 496.612769 -426.822817"></polygon>
                            </g>
                            <g id="Group-280">
                                <mask id="mask-30" fill="white">
                                    <use xlink:href="#path-29"></use>
                                </mask>
                                <g id="Clip-279"></g>
                                <polygon id="Fill-278" fill="#223B98" mask="url(#mask-30)" points="-329.042657 426.331334 -329.042657 414.226776 513.171834 -429.851005 516.193353 -432.875096 522.228212 -426.826915"></polygon>
                            </g>
                            <g id="Group-283">
                                <mask id="mask-32" fill="white">
                                    <use xlink:href="#path-31"></use>
                                </mask>
                                <g id="Clip-282"></g>
                                <polygon id="Fill-281" fill="#223B98" mask="url(#mask-32)" points="-329.042657 451.999225 -329.042657 439.894667 538.787277 -429.851005 541.804707 -432.875096 547.843655 -426.826915"></polygon>
                            </g>
                            <g id="Group-286">
                                <mask id="mask-34" fill="white">
                                    <use xlink:href="#path-33"></use>
                                </mask>
                                <g id="Clip-285"></g>
                                <polygon id="Fill-284" fill="#223B98" mask="url(#mask-34)" points="-329.042657 477.671214 -329.042657 465.570754 564.398631 -429.851005 567.420149 -432.875096 573.455008 -426.818719"></polygon>
                            </g>
                            <g id="Group-289">
                                <mask id="mask-36" fill="white">
                                    <use xlink:href="#path-35"></use>
                                </mask>
                                <g id="Clip-288"></g>
                                <polygon id="Fill-287" fill="#223B98" mask="url(#mask-36)" points="-329.042657 503.339105 -329.042657 491.234547 590.009985 -429.851005 593.035592 -432.875096 599.070451 -426.826915"></polygon>
                            </g>
                            <g id="Group-292">
                                <mask id="mask-38" fill="white">
                                    <use xlink:href="#path-37"></use>
                                </mask>
                                <g id="Clip-291"></g>
                                <polygon id="Fill-290" fill="#223B98" mask="url(#mask-38)" points="-329.042657 529.006996 -329.042657 516.902439 615.625427 -429.851005 618.646946 -432.875096 624.681805 -426.826915"></polygon>
                            </g>
                            <g id="Group-295">
                                <mask id="mask-40" fill="white">
                                    <use xlink:href="#path-39"></use>
                                </mask>
                                <g id="Clip-294"></g>
                                <polygon id="Fill-293" fill="#223B98" mask="url(#mask-40)" points="-329.042657 554.678985 -329.042657 542.578525 641.236781 -429.851005 644.2583 -432.875096 650.297248 -426.822817"></polygon>
                            </g>
                            <g id="Group-298">
                                <mask id="mask-42" fill="white">
                                    <use xlink:href="#path-41"></use>
                                </mask>
                                <g id="Clip-297"></g>
                                <polygon id="Fill-296" fill="#223B98" mask="url(#mask-42)" points="-329.042657 580.350974 -329.042657 568.246416 666.852224 -429.851005 669.869654 -432.875096 675.908601 -426.826915"></polygon>
                            </g>
                            <g id="Group-301">
                                <mask id="mask-44" fill="white">
                                    <use xlink:href="#path-43"></use>
                                </mask>
                                <g id="Clip-300"></g>
                                <polygon id="Fill-299" fill="#223B98" mask="url(#mask-44)" points="-329.042657 606.018865 -329.042657 593.914307 692.467667 -429.851005 695.485096 -432.875096 701.519955 -426.822817"></polygon>
                            </g>
                            <g id="Group-304">
                                <mask id="mask-46" fill="white">
                                    <use xlink:href="#path-45"></use>
                                </mask>
                                <g id="Clip-303"></g>
                                <polygon id="Fill-302" fill="#223B98" mask="url(#mask-46)" points="-329.042657 631.686756 -329.042657 619.586296 718.07902 -429.851005 721.100539 -432.875096 727.139487 -426.826915"></polygon>
                            </g>
                            <g id="Group-307">
                                <mask id="mask-48" fill="white">
                                    <use xlink:href="#path-47"></use>
                                </mask>
                                <g id="Clip-306"></g>
                                <polygon id="Fill-305" fill="#223B98" mask="url(#mask-48)" points="-329.042657 657.358745 -329.042657 645.254187 743.690374 -429.851005 746.711893 -432.875096 752.750841 -426.826915"></polygon>
                            </g>
                            <g id="Group-310">
                                <mask id="mask-50" fill="white">
                                    <use xlink:href="#path-49"></use>
                                </mask>
                                <g id="Clip-309"></g>
                                <polygon id="Fill-308" fill="#223B98" mask="url(#mask-50)" points="-329.042657 670.926176 769.305817 -429.851005 772.327335 -432.875096 776.27289 -428.912636 776.27289 -424.728901 -329.042657 683.030734"></polygon>
                            </g>
                            <g id="Group-313">
                                <mask id="mask-52" fill="white">
                                    <use xlink:href="#path-51"></use>
                                </mask>
                                <g id="Clip-312"></g>
                                <polygon id="Fill-311" fill="#223B98" mask="url(#mask-52)" points="-329.042657 705.181661 -329.042657 697.035465 776.27289 -410.720071 776.27289 -398.623709 -325.093013 705.181661"></polygon>
                            </g>
                            <g id="Group-316">
                                <mask id="mask-54" fill="white">
                                    <use xlink:href="#path-53"></use>
                                </mask>
                                <g id="Clip-315"></g>
                                <polygon id="Fill-314" fill="#223B98" mask="url(#mask-54)" points="-305.619481 705.07726 -308.63691 702.053169 776.169928 -385.156582 776.169928 -373.052024 -299.584622 705.07726"></polygon>
                            </g>
                            <g id="Group-319">
                                <mask id="mask-56" fill="white">
                                    <use xlink:href="#path-55"></use>
                                </mask>
                                <g id="Clip-318"></g>
                                <polygon id="Fill-317" fill="#223B98" mask="url(#mask-56)" points="-280.108209 704.972858 -283.129728 701.948768 776.073934 -359.593092 776.073934 -347.488534 -274.07335 704.972858"></polygon>
                            </g>
                            <g id="Group-322">
                                <mask id="mask-58" fill="white">
                                    <use xlink:href="#path-57"></use>
                                </mask>
                                <g id="Clip-321"></g>
                                <polygon id="Fill-320" fill="#223B98" mask="url(#mask-58)" points="-254.601027 704.86436 -257.622545 701.840269 775.961585 -334.029602 775.961585 -321.929142 -248.566168 704.86436"></polygon>
                            </g>
                            <g id="Group-325">
                                <mask id="mask-60" fill="white">
                                    <use xlink:href="#path-59"></use>
                                </mask>
                                <g id="Clip-324"></g>
                                <polygon id="Fill-323" fill="#223B98" mask="url(#mask-60)" points="-229.097933 704.759958 -232.115362 701.735868 775.857414 -308.466112 775.857414 -296.361554 -223.063073 704.759958"></polygon>
                            </g>
                            <g id="Group-328">
                                <mask id="mask-62" fill="white">
                                    <use xlink:href="#path-61"></use>
                                </mask>
                                <g id="Clip-327"></g>
                                <polygon id="Fill-326" fill="#223B98" mask="url(#mask-62)" points="-203.586661 704.655557 -206.60818 701.631466 775.749154 -282.902622 775.749154 -270.798064 -197.551802 704.655557"></polygon>
                            </g>
                            <g id="Group-331">
                                <mask id="mask-64" fill="white">
                                    <use xlink:href="#path-63"></use>
                                </mask>
                                <g id="Clip-330"></g>
                                <polygon id="Fill-329" fill="#223B98" mask="url(#mask-64)" points="-178.079479 704.542961 -181.100997 701.51887 775.644983 -257.339132 775.644983 -245.242769 -172.044619 704.542961"></polygon>
                            </g>
                            <g id="Group-334">
                                <mask id="mask-66" fill="white">
                                    <use xlink:href="#path-65"></use>
                                </mask>
                                <g id="Clip-333"></g>
                                <polygon id="Fill-332" fill="#223B98" mask="url(#mask-66)" points="-151.722057 705.294773 -154.743575 702.270683 776.39514 -230.923526 776.39514 -218.818968 -145.687197 705.294773"></polygon>
                            </g>
                            <g id="Group-337">
                                <mask id="mask-68" fill="white">
                                    <use xlink:href="#path-67"></use>
                                </mask>
                                <g id="Clip-336"></g>
                                <polygon id="Fill-335" fill="#223B98" mask="url(#mask-68)" points="-126.214874 705.190372 -129.236392 702.166282 776.282791 -205.360036 776.282791 -193.255478 -120.180015 705.190372"></polygon>
                            </g>
                            <g id="Group-340">
                                <mask id="mask-70" fill="white">
                                    <use xlink:href="#path-69"></use>
                                </mask>
                                <g id="Clip-339"></g>
                                <polygon id="Fill-338" fill="#223B98" mask="url(#mask-70)" points="-100.715869 705.081873 -103.72921 702.057783 776.17862 -179.796546 776.17862 -167.691988 -94.6769207 705.081873"></polygon>
                            </g>
                            <g id="Group-343">
                                <mask id="mask-72" fill="white">
                                    <use xlink:href="#path-71"></use>
                                </mask>
                                <g id="Clip-342"></g>
                                <polygon id="Fill-341" fill="#223B98" mask="url(#mask-72)" points="-75.2005086 704.977472 -78.2220269 701.953381 776.07036 -154.233056 776.07036 -142.128498 -69.1656493 704.977472"></polygon>
                            </g>
                            <g id="Group-346">
                                <mask id="mask-74" fill="white">
                                    <use xlink:href="#path-73"></use>
                                </mask>
                                <g id="Clip-345"></g>
                                <polygon id="Fill-344" fill="#223B98" mask="url(#mask-74)" points="-49.6974146 704.868973 -52.7148442 701.844883 775.9621 -128.669566 775.9621 -116.569106 -43.6584667 704.868973"></polygon>
                            </g>
                            <g id="Group-349">
                                <mask id="mask-76" fill="white">
                                    <use xlink:href="#path-75"></use>
                                </mask>
                                <g id="Clip-348"></g>
                                <polygon id="Fill-347" fill="#223B98" mask="url(#mask-76)" points="-24.1902319 704.760474 -27.2076615 701.736384 775.857929 -103.106076 775.857929 -91.0056159 -18.1553726 704.760474"></polygon>
                            </g>
                            <g id="Group-352">
                                <mask id="mask-78" fill="white">
                                    <use xlink:href="#path-77"></use>
                                </mask>
                                <g id="Clip-351"></g>
                                <polygon id="Fill-350" fill="#223B98" mask="url(#mask-78)" points="1.32103944 704.656073 -1.70047885 701.631982 775.757846 -77.5425861 775.757846 -65.4380283 7.3558987 704.656073"></polygon>
                            </g>
                            <g id="Group-355" transform="translate(23.806704, 0.000000)">
                                <mask id="mask-80" fill="white">
                                    <use xlink:href="#path-79"></use>
                                </mask>
                                <g id="Clip-354"></g>
                                <polygon id="Fill-353" fill="#223B98" mask="url(#mask-80)" points="3.02196892 704.547574 0 701.523484 751.955013 -51.9790962 751.955013 -39.8745383 9.05772822 704.547574"></polygon>
                            </g>
                            <g id="Group-358" transform="translate(51.014365, 0.000000)">
                                <mask id="mask-82" fill="white">
                                    <use xlink:href="#path-81"></use>
                                </mask>
                                <g id="Clip-357"></g>
                                <polygon id="Fill-356" fill="#223B98" mask="url(#mask-82)" points="2.99980336 705.295289 0 702.271199 722.96482 -25.5634899 722.96482 -13.4630298 9.01162094 705.295289"></polygon>
                            </g>
                            <g id="Group-361" transform="translate(74.821069, 0.000000)">
                                <mask id="mask-84" fill="white">
                                    <use xlink:href="#path-83"></use>
                                </mask>
                                <g id="Clip-360"></g>
                                <polygon id="Fill-359" fill="#223B98" mask="url(#mask-84)" points="3.02025986 705.18679 0 702.1627 701.269144 0 701.269144 12.1004602 9.06487207 705.18679"></polygon>
                            </g>
                            <g id="Group-364" transform="translate(99.478012, 23.859257)">
                                <mask id="mask-86" fill="white">
                                    <use xlink:href="#path-85"></use>
                                </mask>
                                <g id="Clip-363"></g>
                                <polygon id="Fill-362" fill="#223B98" mask="url(#mask-86)" points="3.02909892 681.704613 0 678.670795 677.61107 0 677.61107 12.1434929 9.09140123 681.704613"></polygon>
                            </g>
                            <g id="Group-367" transform="translate(125.835435, 51.979096)">
                                <mask id="mask-88" fill="white">
                                    <use xlink:href="#path-87"></use>
                                </mask>
                                <g id="Clip-366"></g>
                                <polygon id="Fill-365" fill="#223B98" mask="url(#mask-88)" points="3.03001347 651.40161 0 648.388848 652.093386 0 652.093386 12.0592128 9.0900404 651.40161"></polygon>
                            </g>
                            <g id="Group-370" transform="translate(152.192857, 77.542586)">
                                <mask id="mask-90" fill="white">
                                    <use xlink:href="#path-89"></use>
                                </mask>
                                <g id="Clip-369"></g>
                                <polygon id="Fill-368" fill="#223B98" mask="url(#mask-90)" points="3.02628496 627.232721 0 624.213186 624.761993 0 624.761993 12.0863234 9.07066468 627.232721"></polygon>
                            </g>
                            <g id="Group-373" transform="translate(178.550279, 102.253960)">
                                <mask id="mask-92" fill="white">
                                    <use xlink:href="#path-91"></use>
                                </mask>
                                <g id="Clip-372"></g>
                                <polygon id="Fill-371" fill="#223B98" mask="url(#mask-92)" points="3.01654129 603.268088 0 600.240177 597.17721 0 597.17721 12.1157449 9.04146003 603.268088"></polygon>
                            </g>
                            <g id="Group-376" transform="translate(203.207222, 126.965333)">
                                <mask id="mask-94" fill="white">
                                    <use xlink:href="#path-93"></use>
                                </mask>
                                <g id="Clip-375"></g>
                                <polygon id="Fill-374" fill="#223B98" mask="url(#mask-94)" points="3.02061304 576.994312 0 573.969408 573.924674 0 573.924674 12.1037153 9.07413469 576.994312"></polygon>
                            </g>
                            <g id="Group-379" transform="translate(231.265123, 155.085172)">
                                <mask id="mask-96" fill="white">
                                    <use xlink:href="#path-95"></use>
                                </mask>
                                <g id="Clip-378"></g>
                                <polygon id="Fill-377" fill="#223B98" mask="url(#mask-96)" points="2.97409575 554.693237 0 551.6498 539.08105 0 539.08105 12.1778727 8.9263172 554.693237"></polygon>
                            </g>
                            <g id="Group-382" transform="translate(253.371348, 178.944429)">
                                <mask id="mask-98" fill="white">
                                    <use xlink:href="#path-97"></use>
                                </mask>
                                <g id="Clip-381"></g>
                                <polygon id="Fill-380" fill="#223B98" mask="url(#mask-98)" points="3.04907193 521.210521 0 518.211111 526.787084 0 526.787084 12.0057693 9.15134734 521.210521"></polygon>
                            </g>
                            <g id="Group-385" transform="translate(280.579009, 203.655803)">
                                <mask id="mask-100" fill="white">
                                    <use xlink:href="#path-99"></use>
                                </mask>
                                <g id="Clip-384"></g>
                                <polygon id="Fill-383" fill="#223B98" mask="url(#mask-100)" points="3.02466872 502.489947 0 499.449772 496.898152 0 496.898152 12.1689414 9.07400617 502.489947"></polygon>
                            </g>
                        </g>
                    </g>
                </g>
            </g>
        </g>
    </g>
</svg>