<svg width="241" height="219" viewBox="0 0 241 219" xmlns="http://www.w3.org/2000/svg" xmlns:xlink="http://www.w3.org/1999/xlink"><title>Pattern</title><defs><path d="M47.065.018A142.262 142.262 0 0 0 .073 23.712h46.992V.018z" id="a"/><path d="M84.954.591C51.287 5.76 21.575 22.953.327 47.656h84.627V.591z" id="c"/><path d="M118.493.105C68.68 1.08 25.205 28.418.96 68.989h117.533V.105z" id="e"/><path d="M144.47.989a139.82 139.82 0 0 0-15.795-.892C70.908.097 21.37 35.51.369 85.917H144.47V.989z" id="g"/><path d="M169.64 4.463a137.279 137.279 0 0 0-34.458-4.37C70.249.092 15.668 45.312.026 106.576H169.64V4.463z" id="i"/><path d="M191.67 10.516C175.33 3.788 157.432.077 138.67.077 67.268.077 8.395 53.813.145 123.12H191.67V10.516z" id="k"/><path d="M.286 142.542c-.008-.63-.012-1.262-.012-1.895C.274 63.01 62.945.072 140.257.072c26.256 0 50.824 7.26 71.822 19.888v122.582H.286z" id="m"/><path d="M1.786 161.404a141.158 141.158 0 0 1-1.51-20.631C.277 63.073 63.582.084 141.674.084c34.835 0 66.73 12.535 91.374 33.318v128.001H1.786z" id="o"/><path d="M5.856 179.985C2.224 167.504.277 154.305.277 140.652.277 63.018 63.233.082 140.895.082c44.302 0 83.82 20.48 109.594 52.485v127.418H5.856z" id="q"/><path d="M12.799 197.826C4.757 180.208.279 160.64.279 140.03.28 62.739 63.271.08 140.978.08c57.172 0 106.38 33.918 128.395 82.627v114.649c-.07.157-.142.314-.213.47H12.799z" id="s"/><path d="M23.063 216.819C8.653 194.809.277 168.51.277 140.263.277 62.844 63.193.083 140.806.083c77.612 0 140.531 62.761 140.531 140.18 0 28.248-8.376 54.546-22.786 76.556H23.063z" id="u"/><path d="M37.672 236.107C14.463 211.04.277 177.492.277 140.633.277 63.01 63.193.085 140.806.085c77.612 0 140.531 62.926 140.531 140.548 0 36.86-14.186 70.406-37.396 95.474H37.672z" id="w"/><path d="M58.846 255.463C23.376 229.883.277 188.137.277 140.983.277 63.163 63.193.078 140.806.078c77.612 0 140.531 63.086 140.531 140.905 0 47.154-23.1 88.9-58.57 114.48H58.846z" id="y"/><path d="M94.959 273.303C39.858 254.307.277 202.026.277 140.508.277 62.95 63.193.078 140.806.078c77.612 0 140.531 62.873 140.531 140.43 0 61.518-39.582 113.8-94.684 132.795H94.959z" id="A"/><path d="M.277 140.637c0 77.63 62.916 140.565 140.529 140.565 77.612 0 140.531-62.935 140.531-140.565C281.337 63.01 218.418.08 140.806.08 63.193.08.277 63.01.277 140.637z" id="C"/><path d="M.277 140.637c0 77.63 62.916 140.565 140.529 140.565 77.612 0 140.531-62.935 140.531-140.565C281.337 63.01 218.418.08 140.806.08 63.193.08.277 63.01.277 140.637z" id="E"/><path d="M.277 140.637c0 77.63 62.916 140.565 140.529 140.565 77.612 0 140.531-62.935 140.531-140.565C281.337 63.01 218.418.08 140.806.08 63.193.08.277 63.01.277 140.637z" id="G"/><path d="M.277 140.637c0 77.63 62.916 140.565 140.529 140.565 77.612 0 140.531-62.935 140.531-140.565C281.337 63.01 218.418.08 140.806.08 63.193.08.277 63.01.277 140.637z" id="I"/><path d="M.277 140.637c0 77.63 62.916 140.565 140.529 140.565 77.612 0 140.531-62.935 140.531-140.565C281.337 63.01 218.418.08 140.806.08 63.193.08.277 63.01.277 140.637z" id="K"/><path d="M.277 140.637c0 77.63 62.916 140.565 140.529 140.565 77.612 0 140.531-62.935 140.531-140.565C281.337 63.01 218.418.08 140.806.08 63.193.08.277 63.01.277 140.637z" id="M"/><path d="M.277 140.637c0 77.63 62.916 140.565 140.529 140.565 77.612 0 140.531-62.935 140.531-140.565C281.337 63.01 218.418.08 140.806.08 63.193.08.277 63.01.277 140.637z" id="O"/><path d="M.277 140.637c0 77.63 62.916 140.565 140.529 140.565 77.612 0 140.531-62.935 140.531-140.565C281.337 63.01 218.418.08 140.806.08 63.193.08.277 63.01.277 140.637z" id="Q"/><path d="M.277 140.637c0 77.63 62.916 140.565 140.529 140.565 77.612 0 140.531-62.935 140.531-140.565C281.337 63.01 218.418.08 140.806.08 63.193.08.277 63.01.277 140.637z" id="S"/><path d="M.277 140.637c0 77.63 62.916 140.565 140.529 140.565 77.612 0 140.531-62.935 140.531-140.565C281.337 63.01 218.418.08 140.806.08 63.193.08.277 63.01.277 140.637z" id="U"/><path d="M.277 140.637c0 77.63 62.916 140.565 140.529 140.565 77.612 0 140.531-62.935 140.531-140.565C281.337 63.01 218.418.08 140.806.08 63.193.08.277 63.01.277 140.637z" id="W"/><path d="M.277 140.637c0 77.63 62.916 140.565 140.529 140.565 77.612 0 140.531-62.935 140.531-140.565C281.337 63.01 218.418.08 140.806.08 63.193.08.277 63.01.277 140.637z" id="Y"/><path d="M.277 140.637c0 77.63 62.916 140.565 140.529 140.565 77.612 0 140.531-62.935 140.531-140.565C281.337 63.01 218.418.08 140.806.08 63.193.08.277 63.01.277 140.637z" id="aa"/><path d="M.277 140.637c0 77.63 62.916 140.565 140.529 140.565 77.612 0 140.531-62.935 140.531-140.565C281.337 63.01 218.418.08 140.806.08 63.193.08.277 63.01.277 140.637z" id="ac"/><path d="M.277 140.637c0 77.63 62.916 140.565 140.529 140.565 77.612 0 140.531-62.935 140.531-140.565C281.337 63.01 218.418.08 140.806.08 63.193.08.277 63.01.277 140.637z" id="ae"/><path d="M.277 140.637c0 77.63 62.916 140.565 140.529 140.565 77.612 0 140.531-62.935 140.531-140.565C281.337 63.01 218.418.08 140.806.08 63.193.08.277 63.01.277 140.637z" id="ag"/><path d="M.277 140.637c0 77.63 62.916 140.565 140.529 140.565 77.612 0 140.531-62.935 140.531-140.565C281.337 63.01 218.418.08 140.806.08 63.193.08.277 63.01.277 140.637z" id="ai"/><path d="M.277 140.637c0 77.63 62.916 140.565 140.529 140.565 77.612 0 140.531-62.935 140.531-140.565C281.337 63.01 218.418.08 140.806.08 63.193.08.277 63.01.277 140.637z" id="ak"/><path d="M.277 140.637c0 77.63 62.916 140.565 140.529 140.565 77.612 0 140.531-62.935 140.531-140.565C281.337 63.01 218.418.08 140.806.08 63.193.08.277 63.01.277 140.637z" id="am"/><path d="M.277 140.637c0 77.63 62.916 140.565 140.529 140.565 77.612 0 140.531-62.935 140.531-140.565C281.337 63.01 218.418.08 140.806.08 63.193.08.277 63.01.277 140.637z" id="ao"/><path d="M.277 140.637c0 77.63 62.916 140.565 140.529 140.565 77.612 0 140.531-62.935 140.531-140.565C281.337 63.01 218.418.08 140.806.08 63.193.08.277 63.01.277 140.637z" id="aq"/><path d="M.277 140.637c0 77.63 62.916 140.565 140.529 140.565 77.612 0 140.531-62.935 140.531-140.565C281.337 63.01 218.418.08 140.806.08 63.193.08.277 63.01.277 140.637z" id="as"/><path d="M.277 140.637c0 77.63 62.916 140.565 140.529 140.565 77.612 0 140.531-62.935 140.531-140.565C281.337 63.01 218.418.08 140.806.08 63.193.08.277 63.01.277 140.637z" id="au"/><path d="M.277 140.637c0 77.63 62.916 140.565 140.529 140.565 77.612 0 140.531-62.935 140.531-140.565C281.337 63.01 218.418.08 140.806.08 63.193.08.277 63.01.277 140.637z" id="aw"/><path d="M.277 140.637c0 77.63 62.916 140.565 140.529 140.565 77.612 0 140.531-62.935 140.531-140.565C281.337 63.01 218.418.08 140.806.08 63.193.08.277 63.01.277 140.637z" id="ay"/><path d="M.277 140.637c0 77.63 62.916 140.565 140.529 140.565 77.612 0 140.531-62.935 140.531-140.565C281.337 63.01 218.418.08 140.806.08 63.193.08.277 63.01.277 140.637z" id="aA"/><path d="M.9 208.357c23.895 43.424 70.057 72.845 123.083 72.845 77.556 0 140.428-62.935 140.428-140.565C264.411 63.01 201.54.08 123.983.08 70.957.08 24.795 29.5.9 72.92v135.437z" id="aC"/><path d="M.183 234.667c25.717 28.572 62.98 46.535 104.436 46.535 77.597 0 140.503-62.935 140.503-140.565C245.122 63.01 182.216.08 104.619.08 63.162.08 25.899 18.042.183 46.611v188.056z" id="aE"/><path d="M.182 252.01c23.702 18.305 53.411 29.192 85.66 29.192 77.534 0 140.39-62.935 140.39-140.565C226.231 63.01 163.375.08 85.841.08 53.593.08 23.884 10.967.182 29.27v222.74z" id="aG"/><path d="M.287 247.192c20.052 10.89 43.034 17.078 67.464 17.078 78.11 0 141.432-63.25 141.432-141.268 0-52.548-28.73-98.396-71.357-122.727H.287v246.917z" id="aI"/><path d="M.045 233.393c15.063 5.465 31.335 8.447 48.31 8.447 77.596 0 140.502-62.321 140.502-139.194 0-40.5-17.461-76.959-45.333-102.393H.044v233.14z" id="aK"/><path d="M.356 222.954a139.689 139.689 0 0 0 29.493 3.132c77.308 0 139.98-63.064 139.98-140.852 0-31.864-10.517-61.257-28.249-84.856H.356v222.576z" id="aM"/><path d="M.333 207.449c3.567.278 7.171.419 10.808.419 76.986 0 139.397-63.34 139.397-141.467 0-23.993-5.886-46.591-16.274-66.388H.333v207.436z" id="aO"/><path d="M.462 187.876c74.149-4.055 133.023-65.285 133.023-140.22 0-16.56-2.876-32.452-8.157-47.205H.462v187.425z" id="aQ"/><path d="M.034 167.003c64.651-12.406 113.514-69.49 113.514-138.032 0-9.773-.993-19.313-2.884-28.523H.034v166.555z" id="aS"/><path d="M.542 142.309c55.109-18.684 94.76-70.74 94.76-132.03 0-3.272-.114-6.517-.336-9.733H.542v141.763z" id="aU"/><path d="M.522 117.458C43.295 95.26 73.311 51.393 76.47.148H.522v117.31z" id="aW"/><path d="M.65 86.217C29.563 65.942 50.4 35.645 57.649.633H.65v85.584z" id="aY"/></defs><g fill="none" fill-rule="evenodd" opacity=".126"><g transform="translate(53.205 6.991)"><mask id="b" fill="#fff"><use xlink:href="#a"/></mask><path fill="#FFF" mask="url(#b)" d="M-295.6 23.712v-8.596L40.418-310.989l2.216-2.148 4.43 4.3z"/></g><g transform="translate(34.288 1.183)"><mask id="d" fill="#fff"><use xlink:href="#c"/></mask><path fill="#FFF" mask="url(#d)" d="M-273.223 47.656v-8.79L78.37-313.284l2.197-2.197 4.387 4.394z"/></g><g transform="translate(20.1)"><mask id="f" fill="#fff"><use xlink:href="#e"/></mask><path fill="#FFF" mask="url(#f)" d="M-260.684 68.989v-9l372.555-379.447 2.207-2.251 4.415 4.5z"/></g><g transform="translate(10.641)"><mask id="h" fill="#fff"><use xlink:href="#g"/></mask><path fill="#FFF" mask="url(#h)" d="M-248.716 85.917v-8.774l386.637-388.68 2.18-2.194 4.37 4.389z"/></g><g transform="translate(5.912)"><mask id="j" fill="#fff"><use xlink:href="#i"/></mask><path fill="#FFF" mask="url(#j)" d="M-243.88 106.577v-8.946l406.947-415.3 2.191-2.236 4.382 4.472z"/></g><g transform="translate(1.182)"><mask id="l" fill="#fff"><use xlink:href="#k"/></mask><path fill="#FFF" mask="url(#l)" d="M-239.996 123.12v-8.777l425.098-425.887 2.191-2.193 4.377 4.385z"/></g><mask id="n" fill="#fff"><use xlink:href="#m"/></mask><path fill="#FFF" mask="url(#n)" d="M-239.685 142.542v-8.825l445.17-447.065 2.199-2.209 4.395 4.414z"/><mask id="p" fill="#fff"><use xlink:href="#o"/></mask><path fill="#FFF" mask="url(#p)" d="M-242.104 161.404v-8.832l468.493-466.158 2.221-2.21 4.437 4.417z"/><mask id="r" fill="#fff"><use xlink:href="#q"/></mask><path fill="#FFF" mask="url(#r)" d="M-240.769 179.985v-8.826L243.87-313.328l2.209-2.208 4.411 4.414z"/><mask id="t" fill="#fff"><use xlink:href="#s"/></mask><path fill="#FFF" mask="url(#t)" d="M-240.906 197.826v-8.788l503.654-500.982 2.208-2.196 4.417 4.391z"/><mask id="v" fill="#fff"><use xlink:href="#u"/></mask><path fill="#FFF" mask="url(#v)" d="M-240.616 216.819v-8.8l521.76-520.475 2.204-2.199 4.41 4.398z"/><mask id="x" fill="#fff"><use xlink:href="#w"/></mask><path fill="#FFF" mask="url(#x)" d="M-240.616 236.107v-8.825l540.471-540.556 2.205-2.208 4.412 4.412z"/><mask id="z" fill="#fff"><use xlink:href="#y"/></mask><path fill="#FFF" mask="url(#z)" d="M-240.616 255.463v-8.845l559.183-560.699 2.204-2.21 4.413 4.424z"/><mask id="B" fill="#fff"><use xlink:href="#A"/></mask><path fill="#FFF" mask="url(#B)" d="M-240.616 273.303v-8.818l577.895-577.503 2.207-2.203 4.41 4.406z"/><mask id="D" fill="#fff"><use xlink:href="#C"/></mask><path fill="#FFF" mask="url(#D)" d="M-240.616 292.268v-8.823L355.994-313.3l2.204-2.205 4.409 4.413z"/><mask id="F" fill="#fff"><use xlink:href="#E"/></mask><path fill="#FFF" mask="url(#F)" d="M-240.616 310.987v-8.826l615.32-615.46 2.208-2.205 4.41 4.41z"/><mask id="H" fill="#fff"><use xlink:href="#G"/></mask><path fill="#FFF" mask="url(#H)" d="M-240.616 329.703v-8.826l634.035-634.176 2.205-2.205 4.412 4.41z"/><mask id="J" fill="#fff"><use xlink:href="#I"/></mask><path fill="#FFF" mask="url(#J)" d="M-240.616 348.42v-8.823L412.13-313.301l2.208-2.205 4.409 4.416z"/><mask id="L" fill="#fff"><use xlink:href="#K"/></mask><path fill="#FFF" mask="url(#L)" d="M-240.616 367.137v-8.826l671.459-671.61 2.21-2.205 4.41 4.41z"/><mask id="N" fill="#fff"><use xlink:href="#M"/></mask><path fill="#FFF" mask="url(#N)" d="M-240.616 385.855v-8.826l690.173-690.326 2.208-2.205 4.409 4.41z"/><mask id="P" fill="#fff"><use xlink:href="#O"/></mask><path fill="#FFF" mask="url(#P)" d="M-240.616 404.571v-8.823L468.269-313.3l2.208-2.205 4.412 4.413z"/><mask id="R" fill="#fff"><use xlink:href="#Q"/></mask><path fill="#FFF" mask="url(#R)" d="M-240.616 423.29v-8.826l727.6-727.764 2.204-2.205 4.412 4.41z"/><mask id="T" fill="#fff"><use xlink:href="#S"/></mask><path fill="#FFF" mask="url(#T)" d="M-240.616 442.005v-8.826L505.698-313.3l2.205-2.205 4.409 4.413z"/><mask id="V" fill="#fff"><use xlink:href="#U"/></mask><path fill="#FFF" mask="url(#V)" d="M-240.616 460.723V451.9L524.41-313.299l2.207-2.205 4.412 4.41z"/><mask id="X" fill="#fff"><use xlink:href="#W"/></mask><path fill="#FFF" mask="url(#X)" d="M-240.616 479.44v-8.825L543.122-313.3l2.207-2.205 4.412 4.41z"/><mask id="Z" fill="#fff"><use xlink:href="#Y"/></mask><path fill="#FFF" mask="url(#Z)" d="M-240.616 489.332L561.836-313.3l2.208-2.205 2.882 2.89v3.05l-807.542 807.724z"/><mask id="ab" fill="#fff"><use xlink:href="#aa"/></mask><path fill="#FFF" mask="url(#ab)" d="M-240.616 513.99v-5.94l807.542-807.72v8.82L-237.73 513.99z"/><mask id="ad" fill="#fff"><use xlink:href="#ac"/></mask><path fill="#FFF" mask="url(#ad)" d="M-223.43 513.99l-2.205-2.204 792.56-792.74v8.825l-785.946 786.12z"/><mask id="af" fill="#fff"><use xlink:href="#ae"/></mask><path fill="#FFF" mask="url(#af)" d="M-204.717 513.99l-2.207-2.204L566.929-262.24v8.826L-200.308 513.99z"/><mask id="ah" fill="#fff"><use xlink:href="#ag"/></mask><path fill="#FFF" mask="url(#ah)" d="M-186.003 513.99l-2.207-2.204L566.925-243.52v8.823L-181.594 513.99z"/><mask id="aj" fill="#fff"><use xlink:href="#ai"/></mask><path fill="#FFF" mask="url(#aj)" d="M-167.29 513.99l-2.205-2.204 736.424-736.59v8.825l-729.81 729.97z"/><mask id="al" fill="#fff"><use xlink:href="#ak"/></mask><path fill="#FFF" mask="url(#al)" d="M-148.577 513.99l-2.208-2.204 717.71-717.875v8.826l-711.093 711.254z"/><mask id="an" fill="#fff"><use xlink:href="#am"/></mask><path fill="#FFF" mask="url(#an)" d="M-129.864 513.99l-2.207-2.204 698.998-699.153v8.82l-692.381 692.538z"/><mask id="ap" fill="#fff"><use xlink:href="#ao"/></mask><path fill="#FFF" mask="url(#ap)" d="M-111.153 513.99l-2.208-2.204 680.29-680.44v8.826L-106.744 513.99z"/><mask id="ar" fill="#fff"><use xlink:href="#aq"/></mask><path fill="#FFF" mask="url(#ar)" d="M-92.44 513.99l-2.207-2.204L566.925-149.94v8.827L-88.03 513.99z"/><mask id="at" fill="#fff"><use xlink:href="#as"/></mask><path fill="#FFF" mask="url(#at)" d="M-73.729 513.99l-2.201-2.204L566.93-131.22v8.826L-69.317 513.991z"/><mask id="av" fill="#fff"><use xlink:href="#au"/></mask><path fill="#FFF" mask="url(#av)" d="M-55.012 513.99l-2.208-2.204 624.146-624.29v8.826l-617.53 617.669z"/><mask id="ax" fill="#fff"><use xlink:href="#aw"/></mask><path fill="#FFF" mask="url(#ax)" d="M-36.302 513.99l-2.204-2.204 605.43-605.571v8.823L-31.89 513.99z"/><mask id="az" fill="#fff"><use xlink:href="#ay"/></mask><path fill="#FFF" mask="url(#az)" d="M-17.588 513.99l-2.205-2.204 586.72-586.852v8.823L-13.18 513.99z"/><mask id="aB" fill="#fff"><use xlink:href="#aA"/></mask><path fill="#FFF" mask="url(#aB)" d="M1.125 513.99l-2.207-2.204 568.01-568.137v8.826L5.534 513.991z"/><g transform="translate(17.735)"><mask id="aD" fill="#fff"><use xlink:href="#aC"/></mask><path fill="#FFF" mask="url(#aD)" d="M3.106 513.99L.9 511.787 549.79-37.632v8.826L7.512 513.991z"/></g><g transform="translate(36.652)"><mask id="aF" fill="#fff"><use xlink:href="#aE"/></mask><path fill="#FFF" mask="url(#aF)" d="M2.384 513.99l-2.201-2.204L530.656-18.916v8.823L6.795 513.99z"/></g><g transform="translate(55.57)"><mask id="aH" fill="#fff"><use xlink:href="#aG"/></mask><path fill="#FFF" mask="url(#aH)" d="M2.384 513.99l-2.202-2.204L511.53-.197v8.823L6.792 513.99z"/></g><g transform="translate(72.123 17.739)"><mask id="aJ" fill="#fff"><use xlink:href="#aI"/></mask><path fill="#FFF" mask="url(#aJ)" d="M2.506 498.22l-2.219-2.216L496.605.274v8.87L6.946 498.22z"/></g><g transform="translate(92.071 37.843)"><mask id="aL" fill="#fff"><use xlink:href="#aK"/></mask><path fill="#FFF" mask="url(#aL)" d="M2.249 472.357l-2.204-2.183L474.388.253v8.74L6.657 472.357z"/></g><g transform="translate(109.957 55.582)"><mask id="aN" fill="#fff"><use xlink:href="#aM"/></mask><path fill="#FFF" mask="url(#aN)" d="M2.555 459.349l-2.2-2.21L454.3.378v8.844L6.946 459.349z"/></g><g transform="translate(130.057 73.302)"><mask id="aP" fill="#fff"><use xlink:href="#aO"/></mask><path fill="#FFF" mask="url(#aP)" d="M2.523 442.15l-2.19-2.22L433.823.013v8.88L6.897 442.149z"/></g><g transform="translate(146.61 91.06)"><mask id="aR" fill="#fff"><use xlink:href="#aQ"/></mask><path fill="#FFF" mask="url(#aR)" d="M2.668 420.66l-2.206-2.203L419.747.45v8.815L7.09 420.66z"/></g><g transform="translate(167.892 113.53)"><mask id="aT" fill="#fff"><use xlink:href="#aS"/></mask><path fill="#FFF" mask="url(#aT)" d="M2.23 402.238l-2.196-2.205L397.922.448v8.82l-391.3 392.97z"/></g><g transform="translate(185.627 130.086)"><mask id="aV" fill="#fff"><use xlink:href="#aU"/></mask><path fill="#FFF" mask="url(#aV)" d="M2.734 380.571l-2.192-2.187L379.311.546v8.753L7.122 380.571z"/></g><g transform="translate(204.545 149.008)"><mask id="aX" fill="#fff"><use xlink:href="#aW"/></mask><path fill="#FFF" mask="url(#aX)" d="M2.717 367.78l-2.195-2.224L361.036.148v8.903L7.106 367.781z"/></g><g transform="translate(222.28 167.93)"><mask id="aZ" fill="#fff"><use xlink:href="#aY"/></mask><path fill="#FFF" mask="url(#aZ)" d="M2.932 344.443L.651 342.25 355.6.633V9.41L7.49 344.443z"/></g></g></svg>