<svg width="231" height="211" viewBox="0 0 231 211" xmlns="http://www.w3.org/2000/svg" xmlns:xlink="http://www.w3.org/1999/xlink"><title>Pattern</title><defs><path id="a" d="M0 0h412v409H0z"/><path d="M120.331 0C69.331.985 24.822 28.598 0 69.578h120.331V0z" id="c"/><path d="M148.344.935A141.355 141.355 0 0 0 132.084 0C72.616 0 21.619 37.128 0 89.978h148.344V.935z" id="e"/><path d="M174.928 4.474A142.586 142.586 0 0 0 139.391 0C72.423 0 16.13 46.29 0 109.002h174.928V4.474z" id="g"/><path d="M197.11 10.786C180.292 3.834 161.873 0 142.563 0 69.08 0 8.491 55.523 0 127.134h197.11V10.786z" id="i"/><path d="M.013 145.15c-.009-.643-.013-1.286-.013-1.93C0 64.122 64.309 0 143.64 0c26.942 0 52.152 7.396 73.699 20.262V145.15H.013z" id="k"/><path d="M1.538 166.177A146.976 146.976 0 0 1 0 144.925C0 64.885 64.502 0 144.072 0c35.495 0 67.993 12.912 93.104 34.321v131.856H1.538z" id="m"/><path d="M5.716 184.684C1.996 171.871 0 158.322 0 144.306 0 64.608 64.512 0 144.095 0c45.397 0 85.892 21.024 112.304 53.88v130.804H5.716z" id="o"/><path d="M12.847 204.569C4.595 186.343 0 166.099 0 144.779 0 64.818 64.642 0 144.384 0 203.053 0 253.55 35.088 276.14 85.477v118.606l-.219.486H12.847z" id="q"/><path d="M23.37 223.829C8.59 201.099 0 173.94 0 144.767 0 64.815 64.53 0 144.136 0c79.605 0 144.139 64.815 144.139 144.767 0 29.174-8.591 56.332-23.371 79.062H23.37z" id="s"/><path d="M38.355 243.613C14.55 217.738 0 183.113 0 145.068 0 64.95 64.53 0 144.136 0c79.605 0 144.139 64.95 144.139 145.068 0 38.045-14.55 72.67-38.357 98.545H38.355z" id="u"/><path d="M60.073 261.489C23.69 235.298 0 192.554 0 144.273 0 64.593 64.53 0 144.136 0c79.605 0 144.139 64.594 144.139 144.273 0 48.281-23.693 91.025-60.075 117.216H60.073z" id="w"/><path d="M97.112 280.099C40.597 260.625 0 207.028 0 143.963 0 64.455 64.53 0 144.136 0c79.605 0 144.139 64.455 144.139 143.963 0 63.065-40.599 116.662-97.115 136.136H97.112z" id="y"/><path d="M0 144.451c0 79.78 64.53 144.46 144.136 144.46 79.605 0 144.139-64.68 144.139-144.46C288.275 64.673 223.74 0 144.135 0 64.532 0 0 64.673 0 144.451z" id="A"/><path d="M0 144.451c0 79.78 64.53 144.46 144.136 144.46 79.605 0 144.139-64.68 144.139-144.46C288.275 64.673 223.74 0 144.135 0 64.532 0 0 64.673 0 144.451z" id="C"/><path d="M0 144.451c0 79.78 64.53 144.46 144.136 144.46 79.605 0 144.139-64.68 144.139-144.46C288.275 64.673 223.74 0 144.135 0 64.532 0 0 64.673 0 144.451z" id="E"/><path d="M0 144.451c0 79.78 64.53 144.46 144.136 144.46 79.605 0 144.139-64.68 144.139-144.46C288.275 64.673 223.74 0 144.135 0 64.532 0 0 64.673 0 144.451z" id="G"/><path d="M0 144.451c0 79.78 64.53 144.46 144.136 144.46 79.605 0 144.139-64.68 144.139-144.46C288.275 64.673 223.74 0 144.135 0 64.532 0 0 64.673 0 144.451z" id="I"/><path d="M0 144.451c0 79.78 64.53 144.46 144.136 144.46 79.605 0 144.139-64.68 144.139-144.46C288.275 64.673 223.74 0 144.135 0 64.532 0 0 64.673 0 144.451z" id="K"/><path d="M0 144.451c0 79.78 64.53 144.46 144.136 144.46 79.605 0 144.139-64.68 144.139-144.46C288.275 64.673 223.74 0 144.135 0 64.532 0 0 64.673 0 144.451z" id="M"/><path d="M0 144.451c0 79.78 64.53 144.46 144.136 144.46 79.605 0 144.139-64.68 144.139-144.46C288.275 64.673 223.74 0 144.135 0 64.532 0 0 64.673 0 144.451z" id="O"/><path d="M0 144.451c0 79.78 64.53 144.46 144.136 144.46 79.605 0 144.139-64.68 144.139-144.46C288.275 64.673 223.74 0 144.135 0 64.532 0 0 64.673 0 144.451z" id="Q"/><path d="M0 144.451c0 79.78 64.53 144.46 144.136 144.46 79.605 0 144.139-64.68 144.139-144.46C288.275 64.673 223.74 0 144.135 0 64.532 0 0 64.673 0 144.451z" id="S"/><path d="M0 144.451c0 79.78 64.53 144.46 144.136 144.46 79.605 0 144.139-64.68 144.139-144.46C288.275 64.673 223.74 0 144.135 0 64.532 0 0 64.673 0 144.451z" id="U"/><path d="M0 144.451c0 79.78 64.53 144.46 144.136 144.46 79.605 0 144.139-64.68 144.139-144.46C288.275 64.673 223.74 0 144.135 0 64.532 0 0 64.673 0 144.451z" id="W"/><path d="M0 144.451c0 79.78 64.53 144.46 144.136 144.46 79.605 0 144.139-64.68 144.139-144.46C288.275 64.673 223.74 0 144.135 0 64.532 0 0 64.673 0 144.451z" id="Y"/><path d="M0 144.451c0 79.78 64.53 144.46 144.136 144.46 79.605 0 144.139-64.68 144.139-144.46C288.275 64.673 223.74 0 144.135 0 64.532 0 0 64.673 0 144.451z" id="aa"/><path d="M0 144.451c0 79.78 64.53 144.46 144.136 144.46 79.605 0 144.139-64.68 144.139-144.46C288.275 64.673 223.74 0 144.135 0 64.532 0 0 64.673 0 144.451z" id="ac"/><path d="M0 144.451c0 79.78 64.53 144.46 144.136 144.46 79.605 0 144.139-64.68 144.139-144.46C288.275 64.673 223.74 0 144.135 0 64.532 0 0 64.673 0 144.451z" id="ae"/><path d="M0 144.451c0 79.78 64.53 144.46 144.136 144.46 79.605 0 144.139-64.68 144.139-144.46C288.275 64.673 223.74 0 144.135 0 64.532 0 0 64.673 0 144.451z" id="ag"/><path d="M0 144.451c0 79.78 64.53 144.46 144.136 144.46 79.605 0 144.139-64.68 144.139-144.46C288.275 64.673 223.74 0 144.135 0 64.532 0 0 64.673 0 144.451z" id="ai"/><path d="M0 144.451c0 79.78 64.53 144.46 144.136 144.46 79.605 0 144.139-64.68 144.139-144.46C288.275 64.673 223.74 0 144.135 0 64.532 0 0 64.673 0 144.451z" id="ak"/><path d="M0 144.451c0 79.78 64.53 144.46 144.136 144.46 79.605 0 144.139-64.68 144.139-144.46C288.275 64.673 223.74 0 144.135 0 64.532 0 0 64.673 0 144.451z" id="am"/><path d="M0 144.451c0 79.78 64.53 144.46 144.136 144.46 79.605 0 144.139-64.68 144.139-144.46C288.275 64.673 223.74 0 144.135 0 64.532 0 0 64.673 0 144.451z" id="ao"/><path d="M0 144.451c0 79.78 64.53 144.46 144.136 144.46 79.605 0 144.139-64.68 144.139-144.46C288.275 64.673 223.74 0 144.135 0 64.532 0 0 64.673 0 144.451z" id="aq"/><path d="M0 144.451c0 79.78 64.53 144.46 144.136 144.46 79.605 0 144.139-64.68 144.139-144.46C288.275 64.673 223.74 0 144.135 0 64.532 0 0 64.673 0 144.451z" id="as"/><path d="M0 144.451c0 79.78 64.53 144.46 144.136 144.46 79.605 0 144.139-64.68 144.139-144.46C288.275 64.673 223.74 0 144.135 0 64.532 0 0 64.673 0 144.451z" id="au"/><path d="M0 144.451c0 79.78 64.53 144.46 144.136 144.46 79.605 0 144.139-64.68 144.139-144.46C288.275 64.673 223.74 0 144.135 0 64.532 0 0 64.673 0 144.451z" id="aw"/><path d="M0 144.451c0 79.78 64.53 144.46 144.136 144.46 79.605 0 144.139-64.68 144.139-144.46C288.275 64.673 223.74 0 144.135 0 64.532 0 0 64.673 0 144.451z" id="ay"/><path d="M0 214.048c24.53 44.626 71.918 74.863 126.355 74.863 79.617 0 144.16-64.68 144.16-144.46C270.515 64.673 205.972 0 126.355 0 71.918 0 24.53 30.234 0 74.858v139.19z" id="aA"/><path d="M0 241.087c26.264 29.363 64.32 47.824 106.658 47.824 79.247 0 143.491-64.68 143.491-144.46C250.149 64.673 185.905 0 106.658 0 64.319 0 26.264 18.46 0 47.82v193.267z" id="aC"/><path d="M0 258.91c24.359 18.812 54.89 30.001 88.03 30.001 79.68 0 144.275-64.68 144.275-144.46C232.305 64.673 167.71 0 88.03 0 54.89 0 24.359 11.188 0 29.998V258.91z" id="aE"/><path d="M0 253.311c20.514 11.172 44.027 17.52 69.02 17.52 79.913 0 144.696-64.888 144.696-144.925 0-53.91-29.392-100.944-73.003-125.906H0v253.311z" id="aG"/><path d="M0 241.055c15.518 5.65 32.28 8.733 49.767 8.733 79.937 0 144.74-64.437 144.74-143.919 0-41.874-17.988-79.57-46.7-105.869H0v241.055z" id="aI"/><path d="M0 227.934a145.047 145.047 0 0 0 30.417 3.208c79.73 0 144.366-64.582 144.366-144.243 0-32.631-10.846-62.732-29.133-86.899H0v227.934z" id="aK"/><path d="M0 212.093c3.682.284 7.403.428 11.157.428 79.474 0 143.902-64.761 143.902-144.643 0-24.531-6.077-47.637-16.8-67.878H0v212.093z" id="aM"/><path d="M0 192.85c76.057-4.172 136.446-67.175 136.446-144.279 0-17.04-2.95-33.391-8.367-48.571H0v192.85z" id="aO"/><path d="M0 172.306c65.638-12.835 115.247-71.89 115.247-142.797 0-10.11-1.008-19.98-2.928-29.509H0v172.306z" id="aQ"/><path d="M0 145.697c57.434-19.202 98.757-72.702 98.757-135.693 0-3.363-.118-6.699-.35-10.004H0v145.697z" id="aS"/><path d="M0 120.154C44.178 97.417 75.179 52.486 78.442 0H0v120.154z" id="aU"/></defs><g transform="rotate(-90 206 206)" fill="none" fill-rule="evenodd" opacity=".674"><mask id="b" fill="#fff"><use xlink:href="#a"/></mask><g opacity=".08" mask="url(#b)"><g transform="translate(222.662 -58)"><mask id="d" fill="#fff"><use xlink:href="#c"/></mask><path fill="#223B98" mask="url(#d)" d="M-267.595 69.619v-9.09l381.425-383.27 2.26-2.274 4.52 4.545z"/></g><g transform="translate(212.468 -58)"><mask id="f" fill="#fff"><use xlink:href="#e"/></mask><path fill="#223B98" mask="url(#f)" d="M-256.764 90.166v-9.2l398.021-407.513 2.246-2.3 4.497 4.602z"/></g><g transform="translate(206.734 -58)"><mask id="h" fill="#fff"><use xlink:href="#g"/></mask><path fill="#223B98" mask="url(#h)" d="M-251.666 108.99v-9.157L168.03-325.281l2.26-2.288 4.519 4.577z"/></g><g transform="translate(202.911 -58)"><mask id="j" fill="#fff"><use xlink:href="#i"/></mask><path fill="#223B98" mask="url(#j)" d="M-247.207 127.007v-9.068l437.494-440.05 2.255-2.266 4.505 4.531z"/></g><g transform="translate(201 -58)"><mask id="l" fill="#fff"><use xlink:href="#k"/></mask><path fill="#223B98" mask="url(#l)" d="M-245.932 145.532v-8.99l456.8-455.476 2.257-2.25 4.51 4.497z"/></g><g transform="translate(201 -58)"><mask id="n" fill="#fff"><use xlink:href="#m"/></mask><path fill="#223B98" mask="url(#n)" d="M-246.57 166.555v-9.097l477.36-480.197 2.264-2.276 4.52 4.55z"/></g><g transform="translate(201 -58)"><mask id="p" fill="#fff"><use xlink:href="#o"/></mask><path fill="#223B98" mask="url(#p)" d="M-246.57 184.95v-9.061l496.622-497.36 2.264-2.267 4.521 4.53z"/></g><g transform="translate(201 -58)"><mask id="r" fill="#fff"><use xlink:href="#q"/></mask><path fill="#223B98" mask="url(#r)" d="M-247.207 204.617v-9.09L269.64-322.745l2.265-2.271 4.533 4.542z"/></g><g transform="translate(201 -58)"><mask id="t" fill="#fff"><use xlink:href="#s"/></mask><path fill="#223B98" mask="url(#t)" d="M-246.57 223.853v-9.087l535.154-537.51 2.262-2.271 4.522 4.542z"/></g><g transform="translate(201 -58)"><mask id="v" fill="#fff"><use xlink:href="#u"/></mask><path fill="#223B98" mask="url(#v)" d="M-246.57 243.677v-9.11l554.346-557.942 2.262-2.279 4.525 4.555z"/></g><g transform="translate(201 -58)"><mask id="x" fill="#fff"><use xlink:href="#w"/></mask><path fill="#223B98" mask="url(#x)" d="M-246.57 261.681v-9.056l573.538-574.1 2.262-2.263 4.525 4.53z"/></g><g transform="translate(201 -58)"><mask id="z" fill="#fff"><use xlink:href="#y"/></mask><path fill="#223B98" mask="url(#z)" d="M-246.57 280.229v-9.04l592.73-592.03 2.265-2.259 4.522 4.517z"/></g><g transform="translate(201 -58)"><mask id="B" fill="#fff"><use xlink:href="#A"/></mask><path fill="#223B98" mask="url(#B)" d="M-246.57 300.236v-9.068L365.356-322.11l2.262-2.266 4.522 4.536z"/></g><g transform="translate(201 -58)"><mask id="D" fill="#fff"><use xlink:href="#C"/></mask><path fill="#223B98" mask="url(#D)" d="M-246.57 319.473v-9.07l631.117-632.514 2.265-2.266 4.522 4.533z"/></g><g transform="translate(201 -58)"><mask id="F" fill="#fff"><use xlink:href="#E"/></mask><path fill="#223B98" mask="url(#F)" d="M-246.57 338.707v-9.07l650.312-651.748 2.262-2.266 4.525 4.533z"/></g><g transform="translate(201 -58)"><mask id="H" fill="#fff"><use xlink:href="#G"/></mask><path fill="#223B98" mask="url(#H)" d="M-246.57 357.945v-9.068L422.935-322.11l2.265-2.266 4.522 4.539z"/></g><g transform="translate(201 -58)"><mask id="J" fill="#fff"><use xlink:href="#I"/></mask><path fill="#223B98" mask="url(#J)" d="M-246.57 377.18v-9.071l688.696-690.22 2.268-2.266 4.522 4.533z"/></g><g transform="translate(201 -58)"><mask id="L" fill="#fff"><use xlink:href="#K"/></mask><path fill="#223B98" mask="url(#L)" d="M-246.57 396.414v-9.071l707.891-709.454 2.265-2.266 4.522 4.533z"/></g><g transform="translate(201 -58)"><mask id="N" fill="#fff"><use xlink:href="#M"/></mask><path fill="#223B98" mask="url(#N)" d="M-246.57 415.65v-9.067L480.514-322.11l2.265-2.266 4.525 4.536z"/></g><g transform="translate(201 -58)"><mask id="P" fill="#fff"><use xlink:href="#O"/></mask><path fill="#223B98" mask="url(#P)" d="M-246.57 434.888v-9.07l746.278-747.929 2.262-2.266 4.525 4.533z"/></g><g transform="translate(201 -58)"><mask id="R" fill="#fff"><use xlink:href="#Q"/></mask><path fill="#223B98" mask="url(#R)" d="M-246.57 454.123v-9.07l765.473-767.164 2.262-2.266 4.522 4.536z"/></g><g transform="translate(201 -58)"><mask id="T" fill="#fff"><use xlink:href="#S"/></mask><path fill="#223B98" mask="url(#T)" d="M-246.57 473.357v-9.068l784.665-786.4 2.265-2.266 4.525 4.533z"/></g><g transform="translate(201 -58)"><mask id="V" fill="#fff"><use xlink:href="#U"/></mask><path fill="#223B98" mask="url(#V)" d="M-246.57 492.594v-9.07l803.857-805.635 2.265-2.266 4.525 4.533z"/></g><g transform="translate(201 -58)"><mask id="X" fill="#fff"><use xlink:href="#W"/></mask><path fill="#223B98" mask="url(#X)" d="M-246.57 502.761L576.483-322.11l2.265-2.266 2.956 2.97v3.135l-828.272 830.104z"/></g><g transform="translate(201 -58)"><mask id="Z" fill="#fff"><use xlink:href="#Y"/></mask><path fill="#223B98" mask="url(#Z)" d="M-246.57 528.43v-6.104l828.273-830.1v9.064L-243.61 528.43z"/></g><g transform="translate(201 -58)"><mask id="ab" fill="#fff"><use xlink:href="#aa"/></mask><path fill="#223B98" mask="url(#ab)" d="M-229.017 528.352l-2.261-2.266 812.904-814.705v9.071l-806.12 807.9z"/></g><g transform="translate(201 -58)"><mask id="ad" fill="#fff"><use xlink:href="#ac"/></mask><path fill="#223B98" mask="url(#ad)" d="M-209.9 528.274l-2.264-2.266 793.718-795.47v9.07l-786.932 788.666z"/></g><g transform="translate(201 -58)"><mask id="af" fill="#fff"><use xlink:href="#ae"/></mask><path fill="#223B98" mask="url(#af)" d="M-190.786 528.193l-2.264-2.266 774.52-776.233v9.067l-767.734 769.432z"/></g><g transform="translate(201 -58)"><mask id="ah" fill="#fff"><use xlink:href="#ag"/></mask><path fill="#223B98" mask="url(#ah)" d="M-171.675 528.115l-2.262-2.266 755.329-757v9.071l-748.545 750.195z"/></g><g transform="translate(201 -58)"><mask id="aj" fill="#fff"><use xlink:href="#ai"/></mask><path fill="#223B98" mask="url(#aj)" d="M-152.558 528.036l-2.265-2.266 736.134-737.764v9.07l-729.347 730.96z"/></g><g transform="translate(201 -58)"><mask id="al" fill="#fff"><use xlink:href="#ak"/></mask><path fill="#223B98" mask="url(#al)" d="M-133.445 527.952l-2.264-2.266 716.942-718.524v9.064l-710.155 711.726z"/></g><g transform="translate(201 -58)"><mask id="an" fill="#fff"><use xlink:href="#am"/></mask><path fill="#223B98" mask="url(#an)" d="M-113.694 528.515l-2.264-2.266 697.753-699.292v9.07l-690.966 692.488z"/></g><g transform="translate(201 -58)"><mask id="ap" fill="#fff"><use xlink:href="#ao"/></mask><path fill="#223B98" mask="url(#ap)" d="M-94.58 528.437l-2.264-2.266 678.555-680.058v9.07L-90.057 528.437z"/></g><g transform="translate(201 -58)"><mask id="ar" fill="#fff"><use xlink:href="#aq"/></mask><path fill="#223B98" mask="url(#ar)" d="M-75.472 528.356l-2.258-2.266 659.363-660.821v9.07l-652.58 654.017z"/></g><g transform="translate(201 -58)"><mask id="at" fill="#fff"><use xlink:href="#as"/></mask><path fill="#223B98" mask="url(#at)" d="M-56.352 528.278l-2.264-2.266 640.167-641.587v9.07l-633.38 634.783z"/></g><g transform="translate(201 -58)"><mask id="av" fill="#fff"><use xlink:href="#au"/></mask><path fill="#223B98" mask="url(#av)" d="M-37.241 528.196l-2.261-2.266L581.47-96.42v9.068L-32.716 528.196z"/></g><g transform="translate(201 -58)"><mask id="ax" fill="#fff"><use xlink:href="#aw"/></mask><path fill="#223B98" mask="url(#ax)" d="M-18.127 528.115l-2.261-2.266 601.78-603.112v9.068l-594.997 596.31z"/></g><g transform="translate(201 -58)"><mask id="az" fill="#fff"><use xlink:href="#ay"/></mask><path fill="#223B98" mask="url(#az)" d="M.99 528.037l-2.264-2.266L581.317-58.107v9.07L5.512 528.038z"/></g><g transform="translate(218.84 -58)"><mask id="aB" fill="#fff"><use xlink:href="#aA"/></mask><path fill="#223B98" mask="url(#aB)" d="M2.265 527.956L0 525.689 563.48-38.95v9.07L6.788 527.957z"/></g><g transform="translate(239.228 -58)"><mask id="aD" fill="#fff"><use xlink:href="#aC"/></mask><path fill="#223B98" mask="url(#aD)" d="M2.248 528.516L0 526.25 541.757-19.156v9.067L6.753 528.516z"/></g><g transform="translate(257.067 -58)"><mask id="aF" fill="#fff"><use xlink:href="#aE"/></mask><path fill="#223B98" mask="url(#aF)" d="M2.263 528.435L0 526.168 525.499 0v9.068L6.793 528.435z"/></g><g transform="translate(275.544 -40.121)"><mask id="aH" fill="#fff"><use xlink:href="#aG"/></mask><path fill="#223B98" mask="url(#aH)" d="M2.27 510.838L0 508.565 507.77 0v9.1L6.814 510.838z"/></g><g transform="translate(295.295 -19.05)"><mask id="aJ" fill="#fff"><use xlink:href="#aI"/></mask><path fill="#223B98" mask="url(#aJ)" d="M2.27 488.13L0 485.873 488.649 0v9.037L6.812 488.13z"/></g><g transform="translate(315.046 .107)"><mask id="aL" fill="#fff"><use xlink:href="#aK"/></mask><path fill="#223B98" mask="url(#aL)" d="M2.268 470.02L0 467.756 468.168 0v9.057L6.798 470.019z"/></g><g transform="translate(334.797 18.624)"><mask id="aN" fill="#fff"><use xlink:href="#aM"/></mask><path fill="#223B98" mask="url(#aN)" d="M2.26 452.061L0 449.792 447.497 0v9.079L6.775 452.061z"/></g><g transform="translate(353.274 37.142)"><mask id="aP" fill="#fff"><use xlink:href="#aO"/></mask><path fill="#223B98" mask="url(#aP)" d="M2.264 432.373L0 430.106 430.073 0v9.07L6.8 432.373z"/></g><g transform="translate(374.3 58.214)"><mask id="aR" fill="#fff"><use xlink:href="#aQ"/></mask><path fill="#223B98" mask="url(#aR)" d="M2.229 415.662L0 413.38 403.963 0v9.126L6.689 415.662z"/></g><g transform="translate(390.865 76.093)"><mask id="aT" fill="#fff"><use xlink:href="#aS"/></mask><path fill="#223B98" mask="url(#aT)" d="M2.285 390.571L0 388.324 394.75 0v8.997L6.858 390.57z"/></g><g transform="translate(411.253 94.61)"><mask id="aV" fill="#fff"><use xlink:href="#aU"/></mask><path fill="#223B98" mask="url(#aV)" d="M2.267 376.543L0 374.265 372.353 0v9.119L6.8 376.543z"/></g></g></g></svg>