<svg width="159" height="146" viewBox="0 0 159 146" xmlns="http://www.w3.org/2000/svg" xmlns:xlink="http://www.w3.org/1999/xlink"><title>Pattern</title><defs><path id="a" d="M0 0h284v281.932H0z"/><path d="M82.947 0C47.792.679 17.11 19.713 0 47.961h82.947V0z" id="c"/><path d="M102.257.645A97.44 97.44 0 0 0 91.047 0C50.056 0 14.903 25.593 0 62.024h102.257V.644z" id="e"/><path d="M120.582 3.084A98.287 98.287 0 0 0 96.085 0C49.923 0 11.12 31.908 0 75.137h120.582V3.084z" id="g"/><path d="M135.872 7.435C124.279 2.643 111.582 0 98.272 0 47.618 0 5.852 38.273 0 87.636h135.872v-80.2z" id="i"/><path d="M.009 100.055A98.28 98.28 0 0 1 0 98.725C0 44.2 44.33 0 99.014 0c18.572 0 35.95 5.098 50.802 13.967v86.088H.01z" id="k"/><path d="M1.06 114.55A101.313 101.313 0 0 1 0 99.9C0 44.727 44.463 0 99.312 0c24.467 0 46.869 8.9 64.178 23.658v90.891H1.06z" id="m"/><path d="M3.94 127.307A99.66 99.66 0 0 1 0 99.473C0 44.536 44.47 0 99.327 0c31.294 0 59.208 14.492 77.414 37.14v90.167H3.941z" id="o"/><path d="M8.856 141.014C3.168 128.45 0 114.495 0 99.799 0 44.682 44.559 0 99.527 0c40.441 0 75.25 24.187 90.823 58.921v81.757l-.151.336H8.856z" id="q"/><path d="M16.11 154.29C5.922 138.622 0 119.9 0 99.79 0 44.678 44.482 0 99.356 0c54.873 0 99.358 44.678 99.358 99.791 0 20.11-5.922 38.83-16.11 54.499H16.11z" id="s"/><path d="M26.439 167.928C10.029 150.09 0 126.223 0 99.998 0 44.771 44.482 0 99.356 0c54.873 0 99.358 44.771 99.358 99.998 0 26.225-10.03 50.093-26.44 67.93H26.439z" id="u"/><path d="M41.41 180.25C16.33 162.195 0 132.731 0 99.45 0 44.526 44.482 0 99.356 0c54.873 0 99.358 44.526 99.358 99.45 0 33.282-16.332 62.746-41.411 80.8H41.409z" id="w"/><path d="M66.941 193.078C27.984 179.654 0 142.708 0 99.236 0 44.43 44.482 0 99.356 0c54.873 0 99.358 44.43 99.358 99.236 0 43.473-27.986 80.418-66.944 93.842H66.941z" id="y"/><path d="M0 99.573c0 54.994 44.482 99.58 99.356 99.58 54.873 0 99.358-44.586 99.358-99.58C198.714 44.581 154.229 0 99.356 0 44.482 0 0 44.58 0 99.573z" id="A"/><path d="M0 99.573c0 54.994 44.482 99.58 99.356 99.58 54.873 0 99.358-44.586 99.358-99.58C198.714 44.581 154.229 0 99.356 0 44.482 0 0 44.58 0 99.573z" id="C"/><path d="M0 99.573c0 54.994 44.482 99.58 99.356 99.58 54.873 0 99.358-44.586 99.358-99.58C198.714 44.581 154.229 0 99.356 0 44.482 0 0 44.58 0 99.573z" id="E"/><path d="M0 99.573c0 54.994 44.482 99.58 99.356 99.58 54.873 0 99.358-44.586 99.358-99.58C198.714 44.581 154.229 0 99.356 0 44.482 0 0 44.58 0 99.573z" id="G"/><path d="M0 99.573c0 54.994 44.482 99.58 99.356 99.58 54.873 0 99.358-44.586 99.358-99.58C198.714 44.581 154.229 0 99.356 0 44.482 0 0 44.58 0 99.573z" id="I"/><path d="M0 99.573c0 54.994 44.482 99.58 99.356 99.58 54.873 0 99.358-44.586 99.358-99.58C198.714 44.581 154.229 0 99.356 0 44.482 0 0 44.58 0 99.573z" id="K"/><path d="M0 99.573c0 54.994 44.482 99.58 99.356 99.58 54.873 0 99.358-44.586 99.358-99.58C198.714 44.581 154.229 0 99.356 0 44.482 0 0 44.58 0 99.573z" id="M"/><path d="M0 99.573c0 54.994 44.482 99.58 99.356 99.58 54.873 0 99.358-44.586 99.358-99.58C198.714 44.581 154.229 0 99.356 0 44.482 0 0 44.58 0 99.573z" id="O"/><path d="M0 99.573c0 54.994 44.482 99.58 99.356 99.58 54.873 0 99.358-44.586 99.358-99.58C198.714 44.581 154.229 0 99.356 0 44.482 0 0 44.58 0 99.573z" id="Q"/><path d="M0 99.573c0 54.994 44.482 99.58 99.356 99.58 54.873 0 99.358-44.586 99.358-99.58C198.714 44.581 154.229 0 99.356 0 44.482 0 0 44.58 0 99.573z" id="S"/><path d="M0 99.573c0 54.994 44.482 99.58 99.356 99.58 54.873 0 99.358-44.586 99.358-99.58C198.714 44.581 154.229 0 99.356 0 44.482 0 0 44.58 0 99.573z" id="U"/><path d="M0 99.573c0 54.994 44.482 99.58 99.356 99.58 54.873 0 99.358-44.586 99.358-99.58C198.714 44.581 154.229 0 99.356 0 44.482 0 0 44.58 0 99.573z" id="W"/><path d="M0 99.573c0 54.994 44.482 99.58 99.356 99.58 54.873 0 99.358-44.586 99.358-99.58C198.714 44.581 154.229 0 99.356 0 44.482 0 0 44.58 0 99.573z" id="Y"/><path d="M0 99.573c0 54.994 44.482 99.58 99.356 99.58 54.873 0 99.358-44.586 99.358-99.58C198.714 44.581 154.229 0 99.356 0 44.482 0 0 44.58 0 99.573z" id="aa"/><path d="M0 99.573c0 54.994 44.482 99.58 99.356 99.58 54.873 0 99.358-44.586 99.358-99.58C198.714 44.581 154.229 0 99.356 0 44.482 0 0 44.58 0 99.573z" id="ac"/><path d="M0 99.573c0 54.994 44.482 99.58 99.356 99.58 54.873 0 99.358-44.586 99.358-99.58C198.714 44.581 154.229 0 99.356 0 44.482 0 0 44.58 0 99.573z" id="ae"/><path d="M0 99.573c0 54.994 44.482 99.58 99.356 99.58 54.873 0 99.358-44.586 99.358-99.58C198.714 44.581 154.229 0 99.356 0 44.482 0 0 44.58 0 99.573z" id="ag"/><path d="M0 99.573c0 54.994 44.482 99.58 99.356 99.58 54.873 0 99.358-44.586 99.358-99.58C198.714 44.581 154.229 0 99.356 0 44.482 0 0 44.58 0 99.573z" id="ai"/><path d="M0 99.573c0 54.994 44.482 99.58 99.356 99.58 54.873 0 99.358-44.586 99.358-99.58C198.714 44.581 154.229 0 99.356 0 44.482 0 0 44.58 0 99.573z" id="ak"/><path d="M0 99.573c0 54.994 44.482 99.58 99.356 99.58 54.873 0 99.358-44.586 99.358-99.58C198.714 44.581 154.229 0 99.356 0 44.482 0 0 44.58 0 99.573z" id="am"/><path d="M0 99.573c0 54.994 44.482 99.58 99.356 99.58 54.873 0 99.358-44.586 99.358-99.58C198.714 44.581 154.229 0 99.356 0 44.482 0 0 44.58 0 99.573z" id="ao"/><path d="M0 99.573c0 54.994 44.482 99.58 99.356 99.58 54.873 0 99.358-44.586 99.358-99.58C198.714 44.581 154.229 0 99.356 0 44.482 0 0 44.58 0 99.573z" id="aq"/><path d="M0 99.573c0 54.994 44.482 99.58 99.356 99.58 54.873 0 99.358-44.586 99.358-99.58C198.714 44.581 154.229 0 99.356 0 44.482 0 0 44.58 0 99.573z" id="as"/><path d="M0 99.573c0 54.994 44.482 99.58 99.356 99.58 54.873 0 99.358-44.586 99.358-99.58C198.714 44.581 154.229 0 99.356 0 44.482 0 0 44.58 0 99.573z" id="au"/><path d="M0 99.573c0 54.994 44.482 99.58 99.356 99.58 54.873 0 99.358-44.586 99.358-99.58C198.714 44.581 154.229 0 99.356 0 44.482 0 0 44.58 0 99.573z" id="aw"/><path d="M0 99.573c0 54.994 44.482 99.58 99.356 99.58 54.873 0 99.358-44.586 99.358-99.58C198.714 44.581 154.229 0 99.356 0 44.482 0 0 44.58 0 99.573z" id="ay"/><path d="M0 147.547c16.909 30.762 49.575 51.605 87.099 51.605 54.882 0 99.373-44.585 99.373-99.579C186.472 44.581 141.98 0 87.099 0 49.575 0 16.909 20.84 0 51.601v95.946z" id="aA"/><path d="M0 166.186c18.104 20.24 44.336 32.966 73.521 32.966 54.627 0 98.912-44.585 98.912-99.579C172.433 44.581 128.148 0 73.52 0 44.336 0 18.104 12.725 0 32.964v133.222z" id="aC"/><path d="M0 178.472c16.79 12.967 37.836 20.68 60.681 20.68 54.925 0 99.451-44.585 99.451-99.579C160.132 44.581 115.606 0 60.682 0 37.835 0 16.79 7.712 0 20.678v157.794z" id="aE"/><path d="M0 174.612c14.14 7.702 30.349 12.077 47.577 12.077 55.085 0 99.742-44.728 99.742-99.9 0-37.16-20.261-69.582-50.323-86.789H0v174.612z" id="aG"/><path d="M0 166.164c10.697 3.895 22.251 6.02 34.305 6.02 55.103 0 99.773-44.418 99.773-99.206 0-28.865-12.4-54.85-32.192-72.978H0v166.164z" id="aI"/><path d="M0 157.12a99.984 99.984 0 0 0 20.967 2.21c54.96 0 99.515-44.517 99.515-99.429 0-22.493-7.477-43.242-20.083-59.901H0v157.12z" id="aK"/><path d="M0 146.2c2.538.195 5.103.295 7.69.295 54.784 0 99.195-44.641 99.195-99.705 0-16.91-4.189-32.837-11.58-46.79H0v146.2z" id="aM"/><path d="M0 132.936C52.428 130.06 94.055 86.63 94.055 33.48c0-11.746-2.034-23.017-5.768-33.481H0v132.936z" id="aO"/><path d="M0 118.774c45.246-8.847 79.442-49.555 79.442-98.433 0-6.97-.695-13.773-2.019-20.341H0v118.774z" id="aQ"/><path d="M0 100.432C39.59 87.195 68.075 50.317 68.075 6.896c0-2.318-.08-4.618-.24-6.896H0v100.432z" id="aS"/><path d="M0 82.824C30.453 67.151 51.822 36.18 54.072 0H0v82.824z" id="aU"/></defs><g transform="rotate(90 149 11)" fill="none" fill-rule="evenodd" opacity=".674"><mask id="b" fill="#fff"><use xlink:href="#a"/></mask><g opacity=".08" mask="url(#b)"><g transform="translate(153.486 -39.98)"><mask id="d" fill="#fff"><use xlink:href="#c"/></mask><path fill="#223B98" mask="url(#d)" d="M-184.459 47.99v-6.266L78.465-222.472l1.558-1.568 3.116 3.133z"/></g><g transform="translate(146.459 -39.98)"><mask id="f" fill="#fff"><use xlink:href="#e"/></mask><path fill="#223B98" mask="url(#f)" d="M-176.992 62.153v-6.341L97.37-225.096l1.548-1.585 3.1 3.172z"/></g><g transform="translate(142.506 -39.98)"><mask id="h" fill="#fff"><use xlink:href="#g"/></mask><path fill="#223B98" mask="url(#h)" d="M-173.479 75.13v-6.313l289.306-293.04 1.558-1.577 3.115 3.155z"/></g><g transform="translate(139.871 -39.98)"><mask id="j" fill="#fff"><use xlink:href="#i"/></mask><path fill="#223B98" mask="url(#j)" d="M-170.405 87.549v-6.251L131.17-222.038l1.554-1.561 3.106 3.123z"/></g><g transform="translate(138.553 -39.98)"><mask id="l" fill="#fff"><use xlink:href="#k"/></mask><path fill="#223B98" mask="url(#l)" d="M-169.526 100.318v-6.197l314.882-313.969 1.556-1.55 3.108 3.099z"/></g><g transform="translate(138.553 -39.98)"><mask id="n" fill="#fff"><use xlink:href="#m"/></mask><path fill="#223B98" mask="url(#n)" d="M-169.965 114.81v-6.271l329.054-331.01 1.56-1.569 3.116 3.137z"/></g><g transform="translate(138.553 -39.98)"><mask id="p" fill="#fff"><use xlink:href="#o"/></mask><path fill="#223B98" mask="url(#p)" d="M-169.965 127.49v-6.246l342.331-342.84 1.56-1.563 3.117 3.123z"/></g><g transform="translate(138.553 -39.98)"><mask id="r" fill="#fff"><use xlink:href="#q"/></mask><path fill="#223B98" mask="url(#r)" d="M-170.405 141.047v-6.267l356.273-357.254 1.56-1.566 3.126 3.132z"/></g><g transform="translate(138.553 -39.98)"><mask id="t" fill="#fff"><use xlink:href="#s"/></mask><path fill="#223B98" mask="url(#t)" d="M-169.965 154.307v-6.265l368.892-370.516 1.559-1.566 3.117 3.131z"/></g><g transform="translate(138.553 -39.98)"><mask id="v" fill="#fff"><use xlink:href="#u"/></mask><path fill="#223B98" mask="url(#v)" d="M-169.965 167.971v-6.279l382.122-384.6 1.558-1.572 3.12 3.14z"/></g><g transform="translate(138.553 -39.98)"><mask id="x" fill="#fff"><use xlink:href="#w"/></mask><path fill="#223B98" mask="url(#x)" d="M-169.965 180.382v-6.243l395.351-395.738 1.559-1.56 3.119 3.122z"/></g><g transform="translate(138.553 -39.98)"><mask id="z" fill="#fff"><use xlink:href="#y"/></mask><path fill="#223B98" mask="url(#z)" d="M-169.965 193.168v-6.232l408.58-408.098 1.561-1.557 3.117 3.113z"/></g><g transform="translate(138.553 -39.98)"><mask id="B" fill="#fff"><use xlink:href="#A"/></mask><path fill="#223B98" mask="url(#B)" d="M-169.965 206.959v-6.25l421.812-422.746 1.559-1.562 3.117 3.126z"/></g><g transform="translate(138.553 -39.98)"><mask id="D" fill="#fff"><use xlink:href="#C"/></mask><path fill="#223B98" mask="url(#D)" d="M-169.965 220.22v-6.253l435.041-436.004 1.561-1.562 3.117 3.124z"/></g><g transform="translate(138.553 -39.98)"><mask id="F" fill="#fff"><use xlink:href="#E"/></mask><path fill="#223B98" mask="url(#F)" d="M-169.965 233.478v-6.253l448.273-449.262 1.559-1.562 3.119 3.124z"/></g><g transform="translate(138.553 -39.98)"><mask id="H" fill="#fff"><use xlink:href="#G"/></mask><path fill="#223B98" mask="url(#H)" d="M-169.965 246.739v-6.25l461.502-462.526 1.561-1.562 3.117 3.128z"/></g><g transform="translate(138.553 -39.98)"><mask id="J" fill="#fff"><use xlink:href="#I"/></mask><path fill="#223B98" mask="url(#J)" d="M-169.965 259.997v-6.252l474.732-475.782 1.563-1.562 3.117 3.124z"/></g><g transform="translate(138.553 -39.98)"><mask id="L" fill="#fff"><use xlink:href="#K"/></mask><path fill="#223B98" mask="url(#L)" d="M-169.965 273.256v-6.253l487.963-489.04 1.561-1.562 3.117 3.124z"/></g><g transform="translate(138.553 -39.98)"><mask id="N" fill="#fff"><use xlink:href="#M"/></mask><path fill="#223B98" mask="url(#N)" d="M-169.965 286.517v-6.25l501.193-502.304 1.56-1.562 3.12 3.126z"/></g><g transform="translate(138.553 -39.98)"><mask id="P" fill="#fff"><use xlink:href="#O"/></mask><path fill="#223B98" mask="url(#P)" d="M-169.965 299.777v-6.252l514.424-515.562 1.559-1.562 3.12 3.124z"/></g><g transform="translate(138.553 -39.98)"><mask id="R" fill="#fff"><use xlink:href="#Q"/></mask><path fill="#223B98" mask="url(#R)" d="M-169.965 313.036v-6.253l527.656-528.82 1.558-1.562 3.118 3.126z"/></g><g transform="translate(138.553 -39.98)"><mask id="T" fill="#fff"><use xlink:href="#S"/></mask><path fill="#223B98" mask="url(#T)" d="M-169.965 326.295v-6.25L370.92-222.038l1.56-1.562 3.12 3.124z"/></g><g transform="translate(138.553 -39.98)"><mask id="V" fill="#fff"><use xlink:href="#U"/></mask><path fill="#223B98" mask="url(#V)" d="M-169.965 339.555v-6.252l554.115-555.34 1.56-1.562 3.12 3.124z"/></g><g transform="translate(138.553 -39.98)"><mask id="X" fill="#fff"><use xlink:href="#W"/></mask><path fill="#223B98" mask="url(#X)" d="M-169.965 346.564L397.38-222.037l1.56-1.562 2.039 2.046v2.161l-570.945 572.208z"/></g><g transform="translate(138.553 -39.98)"><mask id="Z" fill="#fff"><use xlink:href="#Y"/></mask><path fill="#223B98" mask="url(#Z)" d="M-169.965 364.258v-4.208L400.98-212.155v6.248l-568.905 570.165z"/></g><g transform="translate(138.553 -39.98)"><mask id="ab" fill="#fff"><use xlink:href="#aa"/></mask><path fill="#223B98" mask="url(#ab)" d="M-157.866 364.204l-1.559-1.562L400.927-198.95v6.253L-154.75 364.204z"/></g><g transform="translate(138.553 -39.98)"><mask id="ad" fill="#fff"><use xlink:href="#ac"/></mask><path fill="#223B98" mask="url(#ad)" d="M-144.688 364.15l-1.561-1.562 547.126-548.334v6.253L-141.57 364.15z"/></g><g transform="translate(138.553 -39.98)"><mask id="af" fill="#fff"><use xlink:href="#ae"/></mask><path fill="#223B98" mask="url(#af)" d="M-131.513 364.094l-1.56-1.562L400.818-172.54v6.25l-529.215 530.385z"/></g><g transform="translate(138.553 -39.98)"><mask id="ah" fill="#fff"><use xlink:href="#ag"/></mask><path fill="#223B98" mask="url(#ah)" d="M-118.34 364.04l-1.558-1.562 520.663-521.815v6.253L-115.222 364.04z"/></g><g transform="translate(138.553 -39.98)"><mask id="aj" fill="#fff"><use xlink:href="#ai"/></mask><path fill="#223B98" mask="url(#aj)" d="M-105.162 363.986l-1.56-1.562 507.431-508.556v6.253l-502.753 503.865z"/></g><g transform="translate(138.553 -39.98)"><mask id="al" fill="#fff"><use xlink:href="#ak"/></mask><path fill="#223B98" mask="url(#al)" d="M-91.986 363.928l-1.56-1.562 494.202-495.293v6.248L-88.87 363.928z"/></g><g transform="translate(138.553 -39.98)"><mask id="an" fill="#fff"><use xlink:href="#am"/></mask><path fill="#223B98" mask="url(#an)" d="M-78.371 364.316l-1.561-1.562 480.975-482.036v6.252L-75.254 364.316z"/></g><g transform="translate(138.553 -39.98)"><mask id="ap" fill="#fff"><use xlink:href="#ao"/></mask><path fill="#223B98" mask="url(#ap)" d="M-65.196 364.263l-1.56-1.563 467.741-468.778v6.253L-62.078 364.263z"/></g><g transform="translate(138.553 -39.98)"><mask id="ar" fill="#fff"><use xlink:href="#aq"/></mask><path fill="#223B98" mask="url(#ar)" d="M-52.024 364.207l-1.557-1.563L400.931-92.873v6.253L-48.905 364.207z"/></g><g transform="translate(138.553 -39.98)"><mask id="at" fill="#fff"><use xlink:href="#as"/></mask><path fill="#223B98" mask="url(#at)" d="M-38.844 364.153l-1.561-1.562 441.28-442.26v6.253L-35.727 364.153z"/></g><g transform="translate(138.553 -39.98)"><mask id="av" fill="#fff"><use xlink:href="#au"/></mask><path fill="#223B98" mask="url(#av)" d="M-25.671 364.097l-1.559-1.563L400.82-66.464v6.25l-423.372 424.31z"/></g><g transform="translate(138.553 -39.98)"><mask id="ax" fill="#fff"><use xlink:href="#aw"/></mask><path fill="#223B98" mask="url(#ax)" d="M-12.495 364.04l-1.559-1.562 414.82-415.737v6.25L-9.378 364.042z"/></g><g transform="translate(138.553 -39.98)"><mask id="az" fill="#fff"><use xlink:href="#ay"/></mask><path fill="#223B98" mask="url(#az)" d="M.682 363.987l-1.56-1.563L400.714-40.054v6.252L3.8 363.987z"/></g><g transform="translate(150.85 -39.98)"><mask id="aB" fill="#fff"><use xlink:href="#aA"/></mask><path fill="#223B98" mask="url(#aB)" d="M1.561 363.93L0 362.369 388.419-26.85v6.253L4.679 363.931z"/></g><g transform="translate(164.905 -39.98)"><mask id="aD" fill="#fff"><use xlink:href="#aC"/></mask><path fill="#223B98" mask="url(#aD)" d="M1.55 364.317L0 362.755l373.444-375.96v6.25L4.654 364.318z"/></g><g transform="translate(177.202 -39.98)"><mask id="aF" fill="#fff"><use xlink:href="#aE"/></mask><path fill="#223B98" mask="url(#aF)" d="M1.56 364.26L0 362.7 362.237 0v6.25L4.682 364.26z"/></g><g transform="translate(189.938 -27.656)"><mask id="aH" fill="#fff"><use xlink:href="#aG"/></mask><path fill="#223B98" mask="url(#aH)" d="M1.565 352.131L0 350.564 350.017 0v6.273L4.697 352.13z"/></g><g transform="translate(203.553 -13.131)"><mask id="aJ" fill="#fff"><use xlink:href="#aI"/></mask><path fill="#223B98" mask="url(#aJ)" d="M1.565 336.478L0 334.922 336.836 0v6.23L4.696 336.477z"/></g><g transform="translate(217.168 .074)"><mask id="aL" fill="#fff"><use xlink:href="#aK"/></mask><path fill="#223B98" mask="url(#aL)" d="M1.563 323.994L0 322.434 322.718 0v6.243L4.685 323.993z"/></g><g transform="translate(230.783 12.838)"><mask id="aN" fill="#fff"><use xlink:href="#aM"/></mask><path fill="#223B98" mask="url(#aN)" d="M1.558 311.615L0 310.051 308.469 0v6.258L4.67 311.615z"/></g><g transform="translate(243.52 25.603)"><mask id="aP" fill="#fff"><use xlink:href="#aO"/></mask><path fill="#223B98" mask="url(#aP)" d="M1.56 298.044L0 296.48 296.458 0v6.252L4.688 298.044z"/></g><g transform="translate(258.012 40.128)"><mask id="aR" fill="#fff"><use xlink:href="#aQ"/></mask><path fill="#223B98" mask="url(#aR)" d="M1.536 286.524L0 284.952 278.46 0v6.29L4.61 286.524z"/></g><g transform="translate(269.431 52.452)"><mask id="aT" fill="#fff"><use xlink:href="#aS"/></mask><path fill="#223B98" mask="url(#aT)" d="M1.575 269.229L0 267.679 272.11 0v6.202L4.726 269.229z"/></g><g transform="translate(283.485 65.217)"><mask id="aV" fill="#fff"><use xlink:href="#aU"/></mask><path fill="#223B98" mask="url(#aV)" d="M1.562 259.559L0 257.989 256.67 0v6.286L4.687 259.559z"/></g></g></g></svg>