<svg width="1280" height="214" viewBox="0 0 1280 214" xmlns="http://www.w3.org/2000/svg" xmlns:xlink="http://www.w3.org/1999/xlink"><title>Pattern</title><defs><path id="a" d="M0 0h1280v214H0z"/><path id="c" d="M0 0h214.421v319H0z"/><path d="M147.085.927A140.131 140.131 0 0 0 130.963 0C72 0 21.435 36.82 0 89.23h147.085V.928z" id="e"/><path d="M173.396 4.44A141.212 141.212 0 0 0 138.17 0C71.79 0 15.99 45.927 0 108.148h173.396V4.44z" id="g"/><path d="M194.897 10.637C178.267 3.78 160.055 0 140.962 0 68.304 0 8.395 54.753 0 125.37h194.897V10.638z" id="i"/><path d="M.013 143.472C.004 142.837 0 142.2 0 141.564 0 63.381 63.566 0 141.98 0c26.63 0 51.549 7.31 72.846 20.028v123.444H.013z" id="k"/><path d="M1.52 164.012A144.78 144.78 0 0 1 0 143.036C0 64.04 63.788 0 142.476 0c35.102 0 67.24 12.744 92.072 33.874v130.138H1.521z" id="m"/><path d="M5.655 182.598C1.974 169.93 0 156.533 0 142.676 0 63.879 63.824 0 142.558 0c44.913 0 84.976 20.787 111.106 53.272v129.326H5.655z" id="o"/><path d="M12.706 202.188C4.546 184.174 0 164.165 0 143.093 0 64.065 63.933 0 142.8 0c58.026 0 107.969 34.68 130.312 84.482v117.225l-.216.48H12.706z" id="q"/><path d="M23.13 221.34C8.501 198.861 0 172.005 0 143.156 0 64.094 63.865 0 142.65 0c78.784 0 142.652 64.094 142.652 143.157 0 28.849-8.503 55.705-23.13 78.182H23.129z" id="s"/><path d="M37.96 240.83C14.4 215.25 0 181.02 0 143.41 0 64.207 63.865 0 142.65 0c78.784 0 142.652 64.207 142.652 143.41 0 37.61-14.4 71.84-37.96 97.42H37.958z" id="u"/><path d="M59.453 258.974C23.447 233.034 0 190.702 0 142.886 0 63.973 63.865 0 142.65 0c78.784 0 142.652 63.973 142.652 142.886 0 47.816-23.448 90.149-59.455 116.088H59.453z" id="w"/><path d="M96.11 277.482C40.179 258.19 0 205.094 0 142.618 0 63.853 63.865 0 142.65 0c78.784 0 142.652 63.853 142.652 142.618 0 62.476-40.18 115.572-96.113 134.864H96.11z" id="y"/><path d="M0 142.961c0 78.958 63.865 142.97 142.65 142.97 78.784 0 142.652-64.012 142.652-142.97C285.302 64.006 221.434 0 142.649 0 63.865 0 0 64.006 0 142.961z" id="A"/><path d="M0 142.961c0 78.958 63.865 142.97 142.65 142.97 78.784 0 142.652-64.012 142.652-142.97C285.302 64.006 221.434 0 142.649 0 63.865 0 0 64.006 0 142.961z" id="C"/><path d="M0 142.961c0 78.958 63.865 142.97 142.65 142.97 78.784 0 142.652-64.012 142.652-142.97C285.302 64.006 221.434 0 142.649 0 63.865 0 0 64.006 0 142.961z" id="E"/><path d="M0 142.961c0 78.958 63.865 142.97 142.65 142.97 78.784 0 142.652-64.012 142.652-142.97C285.302 64.006 221.434 0 142.649 0 63.865 0 0 64.006 0 142.961z" id="G"/><path d="M0 142.961c0 78.958 63.865 142.97 142.65 142.97 78.784 0 142.652-64.012 142.652-142.97C285.302 64.006 221.434 0 142.649 0 63.865 0 0 64.006 0 142.961z" id="I"/><path d="M0 142.961c0 78.958 63.865 142.97 142.65 142.97 78.784 0 142.652-64.012 142.652-142.97C285.302 64.006 221.434 0 142.649 0 63.865 0 0 64.006 0 142.961z" id="K"/><path d="M0 142.961c0 78.958 63.865 142.97 142.65 142.97 78.784 0 142.652-64.012 142.652-142.97C285.302 64.006 221.434 0 142.649 0 63.865 0 0 64.006 0 142.961z" id="M"/><path d="M0 142.961c0 78.958 63.865 142.97 142.65 142.97 78.784 0 142.652-64.012 142.652-142.97C285.302 64.006 221.434 0 142.649 0 63.865 0 0 64.006 0 142.961z" id="O"/><path d="M0 142.961c0 78.958 63.865 142.97 142.65 142.97 78.784 0 142.652-64.012 142.652-142.97C285.302 64.006 221.434 0 142.649 0 63.865 0 0 64.006 0 142.961z" id="Q"/><path d="M0 142.961c0 78.958 63.865 142.97 142.65 142.97 78.784 0 142.652-64.012 142.652-142.97C285.302 64.006 221.434 0 142.649 0 63.865 0 0 64.006 0 142.961z" id="S"/><path d="M0 142.961c0 78.958 63.865 142.97 142.65 142.97 78.784 0 142.652-64.012 142.652-142.97C285.302 64.006 221.434 0 142.649 0 63.865 0 0 64.006 0 142.961z" id="U"/><path d="M0 142.961c0 78.958 63.865 142.97 142.65 142.97 78.784 0 142.652-64.012 142.652-142.97C285.302 64.006 221.434 0 142.649 0 63.865 0 0 64.006 0 142.961z" id="W"/><path d="M0 142.961c0 78.958 63.865 142.97 142.65 142.97 78.784 0 142.652-64.012 142.652-142.97C285.302 64.006 221.434 0 142.649 0 63.865 0 0 64.006 0 142.961z" id="Y"/><path d="M0 142.961c0 78.958 63.865 142.97 142.65 142.97 78.784 0 142.652-64.012 142.652-142.97C285.302 64.006 221.434 0 142.649 0 63.865 0 0 64.006 0 142.961z" id="aa"/><path d="M0 142.961c0 78.958 63.865 142.97 142.65 142.97 78.784 0 142.652-64.012 142.652-142.97C285.302 64.006 221.434 0 142.649 0 63.865 0 0 64.006 0 142.961z" id="ac"/><path d="M0 142.961c0 78.958 63.865 142.97 142.65 142.97 78.784 0 142.652-64.012 142.652-142.97C285.302 64.006 221.434 0 142.649 0 63.865 0 0 64.006 0 142.961z" id="ae"/><path d="M0 142.961c0 78.958 63.865 142.97 142.65 142.97 78.784 0 142.652-64.012 142.652-142.97C285.302 64.006 221.434 0 142.649 0 63.865 0 0 64.006 0 142.961z" id="ag"/><path d="M0 142.961c0 78.958 63.865 142.97 142.65 142.97 78.784 0 142.652-64.012 142.652-142.97C285.302 64.006 221.434 0 142.649 0 63.865 0 0 64.006 0 142.961z" id="ai"/><path d="M0 142.961c0 78.958 63.865 142.97 142.65 142.97 78.784 0 142.652-64.012 142.652-142.97C285.302 64.006 221.434 0 142.649 0 63.865 0 0 64.006 0 142.961z" id="ak"/><path d="M0 142.961c0 78.958 63.865 142.97 142.65 142.97 78.784 0 142.652-64.012 142.652-142.97C285.302 64.006 221.434 0 142.649 0 63.865 0 0 64.006 0 142.961z" id="am"/><path d="M0 142.961c0 78.958 63.865 142.97 142.65 142.97 78.784 0 142.652-64.012 142.652-142.97C285.302 64.006 221.434 0 142.649 0 63.865 0 0 64.006 0 142.961z" id="ao"/><path d="M0 142.961c0 78.958 63.865 142.97 142.65 142.97 78.784 0 142.652-64.012 142.652-142.97C285.302 64.006 221.434 0 142.649 0 63.865 0 0 64.006 0 142.961z" id="aq"/><path d="M0 142.961c0 78.958 63.865 142.97 142.65 142.97 78.784 0 142.652-64.012 142.652-142.97C285.302 64.006 221.434 0 142.649 0 63.865 0 0 64.006 0 142.961z" id="as"/><path d="M0 142.961c0 78.958 63.865 142.97 142.65 142.97 78.784 0 142.652-64.012 142.652-142.97C285.302 64.006 221.434 0 142.649 0 63.865 0 0 64.006 0 142.961z" id="au"/><path d="M0 142.961c0 78.958 63.865 142.97 142.65 142.97 78.784 0 142.652-64.012 142.652-142.97C285.302 64.006 221.434 0 142.649 0 63.865 0 0 64.006 0 142.961z" id="aw"/><path d="M0 142.961c0 78.958 63.865 142.97 142.65 142.97 78.784 0 142.652-64.012 142.652-142.97C285.302 64.006 221.434 0 142.649 0 63.865 0 0 64.006 0 142.961z" id="ay"/><path d="M0 211.84c24.252 44.167 71.104 74.092 124.925 74.092 78.716 0 142.529-64.013 142.529-142.97S203.64 0 124.924 0C71.105 0 24.253 29.922 0 74.086V211.84z" id="aA"/><path d="M0 238.6c25.974 29.06 63.61 47.332 105.48 47.332 78.373 0 141.908-64.013 141.908-142.97S183.853 0 105.48 0C63.61 0 25.974 18.27 0 47.327v191.274z" id="aC"/><path d="M0 256.24c24.06 18.618 54.216 29.692 86.951 29.692 78.702 0 142.505-64.013 142.505-142.97S165.653 0 86.95 0C54.216 0 24.06 11.073 0 29.689V256.24z" id="aE"/><path d="M0 250.444c20.25 11.046 43.46 17.321 68.132 17.321 78.885 0 142.835-64.153 142.835-143.284 0-53.3-29.015-99.802-72.064-124.481H0v250.444z" id="aG"/><path d="M0 238.394c15.387 5.588 32.008 8.637 49.347 8.637 79.262 0 143.518-63.725 143.518-142.33 0-41.412-17.837-78.693-46.306-104.701H0v238.394z" id="aI"/><path d="M0 225.315a144.159 144.159 0 0 0 30.15 3.17c79.033 0 143.103-63.84 143.103-142.584 0-32.257-10.752-62.011-28.88-85.901H0v225.315z" id="aK"/><path d="M0 209.543c3.653.28 7.344.423 11.068.423 78.84 0 142.755-63.983 142.755-142.904 0-24.237-6.029-47.064-16.666-67.062H0v209.543z" id="aM"/><path d="M0 190.409c75.323-4.12 135.129-66.325 135.129-142.453 0-16.824-2.921-32.969-8.286-47.956H0v190.409z" id="aO"/><path d="M0 170.167C65.167 157.492 114.42 99.17 114.42 29.142c0-9.985-1-19.732-2.907-29.142H0v170.167z" id="aQ"/><path d="M0 143.834C56.789 124.877 97.648 72.062 97.648 9.876c0-3.32-.116-6.613-.345-9.876H0v143.834z" id="aS"/><path d="M0 118.552C43.722 96.12 74.403 51.787 77.633 0H0v118.552z" id="aU"/><path d="M.021 89.01C29.012 67.93 49.908 36.428 57.176.025H.021V89.01z" id="aW"/><path d="M.203 52.314C14.019 37.55 24.799 19.772 31.513.038H.202v52.276z" id="aY"/><path d="M.25 8.736A150.768 150.768 0 0 0 5.283.09H.25v8.646z" id="ba"/></defs><g fill="none" fill-rule="evenodd"><mask id="b" fill="#fff"><use xlink:href="#a"/></mask><use fill="#F5F6F7" xlink:href="#a"/><g opacity=".674" mask="url(#b)"><g transform="rotate(90 640.5 639.5)"><mask id="d" fill="#fff"><use xlink:href="#c"/></mask><g opacity=".08" mask="url(#d)"><g transform="matrix(-1 0 0 1 326 -71)"><mask id="f" fill="#fff"><use xlink:href="#e"/></mask><path fill="#223B98" mask="url(#f)" d="M-254.585 89.417v-9.123L140.06-323.834l2.226-2.28 4.459 4.563z"/></g><g transform="matrix(-1 0 0 1 331 -71)"><mask id="h" fill="#fff"><use xlink:href="#g"/></mask><path fill="#223B98" mask="url(#h)" d="M-249.462 108.137v-9.086l416.021-421.785 2.24-2.27 4.48 4.541z"/></g><g transform="matrix(-1 0 0 1 335 -71)"><mask id="j" fill="#fff"><use xlink:href="#i"/></mask><path fill="#223B98" mask="url(#j)" d="M-244.43 125.246v-8.943l432.58-433.946 2.23-2.235 4.454 4.469z"/></g><g transform="matrix(-1 0 0 1 337 -71)"><mask id="l" fill="#fff"><use xlink:href="#k"/></mask><path fill="#223B98" mask="url(#l)" d="M-243.09 143.85v-8.887l451.521-450.21 2.23-2.224 4.458 4.445z"/></g><g transform="matrix(-1 0 0 1 337 -71)"><mask id="n" fill="#fff"><use xlink:href="#m"/></mask><path fill="#223B98" mask="url(#n)" d="M-243.838 164.385v-8.979l472.072-473.939 2.238-2.247 4.47 4.491z"/></g><g transform="matrix(-1 0 0 1 337 -71)"><mask id="p" fill="#fff"><use xlink:href="#o"/></mask><path fill="#223B98" mask="url(#p)" d="M-243.94 182.861v-8.96L247.386-317.84l2.24-2.242 4.472 4.48z"/></g><g transform="matrix(-1 0 0 1 337 -71)"><mask id="r" fill="#fff"><use xlink:href="#q"/></mask><path fill="#223B98" mask="url(#r)" d="M-244.495 202.236v-8.986l511.176-512.237 2.24-2.245 4.484 4.49z"/></g><g transform="matrix(-1 0 0 1 337 -71)"><mask id="t" fill="#fff"><use xlink:href="#s"/></mask><path fill="#223B98" mask="url(#t)" d="M-244.027 221.363v-8.986l529.635-531.531 2.238-2.246 4.476 4.491z"/></g><g transform="matrix(-1 0 0 1 337 -71)"><mask id="v" fill="#fff"><use xlink:href="#u"/></mask><path fill="#223B98" mask="url(#v)" d="M-244.027 240.892v-9.005l548.63-551.567 2.237-2.253 4.479 4.503z"/></g><g transform="matrix(-1 0 0 1 337 -71)"><mask id="x" fill="#fff"><use xlink:href="#w"/></mask><path fill="#223B98" mask="url(#x)" d="M-244.027 259.165v-8.97l567.624-568.578 2.237-2.242 4.479 4.486z"/></g><g transform="matrix(-1 0 0 1 337 -71)"><mask id="z" fill="#fff"><use xlink:href="#y"/></mask><path fill="#223B98" mask="url(#z)" d="M-244.027 277.612v-8.956l586.618-586.5 2.24-2.238 4.476 4.475z"/></g><g transform="matrix(-1 0 0 1 337 -71)"><mask id="B" fill="#fff"><use xlink:href="#A"/></mask><path fill="#223B98" mask="url(#B)" d="M-244.027 297.14v-8.975l605.615-606.954 2.237-2.243 4.476 4.489z"/></g><g transform="matrix(-1 0 0 1 337 -71)"><mask id="D" fill="#fff"><use xlink:href="#C"/></mask><path fill="#223B98" mask="url(#D)" d="M-244.027 316.179V307.2l624.609-625.99 2.24-2.243 4.476 4.486z"/></g><g transform="matrix(-1 0 0 1 337 -71)"><mask id="F" fill="#fff"><use xlink:href="#E"/></mask><path fill="#223B98" mask="url(#F)" d="M-244.027 335.215v-8.978L399.58-318.789l2.238-2.243 4.478 4.486z"/></g><g transform="matrix(-1 0 0 1 337 -71)"><mask id="H" fill="#fff"><use xlink:href="#G"/></mask><path fill="#223B98" mask="url(#H)" d="M-244.027 354.254v-8.974l662.6-664.069 2.24-2.243 4.476 4.492z"/></g><g transform="matrix(-1 0 0 1 337 -71)"><mask id="J" fill="#fff"><use xlink:href="#I"/></mask><path fill="#223B98" mask="url(#J)" d="M-244.027 373.29v-8.978l681.594-683.1 2.244-2.244 4.475 4.486z"/></g><g transform="matrix(-1 0 0 1 337 -71)"><mask id="L" fill="#fff"><use xlink:href="#K"/></mask><path fill="#223B98" mask="url(#L)" d="M-244.027 392.326v-8.978l700.591-702.137 2.24-2.243 4.476 4.486z"/></g><g transform="matrix(-1 0 0 1 337 -71)"><mask id="N" fill="#fff"><use xlink:href="#M"/></mask><path fill="#223B98" mask="url(#N)" d="M-244.027 411.365v-8.974l719.585-721.18 2.24-2.243 4.48 4.489z"/></g><g transform="matrix(-1 0 0 1 337 -71)"><mask id="P" fill="#fff"><use xlink:href="#O"/></mask><path fill="#223B98" mask="url(#P)" d="M-244.027 430.404v-8.978l738.582-740.215 2.238-2.243 4.479 4.486z"/></g><g transform="matrix(-1 0 0 1 337 -71)"><mask id="R" fill="#fff"><use xlink:href="#Q"/></mask><path fill="#223B98" mask="url(#R)" d="M-244.027 449.44v-8.978l757.58-759.25 2.237-2.244 4.476 4.489z"/></g><g transform="matrix(-1 0 0 1 337 -71)"><mask id="T" fill="#fff"><use xlink:href="#S"/></mask><path fill="#223B98" mask="url(#T)" d="M-244.027 468.476V459.5l776.573-778.29 2.241-2.243 4.479 4.486z"/></g><g transform="matrix(-1 0 0 1 337 -71)"><mask id="V" fill="#fff"><use xlink:href="#U"/></mask><path fill="#223B98" mask="url(#V)" d="M-244.027 487.515v-8.978L551.54-318.789l2.241-2.243 4.479 4.486z"/></g><g transform="matrix(-1 0 0 1 337 -71)"><mask id="X" fill="#fff"><use xlink:href="#W"/></mask><path fill="#223B98" mask="url(#X)" d="M-244.027 497.577L570.537-318.79l2.241-2.243 2.926 2.94v3.102l-819.73 821.544z"/></g><g transform="matrix(-1 0 0 1 337 -71)"><mask id="Z" fill="#fff"><use xlink:href="#Y"/></mask><path fill="#223B98" mask="url(#Z)" d="M-244.027 522.981v-6.041L575.704-304.6v8.97l-816.802 818.611z"/></g><g transform="matrix(-1 0 0 1 337 -71)"><mask id="ab" fill="#fff"><use xlink:href="#aa"/></mask><path fill="#223B98" mask="url(#ab)" d="M-226.655 522.904l-2.238-2.243 804.521-806.303v8.977L-222.18 522.904z"/></g><g transform="matrix(-1 0 0 1 337 -71)"><mask id="ad" fill="#fff"><use xlink:href="#ac"/></mask><path fill="#223B98" mask="url(#ad)" d="M-207.736 522.826l-2.24-2.242 785.533-787.268v8.977L-203.26 522.826z"/></g><g transform="matrix(-1 0 0 1 337 -71)"><mask id="af" fill="#fff"><use xlink:href="#ae"/></mask><path fill="#223B98" mask="url(#af)" d="M-188.819 522.746l-2.24-2.243 766.533-768.228v8.974l-759.817 761.497z"/></g><g transform="matrix(-1 0 0 1 337 -71)"><mask id="ah" fill="#fff"><use xlink:href="#ag"/></mask><path fill="#223B98" mask="url(#ah)" d="M-169.905 522.669l-2.238-2.243 747.54-749.193v8.977L-165.43 522.67z"/></g><g transform="matrix(-1 0 0 1 337 -71)"><mask id="aj" fill="#fff"><use xlink:href="#ai"/></mask><path fill="#223B98" mask="url(#aj)" d="M-150.985 522.591l-2.241-2.243 728.542-730.156v8.977L-146.51 522.591z"/></g><g transform="matrix(-1 0 0 1 337 -71)"><mask id="al" fill="#fff"><use xlink:href="#ak"/></mask><path fill="#223B98" mask="url(#al)" d="M-132.068 522.508l-2.241-2.243L575.239-190.85v8.97l-702.832 704.387z"/></g><g transform="matrix(-1 0 0 1 337 -71)"><mask id="an" fill="#fff"><use xlink:href="#am"/></mask><path fill="#223B98" mask="url(#an)" d="M-112.521 523.065l-2.24-2.243 690.556-692.081v8.977l-683.84 685.347z"/></g><g transform="matrix(-1 0 0 1 337 -71)"><mask id="ap" fill="#fff"><use xlink:href="#ao"/></mask><path fill="#223B98" mask="url(#ap)" d="M-93.604 522.988l-2.241-2.243L575.712-152.3v8.977l-664.84 666.31z"/></g><g transform="matrix(-1 0 0 1 337 -71)"><mask id="ar" fill="#fff"><use xlink:href="#aq"/></mask><path fill="#223B98" mask="url(#ar)" d="M-74.694 522.907l-2.234-2.242 652.562-654.007v8.977L-70.215 522.907z"/></g><g transform="matrix(-1 0 0 1 337 -71)"><mask id="at" fill="#fff"><use xlink:href="#as"/></mask><path fill="#223B98" mask="url(#at)" d="M-55.77 522.83l-2.242-2.243 633.566-634.97v8.977L-51.296 522.83z"/></g><g transform="matrix(-1 0 0 1 337 -71)"><mask id="av" fill="#fff"><use xlink:href="#au"/></mask><path fill="#223B98" mask="url(#av)" d="M-36.857 522.75l-2.238-2.243L575.474-95.425v8.974l-607.852 609.2z"/></g><g transform="matrix(-1 0 0 1 337 -71)"><mask id="ax" fill="#fff"><use xlink:href="#aw"/></mask><path fill="#223B98" mask="url(#ax)" d="M-17.94 522.669l-2.238-2.243L575.397-76.466v8.974l-588.862 590.16z"/></g><g transform="matrix(-1 0 0 1 337 -71)"><mask id="az" fill="#fff"><use xlink:href="#ay"/></mask><path fill="#223B98" mask="url(#az)" d="M.98 522.591l-2.241-2.242L575.322-57.508v8.977L5.455 522.591z"/></g><g transform="matrix(-1 0 0 1 319 -71)"><mask id="aB" fill="#fff"><use xlink:href="#aA"/></mask><path fill="#223B98" mask="url(#aB)" d="M2.239 522.511L0 520.268 557.103-38.549v8.977L6.71 522.511z"/></g><g transform="matrix(-1 0 0 1 299 -71)"><mask id="aD" fill="#fff"><use xlink:href="#aC"/></mask><path fill="#223B98" mask="url(#aD)" d="M2.223 523.066L0 520.823 535.777-18.96v8.974L6.678 523.065z"/></g><g transform="matrix(-1 0 0 1 282 -71)"><mask id="aF" fill="#fff"><use xlink:href="#aE"/></mask><path fill="#223B98" mask="url(#aF)" d="M2.235 522.985L0 520.742 519.054 0v8.974L6.709 522.985z"/></g><g transform="matrix(-1 0 0 1 263 -53)"><mask id="aH" fill="#fff"><use xlink:href="#aG"/></mask><path fill="#223B98" mask="url(#aH)" d="M2.24 505.056L0 502.808 501.238 0v8.997L6.725 505.057z"/></g><g transform="matrix(-1 0 0 1 244 -32)"><mask id="aJ" fill="#fff"><use xlink:href="#aI"/></mask><path fill="#223B98" mask="url(#aJ)" d="M2.251 482.743L0 480.51 484.523 0v8.937L6.754 482.743z"/></g><g transform="matrix(-1 0 0 1 224 -14)"><mask id="aL" fill="#fff"><use xlink:href="#aK"/></mask><path fill="#223B98" mask="url(#aL)" d="M2.248 464.619L0 462.382 464.067 0v8.953L6.737 464.619z"/></g><g transform="matrix(-1 0 0 1 205 5)"><mask id="aN" fill="#fff"><use xlink:href="#aM"/></mask><path fill="#223B98" mask="url(#aN)" d="M2.242 446.626L0 444.384 443.93 0v8.97L6.722 446.626z"/></g><g transform="matrix(-1 0 0 1 186 23)"><mask id="aP" fill="#fff"><use xlink:href="#aO"/></mask><path fill="#223B98" mask="url(#aP)" d="M2.242 426.898L0 424.66 425.922 0v8.955L6.734 426.898z"/></g><g transform="matrix(-1 0 0 1 166 44)"><mask id="aR" fill="#fff"><use xlink:href="#aQ"/></mask><path fill="#223B98" mask="url(#aR)" d="M2.213 410.502L0 408.25 401.065 0v9.012L6.64 410.502z"/></g><g transform="matrix(-1 0 0 1 149 62)"><mask id="aT" fill="#fff"><use xlink:href="#aS"/></mask><path fill="#223B98" mask="url(#aT)" d="M2.26 385.576L0 383.358 390.317 0v8.882L6.781 385.576z"/></g><g transform="matrix(-1 0 0 1 129 80)"><mask id="aV" fill="#fff"><use xlink:href="#aU"/></mask><path fill="#223B98" mask="url(#aV)" d="M2.243 371.524L0 369.277 368.513 0v8.997L6.73 371.524z"/></g><g transform="matrix(-1 0 0 1 111 23)"><mask id="aX" fill="#fff"><use xlink:href="#aW"/></mask><path fill="#223B98" mask="url(#aX)" d="M2.309 357.499l-2.288-2.28L355.959.025v9.126L6.879 357.499z"/></g><g transform="matrix(-1 0 0 1 91 40)"><mask id="aZ" fill="#fff"><use xlink:href="#aY"/></mask><path fill="#223B98" mask="url(#aZ)" d="M2.409 335.224l-2.206-2.26L324.694.038v9.044L6.814 335.224z"/></g><g transform="matrix(-1 0 0 1 72 59)"><mask id="bb" fill="#fff"><use xlink:href="#ba"/></mask><path fill="#223B98" mask="url(#bb)" d="M2.711 334.33l-2.46-2.391L341.872.09v9.566L7.633 334.329z"/></g></g></g></g></g></svg>