<svg width="202" height="142" viewBox="0 0 202 142" xmlns="http://www.w3.org/2000/svg" xmlns:xlink="http://www.w3.org/1999/xlink"><title>Pattern</title><defs><path id="a" d="M0 0h175v214H0z"/><path d="M164.466 9.024C150.433 3.207 135.064 0 118.953 0 57.639 0 7.085 46.451 0 106.361h164.466V9.024z" id="c"/><path d="M.01 121.503c-.006-.538-.01-1.076-.01-1.616C0 53.676 53.55 0 119.61 0c22.434 0 43.426 6.19 61.368 16.961v104.542H.011z" id="e"/><path d="M1.286 138.677A122.367 122.367 0 0 1 0 120.942C0 54.148 53.956 0 120.517 0c29.692 0 56.876 10.775 77.881 28.641v110.036H1.286z" id="g"/><path d="M4.778 153.988A120.272 120.272 0 0 1 0 120.321C0 53.87 53.923 0 120.441 0c37.945 0 71.793 17.53 93.87 44.925v109.063H4.778z" id="i"/><path d="M10.731 170.449C3.84 155.262 0 138.395 0 120.63 0 54.009 53.994 0 120.601 0c49.005 0 91.185 29.235 110.055 71.22v98.823c-.06.136-.122.27-.183.406H10.731z" id="k"/><path d="M19.526 186.388C7.178 167.46 0 144.845 0 120.55 0 53.973 53.916 0 120.426 0s120.43 53.973 120.43 120.551c0 24.294-7.179 46.909-19.527 65.837H19.526z" id="m"/><path d="M32.046 202.764C12.156 181.227 0 152.408 0 120.742 0 54.06 53.916 0 120.426 0s120.43 54.059 120.43 120.742c0 31.666-12.158 60.485-32.048 82.022H32.046z" id="o"/><path d="M50.191 217.788C19.794 195.974 0 160.374 0 120.162 0 53.799 53.916 0 120.426 0s120.43 53.799 120.43 120.162c0 40.212-19.796 75.812-50.193 97.626H50.19z" id="q"/><path d="M81.138 233.185C33.918 216.973 0 172.353 0 119.851 0 53.659 53.916 0 120.426 0s120.43 53.66 120.43 119.85c0 52.503-33.921 97.123-81.14 113.335H81.137z" id="s"/><path d="M0 120.542c0 66.576 53.916 120.55 120.426 120.55s120.43-53.975 120.43-120.55C240.855 53.969 186.935 0 120.425 0S0 53.969 0 120.542z" id="u"/><path d="M0 120.542c0 66.576 53.916 120.55 120.426 120.55s120.43-53.975 120.43-120.55C240.855 53.969 186.935 0 120.425 0S0 53.969 0 120.542z" id="w"/><path d="M0 120.542c0 66.576 53.916 120.55 120.426 120.55s120.43-53.975 120.43-120.55C240.855 53.969 186.935 0 120.425 0S0 53.969 0 120.542z" id="y"/><path d="M0 120.542c0 66.576 53.916 120.55 120.426 120.55s120.43-53.975 120.43-120.55C240.855 53.969 186.935 0 120.425 0S0 53.969 0 120.542z" id="A"/><path d="M0 120.542c0 66.576 53.916 120.55 120.426 120.55s120.43-53.975 120.43-120.55C240.855 53.969 186.935 0 120.425 0S0 53.969 0 120.542z" id="C"/><path d="M0 120.542c0 66.576 53.916 120.55 120.426 120.55s120.43-53.975 120.43-120.55C240.855 53.969 186.935 0 120.425 0S0 53.969 0 120.542z" id="E"/><path d="M0 120.542c0 66.576 53.916 120.55 120.426 120.55s120.43-53.975 120.43-120.55C240.855 53.969 186.935 0 120.425 0S0 53.969 0 120.542z" id="G"/><path d="M0 120.542c0 66.576 53.916 120.55 120.426 120.55s120.43-53.975 120.43-120.55C240.855 53.969 186.935 0 120.425 0S0 53.969 0 120.542z" id="I"/><path d="M0 120.542c0 66.576 53.916 120.55 120.426 120.55s120.43-53.975 120.43-120.55C240.855 53.969 186.935 0 120.425 0S0 53.969 0 120.542z" id="K"/><path d="M0 120.542c0 66.576 53.916 120.55 120.426 120.55s120.43-53.975 120.43-120.55C240.855 53.969 186.935 0 120.425 0S0 53.969 0 120.542z" id="M"/><path d="M0 120.542c0 66.576 53.916 120.55 120.426 120.55s120.43-53.975 120.43-120.55C240.855 53.969 186.935 0 120.425 0S0 53.969 0 120.542z" id="O"/><path d="M0 120.542c0 66.576 53.916 120.55 120.426 120.55s120.43-53.975 120.43-120.55C240.855 53.969 186.935 0 120.425 0S0 53.969 0 120.542z" id="Q"/><path d="M0 120.542c0 66.576 53.916 120.55 120.426 120.55s120.43-53.975 120.43-120.55C240.855 53.969 186.935 0 120.425 0S0 53.969 0 120.542z" id="S"/><path d="M0 120.542c0 66.576 53.916 120.55 120.426 120.55s120.43-53.975 120.43-120.55C240.855 53.969 186.935 0 120.425 0S0 53.969 0 120.542z" id="U"/><path d="M0 120.542c0 66.576 53.916 120.55 120.426 120.55s120.43-53.975 120.43-120.55C240.855 53.969 186.935 0 120.425 0S0 53.969 0 120.542z" id="W"/><path d="M0 120.542c0 66.576 53.916 120.55 120.426 120.55s120.43-53.975 120.43-120.55C240.855 53.969 186.935 0 120.425 0S0 53.969 0 120.542z" id="Y"/><path d="M0 120.542c0 66.576 53.916 120.55 120.426 120.55s120.43-53.975 120.43-120.55C240.855 53.969 186.935 0 120.425 0S0 53.969 0 120.542z" id="aa"/><path d="M0 120.542c0 66.576 53.916 120.55 120.426 120.55s120.43-53.975 120.43-120.55C240.855 53.969 186.935 0 120.425 0S0 53.969 0 120.542z" id="ac"/><path d="M0 120.542c0 66.576 53.916 120.55 120.426 120.55s120.43-53.975 120.43-120.55C240.855 53.969 186.935 0 120.425 0S0 53.969 0 120.542z" id="ae"/><path d="M0 120.542c0 66.576 53.916 120.55 120.426 120.55s120.43-53.975 120.43-120.55C240.855 53.969 186.935 0 120.425 0S0 53.969 0 120.542z" id="ag"/><path d="M0 120.542c0 66.576 53.916 120.55 120.426 120.55s120.43-53.975 120.43-120.55C240.855 53.969 186.935 0 120.425 0S0 53.969 0 120.542z" id="ai"/><path d="M0 120.542c0 66.576 53.916 120.55 120.426 120.55s120.43-53.975 120.43-120.55C240.855 53.969 186.935 0 120.425 0S0 53.969 0 120.542z" id="ak"/><path d="M0 120.542c0 66.576 53.916 120.55 120.426 120.55s120.43-53.975 120.43-120.55C240.855 53.969 186.935 0 120.425 0S0 53.969 0 120.542z" id="am"/><path d="M0 120.542c0 66.576 53.916 120.55 120.426 120.55s120.43-53.975 120.43-120.55C240.855 53.969 186.935 0 120.425 0S0 53.969 0 120.542z" id="ao"/><path d="M0 120.542c0 66.576 53.916 120.55 120.426 120.55s120.43-53.975 120.43-120.55C240.855 53.969 186.935 0 120.425 0S0 53.969 0 120.542z" id="aq"/><path d="M0 120.542c0 66.576 53.916 120.55 120.426 120.55s120.43-53.975 120.43-120.55C240.855 53.969 186.935 0 120.425 0S0 53.969 0 120.542z" id="as"/><path d="M0 178.619c20.487 37.24 60.064 62.472 105.527 62.472 66.493 0 120.398-53.974 120.398-120.55C225.925 53.97 172.02 0 105.527 0 60.064 0 20.487 25.23 0 62.468v116.151z" id="au"/><path d="M0 201.183c21.95 24.503 53.754 39.908 89.137 39.908 66.23 0 119.92-53.974 119.92-120.55C209.057 53.97 155.367 0 89.137 0 53.754 0 21.95 15.404 0 39.905v161.278z" id="aw"/><path d="M0 216.056c20.348 15.698 45.852 25.035 73.537 25.035 66.56 0 120.52-53.974 120.52-120.55C194.056 53.97 140.096 0 73.536 0 45.852 0 20.348 9.336 0 25.033v191.023z" id="ay"/><path d="M0 211.283c17.15 9.32 36.808 14.613 57.703 14.613 66.81 0 120.972-54.122 120.972-120.88C178.675 60.051 154.1 20.82 117.64 0H0v211.283z" id="aA"/><path d="M0 200.681c12.986 4.704 27.014 7.271 41.648 7.271 66.896 0 121.126-53.645 121.126-119.814 0-34.861-15.053-66.245-39.081-88.138H0v200.681z" id="aC"/><path d="M0 189.618a120.738 120.738 0 0 0 25.312 2.668c66.348 0 120.135-53.726 120.135-119.995 0-27.146-9.026-52.186-24.244-72.291H0v189.618z" id="aE"/><path d="M0 176.522c3.066.237 6.164.357 9.29.357 66.178 0 119.827-53.9 119.827-120.385 0-20.417-5.06-39.647-13.989-56.494H0v176.522z" id="aG"/><path d="M0 160.598c63.386-3.475 113.713-55.94 113.713-120.15 0-14.19-2.458-27.807-6.973-40.448H0v160.598z" id="aI"/><path d="M0 143.827C54.9 133.114 96.392 83.82 96.392 24.631c0-8.439-.843-16.677-2.45-24.631H0v143.827z" id="aK"/><path d="M0 121.961C47.853 105.887 82.282 61.103 82.282 8.375c0-2.816-.098-5.608-.291-8.375H0v121.961z" id="aM"/><path d="M0 99.744C37 80.87 62.965 43.571 65.698 0H0v99.744z" id="aO"/><path d="M.018 75.194c24.21-17.808 41.66-44.42 47.73-75.173H.017v75.173z" id="aQ"/><path d="M.169 44.581C11.659 32 20.624 16.85 26.207.032H.17v44.55z" id="aS"/><path d="M.21 8.017A142.383 142.383 0 0 0 4.42.083H.21v7.934z" id="aU"/></defs><g transform="rotate(90 118 84.5)" fill="none" fill-rule="evenodd" opacity=".674"><mask id="b" fill="#fff"><use xlink:href="#a"/></mask><g opacity=".08" mask="url(#b)"><g transform="rotate(90 156 119)"><mask id="d" fill="#fff"><use xlink:href="#c"/></mask><path fill="#223B98" mask="url(#d)" d="M-206.266 106.255V98.67l365.038-368.15 1.882-1.895 3.76 3.79z"/></g><g transform="rotate(90 157 118)"><mask id="f" fill="#fff"><use xlink:href="#e"/></mask><path fill="#223B98" mask="url(#f)" d="M-204.788 121.823v-7.526L175.59-266.975l1.88-1.884 3.755 3.764z"/></g><g transform="rotate(90 157 118)"><mask id="h" fill="#fff"><use xlink:href="#g"/></mask><path fill="#223B98" mask="url(#h)" d="M-206.256 138.993V131.4l399.313-400.73 1.893-1.9 3.782 3.797z"/></g><g transform="rotate(90 157 118)"><mask id="j" fill="#fff"><use xlink:href="#i"/></mask><path fill="#223B98" mask="url(#j)" d="M-206.094 154.21v-7.555l415.1-414.696 1.892-1.89 3.778 3.778z"/></g><g transform="rotate(90 157 118)"><mask id="l" fill="#fff"><use xlink:href="#k"/></mask><path fill="#223B98" mask="url(#l)" d="M-206.487 170.489v-7.575l431.712-431.827 1.892-1.892 3.786 3.784z"/></g><g transform="rotate(90 157 118)"><mask id="n" fill="#fff"><use xlink:href="#m"/></mask><path fill="#223B98" mask="url(#n)" d="M-206.01 186.408v-7.567l447.124-447.598 1.89-1.891 3.778 3.782z"/></g><g transform="rotate(90 157 118)"><mask id="p" fill="#fff"><use xlink:href="#o"/></mask><path fill="#223B98" mask="url(#p)" d="M-206.01 202.816v-7.582L257.15-269.15l1.888-1.897 3.781 3.79z"/></g><g transform="rotate(90 157 118)"><mask id="r" fill="#fff"><use xlink:href="#q"/></mask><path fill="#223B98" mask="url(#r)" d="M-206.01 217.948v-7.543l479.194-478.154 1.89-1.885 3.78 3.773z"/></g><g transform="rotate(90 157 118)"><mask id="t" fill="#fff"><use xlink:href="#s"/></mask><path fill="#223B98" mask="url(#t)" d="M-206.01 233.294v-7.526l495.23-492.872 1.89-1.88 3.78 3.76z"/></g><g transform="rotate(90 157 118)"><mask id="v" fill="#fff"><use xlink:href="#u"/></mask><path fill="#223B98" mask="url(#v)" d="M-206.01 250.542v-7.567l511.267-511.77 1.889-1.892 3.778 3.785z"/></g><g transform="rotate(90 157 118)"><mask id="x" fill="#fff"><use xlink:href="#w"/></mask><path fill="#223B98" mask="url(#x)" d="M-206.01 266.595v-7.57l527.302-527.82 1.891-1.892 3.779 3.782z"/></g><g transform="rotate(90 157 118)"><mask id="z" fill="#fff"><use xlink:href="#y"/></mask><path fill="#223B98" mask="url(#z)" d="M-206.01 282.646v-7.57l543.34-543.872 1.888-1.89 3.781 3.781z"/></g><g transform="rotate(90 157 118)"><mask id="B" fill="#fff"><use xlink:href="#A"/></mask><path fill="#223B98" mask="url(#B)" d="M-206.01 298.699v-7.567l559.374-559.928 1.892-1.89 3.778 3.786z"/></g><g transform="rotate(90 157 118)"><mask id="D" fill="#fff"><use xlink:href="#C"/></mask><path fill="#223B98" mask="url(#D)" d="M-206.01 314.75v-7.57L369.4-268.796l1.894-1.89 3.778 3.781z"/></g><g transform="rotate(90 157 118)"><mask id="F" fill="#fff"><use xlink:href="#E"/></mask><path fill="#223B98" mask="url(#F)" d="M-206.01 330.8v-7.569l591.447-592.027 1.892-1.89 3.778 3.781z"/></g><g transform="rotate(90 157 118)"><mask id="H" fill="#fff"><use xlink:href="#G"/></mask><path fill="#223B98" mask="url(#H)" d="M-206.01 346.854v-7.567l607.482-608.083 1.892-1.89 3.78 3.784z"/></g><g transform="rotate(90 157 118)"><mask id="J" fill="#fff"><use xlink:href="#I"/></mask><path fill="#223B98" mask="url(#J)" d="M-206.01 362.907v-7.57l623.52-624.133 1.889-1.89 3.78 3.781z"/></g><g transform="rotate(90 157 118)"><mask id="L" fill="#fff"><use xlink:href="#K"/></mask><path fill="#223B98" mask="url(#L)" d="M-206.01 378.958v-7.57l639.557-640.184 1.89-1.89 3.778 3.784z"/></g><g transform="rotate(90 157 118)"><mask id="N" fill="#fff"><use xlink:href="#M"/></mask><path fill="#223B98" mask="url(#N)" d="M-206.01 395.008v-7.566l655.592-656.238 1.892-1.89 3.78 3.781z"/></g><g transform="rotate(90 157 118)"><mask id="P" fill="#fff"><use xlink:href="#O"/></mask><path fill="#223B98" mask="url(#P)" d="M-206.01 411.062v-7.57l671.627-672.288 1.892-1.89 3.78 3.781z"/></g><g transform="rotate(90 157 118)"><mask id="R" fill="#fff"><use xlink:href="#Q"/></mask><path fill="#223B98" mask="url(#R)" d="M-206.01 419.546l687.665-688.342 1.891-1.89 2.47 2.477v2.616L-206.01 427.115z"/></g><g transform="rotate(90 157 118)"><mask id="T" fill="#fff"><use xlink:href="#S"/></mask><path fill="#223B98" mask="url(#T)" d="M-206.01 440.966v-5.094l692.027-692.705v7.564l-689.554 690.235z"/></g><g transform="rotate(90 157 118)"><mask id="V" fill="#fff"><use xlink:href="#U"/></mask><path fill="#223B98" mask="url(#V)" d="M-191.345 440.901l-1.89-1.891 679.187-679.857v7.569l-673.519 674.179z"/></g><g transform="rotate(90 157 118)"><mask id="X" fill="#fff"><use xlink:href="#W"/></mask><path fill="#223B98" mask="url(#X)" d="M-175.373 440.836l-1.892-1.891 663.157-663.807v7.57l-657.487 658.128z"/></g><g transform="rotate(90 157 118)"><mask id="Z" fill="#fff"><use xlink:href="#Y"/></mask><path fill="#223B98" mask="url(#Z)" d="M-159.403 440.768l-1.892-1.891 647.117-647.753v7.566l-641.447 642.078z"/></g><g transform="rotate(90 157 118)"><mask id="ab" fill="#fff"><use xlink:href="#aa"/></mask><path fill="#223B98" mask="url(#ab)" d="M-143.436 440.703l-1.89-1.891 631.083-631.703v7.57l-625.415 626.024z"/></g><g transform="rotate(90 157 118)"><mask id="ad" fill="#fff"><use xlink:href="#ac"/></mask><path fill="#223B98" mask="url(#ad)" d="M-127.464 440.637l-1.891-1.89 615.044-615.653v7.57l-609.374 609.973z"/></g><g transform="rotate(90 157 118)"><mask id="af" fill="#fff"><use xlink:href="#ae"/></mask><path fill="#223B98" mask="url(#af)" d="M-111.494 440.567l-1.892-1.891 599.01-599.596v7.564l-593.34 593.923z"/></g><g transform="rotate(90 157 118)"><mask id="ah" fill="#fff"><use xlink:href="#ag"/></mask><path fill="#223B98" mask="url(#ah)" d="M-94.992 441.037l-1.891-1.891 582.976-583.548v7.57L-91.213 441.036z"/></g><g transform="rotate(90 157 118)"><mask id="aj" fill="#fff"><use xlink:href="#ai"/></mask><path fill="#223B98" mask="url(#aj)" d="M-79.022 440.972l-1.892-1.891 566.937-567.497v7.569L-75.243 440.972z"/></g><g transform="rotate(90 157 118)"><mask id="al" fill="#fff"><use xlink:href="#ak"/></mask><path fill="#223B98" mask="url(#al)" d="M-63.057 440.904l-1.887-1.891 550.902-551.444v7.57L-59.276 440.903z"/></g><g transform="rotate(90 157 118)"><mask id="an" fill="#fff"><use xlink:href="#am"/></mask><path fill="#223B98" mask="url(#an)" d="M-47.082 440.839l-1.892-1.891L485.89-96.445v7.569L-43.304 440.839z"/></g><g transform="rotate(90 157 118)"><mask id="ap" fill="#fff"><use xlink:href="#ao"/></mask><path fill="#223B98" mask="url(#ap)" d="M-31.115 440.77l-1.89-1.89L485.823-80.46v7.567L-27.334 440.77z"/></g><g transform="rotate(90 157 118)"><mask id="ar" fill="#fff"><use xlink:href="#aq"/></mask><path fill="#223B98" mask="url(#ar)" d="M-15.145 440.703l-1.89-1.891L485.758-64.475v7.567l-497.124 497.61z"/></g><g transform="rotate(90 157 118)"><mask id="at" fill="#fff"><use xlink:href="#as"/></mask><path fill="#223B98" mask="url(#at)" d="M.827 440.638l-1.892-1.891L485.695-48.49v7.57L4.604 440.637z"/></g><g transform="rotate(90 149.5 125.5)"><mask id="av" fill="#fff"><use xlink:href="#au"/></mask><path fill="#223B98" mask="url(#av)" d="M1.891 440.57L0 438.679 470.598-32.504v7.57L5.668 440.57z"/></g><g transform="rotate(90 141 134)"><mask id="ax" fill="#fff"><use xlink:href="#aw"/></mask><path fill="#223B98" mask="url(#ax)" d="M1.879 441.037L0 439.147 452.763-15.986v7.566L5.643 441.037z"/></g><g transform="rotate(90 133.5 141.5)"><mask id="az" fill="#fff"><use xlink:href="#ay"/></mask><path fill="#223B98" mask="url(#az)" d="M1.89 440.97L0 439.078 438.976 0v7.567L5.674 440.97z"/></g><g transform="rotate(90 118.5 141.5)"><mask id="aB" fill="#fff"><use xlink:href="#aA"/></mask><path fill="#223B98" mask="url(#aB)" d="M1.898 426.083L0 424.187 424.514 0v7.59L5.696 426.083z"/></g><g transform="rotate(90 101.5 141.5)"><mask id="aD" fill="#fff"><use xlink:href="#aC"/></mask><path fill="#223B98" mask="url(#aD)" d="M1.9 406.375l-1.9-1.88L408.929 0v7.523L5.7 406.375z"/></g><g transform="rotate(90 85.5 141.5)"><mask id="aF" fill="#fff"><use xlink:href="#aE"/></mask><path fill="#223B98" mask="url(#aF)" d="M1.887 391.007L0 389.125 389.59 0v7.534L5.655 391.007z"/></g><g transform="rotate(90 69 142)"><mask id="aH" fill="#fff"><use xlink:href="#aG"/></mask><path fill="#223B98" mask="url(#aH)" d="M1.882 376.245L0 374.357 372.63 0v7.556L5.643 376.246z"/></g><g transform="rotate(90 54 142)"><mask id="aJ" fill="#fff"><use xlink:href="#aI"/></mask><path fill="#223B98" mask="url(#aJ)" d="M1.886 360.062L0 358.175 358.42 0v7.553L5.668 360.063z"/></g><g transform="rotate(90 36 142)"><mask id="aL" fill="#fff"><use xlink:href="#aK"/></mask><path fill="#223B98" mask="url(#aL)" d="M1.864 346.961L0 345.058 337.872 0v7.617L5.595 346.961z"/></g><g transform="rotate(90 22 141)"><mask id="aN" fill="#fff"><use xlink:href="#aM"/></mask><path fill="#223B98" mask="url(#aN)" d="M1.904 326.942L0 325.06 328.897 0v7.53L5.714 326.943z"/></g><g transform="rotate(90 6 142)"><mask id="aP" fill="#fff"><use xlink:href="#aO"/></mask><path fill="#223B98" mask="url(#aP)" d="M1.898 312.583L0 310.693 311.858 0v7.57L5.695 312.583z"/></g><g transform="rotate(90 22.5 173.5)"><mask id="aR" fill="#fff"><use xlink:href="#aQ"/></mask><path fill="#223B98" mask="url(#aR)" d="M1.928 302.008l-1.91-1.926L297.257.022V7.73L5.744 302.008z"/></g><g transform="rotate(90 6.5 174.5)"><mask id="aT" fill="#fff"><use xlink:href="#aS"/></mask><path fill="#223B98" mask="url(#aT)" d="M2.003 285.674L.17 283.748 270.033.032V7.74L5.667 285.674z"/></g><g transform="rotate(90 -10 175)"><mask id="aV" fill="#fff"><use xlink:href="#aU"/></mask><path fill="#223B98" mask="url(#aV)" d="M2.268 306.8L.21 304.606 286.01.083V8.86L6.385 306.8z"/></g></g></g></svg>