<svg width="281" height="309" viewBox="0 0 281 309" xmlns="http://www.w3.org/2000/svg" xmlns:xlink="http://www.w3.org/1999/xlink"><title>Pattern</title><defs><path d="M160.58 0C92.522 1.314 33.125 38.164 0 92.85h160.58V0z" id="a"/><path d="M197.963 1.248A188.636 188.636 0 0 0 176.263 0C96.904 0 28.85 49.547 0 120.074h197.963V1.248z" id="c"/><path d="M233.439 5.97C218.269 2.073 202.38 0 186.014 0 96.648 0 21.527 61.773 0 145.46h233.439V5.97z" id="e"/><path d="M263.04 14.394C240.597 5.116 216.016 0 190.248 0 92.186 0 11.331 74.094 0 169.658h263.04V14.394z" id="g"/><path d="M.017 193.7A194.47 194.47 0 0 1 0 191.124C0 85.57 85.82 0 191.686 0c35.953 0 69.595 9.87 98.35 27.04V193.7H.016z" id="i"/><path d="M2.052 221.76A196.137 196.137 0 0 1 0 193.4C0 86.589 86.077 0 192.262 0c47.367 0 90.735 17.23 124.245 45.801v175.96H2.052z" id="k"/><path d="M7.628 246.458C2.662 229.358 0 211.278 0 192.573 0 86.22 86.09 0 192.292 0c60.582 0 114.621 28.056 149.869 71.902v174.556H7.628z" id="m"/><path d="M17.145 272.994C6.133 248.67 0 221.656 0 193.204 0 86.501 86.263 0 192.677 0c78.293 0 145.68 46.824 175.829 114.068v158.277l-.292.649H17.144z" id="o"/><path d="M31.187 298.696C11.464 268.363 0 232.12 0 193.19 0 86.494 86.115 0 192.347 0c106.231 0 192.35 86.494 192.35 193.19 0 38.93-11.464 75.173-31.188 105.506H31.187z" id="q"/><path d="M51.184 325.098C19.417 290.568 0 244.36 0 193.59 0 86.674 86.115 0 192.347 0c106.231 0 192.35 86.674 192.35 193.59 0 50.77-19.417 96.978-51.185 131.508H51.184z" id="s"/><path d="M80.166 348.952C31.616 314.001 0 256.96 0 192.53 0 86.2 86.115 0 192.347 0c106.231 0 192.35 86.2 192.35 192.53 0 64.43-31.617 121.47-80.168 156.422H80.166z" id="u"/><path d="M129.595 373.787C54.175 347.799 0 276.275 0 192.116 0 86.014 86.115 0 192.347 0c106.231 0 192.35 86.014 192.35 192.116 0 84.16-54.177 155.683-129.597 181.67H129.595z" id="w"/><path d="M0 192.767c0 106.466 86.115 192.78 192.347 192.78 106.231 0 192.35-86.314 192.35-192.78C384.698 86.305 298.579 0 192.348 0 86.115 0 0 86.305 0 192.767z" id="y"/><path d="M0 192.767c0 106.466 86.115 192.78 192.347 192.78 106.231 0 192.35-86.314 192.35-192.78C384.698 86.305 298.579 0 192.348 0 86.115 0 0 86.305 0 192.767z" id="A"/><path d="M0 192.767c0 106.466 86.115 192.78 192.347 192.78 106.231 0 192.35-86.314 192.35-192.78C384.698 86.305 298.579 0 192.348 0 86.115 0 0 86.305 0 192.767z" id="C"/><path d="M0 192.767c0 106.466 86.115 192.78 192.347 192.78 106.231 0 192.35-86.314 192.35-192.78C384.698 86.305 298.579 0 192.348 0 86.115 0 0 86.305 0 192.767z" id="E"/><path d="M0 192.767c0 106.466 86.115 192.78 192.347 192.78 106.231 0 192.35-86.314 192.35-192.78C384.698 86.305 298.579 0 192.348 0 86.115 0 0 86.305 0 192.767z" id="G"/><path d="M0 192.767c0 106.466 86.115 192.78 192.347 192.78 106.231 0 192.35-86.314 192.35-192.78C384.698 86.305 298.579 0 192.348 0 86.115 0 0 86.305 0 192.767z" id="I"/><path d="M0 192.767c0 106.466 86.115 192.78 192.347 192.78 106.231 0 192.35-86.314 192.35-192.78C384.698 86.305 298.579 0 192.348 0 86.115 0 0 86.305 0 192.767z" id="K"/><path d="M0 192.767c0 106.466 86.115 192.78 192.347 192.78 106.231 0 192.35-86.314 192.35-192.78C384.698 86.305 298.579 0 192.348 0 86.115 0 0 86.305 0 192.767z" id="M"/><path d="M0 192.767c0 106.466 86.115 192.78 192.347 192.78 106.231 0 192.35-86.314 192.35-192.78C384.698 86.305 298.579 0 192.348 0 86.115 0 0 86.305 0 192.767z" id="O"/><path d="M0 192.767c0 106.466 86.115 192.78 192.347 192.78 106.231 0 192.35-86.314 192.35-192.78C384.698 86.305 298.579 0 192.348 0 86.115 0 0 86.305 0 192.767z" id="Q"/><path d="M0 192.767c0 106.466 86.115 192.78 192.347 192.78 106.231 0 192.35-86.314 192.35-192.78C384.698 86.305 298.579 0 192.348 0 86.115 0 0 86.305 0 192.767z" id="S"/><path d="M0 192.767c0 106.466 86.115 192.78 192.347 192.78 106.231 0 192.35-86.314 192.35-192.78C384.698 86.305 298.579 0 192.348 0 86.115 0 0 86.305 0 192.767z" id="U"/><path d="M0 192.767c0 106.466 86.115 192.78 192.347 192.78 106.231 0 192.35-86.314 192.35-192.78C384.698 86.305 298.579 0 192.348 0 86.115 0 0 86.305 0 192.767z" id="W"/><path d="M0 192.767c0 106.466 86.115 192.78 192.347 192.78 106.231 0 192.35-86.314 192.35-192.78C384.698 86.305 298.579 0 192.348 0 86.115 0 0 86.305 0 192.767z" id="Y"/><path d="M0 192.767c0 106.466 86.115 192.78 192.347 192.78 106.231 0 192.35-86.314 192.35-192.78C384.698 86.305 298.579 0 192.348 0 86.115 0 0 86.305 0 192.767z" id="aa"/><path d="M0 192.767c0 106.466 86.115 192.78 192.347 192.78 106.231 0 192.35-86.314 192.35-192.78C384.698 86.305 298.579 0 192.348 0 86.115 0 0 86.305 0 192.767z" id="ac"/><path d="M0 192.767c0 106.466 86.115 192.78 192.347 192.78 106.231 0 192.35-86.314 192.35-192.78C384.698 86.305 298.579 0 192.348 0 86.115 0 0 86.305 0 192.767z" id="ae"/><path d="M0 192.767c0 106.466 86.115 192.78 192.347 192.78 106.231 0 192.35-86.314 192.35-192.78C384.698 86.305 298.579 0 192.348 0 86.115 0 0 86.305 0 192.767z" id="ag"/><path d="M0 192.767c0 106.466 86.115 192.78 192.347 192.78 106.231 0 192.35-86.314 192.35-192.78C384.698 86.305 298.579 0 192.348 0 86.115 0 0 86.305 0 192.767z" id="ai"/><path d="M0 192.767c0 106.466 86.115 192.78 192.347 192.78 106.231 0 192.35-86.314 192.35-192.78C384.698 86.305 298.579 0 192.348 0 86.115 0 0 86.305 0 192.767z" id="ak"/><path d="M0 192.767c0 106.466 86.115 192.78 192.347 192.78 106.231 0 192.35-86.314 192.35-192.78C384.698 86.305 298.579 0 192.348 0 86.115 0 0 86.305 0 192.767z" id="am"/><path d="M0 192.767c0 106.466 86.115 192.78 192.347 192.78 106.231 0 192.35-86.314 192.35-192.78C384.698 86.305 298.579 0 192.348 0 86.115 0 0 86.305 0 192.767z" id="ao"/><path d="M0 192.767c0 106.466 86.115 192.78 192.347 192.78 106.231 0 192.35-86.314 192.35-192.78C384.698 86.305 298.579 0 192.348 0 86.115 0 0 86.305 0 192.767z" id="aq"/><path d="M0 192.767c0 106.466 86.115 192.78 192.347 192.78 106.231 0 192.35-86.314 192.35-192.78C384.698 86.305 298.579 0 192.348 0 86.115 0 0 86.305 0 192.767z" id="as"/><path d="M0 192.767c0 106.466 86.115 192.78 192.347 192.78 106.231 0 192.35-86.314 192.35-192.78C384.698 86.305 298.579 0 192.348 0 86.115 0 0 86.305 0 192.767z" id="au"/><path d="M0 192.767c0 106.466 86.115 192.78 192.347 192.78 106.231 0 192.35-86.314 192.35-192.78C384.698 86.305 298.579 0 192.348 0 86.115 0 0 86.305 0 192.767z" id="aw"/><path d="M0 285.643c32.735 59.553 95.974 99.904 168.619 99.904 106.247 0 192.38-86.314 192.38-192.78C360.998 86.305 274.865 0 168.618 0 95.974 0 32.735 40.347 0 99.897v185.746z" id="ay"/><path d="M0 321.726c35.049 39.184 85.833 63.821 142.333 63.821 105.754 0 191.487-86.314 191.487-192.78C333.82 86.305 248.087 0 142.333 0 85.833 0 35.049 24.634 0 63.815v257.911z" id="aA"/><path d="M0 345.512c32.506 25.103 73.25 40.035 117.475 40.035 106.332 0 192.532-86.314 192.532-192.78C310.007 86.305 223.807 0 117.475 0 73.25 0 32.506 14.93 0 40.032v305.48z" id="aC"/><path d="M0 338.04c27.375 14.909 58.753 23.379 92.106 23.379 106.642 0 193.095-86.592 193.095-193.4C285.2 96.078 245.977 33.31 187.779 0H0v338.04z" id="aE"/><path d="M0 321.684c20.709 7.54 43.078 11.654 66.413 11.654 106.675 0 193.153-85.99 193.153-192.057 0-55.88-24.005-106.187-62.32-141.281H0v321.684z" id="aG"/><path d="M0 304.174a193.563 193.563 0 0 0 40.591 4.28c106.4 0 192.654-86.183 192.654-192.489 0-43.546-14.474-83.714-38.878-115.965H0v304.174z" id="aI"/><path d="M0 283.034c4.913.379 9.879.572 14.889.572 106.056 0 192.034-86.423 192.034-193.023 0-32.738-8.11-63.571-22.42-90.583H0v283.034z" id="aK"/><path d="M0 257.356c101.497-5.569 182.084-89.645 182.084-192.538 0-22.74-3.936-44.561-11.165-64.818H0v257.356z" id="aM"/><path d="M0 229.939c87.593-17.127 153.795-95.935 153.795-190.56 0-13.493-1.346-26.663-3.908-39.379H0v229.939z" id="aO"/><path d="M0 194.43c76.644-25.625 131.79-97.02 131.79-181.08 0-4.487-.157-8.94-.467-13.35H0v194.43z" id="aQ"/><path d="M0 160.343C58.954 130 100.325 70.043 104.68 0H0v160.343z" id="aS"/></defs><g opacity=".674"><g opacity=".08" fill="none" fill-rule="evenodd"><g transform="matrix(1 0 0 -1 28.908 386)"><mask id="b" fill="#fff"><use xlink:href="#a"/></mask><path fill="#223B98" mask="url(#b)" d="M-357.1 92.905v-12.13l509.004-511.467 3.016-3.035 6.032 6.065z"/></g><g transform="matrix(1 0 0 -1 15.304 386)"><mask id="d" fill="#fff"><use xlink:href="#c"/></mask><path fill="#223B98" mask="url(#d)" d="M-342.646 120.325v-12.276l531.151-543.82 2.997-3.069 6 6.14z"/></g><g transform="matrix(1 0 0 -1 7.652 386)"><mask id="f" fill="#fff"><use xlink:href="#e"/></mask><path fill="#223B98" mask="url(#f)" d="M-335.845 145.446v-12.22l560.08-567.307 3.015-3.055 6.03 6.109z"/></g><g transform="matrix(1 0 0 -1 2.55 386)"><mask id="h" fill="#fff"><use xlink:href="#g"/></mask><path fill="#223B98" mask="url(#h)" d="M-329.893 169.49v-12.102l583.827-587.24 3.01-3.023 6.012 6.047z"/></g><g transform="matrix(1 0 0 -1 0 386)"><mask id="j" fill="#fff"><use xlink:href="#i"/></mask><path fill="#223B98" mask="url(#j)" d="M-328.192 194.21v-11.997L281.4-425.612l3.01-3.003 6.02 6.001z"/></g><g transform="matrix(1 0 0 -1 0 386)"><mask id="l" fill="#fff"><use xlink:href="#k"/></mask><path fill="#223B98" mask="url(#l)" d="M-329.043 222.265v-12.14l637.03-640.814 3.02-3.038 6.032 6.072z"/></g><g transform="matrix(1 0 0 -1 0 386)"><mask id="n" fill="#fff"><use xlink:href="#m"/></mask><path fill="#223B98" mask="url(#n)" d="M-329.043 246.813V234.72l662.734-663.718 3.02-3.025 6.034 6.046z"/></g><g transform="matrix(1 0 0 -1 0 386)"><mask id="p" fill="#fff"><use xlink:href="#o"/></mask><path fill="#223B98" mask="url(#p)" d="M-329.893 273.058v-12.132L359.83-430.696l3.022-3.031 6.05 6.062z"/></g><g transform="matrix(1 0 0 -1 0 386)"><mask id="r" fill="#fff"><use xlink:href="#q"/></mask><path fill="#223B98" mask="url(#r)" d="M-329.043 298.728v-12.127l714.154-717.297 3.017-3.031 6.035 6.061z"/></g><g transform="matrix(1 0 0 -1 0 386)"><mask id="t" fill="#fff"><use xlink:href="#s"/></mask><path fill="#223B98" mask="url(#t)" d="M-329.043 325.182v-12.156l739.765-744.564 3.018-3.041 6.039 6.078z"/></g><g transform="matrix(1 0 0 -1 0 386)"><mask id="v" fill="#fff"><use xlink:href="#u"/></mask><path fill="#223B98" mask="url(#v)" d="M-329.043 349.21v-12.086l765.377-766.127 3.017-3.02 6.04 6.045z"/></g><g transform="matrix(1 0 0 -1 0 386)"><mask id="x" fill="#fff"><use xlink:href="#w"/></mask><path fill="#223B98" mask="url(#x)" d="M-329.043 373.96v-12.063l790.988-790.054 3.022-3.014 6.034 6.028z"/></g><g transform="matrix(1 0 0 -1 0 386)"><mask id="z" fill="#fff"><use xlink:href="#y"/></mask><path fill="#223B98" mask="url(#z)" d="M-329.043 400.66v-12.101l816.603-818.41 3.018-3.024 6.035 6.052z"/></g><g transform="matrix(1 0 0 -1 0 386)"><mask id="B" fill="#fff"><use xlink:href="#A"/></mask><path fill="#223B98" mask="url(#B)" d="M-329.043 426.331v-12.104l842.215-844.078 3.021-3.024 6.035 6.048z"/></g><g transform="matrix(1 0 0 -1 0 386)"><mask id="D" fill="#fff"><use xlink:href="#C"/></mask><path fill="#223B98" mask="url(#D)" d="M-329.043 452v-12.105l867.83-869.746 3.018-3.024 6.039 6.048z"/></g><g transform="matrix(1 0 0 -1 0 386)"><mask id="F" fill="#fff"><use xlink:href="#E"/></mask><path fill="#223B98" mask="url(#F)" d="M-329.043 477.671v-12.1L564.4-429.851l3.021-3.024 6.035 6.056z"/></g><g transform="matrix(1 0 0 -1 0 386)"><mask id="H" fill="#fff"><use xlink:href="#G"/></mask><path fill="#223B98" mask="url(#H)" d="M-329.043 503.34v-12.105L590.01-429.851l3.026-3.024 6.034 6.048z"/></g><g transform="matrix(1 0 0 -1 0 386)"><mask id="J" fill="#fff"><use xlink:href="#I"/></mask><path fill="#223B98" mask="url(#J)" d="M-329.043 529.007v-12.105L615.625-429.85l3.022-3.024 6.035 6.048z"/></g><g transform="matrix(1 0 0 -1 0 386)"><mask id="L" fill="#fff"><use xlink:href="#K"/></mask><path fill="#223B98" mask="url(#L)" d="M-329.043 554.679v-12.1l970.28-972.43 3.021-3.024 6.04 6.052z"/></g><g transform="matrix(1 0 0 -1 0 386)"><mask id="N" fill="#fff"><use xlink:href="#M"/></mask><path fill="#223B98" mask="url(#N)" d="M-329.043 580.351v-12.105L666.852-429.85l3.018-3.024 6.039 6.048z"/></g><g transform="matrix(1 0 0 -1 0 386)"><mask id="P" fill="#fff"><use xlink:href="#O"/></mask><path fill="#223B98" mask="url(#P)" d="M-329.043 606.019v-12.105L692.467-429.85l3.018-3.024 6.035 6.052z"/></g><g transform="matrix(1 0 0 -1 0 386)"><mask id="R" fill="#fff"><use xlink:href="#Q"/></mask><path fill="#223B98" mask="url(#R)" d="M-329.043 631.687v-12.1L718.08-429.852l3.022-3.024 6.038 6.048z"/></g><g transform="matrix(1 0 0 -1 0 386)"><mask id="T" fill="#fff"><use xlink:href="#S"/></mask><path fill="#223B98" mask="url(#T)" d="M-329.043 657.359v-12.105L743.69-429.85l3.022-3.024 6.039 6.048z"/></g><g transform="matrix(1 0 0 -1 0 386)"><mask id="V" fill="#fff"><use xlink:href="#U"/></mask><path fill="#223B98" mask="url(#V)" d="M-329.043 670.926L769.306-429.85l3.021-3.024 3.946 3.962v4.184L-329.043 683.031z"/></g><g transform="matrix(1 0 0 -1 0 386)"><mask id="X" fill="#fff"><use xlink:href="#W"/></mask><path fill="#223B98" mask="url(#X)" d="M-329.043 705.182v-8.147L776.273-410.72v12.096L-325.093 705.182z"/></g><g transform="matrix(1 0 0 -1 0 386)"><mask id="Z" fill="#fff"><use xlink:href="#Y"/></mask><path fill="#223B98" mask="url(#Z)" d="M-305.62 705.077l-3.017-3.024L776.17-385.157v12.105L-299.585 705.078z"/></g><g transform="matrix(1 0 0 -1 0 386)"><mask id="ab" fill="#fff"><use xlink:href="#aa"/></mask><path fill="#223B98" mask="url(#ab)" d="M-280.108 704.973l-3.022-3.024L776.074-359.593v12.104L-274.073 704.973z"/></g><g transform="matrix(1 0 0 -1 0 386)"><mask id="ad" fill="#fff"><use xlink:href="#ac"/></mask><path fill="#223B98" mask="url(#ad)" d="M-254.601 704.864l-3.022-3.024L775.962-334.03v12.1L-248.566 704.865z"/></g><g transform="matrix(1 0 0 -1 0 386)"><mask id="af" fill="#fff"><use xlink:href="#ae"/></mask><path fill="#223B98" mask="url(#af)" d="M-229.098 704.76l-3.017-3.024L775.857-308.466v12.104L-223.063 704.76z"/></g><g transform="matrix(1 0 0 -1 0 386)"><mask id="ah" fill="#fff"><use xlink:href="#ag"/></mask><path fill="#223B98" mask="url(#ah)" d="M-203.587 704.656l-3.021-3.025 982.357-984.534v12.105l-973.3 975.454z"/></g><g transform="matrix(1 0 0 -1 0 386)"><mask id="aj" fill="#fff"><use xlink:href="#ai"/></mask><path fill="#223B98" mask="url(#aj)" d="M-178.08 704.543l-3.021-3.024L775.645-257.34v12.096l-947.69 949.786z"/></g><g transform="matrix(1 0 0 -1 0 386)"><mask id="al" fill="#fff"><use xlink:href="#ak"/></mask><path fill="#223B98" mask="url(#al)" d="M-151.722 705.295l-3.022-3.024 931.14-933.195v12.105l-922.083 924.114z"/></g><g transform="matrix(1 0 0 -1 0 386)"><mask id="an" fill="#fff"><use xlink:href="#am"/></mask><path fill="#223B98" mask="url(#an)" d="M-126.215 705.19l-3.021-3.024L776.283-205.36v12.105L-120.18 705.19z"/></g><g transform="matrix(1 0 0 -1 0 386)"><mask id="ap" fill="#fff"><use xlink:href="#ao"/></mask><path fill="#223B98" mask="url(#ap)" d="M-100.716 705.082l-3.013-3.024 879.908-881.855v12.105L-94.677 705.082z"/></g><g transform="matrix(1 0 0 -1 0 386)"><mask id="ar" fill="#fff"><use xlink:href="#aq"/></mask><path fill="#223B98" mask="url(#ar)" d="M-75.2 704.977l-3.022-3.024L776.07-154.233v12.105L-69.166 704.977z"/></g><g transform="matrix(1 0 0 -1 0 386)"><mask id="at" fill="#fff"><use xlink:href="#as"/></mask><path fill="#223B98" mask="url(#at)" d="M-49.697 704.869l-3.018-3.024L775.962-128.67v12.1l-819.62 821.44z"/></g><g transform="matrix(1 0 0 -1 0 386)"><mask id="av" fill="#fff"><use xlink:href="#au"/></mask><path fill="#223B98" mask="url(#av)" d="M-24.19 704.76l-3.018-3.024 803.066-804.842v12.1L-18.155 704.76z"/></g><g transform="matrix(1 0 0 -1 0 386)"><mask id="ax" fill="#fff"><use xlink:href="#aw"/></mask><path fill="#223B98" mask="url(#ax)" d="M1.321 704.656l-3.021-3.024L775.758-77.543v12.105L7.356 704.656z"/></g><g transform="matrix(1 0 0 -1 23.807 386)"><mask id="az" fill="#fff"><use xlink:href="#ay"/></mask><path fill="#223B98" mask="url(#az)" d="M3.022 704.548L0 701.523 751.955-51.979v12.104L9.058 704.548z"/></g><g transform="matrix(1 0 0 -1 51.014 386)"><mask id="aB" fill="#fff"><use xlink:href="#aA"/></mask><path fill="#223B98" mask="url(#aB)" d="M3 705.295l-3-3.024L722.965-25.563v12.1L9.012 705.295z"/></g><g transform="matrix(1 0 0 -1 74.821 386)"><mask id="aD" fill="#fff"><use xlink:href="#aC"/></mask><path fill="#223B98" mask="url(#aD)" d="M3.02 705.187L0 702.163 701.27 0v12.1L9.064 705.187z"/></g><g transform="matrix(1 0 0 -1 99.478 362.14)"><mask id="aF" fill="#fff"><use xlink:href="#aE"/></mask><path fill="#223B98" mask="url(#aF)" d="M3.03 681.705L0 678.67 677.611 0v12.143L9.091 681.705z"/></g><g transform="matrix(1 0 0 -1 125.835 334.02)"><mask id="aH" fill="#fff"><use xlink:href="#aG"/></mask><path fill="#223B98" mask="url(#aH)" d="M3.03 651.402L0 648.389 652.093 0v12.06L9.09 651.401z"/></g><g transform="matrix(1 0 0 -1 152.193 308.457)"><mask id="aJ" fill="#fff"><use xlink:href="#aI"/></mask><path fill="#223B98" mask="url(#aJ)" d="M3.026 627.233L0 624.213 624.762 0v12.086L9.071 627.233z"/></g><g transform="matrix(1 0 0 -1 178.55 283.746)"><mask id="aL" fill="#fff"><use xlink:href="#aK"/></mask><path fill="#223B98" mask="url(#aL)" d="M3.017 603.268L0 600.24 597.177 0v12.116L9.041 603.268z"/></g><g transform="matrix(1 0 0 -1 203.207 259.035)"><mask id="aN" fill="#fff"><use xlink:href="#aM"/></mask><path fill="#223B98" mask="url(#aN)" d="M3.02 576.994L0 573.97 573.925 0v12.104L9.075 576.994z"/></g><g transform="matrix(1 0 0 -1 231.265 230.915)"><mask id="aP" fill="#fff"><use xlink:href="#aO"/></mask><path fill="#223B98" mask="url(#aP)" d="M2.974 554.693L0 551.65 539.081 0v12.178L8.926 554.693z"/></g><g transform="matrix(1 0 0 -1 253.371 207.056)"><mask id="aR" fill="#fff"><use xlink:href="#aQ"/></mask><path fill="#223B98" mask="url(#aR)" d="M3.05 521.21L0 518.212 526.787 0v12.006L9.151 521.21z"/></g><g transform="matrix(1 0 0 -1 280.579 182.344)"><mask id="aT" fill="#fff"><use xlink:href="#aS"/></mask><path fill="#223B98" mask="url(#aT)" d="M3.025 502.49L0 499.45 496.898 0v12.169L9.074 502.489z"/></g></g></g></svg>