<svg width="39px" height="39px" viewBox="0 0 39 39" version="1.1" xmlns="http://www.w3.org/2000/svg" xmlns:xlink="http://www.w3.org/1999/xlink">
    <!-- Generator: Sketch 48.2 (47327) - http://www.bohemiancoding.com/sketch -->
    <desc>Created with Sketch.</desc>
    <defs></defs>
    <g id="maybe-final-accent-frame" stroke="none" stroke-width="1" fill="none" fill-rule="evenodd">
        <g id="04_programs1hover" transform="translate(-25.000000, -516.000000)" fill="#FFFFFF">
            <g id="Group-2" transform="translate(25.000000, 516.000000)">
                <g id="see-more-/-active-blue">
                    <path d="M19.5,39 C8.73044738,39 0,30.2695526 0,19.5 C0,8.73044738 8.73044738,0 19.5,0 C30.2695526,0 39,8.73044738 39,19.5 C39,30.2695526 30.2695526,39 19.5,39 Z M10.5,21 C11.3284271,21 12,20.3284271 12,19.5 C12,18.6715729 11.3284271,18 10.5,18 C9.67157288,18 9,18.6715729 9,19.5 C9,20.3284271 9.67157288,21 10.5,21 Z M19.5,21 C20.3284271,21 21,20.3284271 21,19.5 C21,18.6715729 20.3284271,18 19.5,18 C18.6715729,18 18,18.6715729 18,19.5 C18,20.3284271 18.6715729,21 19.5,21 Z M28.5,21 C29.3284271,21 30,20.3284271 30,19.5 C30,18.6715729 29.3284271,18 28.5,18 C27.6715729,18 27,18.6715729 27,19.5 C27,20.3284271 27.6715729,21 28.5,21 Z" id="Combined-Shape"></path>
                </g>
            </g>
        </g>
    </g>
</svg>
