<?xml version="1.0" encoding="UTF-8"?>
<svg width="61px" height="59px" viewBox="0 0 61 59" version="1.1" xmlns="http://www.w3.org/2000/svg" xmlns:xlink="http://www.w3.org/1999/xlink">
    <!-- Generator: Sketch 48.2 (47327) - http://www.bohemiancoding.com/sketch -->
    <title>“</title>
    <desc>Created with Sketch.</desc>
    <defs></defs>
    <g id="01_HOME" stroke="none" stroke-width="1" fill="none" fill-rule="evenodd" transform="translate(-1019.000000, -658.000000)" opacity="0.111240672">
        <g id="Group-3" transform="translate(-5.000000, 0.000000)" fill="#FFFFFF">
            <g id="Quote" transform="translate(1024.000000, 658.000000)">
                <g id="Group-13">
                    <g id="Group">
                        <path d="M41.0210773,27.7053571 C41.0210773,20.1100811 42.8774209,14.0253205 46.5901639,9.45089286 C50.3029069,4.87646522 55.0569578,1.72619911 60.852459,0 L60.852459,9.58035714 C58.679146,10.9613164 56.596419,12.860107 54.6042155,15.2767857 C52.6120119,17.6934645 51.6159251,21.4910455 51.6159251,26.6696429 L51.6159251,35.4732143 L60.852459,35.4732143 L60.852459,58.2589286 L41.0210773,58.2589286 L41.0210773,27.7053571 Z M0,27.7053571 C0,20.1100811 1.85634365,14.0253205 5.56908665,9.45089286 C9.28182965,4.87646522 14.0358805,1.72619911 19.8313817,0 L19.8313817,9.58035714 C17.6580688,10.9613164 15.5753417,12.860107 13.5831382,15.2767857 C11.5909346,17.6934645 10.5948478,21.4910455 10.5948478,26.6696429 L10.5948478,35.4732143 L19.8313817,35.4732143 L19.8313817,58.2589286 L0,58.2589286 L0,27.7053571 Z" id="“"></path>
                    </g>
                </g>
            </g>
        </g>
    </g>
</svg>