<?xml version="1.0" encoding="UTF-8"?>
<svg width="120px" height="14px" viewBox="0 0 120 14" version="1.1" xmlns="http://www.w3.org/2000/svg" xmlns:xlink="http://www.w3.org/1999/xlink">
    <!-- Generator: Sketch 55.2 (78181) - https://sketchapp.com -->
    <title>Logo/Facebook/Dark</title>
    <desc>Created with Sketch.</desc>
    <g id="Logo/Facebook/Dark" stroke="none" stroke-width="1" fill="none" fill-rule="evenodd">
        <g id="Group-18" fill="#67788A">
            <g id="Group-17">
                <path d="M10.3645,0.4658 L10.3645,2.1218 C10.3645,2.2298 10.2925,2.3018 10.1845,2.3018 L3.0915,2.3018 L3.0915,5.6848 L8.9455,5.6848 C9.0535,5.6848 9.1255,5.7568 9.1255,5.8648 L9.1255,7.5208 C9.1255,7.6288 9.0535,7.7008 8.9455,7.7008 L3.0915,7.7008 L3.0915,12.7038 C3.0915,12.8118 3.0195,12.8838 2.9125,12.8838 L1.1345,12.8838 C1.0265,12.8838 0.9545,12.8118 0.9545,12.7038 L0.9545,0.4658 C0.9545,0.3578 1.0265,0.2858 1.1345,0.2858 L10.1845,0.2858 C10.2925,0.2858 10.3645,0.3578 10.3645,0.4658" id="Fill-1"></path>
                <path d="M24.838,12.8838 L22.881,12.8838 C22.773,12.8838 22.701,12.8298 22.674,12.7218 C22.414,11.6868 22.1,10.5978 21.74,9.4998 L15.733,9.4998 C15.374,10.5978 15.06,11.6868 14.809,12.7218 C14.782,12.8298 14.71,12.8838 14.602,12.8838 L12.717,12.8838 C12.591,12.8838 12.519,12.8118 12.555,12.6858 C13.686,8.6728 15.41,4.2448 17.152,0.5198 C17.233,0.3488 17.332,0.2858 17.502,0.2858 L20.052,0.2858 C20.223,0.2858 20.322,0.3488 20.403,0.5198 C22.162,4.2358 23.859,8.6728 25,12.6858 C25.036,12.8118 24.964,12.8838 24.838,12.8838 L24.838,12.8838 Z M21.076,7.5568 C20.421,5.7388 19.693,3.9208 18.948,2.2658 L18.526,2.2658 C17.781,3.9208 17.044,5.7388 16.389,7.5568 L21.076,7.5568 Z" id="Fill-3"></path>
                <path d="M28.052,6.6928 C28.052,2.7878 30.62,0.0518 34.283,0.0518 L34.553,0.0518 C36.851,0.0518 38.629,1.2218 39.572,2.9138 C39.635,3.0218 39.617,3.1118 39.509,3.1658 L37.929,3.9478 C37.821,4.0018 37.686,4.0018 37.614,3.8668 C36.95,2.7158 35.953,2.1038 34.481,2.1038 L34.211,2.1038 C31.904,2.1038 30.315,3.9388 30.315,6.6028 C30.315,9.2758 31.877,11.0658 34.211,11.0658 L34.481,11.0658 C35.989,11.0658 36.869,10.5528 37.543,9.7698 C37.632,9.6708 37.731,9.6538 37.839,9.7068 L39.464,10.4988 C39.527,10.5348 39.554,10.5798 39.554,10.6248 C39.554,10.6698 39.536,10.7058 39.5,10.7598 C38.503,12.2178 36.708,13.1178 34.517,13.1178 L34.247,13.1178 C30.521,13.1178 28.052,10.5528 28.052,6.6928" id="Fill-5"></path>
                <path d="M53.8747,11.0481 L53.8747,12.7041 C53.8747,12.8121 53.8027,12.8841 53.6947,12.8841 L44.2677,12.8841 C44.1597,12.8841 44.0877,12.8121 44.0877,12.7041 L44.0877,0.4661 C44.0877,0.3581 44.1597,0.2861 44.2677,0.2861 L53.5337,0.2861 C53.6417,0.2861 53.7127,0.3581 53.7127,0.4661 L53.7127,2.1211 C53.7127,2.2291 53.6417,2.3011 53.5337,2.3011 L46.2247,2.3011 L46.2247,5.5771 L52.1687,5.5771 C52.2767,5.5771 52.3487,5.6491 52.3487,5.7571 L52.3487,7.3951 C52.3487,7.5031 52.2767,7.5751 52.1687,7.5751 L46.2247,7.5751 L46.2247,10.8681 L53.6947,10.8681 C53.8027,10.8681 53.8747,10.9401 53.8747,11.0481" id="Fill-7"></path>
                <path d="M70.1079,9.4284 C70.1079,11.6334 68.4199,12.8834 65.4389,12.8834 L59.2619,12.8834 C59.1539,12.8834 59.0819,12.8124 59.0819,12.7044 L59.0819,0.4654 C59.0819,0.3574 59.1539,0.2854 59.2619,0.2854 L64.8909,0.2854 C67.7909,0.2854 69.3719,1.4374 69.3719,3.5434 C69.3719,4.9294 68.6709,5.8384 67.2529,6.2604 C69.2459,6.6834 70.1079,7.8804 70.1079,9.4284 M64.8459,2.2474 L61.2189,2.2474 L61.2189,5.6314 L64.8459,5.6314 C66.4719,5.6314 67.2169,5.1004 67.2169,3.9394 C67.2169,2.7784 66.4719,2.2474 64.8459,2.2474 M67.9169,9.2394 C67.9169,8.0694 67.1449,7.5384 65.4479,7.5384 L61.2189,7.5384 L61.2189,10.9224 L65.4479,10.9224 C67.1719,10.9224 67.9169,10.4184 67.9169,9.2394" id="Fill-9"></path>
                <path d="M73.8696,6.5849 C73.8696,2.7879 76.3836,0.0519 80.3346,0.0519 L80.6036,0.0519 C84.5546,0.0519 87.0686,2.7879 87.0686,6.5849 C87.0686,10.3819 84.5546,13.1179 80.6036,13.1179 L80.3346,13.1179 C76.3836,13.1179 73.8696,10.3819 73.8696,6.5849 L73.8696,6.5849 Z M80.6036,11.0659 C83.1806,11.0659 84.8056,9.2939 84.8056,6.5849 C84.8056,3.8759 83.1806,2.1039 80.6036,2.1039 L80.3346,2.1039 C77.7576,2.1039 76.1326,3.8759 76.1326,6.5849 C76.1326,9.2939 77.7576,11.0659 80.3346,11.0659 L80.6036,11.0659 Z" id="Fill-11"></path>
                <path d="M90.7134,6.5849 C90.7134,2.7879 93.2274,0.0519 97.1784,0.0519 L97.4474,0.0519 C101.3984,0.0519 103.9124,2.7879 103.9124,6.5849 C103.9124,10.3819 101.3984,13.1179 97.4474,13.1179 L97.1784,13.1179 C93.2274,13.1179 90.7134,10.3819 90.7134,6.5849 L90.7134,6.5849 Z M97.4474,11.0659 C100.0244,11.0659 101.6494,9.2939 101.6494,6.5849 C101.6494,3.8759 100.0244,2.1039 97.4474,2.1039 L97.1784,2.1039 C94.6014,2.1039 92.9764,3.8759 92.9764,6.5849 C92.9764,9.2939 94.6014,11.0659 97.1784,11.0659 L97.4474,11.0659 Z" id="Fill-13"></path>
                <path d="M119.4001,12.8838 L117.0831,12.8838 C116.9311,12.8838 116.8681,12.8478 116.7691,12.7308 C115.1441,10.8138 113.2231,8.9068 111.5881,7.5028 L110.5471,7.5028 L110.5471,12.7038 C110.5471,12.8118 110.4751,12.8838 110.3671,12.8838 L108.5891,12.8838 C108.4821,12.8838 108.4101,12.8118 108.4101,12.7038 L108.4101,0.4658 C108.4101,0.3578 108.4821,0.2858 108.5891,0.2858 L110.3671,0.2858 C110.4751,0.2858 110.5471,0.3578 110.5471,0.4658 L110.5471,5.4328 L111.6061,5.4328 C113.3571,3.8488 114.9731,2.1398 116.2931,0.4208 C116.3831,0.3038 116.4551,0.2858 116.5631,0.2858 L118.7541,0.2858 C118.8611,0.2858 118.9151,0.3398 118.9151,0.4118 C118.9151,0.4478 118.8971,0.4928 118.8521,0.5468 C116.9221,2.9318 115.0091,4.8838 113.2411,6.3958 C115.4671,8.2858 117.5771,10.3908 119.4991,12.6588 C119.5971,12.7758 119.5441,12.8838 119.4001,12.8838" id="Fill-15"></path>
            </g>
        </g>
    </g>
</svg>