<?xml version="1.0" encoding="UTF-8"?>
<svg width="89px" height="89px" viewBox="0 0 89 89" version="1.1" xmlns="http://www.w3.org/2000/svg" xmlns:xlink="http://www.w3.org/1999/xlink">
    <!-- Generator: Sketch 48.2 (47327) - http://www.bohemiancoding.com/sketch -->
    <title>Group</title>
    <desc>Created with Sketch.</desc>
    <defs></defs>
    <g id="Page-1" stroke="none" stroke-width="1" fill="none" fill-rule="evenodd">
        <g id="Group" transform="translate(-11.000000, -11.000000)" stroke="#EEEEEE" stroke-width="2">
            <ellipse id="Oval" transform="translate(48.101763, 48.051674) rotate(-45.000000) translate(-48.101763, -48.051674) " cx="48.1017634" cy="48.0516745" rx="45" ry="22.5"></ellipse>
            <ellipse id="Oval" transform="translate(55.601763, 55.551674) rotate(-45.000000) translate(-55.601763, -55.551674) " cx="55.6017634" cy="55.5516745" rx="45" ry="22.5"></ellipse>
            <ellipse id="Oval" transform="translate(63.101763, 63.051674) rotate(-45.000000) translate(-63.101763, -63.051674) " cx="63.1017634" cy="63.0516745" rx="45" ry="22.5"></ellipse>
            <ellipse id="Oval" transform="translate(62.898237, 48.051674) scale(-1, 1) rotate(-45.000000) translate(-62.898237, -48.051674) " cx="62.8982366" cy="48.0516745" rx="45" ry="22.5"></ellipse>
            <ellipse id="Oval" transform="translate(55.398237, 55.551674) scale(-1, 1) rotate(-45.000000) translate(-55.398237, -55.551674) " cx="55.3982366" cy="55.5516745" rx="45" ry="22.5"></ellipse>
            <ellipse id="Oval" transform="translate(47.898237, 63.051674) scale(-1, 1) rotate(-45.000000) translate(-47.898237, -63.051674) " cx="47.8982366" cy="63.0516745" rx="45" ry="22.5"></ellipse>
        </g>
    </g>
</svg>