<?xml version="1.0" encoding="UTF-8"?>
<svg width="101px" height="101px" viewBox="0 0 101 101" version="1.1" xmlns="http://www.w3.org/2000/svg" xmlns:xlink="http://www.w3.org/1999/xlink">
    <!-- Generator: Sketch 48.2 (47327) - http://www.bohemiancoding.com/sketch -->
    <title>Combined Shape</title>
    <desc>Created with Sketch.</desc>
    <defs></defs>
    <g id="Page-1" stroke="none" stroke-width="1" fill="none" fill-rule="evenodd">
        <path d="M33.5623558,37.648168 L28.4085902,32.8197625 C26.6583356,33.9051781 24.6074239,34.55962 22.3900768,34.55962 C16.1004351,34.55962 11,29.5103088 11,23.2771496 C11,17.0439905 16.1004351,12 22.3900768,12 C28.6797186,12 33.7721003,17.0466508 33.7721003,23.2771496 C33.7721003,25.2431354 33.2191058,27.0654632 32.3251874,28.6749644 L37.9048258,33.9008458 C40.8296333,32.0629422 44.2906849,31 48,31 C50.6903009,31 53.2500066,31.5591443 55.5692458,32.5675614 L63.9450331,18.6779223 C61.9544508,16.6937164 60.7228108,13.9748111 60.7228108,10.9661652 C60.7228108,4.90489482 65.7018926,0 71.8548402,0 C78.0182921,0 83,4.90748179 83,10.9661652 C83,17.0274355 78.0182921,21.9375043 71.8548402,21.9375043 C70.7860183,21.9375043 69.7670923,21.7383076 68.7849316,21.4615018 L60.3036537,35.5212372 C64.0958398,38.7468889 66.6047385,43.4359167 66.9572466,48.7152177 L79.4226134,49.8744839 C80.9976627,45.8711808 85.0601855,43 89.856329,43 C96.0145351,43 101,47.7018993 101,53.5012386 C101,59.3030553 96.0145351,64 89.856329,64 C84.2950113,64 79.7118545,60.1552436 78.8730553,55.1412056 L66.5787598,53.9974154 C65.2737005,60.0921906 61.045588,65.1029149 55.4329424,67.4910684 L57.8206532,78.6271933 C63.4711637,78.8069158 68.0074193,83.7254974 67.9999909,89.8017033 C67.9999909,95.9889142 63.3052635,101 57.5061857,101 C51.6947274,101 47,95.9915572 47,89.8017033 C47,85.4777916 49.3151741,81.7749798 52.6703194,79.9011086 L50.2999042,68.862215 C49.5459825,68.9531841 48.7784584,69 48,69 C41.7902945,69 36.2763616,66.0210433 32.8093256,61.4142541 L21.9123845,65.111238 C21.933125,65.3634079 21.987569,65.5998173 21.987569,65.8572407 C21.987569,72.0170169 17.0590973,77 10.9898956,77 C4.91550887,77 0,72.0170169 0,65.8572407 C0,59.7053449 4.91550887,54.7223618 10.9898956,54.7223618 C14.8398591,54.7223618 18.2231603,56.7397213 20.1883268,59.7815212 L30.1098173,56.4138978 C29.3913871,54.4102413 29,52.2508273 29,50 C29,45.284198 30.7180401,40.9696659 33.5623558,37.648168 Z" id="Combined-Shape" fill="#EEEEEE" fill-rule="nonzero"></path>
    </g>
</svg>