<svg width="138" height="118" viewBox="0 0 138 118" xmlns="http://www.w3.org/2000/svg"><title>Group</title><path d="M30.92 2.397c.755-.006 1.254.035 1.268.036l19.57 2.198c4.642.428 5.195 7.588-.47 8.138l-12.442 1.597 23.783 13.76a4.006 4.006 0 0 1 1.475 5.467 3.998 3.998 0 0 1-5.466 1.472l-2.212-1.278 4.827 2.793a4.021 4.021 0 0 1 1.467 5.487 4.003 4.003 0 0 1-5.475 1.47l-2.623-1.518a4.02 4.02 0 0 1 1.467 5.486 4.003 4.003 0 0 1-5.475 1.47L44.3 45.322a4.017 4.017 0 0 1 1.465 5.482 4 4 0 0 1-5.469 1.468L28.694 45.56l.007-.01C9.665 34.554 11.366 36.663 9.046 29.253c-1.87-5.265-11.018-4.9-8.66-10.321l7.74-13.435c-.35.298-.688.703-.999 1.246l2.664-4.652C10.725.46 11.912.067 12.917.115c.878-.043 1.658.283 2.08.504 1.989 1.168 1.256.742 2.5 1.462 2.236 1.268 3.56 1.78 4.799 1.838 1.208-.034 2.417-.483 4.42-1.056h.001c1.567-.431 3.24-.482 4.203-.466zm45.532 41.38a3.967 3.967 0 0 1 1.391-5.573l1.273-.73a3.998 3.998 0 0 1-4.064-2.107l.008-.005a3.967 3.967 0 0 1 1.396-5.565l5.007-2.867a3.99 3.99 0 0 1-4.102-2.104l.006-.003a3.963 3.963 0 0 1 1.404-5.544l11.628-6.66.006.011c19.062-10.935 16.382-10.517 23.964-8.838.016.003 2.213.414 4.386-.833l3.942-2.26c2.642-1.513 4.206-.245 4.951.756l9.724 16.706c.485.833.652 1.562.625 2.189.067 1.642-1.187 2.637-1.804 3.026-2.042 1.156-1.238.697-2.514 1.43-4.637 2.718-4.41 3.634-5.497 7.92-.884 3.344-1.81 4.106-13.838 20.347-2.115 2.979-6.557 1.713-7.219-1.469-.271-.928-.211-2.039.353-3.268l4.753-11.272a2.093 2.093 0 0 1-.377.277L87.97 51.068c-1.846.673-4-.077-4.94-1.957l.023-.014a3.955 3.955 0 0 1 .249-4.462l-1.316.756c-1.947 1.12-4.478.434-5.549-1.605l.016-.01zM47.365 75.909c.214.128.424.28.63.455l-.062.054c.195.203.383.43.564.683l7.589 9.952v-27.39a3.984 3.984 0 0 1 3.98-3.995 3.994 3.994 0 0 1 3.999 3.988l.001 2.547v-5.56a4 4 0 0 1 4.002-3.997 4 4 0 0 1 4 3.998v3.022a4 4 0 0 1 4.002-3.998c2.21 0 4 1.79 4 3.998v7.27a3.996 3.996 0 0 1 4-3.993 3.995 3.995 0 0 1 3.996 3.993v13.362h-.013l.013 16.84c.007 7.19-5.725 6.662-5.721 12.444l.002 4.53c0 3.036-1.882 3.748-3.124 3.888H59.851c-4.288 0-3.71-3.806-3.71-6.394h.001c-.023-2.664-.265-4.886-1.594-6.201 0 0-2.52-2.495-2.541-2.514v-.001c-1.756-1.737-2.881-4.12-2.894-4.148l-7.872-17.997c-1.74-3.773 2.785-7.4 6.124-4.836z" fill="#F2F2F2" fill-rule="evenodd"/></svg>