<svg width="336" height="327" viewBox="0 0 336 327" xmlns="http://www.w3.org/2000/svg" xmlns:xlink="http://www.w3.org/1999/xlink"><title>Pattern</title><defs><path d="M232.831 1.465A222.347 222.347 0 0 0 207.311 0C113.972 0 33.93 58.146 0 140.913h232.831V1.465z" id="a"/><path d="M274.557 7.007C256.715 2.43 238.027 0 218.779 0 113.67 0 25.319 72.493 0 170.705h274.557V7.007z" id="c"/><path d="M309.372 16.892C282.975 6.004 254.065 0 223.758 0 108.423 0 13.327 86.953 0 199.102h309.372V16.892z" id="e"/><path d="M.02 227.316c-.013-1.006-.02-2.013-.02-3.022C0 100.42 100.935 0 225.449 0c42.287 0 81.854 11.582 115.673 31.732v195.584H.02z" id="g"/><path d="M2.414 260.247A229.678 229.678 0 0 1 0 226.964C0 101.616 101.239 0 226.126 0c55.712 0 106.718 20.221 146.13 53.75v206.497H2.414z" id="i"/><path d="M8.972 289.23C3.132 269.164 0 247.944 0 225.994 0 101.182 101.255 0 226.162 0c71.253 0 134.81 32.926 176.266 84.38v204.85H8.972z" id="k"/><path d="M20.164 320.372C7.213 291.828 0 260.124 0 226.735 0 101.513 101.458 0 226.615 0c92.084 0 171.34 54.95 206.8 133.864V319.61l-.345.762H20.164z" id="m"/><path d="M36.68 350.534C13.485 314.937 0 272.404 0 226.717 0 101.505 101.284 0 226.227 0s226.231 101.505 226.231 226.717c0 45.688-13.484 88.22-36.682 123.817H36.681z" id="o"/><path d="M60.2 381.518C22.836 340.995 0 286.77 0 227.188 0 101.716 101.284 0 226.227 0s226.231 101.716 226.231 227.188c0 59.581-22.838 113.807-60.202 154.33H60.2z" id="q"/><path d="M94.286 409.512C37.185 368.495 0 301.555 0 225.944 0 101.159 101.284 0 226.227 0s226.231 101.159 226.231 225.944c0 75.611-37.186 142.551-94.29 183.568H94.287z" id="s"/><path d="M152.421 438.657C63.718 408.159 0 324.222 0 225.457 0 100.941 101.284 0 226.227 0s226.231 100.941 226.231 225.457c0 98.765-63.721 182.702-152.425 213.2H152.42z" id="u"/><path d="M0 226.222c0 124.943 101.284 226.236 226.227 226.236s226.231-101.293 226.231-226.236C452.458 101.284 351.17 0 226.227 0S0 101.284 0 226.222z" id="w"/><path d="M0 226.222c0 124.943 101.284 226.236 226.227 226.236s226.231-101.293 226.231-226.236C452.458 101.284 351.17 0 226.227 0S0 101.284 0 226.222z" id="y"/><path d="M0 226.222c0 124.943 101.284 226.236 226.227 226.236s226.231-101.293 226.231-226.236C452.458 101.284 351.17 0 226.227 0S0 101.284 0 226.222z" id="A"/><path d="M0 226.222c0 124.943 101.284 226.236 226.227 226.236s226.231-101.293 226.231-226.236C452.458 101.284 351.17 0 226.227 0S0 101.284 0 226.222z" id="C"/><path d="M0 226.222c0 124.943 101.284 226.236 226.227 226.236s226.231-101.293 226.231-226.236C452.458 101.284 351.17 0 226.227 0S0 101.284 0 226.222z" id="E"/><path d="M0 226.222c0 124.943 101.284 226.236 226.227 226.236s226.231-101.293 226.231-226.236C452.458 101.284 351.17 0 226.227 0S0 101.284 0 226.222z" id="G"/><path d="M0 226.222c0 124.943 101.284 226.236 226.227 226.236s226.231-101.293 226.231-226.236C452.458 101.284 351.17 0 226.227 0S0 101.284 0 226.222z" id="I"/><path d="M0 226.222c0 124.943 101.284 226.236 226.227 226.236s226.231-101.293 226.231-226.236C452.458 101.284 351.17 0 226.227 0S0 101.284 0 226.222z" id="K"/><path d="M0 226.222c0 124.943 101.284 226.236 226.227 226.236s226.231-101.293 226.231-226.236C452.458 101.284 351.17 0 226.227 0S0 101.284 0 226.222z" id="M"/><path d="M0 226.222c0 124.943 101.284 226.236 226.227 226.236s226.231-101.293 226.231-226.236C452.458 101.284 351.17 0 226.227 0S0 101.284 0 226.222z" id="O"/><path d="M0 226.222c0 124.943 101.284 226.236 226.227 226.236s226.231-101.293 226.231-226.236C452.458 101.284 351.17 0 226.227 0S0 101.284 0 226.222z" id="Q"/><path d="M0 226.222c0 124.943 101.284 226.236 226.227 226.236s226.231-101.293 226.231-226.236C452.458 101.284 351.17 0 226.227 0S0 101.284 0 226.222z" id="S"/><path d="M0 226.222c0 124.943 101.284 226.236 226.227 226.236s226.231-101.293 226.231-226.236C452.458 101.284 351.17 0 226.227 0S0 101.284 0 226.222z" id="U"/><path d="M0 226.222c0 124.943 101.284 226.236 226.227 226.236s226.231-101.293 226.231-226.236C452.458 101.284 351.17 0 226.227 0S0 101.284 0 226.222z" id="W"/><path d="M0 226.222c0 124.943 101.284 226.236 226.227 226.236s226.231-101.293 226.231-226.236C452.458 101.284 351.17 0 226.227 0S0 101.284 0 226.222z" id="Y"/><path d="M0 226.222c0 124.943 101.284 226.236 226.227 226.236s226.231-101.293 226.231-226.236C452.458 101.284 351.17 0 226.227 0S0 101.284 0 226.222z" id="aa"/><path d="M0 226.222c0 124.943 101.284 226.236 226.227 226.236s226.231-101.293 226.231-226.236C452.458 101.284 351.17 0 226.227 0S0 101.284 0 226.222z" id="ac"/><path d="M0 226.222c0 124.943 101.284 226.236 226.227 226.236s226.231-101.293 226.231-226.236C452.458 101.284 351.17 0 226.227 0S0 101.284 0 226.222z" id="ae"/><path d="M0 226.222c0 124.943 101.284 226.236 226.227 226.236s226.231-101.293 226.231-226.236C452.458 101.284 351.17 0 226.227 0S0 101.284 0 226.222z" id="ag"/><path d="M0 226.222c0 124.943 101.284 226.236 226.227 226.236s226.231-101.293 226.231-226.236C452.458 101.284 351.17 0 226.227 0S0 101.284 0 226.222z" id="ai"/><path d="M0 226.222c0 124.943 101.284 226.236 226.227 226.236s226.231-101.293 226.231-226.236C452.458 101.284 351.17 0 226.227 0S0 101.284 0 226.222z" id="ak"/><path d="M0 226.222c0 124.943 101.284 226.236 226.227 226.236s226.231-101.293 226.231-226.236C452.458 101.284 351.17 0 226.227 0S0 101.284 0 226.222z" id="am"/><path d="M0 226.222c0 124.943 101.284 226.236 226.227 226.236s226.231-101.293 226.231-226.236C452.458 101.284 351.17 0 226.227 0S0 101.284 0 226.222z" id="ao"/><path d="M0 226.222c0 124.943 101.284 226.236 226.227 226.236s226.231-101.293 226.231-226.236C452.458 101.284 351.17 0 226.227 0S0 101.284 0 226.222z" id="aq"/><path d="M0 226.222c0 124.943 101.284 226.236 226.227 226.236s226.231-101.293 226.231-226.236C452.458 101.284 351.17 0 226.227 0S0 101.284 0 226.222z" id="as"/><path d="M0 226.222c0 124.943 101.284 226.236 226.227 226.236s226.231-101.293 226.231-226.236C452.458 101.284 351.17 0 226.227 0S0 101.284 0 226.222z" id="au"/><path d="M0 335.216c38.5 69.889 112.879 117.242 198.319 117.242 124.962 0 226.265-101.293 226.265-226.236C424.584 101.284 323.281 0 198.32 0 112.879 0 38.5 47.349 0 117.234v217.982z" id="aw"/><path d="M0 377.562c41.222 45.984 100.951 74.896 167.403 74.896 124.382 0 225.215-101.293 225.215-226.236C392.618 101.284 291.785 0 167.403 0 100.951 0 41.223 28.91 0 74.89v302.672z" id="ay"/><path d="M0 405.475c38.232 29.46 86.151 46.983 138.167 46.983 125.06 0 226.444-101.293 226.444-226.236C364.611 101.284 263.228 0 138.167 0 86.151 0 38.232 17.522 0 46.98v358.495z" id="aA"/><path d="M0 396.705c32.197 17.497 69.102 27.437 108.33 27.437 125.426 0 227.106-101.619 227.106-226.964 0-84.426-46.133-158.086-114.582-197.178H0v396.705z" id="aC"/><path d="M0 377.511c24.356 8.849 50.665 13.678 78.111 13.678 125.464 0 227.175-100.914 227.175-225.389 0-65.578-28.233-124.615-73.298-165.8H0v377.511z" id="aE"/><path d="M0 356.963a228.14 228.14 0 0 0 47.74 5.023c125.141 0 226.59-101.14 226.59-225.895 0-51.103-17.025-98.243-45.727-136.091H0v356.963z" id="aG"/><path d="M0 332.154c5.779.445 11.619.671 17.511.671 124.738 0 225.86-101.421 225.86-226.522 0-38.419-9.539-74.604-26.369-106.303H0v332.154z" id="aI"/><path d="M0 302.02c119.374-6.535 214.157-105.203 214.157-225.953 0-26.687-4.63-52.294-13.132-76.067H0v302.02z" id="aK"/><path d="M0 269.844c103.022-20.1 180.885-112.584 180.885-223.631 0-15.834-1.583-31.29-4.597-46.213H0v269.844z" id="aM"/><path d="M0 228.174C90.144 198.1 155.003 114.316 155.003 15.668c0-5.267-.185-10.492-.549-15.668H0v228.174z" id="aO"/><path d="M0 188.17C69.338 152.563 117.996 82.198 123.118 0H0v188.17z" id="aQ"/></defs><g fill="none" fill-rule="evenodd" opacity=".7"><g transform="translate(18 -126)"><mask id="b" fill="#fff"><use xlink:href="#a"/></mask><path fill="#F5F6F7" mask="url(#b)" d="M-403 141.207V126.8l624.708-638.2 3.525-3.6 7.058 7.206z"/></g><g transform="translate(9 -126)"><mask id="d" fill="#fff"><use xlink:href="#c"/></mask><path fill="#F5F6F7" mask="url(#d)" d="M-395 170.688v-14.342l658.731-665.762 3.547-3.584 7.093 7.169z"/></g><g transform="translate(3 -126)"><mask id="f" fill="#fff"><use xlink:href="#e"/></mask><path fill="#F5F6F7" mask="url(#f)" d="M-388 198.904v-14.202l686.662-689.154 3.54-3.548 7.07 7.096z"/></g><g transform="translate(0 -126)"><mask id="h" fill="#fff"><use xlink:href="#g"/></mask><path fill="#F5F6F7" mask="url(#h)" d="M-386 227.915v-14.08l716.966-713.312 3.542-3.523 7.078 7.042z"/></g><g transform="translate(0 -126)"><mask id="j" fill="#fff"><use xlink:href="#i"/></mask><path fill="#F5F6F7" mask="url(#j)" d="M-387 260.839v-14.247l749.235-752.027 3.552-3.565 7.095 7.126z"/></g><g transform="translate(0 -126)"><mask id="l" fill="#fff"><use xlink:href="#k"/></mask><path fill="#F5F6F7" mask="url(#l)" d="M-387 289.647v-14.191L392.467-503.45l3.552-3.55 7.096 7.096z"/></g><g transform="translate(0 -126)"><mask id="n" fill="#fff"><use xlink:href="#m"/></mask><path fill="#F5F6F7" mask="url(#n)" d="M-388 320.447V306.21l811.208-811.653 3.555-3.557 7.115 7.114z"/></g><g transform="translate(0 -126)"><mask id="p" fill="#fff"><use xlink:href="#o"/></mask><path fill="#F5F6F7" mask="url(#p)" d="M-387 350.572v-14.231l839.944-841.784 3.55-3.557 7.097 7.113z"/></g><g transform="translate(0 -126)"><mask id="r" fill="#fff"><use xlink:href="#q"/></mask><path fill="#F5F6F7" mask="url(#r)" d="M-387 381.617v-14.266L483.067-506.43l3.549-3.569 7.102 7.133z"/></g><g transform="translate(0 -126)"><mask id="t" fill="#fff"><use xlink:href="#s"/></mask><path fill="#F5F6F7" mask="url(#t)" d="M-387 409.814V395.63l900.19-899.086 3.548-3.545 7.103 7.094z"/></g><g transform="translate(0 -126)"><mask id="v" fill="#fff"><use xlink:href="#u"/></mask><path fill="#F5F6F7" mask="url(#v)" d="M-387 438.861v-14.157l930.312-927.167 3.553-3.537 7.098 7.074z"/></g><g transform="translate(0 -126)"><mask id="x" fill="#fff"><use xlink:href="#w"/></mask><path fill="#F5F6F7" mask="url(#x)" d="M-387 470.193v-14.2l960.439-960.444 3.549-3.549 7.098 7.103z"/></g><g transform="translate(0 -126)"><mask id="z" fill="#fff"><use xlink:href="#y"/></mask><path fill="#F5F6F7" mask="url(#z)" d="M-387 500.32v-14.205L603.562-504.45l3.553-3.549 7.098 7.098z"/></g><g transform="translate(0 -126)"><mask id="B" fill="#fff"><use xlink:href="#A"/></mask><path fill="#F5F6F7" mask="url(#B)" d="M-387 530.443v-14.205L633.689-504.452l3.549-3.548 7.102 7.098z"/></g><g transform="translate(0 -126)"><mask id="D" fill="#fff"><use xlink:href="#C"/></mask><path fill="#F5F6F7" mask="url(#D)" d="M-387 560.57v-14.2L663.811-504.451l3.554-3.549 7.098 7.107z"/></g><g transform="translate(0 -126)"><mask id="F" fill="#fff"><use xlink:href="#E"/></mask><path fill="#F5F6F7" mask="url(#F)" d="M-387 590.693v-14.205L693.934-504.452l3.558-3.548 7.098 7.098z"/></g><g transform="translate(0 -126)"><mask id="H" fill="#fff"><use xlink:href="#G"/></mask><path fill="#F5F6F7" mask="url(#H)" d="M-387 620.815V606.61L724.061-504.45l3.554-3.549 7.098 7.098z"/></g><g transform="translate(0 -126)"><mask id="J" fill="#fff"><use xlink:href="#I"/></mask><path fill="#F5F6F7" mask="url(#J)" d="M-387 650.943v-14.2L754.184-504.452l3.554-3.549 7.102 7.103z"/></g><g transform="translate(0 -126)"><mask id="L" fill="#fff"><use xlink:href="#K"/></mask><path fill="#F5F6F7" mask="url(#L)" d="M-387 681.07v-14.205L784.311-504.451 787.86-508l7.103 7.098z"/></g><g transform="translate(0 -126)"><mask id="N" fill="#fff"><use xlink:href="#M"/></mask><path fill="#F5F6F7" mask="url(#N)" d="M-387 711.193v-14.206L814.438-504.45l3.55-3.549 7.097 7.103z"/></g><g transform="translate(0 -126)"><mask id="P" fill="#fff"><use xlink:href="#O"/></mask><path fill="#F5F6F7" mask="url(#P)" d="M-387 741.315v-14.2L844.561-504.451l3.554-3.549 7.102 7.098z"/></g><g transform="translate(0 -126)"><mask id="R" fill="#fff"><use xlink:href="#Q"/></mask><path fill="#F5F6F7" mask="url(#R)" d="M-387 771.442v-14.205L874.683-504.45l3.554-3.549 7.103 7.098z"/></g><g transform="translate(0 -126)"><mask id="T" fill="#fff"><use xlink:href="#S"/></mask><path fill="#F5F6F7" mask="url(#T)" d="M-387 787.365L904.81-504.451l3.555-3.549 4.64 4.65v4.91L-387 801.57z"/></g><g transform="translate(0 -126)"><mask id="V" fill="#fff"><use xlink:href="#U"/></mask><path fill="#F5F6F7" mask="url(#V)" d="M-387 827.565v-9.56L913.005-482v14.196L-382.355 827.565z"/></g><g transform="translate(0 -126)"><mask id="X" fill="#fff"><use xlink:href="#W"/></mask><path fill="#F5F6F7" mask="url(#X)" d="M-359.451 827.442l-3.549-3.548L912.884-452v14.205L-352.353 827.442z"/></g><g transform="translate(0 -126)"><mask id="Z" fill="#fff"><use xlink:href="#Y"/></mask><path fill="#F5F6F7" mask="url(#Z)" d="M-329.446 827.32l-3.554-3.549L912.771-422v14.205L-322.349 827.32z"/></g><g transform="translate(0 -126)"><mask id="ab" fill="#fff"><use xlink:href="#aa"/></mask><path fill="#F5F6F7" mask="url(#ab)" d="M-299.446 827.193l-3.554-3.55L912.639-392v14.2L-292.348 827.193z"/></g><g transform="translate(0 -126)"><mask id="ad" fill="#fff"><use xlink:href="#ac"/></mask><path fill="#F5F6F7" mask="url(#ad)" d="M-269.451 827.07l-3.549-3.549L912.516-362v14.205L-262.354 827.07z"/></g><g transform="translate(0 -126)"><mask id="af" fill="#fff"><use xlink:href="#ae"/></mask><path fill="#F5F6F7" mask="url(#af)" d="M-239.446 826.948l-3.554-3.55L912.39-332v14.205L-232.349 826.948z"/></g><g transform="translate(0 -126)"><mask id="ah" fill="#fff"><use xlink:href="#ag"/></mask><path fill="#F5F6F7" mask="url(#ah)" d="M-209.446 826.815l-3.554-3.548L912.267-302v14.196L-202.348 826.816z"/></g><g transform="translate(0 -126)"><mask id="aj" fill="#fff"><use xlink:href="#ai"/></mask><path fill="#F5F6F7" mask="url(#aj)" d="M-178.446 827.698l-3.554-3.55L913.149-271v14.205L-171.348 827.698z"/></g><g transform="translate(0 -126)"><mask id="al" fill="#fff"><use xlink:href="#ak"/></mask><path fill="#F5F6F7" mask="url(#al)" d="M-148.446 827.575l-3.554-3.549L913.017-241v14.205L-141.348 827.575z"/></g><g transform="translate(0 -126)"><mask id="an" fill="#fff"><use xlink:href="#am"/></mask><path fill="#F5F6F7" mask="url(#an)" d="M-118.456 827.448l-3.544-3.549L912.894-211v14.205L-111.353 827.448z"/></g><g transform="translate(0 -126)"><mask id="ap" fill="#fff"><use xlink:href="#ao"/></mask><path fill="#F5F6F7" mask="url(#ap)" d="M-88.446 827.325L-92 823.776 912.767-181v14.205l-994.115 994.12z"/></g><g transform="translate(0 -126)"><mask id="ar" fill="#fff"><use xlink:href="#aq"/></mask><path fill="#F5F6F7" mask="url(#ar)" d="M-58.451 827.198L-62 823.65 912.64-151v14.2L-51.348 827.198z"/></g><g transform="translate(0 -126)"><mask id="at" fill="#fff"><use xlink:href="#as"/></mask><path fill="#F5F6F7" mask="url(#at)" d="M-28.451 827.07L-32 823.523 912.517-121v14.2l-933.87 933.87z"/></g><g transform="translate(0 -126)"><mask id="av" fill="#fff"><use xlink:href="#au"/></mask><path fill="#F5F6F7" mask="url(#av)" d="M1.554 826.948L-2 823.4 912.4-91v14.205L8.651 826.948z"/></g><g transform="translate(28 -126)"><mask id="ax" fill="#fff"><use xlink:href="#aw"/></mask><path fill="#F5F6F7" mask="url(#ax)" d="M3.554 826.82L0 823.273 884.404-61v14.205L10.654 826.821z"/></g><g transform="translate(60 -126)"><mask id="az" fill="#fff"><use xlink:href="#ay"/></mask><path fill="#F5F6F7" mask="url(#az)" d="M3.528 827.698L0 824.15 850.307-30v14.2L10.6 827.698z"/></g><g transform="translate(88 -126)"><mask id="aB" fill="#fff"><use xlink:href="#aA"/></mask><path fill="#F5F6F7" mask="url(#aB)" d="M3.552 827.571L0 824.022 824.79 0v14.2L10.662 827.571z"/></g><g transform="translate(117 -98)"><mask id="aD" fill="#fff"><use xlink:href="#aC"/></mask><path fill="#F5F6F7" mask="url(#aD)" d="M3.563 800.014L0 796.454 796.965 0v14.251L10.693 800.014z"/></g><g transform="translate(148 -65)"><mask id="aF" fill="#fff"><use xlink:href="#aE"/></mask><path fill="#F5F6F7" mask="url(#aF)" d="M3.564 764.452L0 760.916 766.953 0v14.152L10.69 764.452z"/></g><g transform="translate(179 -35)"><mask id="aH" fill="#fff"><use xlink:href="#aG"/></mask><path fill="#F5F6F7" mask="url(#aH)" d="M3.56 736.088L0 732.545 734.807 0v14.184L10.668 736.088z"/></g><g transform="translate(210 -6)"><mask id="aJ" fill="#fff"><use xlink:href="#aI"/></mask><path fill="#F5F6F7" mask="url(#aJ)" d="M3.548 707.964L0 704.411 702.364 0v14.218L10.634 707.964z"/></g><g transform="translate(239 23)"><mask id="aL" fill="#fff"><use xlink:href="#aK"/></mask><path fill="#F5F6F7" mask="url(#aL)" d="M3.553 677.13L0 673.582 675.015 0v14.204L10.672 677.131z"/></g><g transform="translate(272 56)"><mask id="aN" fill="#fff"><use xlink:href="#aM"/></mask><path fill="#F5F6F7" mask="url(#aN)" d="M3.498 650.96L0 647.388 634.034 0v14.291L10.5 650.96z"/></g><g transform="translate(298 84)"><mask id="aP" fill="#fff"><use xlink:href="#aO"/></mask><path fill="#F5F6F7" mask="url(#aP)" d="M3.586 611.666L0 608.146 619.575 0v14.09L10.763 611.665z"/></g><g transform="translate(330 113)"><mask id="aR" fill="#fff"><use xlink:href="#aQ"/></mask><path fill="#F5F6F7" mask="url(#aR)" d="M3.557 589.696L0 586.13 584.421 0v14.28L10.672 589.697z"/></g></g></svg>