<svg width="297" height="272" viewBox="0 0 297 272" xmlns="http://www.w3.org/2000/svg" xmlns:xlink="http://www.w3.org/1999/xlink"><title>Pattern</title><defs><path id="a" d="M0 0h529v525H0z"/><path d="M154.356 0C88.936 1.263 31.841 36.685 0 89.251h154.356V0z" id="c"/><path d="M190.29 1.2A181.325 181.325 0 0 0 169.43 0C93.148 0 27.731 47.627 0 115.42h190.29V1.2z" id="e"/><path d="M224.39 5.74C209.81 1.991 194.537 0 178.805 0 92.902 0 20.693 59.378 0 139.823h224.39V5.739z" id="g"/><path d="M252.845 13.836C231.27 4.918 207.644 0 182.875 0 88.612 0 10.891 71.223 0 163.082h252.845V13.836z" id="i"/><path d="M.016 186.192c-.01-.824-.016-1.65-.016-2.476C0 82.253 82.493 0 184.256 0c34.56 0 66.898 9.487 94.537 25.991v160.2H.016z" id="k"/><path d="M1.973 213.165c-1.3-8.898-1.973-18-1.973-27.261C0 83.232 82.74 0 184.81 0c45.531 0 87.218 16.563 119.429 44.026v169.14H1.973z" id="m"/><path d="M7.333 236.905C2.559 220.47 0 203.088 0 185.11 0 82.877 82.754 0 184.839 0c58.234 0 110.179 26.969 144.06 69.115v167.79H7.332z" id="o"/><path d="M16.48 262.413C5.895 239.033 0 213.064 0 185.716 0 83.148 82.92 0 185.21 0c75.258 0 140.033 45.01 169.013 109.647v152.142l-.281.624H16.48z" id="q"/><path d="M29.978 287.118C11.02 257.961 0 223.124 0 185.702 0 83.142 82.778 0 184.892 0c102.114 0 184.895 83.142 184.895 185.702 0 37.422-11.02 72.26-29.98 101.416H29.978z" id="s"/><path d="M49.2 312.497C18.664 279.305 0 234.89 0 186.087 0 83.315 82.778 0 184.892 0c102.114 0 184.895 83.315 184.895 186.087 0 48.802-18.665 93.218-49.202 126.41H49.2z" id="u"/><path d="M77.059 335.427C30.39 301.83 0 247 0 185.067 0 82.859 82.778 0 184.892 0c102.114 0 184.895 82.858 184.895 185.068 0 61.933-30.392 116.762-77.061 150.359H77.059z" id="w"/><path d="M124.572 359.299C52.076 334.319 0 265.567 0 184.669 0 82.68 82.778 0 184.892 0c102.114 0 184.895 82.68 184.895 184.67 0 80.897-52.078 149.649-124.575 174.629h-120.64z" id="y"/><path d="M0 185.296c0 102.34 82.778 185.307 184.892 185.307 102.114 0 184.895-82.968 184.895-185.307C369.787 82.96 287.006 0 184.892 0S0 82.96 0 185.296z" id="A"/><path d="M0 185.296c0 102.34 82.778 185.307 184.892 185.307 102.114 0 184.895-82.968 184.895-185.307C369.787 82.96 287.006 0 184.892 0S0 82.96 0 185.296z" id="C"/><path d="M0 185.296c0 102.34 82.778 185.307 184.892 185.307 102.114 0 184.895-82.968 184.895-185.307C369.787 82.96 287.006 0 184.892 0S0 82.96 0 185.296z" id="E"/><path d="M0 185.296c0 102.34 82.778 185.307 184.892 185.307 102.114 0 184.895-82.968 184.895-185.307C369.787 82.96 287.006 0 184.892 0S0 82.96 0 185.296z" id="G"/><path d="M0 185.296c0 102.34 82.778 185.307 184.892 185.307 102.114 0 184.895-82.968 184.895-185.307C369.787 82.96 287.006 0 184.892 0S0 82.96 0 185.296z" id="I"/><path d="M0 185.296c0 102.34 82.778 185.307 184.892 185.307 102.114 0 184.895-82.968 184.895-185.307C369.787 82.96 287.006 0 184.892 0S0 82.96 0 185.296z" id="K"/><path d="M0 185.296c0 102.34 82.778 185.307 184.892 185.307 102.114 0 184.895-82.968 184.895-185.307C369.787 82.96 287.006 0 184.892 0S0 82.96 0 185.296z" id="M"/><path d="M0 185.296c0 102.34 82.778 185.307 184.892 185.307 102.114 0 184.895-82.968 184.895-185.307C369.787 82.96 287.006 0 184.892 0S0 82.96 0 185.296z" id="O"/><path d="M0 185.296c0 102.34 82.778 185.307 184.892 185.307 102.114 0 184.895-82.968 184.895-185.307C369.787 82.96 287.006 0 184.892 0S0 82.96 0 185.296z" id="Q"/><path d="M0 185.296c0 102.34 82.778 185.307 184.892 185.307 102.114 0 184.895-82.968 184.895-185.307C369.787 82.96 287.006 0 184.892 0S0 82.96 0 185.296z" id="S"/><path d="M0 185.296c0 102.34 82.778 185.307 184.892 185.307 102.114 0 184.895-82.968 184.895-185.307C369.787 82.96 287.006 0 184.892 0S0 82.96 0 185.296z" id="U"/><path d="M0 185.296c0 102.34 82.778 185.307 184.892 185.307 102.114 0 184.895-82.968 184.895-185.307C369.787 82.96 287.006 0 184.892 0S0 82.96 0 185.296z" id="W"/><path d="M0 185.296c0 102.34 82.778 185.307 184.892 185.307 102.114 0 184.895-82.968 184.895-185.307C369.787 82.96 287.006 0 184.892 0S0 82.96 0 185.296z" id="Y"/><path d="M0 185.296c0 102.34 82.778 185.307 184.892 185.307 102.114 0 184.895-82.968 184.895-185.307C369.787 82.96 287.006 0 184.892 0S0 82.96 0 185.296z" id="aa"/><path d="M0 185.296c0 102.34 82.778 185.307 184.892 185.307 102.114 0 184.895-82.968 184.895-185.307C369.787 82.96 287.006 0 184.892 0S0 82.96 0 185.296z" id="ac"/><path d="M0 185.296c0 102.34 82.778 185.307 184.892 185.307 102.114 0 184.895-82.968 184.895-185.307C369.787 82.96 287.006 0 184.892 0S0 82.96 0 185.296z" id="ae"/><path d="M0 185.296c0 102.34 82.778 185.307 184.892 185.307 102.114 0 184.895-82.968 184.895-185.307C369.787 82.96 287.006 0 184.892 0S0 82.96 0 185.296z" id="ag"/><path d="M0 185.296c0 102.34 82.778 185.307 184.892 185.307 102.114 0 184.895-82.968 184.895-185.307C369.787 82.96 287.006 0 184.892 0S0 82.96 0 185.296z" id="ai"/><path d="M0 185.296c0 102.34 82.778 185.307 184.892 185.307 102.114 0 184.895-82.968 184.895-185.307C369.787 82.96 287.006 0 184.892 0S0 82.96 0 185.296z" id="ak"/><path d="M0 185.296c0 102.34 82.778 185.307 184.892 185.307 102.114 0 184.895-82.968 184.895-185.307C369.787 82.96 287.006 0 184.892 0S0 82.96 0 185.296z" id="am"/><path d="M0 185.296c0 102.34 82.778 185.307 184.892 185.307 102.114 0 184.895-82.968 184.895-185.307C369.787 82.96 287.006 0 184.892 0S0 82.96 0 185.296z" id="ao"/><path d="M0 185.296c0 102.34 82.778 185.307 184.892 185.307 102.114 0 184.895-82.968 184.895-185.307C369.787 82.96 287.006 0 184.892 0S0 82.96 0 185.296z" id="aq"/><path d="M0 185.296c0 102.34 82.778 185.307 184.892 185.307 102.114 0 184.895-82.968 184.895-185.307C369.787 82.96 287.006 0 184.892 0S0 82.96 0 185.296z" id="as"/><path d="M0 185.296c0 102.34 82.778 185.307 184.892 185.307 102.114 0 184.895-82.968 184.895-185.307C369.787 82.96 287.006 0 184.892 0S0 82.96 0 185.296z" id="au"/><path d="M0 185.296c0 102.34 82.778 185.307 184.892 185.307 102.114 0 184.895-82.968 184.895-185.307C369.787 82.96 287.006 0 184.892 0S0 82.96 0 185.296z" id="aw"/><path d="M0 185.296c0 102.34 82.778 185.307 184.892 185.307 102.114 0 184.895-82.968 184.895-185.307C369.787 82.96 287.006 0 184.892 0S0 82.96 0 185.296z" id="ay"/><path d="M0 274.571c31.466 57.246 92.254 96.032 162.083 96.032 102.13 0 184.923-82.968 184.923-185.307C347.006 82.96 264.212 0 162.083 0 92.254 0 31.466 38.783 0 96.025V274.57z" id="aA"/><path d="M0 309.256c33.69 37.666 82.506 61.347 136.816 61.347 101.655 0 184.065-82.968 184.065-185.307C320.88 82.96 238.47 0 136.816 0 82.506 0 33.69 23.68 0 61.342v247.914z" id="aC"/><path d="M0 332.12c31.246 24.13 70.41 38.483 112.922 38.483 102.21 0 185.069-82.968 185.069-185.307C297.991 82.96 215.131 0 112.922 0 70.41 0 31.246 14.352 0 38.48v293.64z" id="aE"/><path d="M0 324.937c26.314 14.331 56.476 22.473 88.536 22.473 102.509 0 185.61-83.235 185.61-185.904 0-69.152-37.703-129.486-93.645-161.506H0v324.937z" id="aG"/><path d="M0 309.215c19.906 7.248 41.408 11.203 63.839 11.203 102.54 0 185.667-82.657 185.667-184.613C249.506 82.091 226.43 33.735 189.6 0H0v309.215z" id="aI"/><path d="M0 292.384a186.06 186.06 0 0 0 39.018 4.115c102.275 0 185.187-82.843 185.187-185.028C224.205 69.612 210.292 31 186.833 0H0v292.384z" id="aK"/><path d="M0 272.064a186.2 186.2 0 0 0 14.312.55c101.946 0 184.59-83.074 184.59-185.542 0-31.469-7.794-61.107-21.55-87.072H0v272.064z" id="aM"/><path d="M0 247.38c97.563-5.352 175.027-86.169 175.027-185.075 0-21.858-3.784-42.833-10.733-62.305H0v247.38z" id="aO"/><path d="M0 221.026c84.198-16.463 147.834-92.216 147.834-183.174 0-12.969-1.294-25.629-3.756-37.852H0v221.026z" id="aQ"/><path d="M0 186.894c73.674-24.632 126.682-93.259 126.682-174.06 0-4.315-.152-8.594-.449-12.834H0v186.894z" id="aS"/><path d="M0 154.128C56.67 124.962 96.436 67.328 100.622 0H0v154.128z" id="aU"/></defs><g transform="rotate(90 277 20)" fill="none" fill-rule="evenodd"><mask id="b" fill="#fff"><use xlink:href="#a"/></mask><g opacity=".08" mask="url(#b)"><g transform="translate(285.788 -74)"><mask id="d" fill="#fff"><use xlink:href="#c"/></mask><path fill="#223B98" mask="url(#d)" d="M-343.26 89.304v-11.66L146.017-414l2.9-2.917 5.798 5.83z"/></g><g transform="translate(272.711 -74)"><mask id="f" fill="#fff"><use xlink:href="#e"/></mask><path fill="#223B98" mask="url(#f)" d="M-329.366 115.66v-11.8L181.2-418.881l2.88-2.949 5.769 5.902z"/></g><g transform="translate(265.356 -74)"><mask id="h" fill="#fff"><use xlink:href="#g"/></mask><path fill="#223B98" mask="url(#h)" d="M-322.827 139.809v-11.747l538.37-545.319 2.899-2.935 5.797 5.871z"/></g><g transform="translate(260.452 -74)"><mask id="j" fill="#fff"><use xlink:href="#i"/></mask><path fill="#223B98" mask="url(#j)" d="M-317.106 162.92v-11.633L244.092-413.19l2.893-2.906 5.779 5.812z"/></g><g transform="translate(258 -74)"><mask id="l" fill="#fff"><use xlink:href="#k"/></mask><path fill="#223B98" mask="url(#l)" d="M-315.472 186.683V175.15l585.966-584.266 2.894-2.886 5.785 5.769z"/></g><g transform="translate(258 -74)"><mask id="n" fill="#fff"><use xlink:href="#m"/></mask><path fill="#223B98" mask="url(#n)" d="M-316.29 213.65v-11.67l612.34-615.975 2.903-2.92 5.798 5.837z"/></g><g transform="translate(258 -74)"><mask id="p" fill="#fff"><use xlink:href="#o"/></mask><path fill="#223B98" mask="url(#p)" d="M-316.29 237.246v-11.623L320.758-412.37l2.904-2.908 5.799 5.812z"/></g><g transform="translate(258 -74)"><mask id="r" fill="#fff"><use xlink:href="#q"/></mask><path fill="#223B98" mask="url(#r)" d="M-317.106 262.475v-11.662l662.988-664.816 2.905-2.913 5.815 5.827z"/></g><g transform="translate(258 -74)"><mask id="t" fill="#fff"><use xlink:href="#s"/></mask><path fill="#223B98" mask="url(#t)" d="M-316.29 287.15v-11.657l686.474-689.496 2.9-2.913 5.802 5.826z"/></g><g transform="translate(258 -74)"><mask id="v" fill="#fff"><use xlink:href="#u"/></mask><path fill="#223B98" mask="url(#v)" d="M-316.29 312.578v-11.685l711.093-715.705 2.9-2.923 5.805 5.842z"/></g><g transform="translate(258 -74)"><mask id="x" fill="#fff"><use xlink:href="#w"/></mask><path fill="#223B98" mask="url(#x)" d="M-316.29 335.674v-11.617l735.712-736.432 2.9-2.903 5.805 5.81z"/></g><g transform="translate(258 -74)"><mask id="z" fill="#fff"><use xlink:href="#y"/></mask><path fill="#223B98" mask="url(#z)" d="M-316.29 359.466V347.87l760.33-759.432 2.905-2.897 5.8 5.794z"/></g><g transform="translate(258 -74)"><mask id="B" fill="#fff"><use xlink:href="#A"/></mask><path fill="#223B98" mask="url(#B)" d="M-316.29 385.13v-11.632L468.664-413.19l2.9-2.907 5.801 5.818z"/></g><g transform="translate(258 -74)"><mask id="D" fill="#fff"><use xlink:href="#C"/></mask><path fill="#223B98" mask="url(#D)" d="M-316.29 409.807V398.17l809.572-811.36 2.905-2.907 5.8 5.814z"/></g><g transform="translate(258 -74)"><mask id="F" fill="#fff"><use xlink:href="#E"/></mask><path fill="#223B98" mask="url(#F)" d="M-316.29 434.48v-11.636L517.905-413.19l2.9-2.907 5.805 5.814z"/></g><g transform="translate(258 -74)"><mask id="H" fill="#fff"><use xlink:href="#G"/></mask><path fill="#223B98" mask="url(#H)" d="M-316.29 459.157v-11.632L542.524-413.19l2.904-2.907 5.801 5.822z"/></g><g transform="translate(258 -74)"><mask id="J" fill="#fff"><use xlink:href="#I"/></mask><path fill="#223B98" mask="url(#J)" d="M-316.29 483.83v-11.636L567.142-413.19l2.909-2.907 5.8 5.814z"/></g><g transform="translate(258 -74)"><mask id="L" fill="#fff"><use xlink:href="#K"/></mask><path fill="#223B98" mask="url(#L)" d="M-316.29 508.503v-11.636L591.765-413.19l2.904-2.907 5.801 5.814z"/></g><g transform="translate(258 -74)"><mask id="N" fill="#fff"><use xlink:href="#M"/></mask><path fill="#223B98" mask="url(#N)" d="M-316.29 533.18v-11.632L616.384-413.19l2.904-2.907 5.805 5.818z"/></g><g transform="translate(258 -74)"><mask id="P" fill="#fff"><use xlink:href="#O"/></mask><path fill="#223B98" mask="url(#P)" d="M-316.29 557.857V546.22l957.296-959.41 2.9-2.907 5.806 5.814z"/></g><g transform="translate(258 -74)"><mask id="R" fill="#fff"><use xlink:href="#Q"/></mask><path fill="#223B98" mask="url(#R)" d="M-316.29 582.53v-11.636L665.629-413.19l2.9-2.907 5.801 5.818z"/></g><g transform="translate(258 -74)"><mask id="T" fill="#fff"><use xlink:href="#S"/></mask><path fill="#223B98" mask="url(#T)" d="M-316.29 607.203V595.57L690.247-413.19l2.905-2.907 5.805 5.814z"/></g><g transform="translate(258 -74)"><mask id="V" fill="#fff"><use xlink:href="#U"/></mask><path fill="#223B98" mask="url(#V)" d="M-316.29 631.88v-11.636L714.866-413.19l2.905-2.907 5.804 5.814z"/></g><g transform="translate(258 -74)"><mask id="X" fill="#fff"><use xlink:href="#W"/></mask><path fill="#223B98" mask="url(#X)" d="M-316.29 644.921L739.489-413.19l2.904-2.907 3.793 3.809v4.021L-316.29 656.557z"/></g><g transform="translate(258 -74)"><mask id="Z" fill="#fff"><use xlink:href="#Y"/></mask><path fill="#223B98" mask="url(#Z)" d="M-316.29 677.849v-7.83L746.186-394.801v11.628L-312.493 677.849z"/></g><g transform="translate(258 -74)"><mask id="ab" fill="#fff"><use xlink:href="#aa"/></mask><path fill="#223B98" mask="url(#ab)" d="M-293.774 677.749l-2.9-2.907 1042.76-1045.07v11.635L-287.973 677.75z"/></g><g transform="translate(258 -74)"><mask id="ad" fill="#fff"><use xlink:href="#ac"/></mask><path fill="#223B98" mask="url(#ad)" d="M-269.251 677.648l-2.905-2.907L745.994-345.655v11.635L-263.45 677.648z"/></g><g transform="translate(258 -74)"><mask id="af" fill="#fff"><use xlink:href="#ae"/></mask><path fill="#223B98" mask="url(#af)" d="M-244.733 677.544l-2.904-2.907 993.523-995.72v11.632l-984.818 986.995z"/></g><g transform="translate(258 -74)"><mask id="ah" fill="#fff"><use xlink:href="#ag"/></mask><path fill="#223B98" mask="url(#ah)" d="M-220.218 677.444l-2.9-2.907L745.784-296.51v11.635l-960.202 962.319z"/></g><g transform="translate(258 -74)"><mask id="aj" fill="#fff"><use xlink:href="#ai"/></mask><path fill="#223B98" mask="url(#aj)" d="M-195.696 677.343l-2.904-2.907 944.28-946.373v11.635l-935.576 937.645z"/></g><g transform="translate(258 -74)"><mask id="al" fill="#fff"><use xlink:href="#ak"/></mask><path fill="#223B98" mask="url(#al)" d="M-171.177 677.235l-2.905-2.907 919.663-921.693v11.628l-910.957 912.972z"/></g><g transform="translate(258 -74)"><mask id="an" fill="#fff"><use xlink:href="#am"/></mask><path fill="#223B98" mask="url(#an)" d="M-145.841 677.958l-2.905-2.907 895.048-897.024v11.635L-140.04 677.958z"/></g><g transform="translate(258 -74)"><mask id="ap" fill="#fff"><use xlink:href="#ao"/></mask><path fill="#223B98" mask="url(#ap)" d="M-121.323 677.857l-2.904-2.906L746.194-197.4v11.635l-861.716 863.622z"/></g><g transform="translate(258 -74)"><mask id="ar" fill="#fff"><use xlink:href="#aq"/></mask><path fill="#223B98" mask="url(#ar)" d="M-96.812 677.753l-2.897-2.907 845.803-847.674v11.636L-91.007 677.753z"/></g><g transform="translate(258 -74)"><mask id="at" fill="#fff"><use xlink:href="#as"/></mask><path fill="#223B98" mask="url(#at)" d="M-72.286 677.653l-2.904-2.907 821.18-823.001v11.635L-66.485 677.653z"/></g><g transform="translate(258 -74)"><mask id="av" fill="#fff"><use xlink:href="#au"/></mask><path fill="#223B98" mask="url(#av)" d="M-47.771 677.548l-2.9-2.906 796.557-798.324v11.631l-787.852 789.6z"/></g><g transform="translate(258 -74)"><mask id="ax" fill="#fff"><use xlink:href="#aw"/></mask><path fill="#223B98" mask="url(#ax)" d="M-23.253 677.444l-2.9-2.907L745.786-99.11v11.632L-17.452 677.444z"/></g><g transform="translate(258 -74)"><mask id="az" fill="#fff"><use xlink:href="#ay"/></mask><path fill="#223B98" mask="url(#az)" d="M1.27 677.344l-2.905-2.907L745.69-74.537v11.635L7.07 677.344z"/></g><g transform="translate(280.884 -74)"><mask id="aB" fill="#fff"><use xlink:href="#aA"/></mask><path fill="#223B98" mask="url(#aB)" d="M2.905 677.24L0 674.333 722.81-49.964v11.635L8.706 677.24z"/></g><g transform="translate(307.037 -74)"><mask id="aD" fill="#fff"><use xlink:href="#aC"/></mask><path fill="#223B98" mask="url(#aD)" d="M2.884 677.958L0 675.051 694.943-24.573v11.632l-686.28 690.9z"/></g><g transform="translate(329.921 -74)"><mask id="aF" fill="#fff"><use xlink:href="#aE"/></mask><path fill="#223B98" mask="url(#aF)" d="M2.903 677.854L0 674.947 674.088 0v11.631L8.714 677.854z"/></g><g transform="translate(353.622 -51.066)"><mask id="aH" fill="#fff"><use xlink:href="#aG"/></mask><path fill="#223B98" mask="url(#aH)" d="M2.912 655.282L0 652.366 651.347 0v11.673L8.74 655.282z"/></g><g transform="translate(378.958 -24.036)"><mask id="aJ" fill="#fff"><use xlink:href="#aI"/></mask><path fill="#223B98" mask="url(#aJ)" d="M2.913 626.153L0 623.257 626.818 0v11.592L8.738 626.153z"/></g><g transform="translate(404.294 .537)"><mask id="aL" fill="#fff"><use xlink:href="#aK"/></mask><path fill="#223B98" mask="url(#aL)" d="M2.909 602.921L0 600.02 600.546 0v11.618L8.72 602.92z"/></g><g transform="translate(429.63 24.29)"><mask id="aN" fill="#fff"><use xlink:href="#aM"/></mask><path fill="#223B98" mask="url(#aN)" d="M2.9 579.886l-2.9-2.91L574.03 0v11.646L8.692 579.886z"/></g><g transform="translate(453.331 48.044)"><mask id="aP" fill="#fff"><use xlink:href="#aO"/></mask><path fill="#223B98" mask="url(#aP)" d="M2.904 554.63L0 551.723 551.68 0v11.635L8.722 554.63z"/></g><g transform="translate(480.301 75.074)"><mask id="aR" fill="#fff"><use xlink:href="#aQ"/></mask><path fill="#223B98" mask="url(#aR)" d="M2.859 533.193L0 530.268 518.186 0v11.706L8.58 533.193z"/></g><g transform="translate(501.55 98.009)"><mask id="aT" fill="#fff"><use xlink:href="#aS"/></mask><path fill="#223B98" mask="url(#aT)" d="M2.93 501.009L0 498.125 506.369 0v11.54L8.797 501.01z"/></g><g transform="translate(527.704 121.762)"><mask id="aV" fill="#fff"><use xlink:href="#aU"/></mask><path fill="#223B98" mask="url(#aV)" d="M2.907 483.014L0 480.09 477.639 0v11.697L8.722 483.014z"/></g></g></g></svg>