<?xml version="1.0" encoding="UTF-8"?>
<svg width="241px" height="219px" viewBox="0 0 241 219" version="1.1" xmlns="http://www.w3.org/2000/svg" xmlns:xlink="http://www.w3.org/1999/xlink">
    <!-- Generator: Sketch 48.2 (47327) - http://www.bohemiancoding.com/sketch -->
    <title>Pattern</title>
    <desc>Created with Sketch.</desc>
    <defs>
        <path d="M47.0648353,0.0182662386 C29.7798324,5.01407115 13.8834221,13.1375405 0.0725022199,23.7123053 L47.0648353,23.7123053 L47.0648353,0.0182662386 Z" id="path-1"></path>
        <path d="M84.9541482,0.591215638 C51.2872209,5.75925942 21.5754232,22.952927 0.32718266,47.6564428 L84.9541482,47.6564428 L84.9541482,0.591215638 Z" id="path-3"></path>
        <path d="M118.493152,0.104817969 C68.6795775,1.07984354 25.2050814,28.4177651 0.960292232,68.9885421 L118.493152,68.9885421 L118.493152,0.104817969 Z" id="path-5"></path>
        <path d="M144.470288,0.989007793 C139.286207,0.399753875 134.015752,0.0970592924 128.674974,0.0970592924 C70.9078967,0.0970592924 21.369594,35.5095451 0.369118673,85.9169846 L144.470288,85.9169846 L144.470288,0.989007793 Z" id="path-7"></path>
        <path d="M169.640036,4.46297218 C158.618189,1.60878944 147.073615,0.0920870011 135.181941,0.0920870011 C70.2493441,0.0920870011 15.6677328,45.313064 0.0261958592,106.577323 L169.640036,106.577323 L169.640036,4.46297218 Z" id="path-9"></path>
        <path d="M191.670405,10.5162659 C175.329101,3.78775839 157.431545,0.0772481506 138.66901,0.0772481506 C67.2675281,0.0772481506 8.3952971,53.8132166 0.145101885,123.119291 L191.670405,123.119291 L191.670405,10.5162511 L191.670405,10.5162659 Z" id="path-11"></path>
        <path d="M0.286200784,142.54156 C0.277910891,141.91114 0.273752966,141.279719 0.273752966,140.647322 C0.273752966,63.010197 62.9453288,0.0721601481 140.256737,0.0721601481 C166.512836,0.0721601481 191.080746,7.33132108 212.078803,19.960096 L212.078803,142.54156 L0.286200784,142.54156 Z" id="path-13"></path>
        <path d="M1.78589744,161.4035 C0.791509871,154.669818 0.276516325,147.781053 0.276516325,140.772636 C0.276516325,63.0730649 63.5807211,0.0844053538 141.672538,0.0844053538 C176.508466,0.0844053538 208.40232,12.6188782 233.046757,33.4022146 L233.046757,161.4035 L1.78589744,161.4035 Z" id="path-15"></path>
        <path d="M5.85581966,179.985473 C2.22436715,167.503751 0.277440604,154.305178 0.277440604,140.652137 C0.277440604,63.0175646 63.2330681,0.0815973975 140.894882,0.0815973975 C185.196839,0.0815973975 224.714231,20.5615851 250.489444,52.5673001 L250.489444,179.985473 L5.85581966,179.985473 Z" id="path-17"></path>
        <path d="M12.7986668,197.826142 C4.75737542,180.207859 0.279178408,160.63899 0.279178408,140.030005 C0.279178408,62.7386337 63.2711853,0.0808894646 140.977876,0.0808894646 C198.14975,0.0808894646 247.358001,33.9983073 269.373084,82.7068222 L269.373064,197.356047 C269.302183,197.512881 269.231008,197.669588 269.159552,197.826142 L12.7986366,197.826136 L12.7986668,197.826142 Z" id="path-19"></path>
        <path d="M23.0627353,216.818707 C8.65319565,194.809041 0.277329949,168.511416 0.277329949,140.262835 C0.277329949,62.8443071 63.1931231,0.0834806555 140.805797,0.0834806555 C218.418471,0.0834806555 281.337251,62.8443071 281.337251,140.262835 C281.337251,168.511416 272.960988,194.809041 258.550943,216.818707 L23.0627353,216.818707 Z" id="path-21"></path>
        <path d="M37.6722803,236.107464 C14.4631436,211.038513 0.277329949,177.49206 0.277329949,140.632686 C0.277329949,63.0108429 63.1931231,0.085194681 140.805797,0.085194681 C218.418471,0.085194681 281.337251,63.0108429 281.337251,140.632686 C281.337251,177.49206 267.150764,211.038513 243.94092,236.107464 L37.6722803,236.107464 Z" id="path-23"></path>
        <path d="M58.8464782,255.462555 C23.3758463,229.88296 0.277329949,188.137186 0.277329949,140.983301 C0.277329949,63.1637775 63.1931231,0.0778764328 140.805797,0.0778764328 C218.418471,0.0778764328 281.337251,63.1637775 281.337251,140.983301 C281.337251,188.137186 258.237638,229.88296 222.766142,255.462555 L58.8464782,255.462555 Z" id="path-25"></path>
        <path d="M94.9590389,273.303257 C39.8580411,254.307375 0.277329949,202.025545 0.277329949,140.50784 C0.277329949,62.9507602 63.1931231,0.0776137977 140.805797,0.0776137977 C218.418471,0.0776137977 281.337251,62.9507602 281.337251,140.50784 C281.337251,202.025545 241.754661,254.307375 186.652886,273.303257 L94.9590389,273.303257 Z" id="path-27"></path>
        <path d="M0.277329949,140.636757 C0.277329949,218.266598 63.1931231,281.202284 140.805797,281.202284 C218.418471,281.202284 281.337251,218.266598 281.337251,140.636757 C281.337251,63.009904 218.418471,0.080194405 140.805797,0.080194405 C63.1931231,0.080194405 0.277329949,63.009904 0.277329949,140.636757 Z" id="path-29"></path>
        <path d="M0.277329949,140.636757 C0.277329949,218.266598 63.1931231,281.202284 140.805797,281.202284 C218.418471,281.202284 281.337251,218.266598 281.337251,140.636757 C281.337251,63.009904 218.418471,0.080194405 140.805797,0.080194405 C63.1931231,0.080194405 0.277329949,63.009904 0.277329949,140.636757 Z" id="path-31"></path>
        <path d="M0.277329949,140.636757 C0.277329949,218.266598 63.1931231,281.202284 140.805797,281.202284 C218.418471,281.202284 281.337251,218.266598 281.337251,140.636757 C281.337251,63.009904 218.418471,0.080194405 140.805797,0.080194405 C63.1931231,0.080194405 0.277329949,63.009904 0.277329949,140.636757 Z" id="path-33"></path>
        <path d="M0.277329949,140.636757 C0.277329949,218.266598 63.1931231,281.202284 140.805797,281.202284 C218.418471,281.202284 281.337251,218.266598 281.337251,140.636757 C281.337251,63.009904 218.418471,0.080194405 140.805797,0.080194405 C63.1931231,0.080194405 0.277329949,63.009904 0.277329949,140.636757 Z" id="path-35"></path>
        <path d="M0.277329949,140.636757 C0.277329949,218.266598 63.1931231,281.202284 140.805797,281.202284 C218.418471,281.202284 281.337251,218.266598 281.337251,140.636757 C281.337251,63.009904 218.418471,0.080194405 140.805797,0.080194405 C63.1931231,0.080194405 0.277329949,63.009904 0.277329949,140.636757 Z" id="path-37"></path>
        <path d="M0.277329949,140.636757 C0.277329949,218.266598 63.1931231,281.202284 140.805797,281.202284 C218.418471,281.202284 281.337251,218.266598 281.337251,140.636757 C281.337251,63.009904 218.418471,0.080194405 140.805797,0.080194405 C63.1931231,0.080194405 0.277329949,63.009904 0.277329949,140.636757 Z" id="path-39"></path>
        <path d="M0.277329949,140.636757 C0.277329949,218.266598 63.1931231,281.202284 140.805797,281.202284 C218.418471,281.202284 281.337251,218.266598 281.337251,140.636757 C281.337251,63.009904 218.418471,0.080194405 140.805797,0.080194405 C63.1931231,0.080194405 0.277329949,63.009904 0.277329949,140.636757 Z" id="path-41"></path>
        <path d="M0.277329949,140.636757 C0.277329949,218.266598 63.1931231,281.202284 140.805797,281.202284 C218.418471,281.202284 281.337251,218.266598 281.337251,140.636757 C281.337251,63.009904 218.418471,0.080194405 140.805797,0.080194405 C63.1931231,0.080194405 0.277329949,63.009904 0.277329949,140.636757 Z" id="path-43"></path>
        <path d="M0.277329949,140.636757 C0.277329949,218.266598 63.1931231,281.202284 140.805797,281.202284 C218.418471,281.202284 281.337251,218.266598 281.337251,140.636757 C281.337251,63.009904 218.418471,0.080194405 140.805797,0.080194405 C63.1931231,0.080194405 0.277329949,63.009904 0.277329949,140.636757 Z" id="path-45"></path>
        <path d="M0.277329949,140.636757 C0.277329949,218.266598 63.1931231,281.202284 140.805797,281.202284 C218.418471,281.202284 281.337251,218.266598 281.337251,140.636757 C281.337251,63.009904 218.418471,0.080194405 140.805797,0.080194405 C63.1931231,0.080194405 0.277329949,63.009904 0.277329949,140.636757 Z" id="path-47"></path>
        <path d="M0.277329949,140.636757 C0.277329949,218.266598 63.1931231,281.202284 140.805797,281.202284 C218.418471,281.202284 281.337251,218.266598 281.337251,140.636757 C281.337251,63.009904 218.418471,0.080194405 140.805797,0.080194405 C63.1931231,0.080194405 0.277329949,63.009904 0.277329949,140.636757 Z" id="path-49"></path>
        <path d="M0.277329949,140.636757 C0.277329949,218.266598 63.1931231,281.202284 140.805797,281.202284 C218.418471,281.202284 281.337251,218.266598 281.337251,140.636757 C281.337251,63.009904 218.418471,0.080194405 140.805797,0.080194405 C63.1931231,0.080194405 0.277329949,63.009904 0.277329949,140.636757 Z" id="path-51"></path>
        <path d="M0.277329949,140.636757 C0.277329949,218.266598 63.1931231,281.202284 140.805797,281.202284 C218.418471,281.202284 281.337251,218.266598 281.337251,140.636757 C281.337251,63.009904 218.418471,0.080194405 140.805797,0.080194405 C63.1931231,0.080194405 0.277329949,63.009904 0.277329949,140.636757 Z" id="path-53"></path>
        <path d="M0.277329949,140.636757 C0.277329949,218.266598 63.1931231,281.202284 140.805797,281.202284 C218.418471,281.202284 281.337251,218.266598 281.337251,140.636757 C281.337251,63.009904 218.418471,0.080194405 140.805797,0.080194405 C63.1931231,0.080194405 0.277329949,63.009904 0.277329949,140.636757 Z" id="path-55"></path>
        <path d="M0.277329949,140.636757 C0.277329949,218.266598 63.1931231,281.202284 140.805797,281.202284 C218.418471,281.202284 281.337251,218.266598 281.337251,140.636757 C281.337251,63.009904 218.418471,0.080194405 140.805797,0.080194405 C63.1931231,0.080194405 0.277329949,63.009904 0.277329949,140.636757 Z" id="path-57"></path>
        <path d="M0.277329949,140.636757 C0.277329949,218.266598 63.1931231,281.202284 140.805797,281.202284 C218.418471,281.202284 281.337251,218.266598 281.337251,140.636757 C281.337251,63.009904 218.418471,0.080194405 140.805797,0.080194405 C63.1931231,0.080194405 0.277329949,63.009904 0.277329949,140.636757 Z" id="path-59"></path>
        <path d="M0.277329949,140.636757 C0.277329949,218.266598 63.1931231,281.202284 140.805797,281.202284 C218.418471,281.202284 281.337251,218.266598 281.337251,140.636757 C281.337251,63.009904 218.418471,0.080194405 140.805797,0.080194405 C63.1931231,0.080194405 0.277329949,63.009904 0.277329949,140.636757 Z" id="path-61"></path>
        <path d="M0.277329949,140.636757 C0.277329949,218.266598 63.1931231,281.202284 140.805797,281.202284 C218.418471,281.202284 281.337251,218.266598 281.337251,140.636757 C281.337251,63.009904 218.418471,0.080194405 140.805797,0.080194405 C63.1931231,0.080194405 0.277329949,63.009904 0.277329949,140.636757 Z" id="path-63"></path>
        <path d="M0.277329949,140.636757 C0.277329949,218.266598 63.1931231,281.202284 140.805797,281.202284 C218.418471,281.202284 281.337251,218.266598 281.337251,140.636757 C281.337251,63.009904 218.418471,0.080194405 140.805797,0.080194405 C63.1931231,0.080194405 0.277329949,63.009904 0.277329949,140.636757 Z" id="path-65"></path>
        <path d="M0.277329949,140.636757 C0.277329949,218.266598 63.1931231,281.202284 140.805797,281.202284 C218.418471,281.202284 281.337251,218.266598 281.337251,140.636757 C281.337251,63.009904 218.418471,0.080194405 140.805797,0.080194405 C63.1931231,0.080194405 0.277329949,63.009904 0.277329949,140.636757 Z" id="path-67"></path>
        <path d="M0.277329949,140.636757 C0.277329949,218.266598 63.1931231,281.202284 140.805797,281.202284 C218.418471,281.202284 281.337251,218.266598 281.337251,140.636757 C281.337251,63.009904 218.418471,0.080194405 140.805797,0.080194405 C63.1931231,0.080194405 0.277329949,63.009904 0.277329949,140.636757 Z" id="path-69"></path>
        <path d="M0.277329949,140.636757 C0.277329949,218.266598 63.1931231,281.202284 140.805797,281.202284 C218.418471,281.202284 281.337251,218.266598 281.337251,140.636757 C281.337251,63.009904 218.418471,0.080194405 140.805797,0.080194405 C63.1931231,0.080194405 0.277329949,63.009904 0.277329949,140.636757 Z" id="path-71"></path>
        <path d="M0.277329949,140.636757 C0.277329949,218.266598 63.1931231,281.202284 140.805797,281.202284 C218.418471,281.202284 281.337251,218.266598 281.337251,140.636757 C281.337251,63.009904 218.418471,0.080194405 140.805797,0.080194405 C63.1931231,0.080194405 0.277329949,63.009904 0.277329949,140.636757 Z" id="path-73"></path>
        <path d="M0.277329949,140.636757 C0.277329949,218.266598 63.1931231,281.202284 140.805797,281.202284 C218.418471,281.202284 281.337251,218.266598 281.337251,140.636757 C281.337251,63.009904 218.418471,0.080194405 140.805797,0.080194405 C63.1931231,0.080194405 0.277329949,63.009904 0.277329949,140.636757 Z" id="path-75"></path>
        <path d="M0.277329949,140.636757 C0.277329949,218.266598 63.1931231,281.202284 140.805797,281.202284 C218.418471,281.202284 281.337251,218.266598 281.337251,140.636757 C281.337251,63.009904 218.418471,0.080194405 140.805797,0.080194405 C63.1931231,0.080194405 0.277329949,63.009904 0.277329949,140.636757 Z" id="path-77"></path>
        <path d="M0.277329949,140.636757 C0.277329949,218.266598 63.1931231,281.202284 140.805797,281.202284 C218.418471,281.202284 281.337251,218.266598 281.337251,140.636757 C281.337251,63.009904 218.418471,0.080194405 140.805797,0.080194405 C63.1931231,0.080194405 0.277329949,63.009904 0.277329949,140.636757 Z" id="path-79"></path>
        <path d="M0.900260396,208.356997 C24.7950555,251.780613 70.9565004,281.202284 123.983484,281.202284 C201.538831,281.202284 264.411137,218.266598 264.411137,140.636757 C264.411137,63.009904 201.538831,0.080194405 123.983484,0.080194405 C70.9565004,0.080194405 24.7950555,29.4990712 0.900260396,72.9199657 L0.900265283,208.357006 L0.900260396,208.356997 Z" id="path-81"></path>
        <path d="M0.182784974,234.667475 C25.8997335,263.23851 63.1623381,281.202284 104.61903,281.202284 C182.215924,281.202284 245.121912,218.266598 245.121912,140.636757 C245.121912,63.009904 182.215924,0.080194405 104.61903,0.080194405 C63.1623381,0.080194405 25.8997335,18.0422624 0.182784974,46.6112528 L0.182784974,234.667475 Z" id="path-83"></path>
        <path d="M0.181734554,252.010385 C23.8844934,270.314584 53.5932604,281.202284 85.8419736,281.202284 C163.376082,281.202284 226.231171,218.266598 226.231171,140.636757 C226.231171,63.009904 163.376082,0.080194405 85.8419736,0.080194405 C53.5932604,0.080194405 23.8844934,10.9668608 0.181734554,29.2696369 L0.181734554,252.010385 Z" id="path-85"></path>
        <path d="M0.287380983,247.192385 C20.3385938,258.082839 43.3211969,264.269659 67.7506031,264.269659 C145.861012,264.269659 209.183294,201.01981 209.183294,123.002454 C209.183294,70.4537281 180.453539,24.6064835 137.826398,0.274502413 L0.287380983,0.274502413 L0.287404937,247.192398 L0.287380983,247.192385 Z" id="path-87"></path>
        <path d="M0.0445903385,233.393434 C15.1083229,238.858018 31.3798814,241.84035 48.3545992,241.84035 C125.95142,241.84035 188.857348,179.518735 188.857348,102.646336 C188.857348,62.1469364 171.395857,25.6873787 143.524142,0.252668424 L0.0445903385,0.252668424 L0.0445903386,233.393434 Z" id="path-89"></path>
        <path d="M0.355722369,222.953981 C9.86421556,225.005938 19.7311131,226.086096 29.8487511,226.086096 C107.157078,226.086096 169.829132,163.022101 169.829132,85.233994 C169.829132,53.3697088 159.312194,23.9767655 141.580401,0.377533691 L0.355722369,0.377533691 L0.355722369,222.953981 Z" id="path-91"></path>
        <path d="M0.332991375,207.449046 C3.89969436,207.726622 7.50397219,207.867969 11.1407827,207.867969 C88.127221,207.867969 150.538327,144.528673 150.538327,66.4009872 C150.538327,42.4078187 144.65178,19.8097585 134.264328,0.0129017003 L0.332991375,0.0129017003 L0.332991375,207.449046 Z" id="path-93"></path>
        <path d="M0.461706739,187.876082 C74.6107966,183.820841 133.484748,122.590688 133.484748,47.6561888 C133.484748,31.0952391 130.608916,15.2038454 125.327943,0.451226036 L0.461706739,0.451226036 L0.461706739,187.876082 Z" id="path-95"></path>
        <path d="M0.0343547392,167.003018 C64.685404,154.59696 113.548362,97.5130309 113.548362,28.9713908 C113.548362,19.1983417 112.55487,9.65830065 110.663776,0.447561255 L0.0343547392,0.447561255 L0.0343547392,167.003018 Z" id="path-97"></path>
        <path d="M0.542142042,142.308939 C55.650698,123.624896 95.3011443,71.5699263 95.3011443,10.2797748 C95.3011443,7.00747576 95.1881111,3.76150923 94.9657269,0.545548151 L0.542142042,0.545548151 L0.542142042,142.308939 Z" id="path-99"></path>
        <path d="M0.52236872,117.458327 C43.2953619,95.259806 73.3108613,51.3925427 76.4702402,0.148205443 L0.52236872,0.148205443 L0.52236872,117.458327 Z" id="path-101"></path>
        <path d="M0.650781513,86.2168158 C29.5617322,65.942418 50.3989888,35.6450401 57.6475098,0.633163323 L0.650781513,0.633163323 L0.650781513,86.2168158 Z" id="path-103"></path>
    </defs>
    <g id="Startup-Garage---FAQ" stroke="none" stroke-width="1" fill="none" fill-rule="evenodd" transform="translate(-1039.000000, -1873.000000)" opacity="0.125742767">
        <g id="2_Apply-now" transform="translate(0.000000, 1785.000000)">
            <g id="Pattern">
                <g transform="translate(1039.000000, 88.000000)">
                    <g id="Group-235" transform="translate(53.205224, 6.991218)">
                        <mask id="mask-2" fill="white">
                            <use xlink:href="#path-1"></use>
                        </mask>
                        <g id="Clip-234"></g>
                        <polygon id="Fill-233" fill="#FFFFFF" mask="url(#mask-2)" points="-295.599545 23.7123053 -295.599545 15.115967 40.4177397 -310.988874 42.6344381 -313.137231 47.0648353 -308.837606"></polygon>
                    </g>
                    <g id="Group-238" transform="translate(34.287811, 1.182600)">
                        <mask id="mask-4" fill="white">
                            <use xlink:href="#path-3"></use>
                        </mask>
                        <g id="Clip-237"></g>
                        <polygon id="Fill-236" fill="#FFFFFF" mask="url(#mask-4)" points="-273.223342 47.6564428 -273.223342 38.8651763 78.3702764 -313.282654 80.5668819 -315.479727 84.9541482 -311.085582"></polygon>
                    </g>
                    <g id="Group-241" transform="translate(20.099751, 0.000000)">
                        <mask id="mask-6" fill="white">
                            <use xlink:href="#path-5"></use>
                        </mask>
                        <g id="Clip-240"></g>
                        <polygon id="Fill-239" fill="#FFFFFF" mask="url(#mask-6)" points="-260.683618 68.9885421 -260.683618 59.9890518 111.870682 -319.457975 114.078172 -321.70937 118.493152 -317.209625"></polygon>
                    </g>
                    <g id="Group-244" transform="translate(10.641045, 0.000000)">
                        <mask id="mask-8" fill="white">
                            <use xlink:href="#path-7"></use>
                        </mask>
                        <g id="Clip-243"></g>
                        <polygon id="Fill-242" fill="#FFFFFF" mask="url(#mask-8)" points="-248.716052 85.9169846 -248.716052 77.1430227 137.92068 -311.537846 140.101913 -313.730594 144.470288 -309.342128"></polygon>
                    </g>
                    <g id="Group-247" transform="translate(5.911692, 0.000000)">
                        <mask id="mask-10" fill="white">
                            <use xlink:href="#path-9"></use>
                        </mask>
                        <g id="Clip-246"></g>
                        <polygon id="Fill-245" fill="#FFFFFF" mask="url(#mask-10)" points="-243.879668 106.577323 -243.879668 97.6308682 163.067372 -317.668855 165.25826 -319.904712 169.640036 -315.432999"></polygon>
                    </g>
                    <g id="Group-250" transform="translate(1.182338, 0.000000)">
                        <mask id="mask-12" fill="white">
                            <use xlink:href="#path-11"></use>
                        </mask>
                        <g id="Clip-249"></g>
                        <polygon id="Fill-248" fill="#FFFFFF" mask="url(#mask-12)" points="-239.996096 123.119291 -239.996096 114.342713 185.101651 -311.544168 187.293213 -313.736827 191.670405 -309.351509"></polygon>
                    </g>
                    <g id="Group-253">
                        <mask id="mask-14" fill="white">
                            <use xlink:href="#path-13"></use>
                        </mask>
                        <g id="Clip-252"></g>
                        <polygon id="Fill-251" fill="#FFFFFF" mask="url(#mask-14)" points="-239.685005 142.54156 -239.685005 133.717325 205.484928 -313.348327 207.683878 -315.556626 212.078803 -311.143015"></polygon>
                    </g>
                    <g id="Group-256">
                        <mask id="mask-16" fill="white">
                            <use xlink:href="#path-15"></use>
                        </mask>
                        <g id="Clip-255"></g>
                        <polygon id="Fill-254" fill="#FFFFFF" mask="url(#mask-16)" points="-242.10447 161.4035 -242.10447 152.572169 226.389325 -313.586379 228.610473 -315.796455 233.046757 -311.379294"></polygon>
                    </g>
                    <g id="Group-259">
                        <mask id="mask-18" fill="white">
                            <use xlink:href="#path-17"></use>
                        </mask>
                        <g id="Clip-258"></g>
                        <polygon id="Fill-257" fill="#FFFFFF" mask="url(#mask-18)" points="-240.768902 179.985473 -240.768902 171.158541 243.868671 -313.327686 246.077588 -315.535913 250.489444 -311.122447"></polygon>
                    </g>
                    <g id="Group-262">
                        <mask id="mask-20" fill="white">
                            <use xlink:href="#path-19"></use>
                        </mask>
                        <g id="Clip-261"></g>
                        <polygon id="Fill-260" fill="#FFFFFF" mask="url(#mask-20)" points="-240.906455 197.826136 -240.906455 189.038226 262.748466 -311.944086 264.955668 -314.139577 269.373064 -309.748596"></polygon>
                    </g>
                    <g id="Group-265">
                        <mask id="mask-22" fill="white">
                            <use xlink:href="#path-21"></use>
                        </mask>
                        <g id="Clip-264"></g>
                        <polygon id="Fill-263" fill="#FFFFFF" mask="url(#mask-22)" points="-240.616494 216.818707 -240.616494 208.019318 281.143683 -312.455721 283.348215 -314.654823 287.757279 -310.256619"></polygon>
                    </g>
                    <g id="Group-268">
                        <mask id="mask-24" fill="white">
                            <use xlink:href="#path-23"></use>
                        </mask>
                        <g id="Clip-267"></g>
                        <polygon id="Fill-266" fill="#FFFFFF" mask="url(#mask-24)" points="-240.616494 236.107464 -240.616494 227.281979 299.855321 -313.274495 302.059853 -315.48236 306.471905 -311.069618"></polygon>
                    </g>
                    <g id="Group-271">
                        <mask id="mask-26" fill="white">
                            <use xlink:href="#path-25"></use>
                        </mask>
                        <g id="Clip-270"></g>
                        <polygon id="Fill-269" fill="#FFFFFF" mask="url(#mask-26)" points="-240.616494 255.462555 -240.616494 246.61759 318.56696 -314.080746 320.771492 -316.291238 325.183543 -311.867258"></polygon>
                    </g>
                    <g id="Group-274">
                        <mask id="mask-28" fill="white">
                            <use xlink:href="#path-27"></use>
                        </mask>
                        <g id="Clip-273"></g>
                        <polygon id="Fill-272" fill="#FFFFFF" mask="url(#mask-28)" points="-240.616494 273.303257 -240.616494 264.485135 337.278598 -313.018237 339.486117 -315.221275 343.895182 -310.815199"></polygon>
                    </g>
                    <g id="Group-277">
                        <mask id="mask-30" fill="white">
                            <use xlink:href="#path-29"></use>
                        </mask>
                        <g id="Clip-276"></g>
                        <polygon id="Fill-275" fill="#FFFFFF" mask="url(#mask-30)" points="-240.616494 292.268017 -240.616494 283.44495 355.993224 -313.29972 358.197756 -315.50474 362.60682 -311.091713"></polygon>
                    </g>
                    <g id="Group-280">
                        <mask id="mask-32" fill="white">
                            <use xlink:href="#path-31"></use>
                        </mask>
                        <g id="Clip-279"></g>
                        <polygon id="Fill-278" fill="#FFFFFF" mask="url(#mask-32)" points="-240.616494 310.987081 -240.616494 302.161026 374.704862 -313.299421 376.912381 -315.504441 381.321446 -311.094402"></polygon>
                    </g>
                    <g id="Group-283">
                        <mask id="mask-34" fill="white">
                            <use xlink:href="#path-33"></use>
                        </mask>
                        <g id="Clip-282"></g>
                        <polygon id="Fill-281" fill="#FFFFFF" mask="url(#mask-34)" points="-240.616494 329.703456 -240.616494 320.877401 393.419488 -313.298824 395.62402 -315.503844 400.036071 -311.093804"></polygon>
                    </g>
                    <g id="Group-286">
                        <mask id="mask-36" fill="white">
                            <use xlink:href="#path-35"></use>
                        </mask>
                        <g id="Clip-285"></g>
                        <polygon id="Fill-284" fill="#FFFFFF" mask="url(#mask-36)" points="-240.616494 348.41983 -240.616494 339.596764 412.131126 -313.301214 414.338645 -315.506234 418.74771 -311.090219"></polygon>
                    </g>
                    <g id="Group-289">
                        <mask id="mask-38" fill="white">
                            <use xlink:href="#path-37"></use>
                        </mask>
                        <g id="Clip-288"></g>
                        <polygon id="Fill-287" fill="#FFFFFF" mask="url(#mask-38)" points="-240.616494 367.1374 -240.616494 358.311346 430.842765 -313.299421 433.053271 -315.504441 437.462335 -311.094402"></polygon>
                    </g>
                    <g id="Group-292">
                        <mask id="mask-40" fill="white">
                            <use xlink:href="#path-39"></use>
                        </mask>
                        <g id="Clip-291"></g>
                        <polygon id="Fill-290" fill="#FFFFFF" mask="url(#mask-40)" points="-240.616494 385.855269 -240.616494 377.029215 449.55739 -313.29733 451.764909 -315.50235 456.173974 -311.09231"></polygon>
                    </g>
                    <g id="Group-295">
                        <mask id="mask-42" fill="white">
                            <use xlink:href="#path-41"></use>
                        </mask>
                        <g id="Clip-294"></g>
                        <polygon id="Fill-293" fill="#FFFFFF" mask="url(#mask-42)" points="-240.616494 404.571345 -240.616494 395.748278 468.269029 -313.300019 470.476548 -315.505039 474.888599 -311.092011"></polygon>
                    </g>
                    <g id="Group-298">
                        <mask id="mask-44" fill="white">
                            <use xlink:href="#path-43"></use>
                        </mask>
                        <g id="Clip-297"></g>
                        <polygon id="Fill-296" fill="#FFFFFF" mask="url(#mask-44)" points="-240.616494 423.290409 -240.616494 414.464354 486.983654 -313.29972 489.188186 -315.50474 493.600238 -311.0947"></polygon>
                    </g>
                    <g id="Group-301">
                        <mask id="mask-46" fill="white">
                            <use xlink:href="#path-45"></use>
                        </mask>
                        <g id="Clip-300"></g>
                        <polygon id="Fill-299" fill="#FFFFFF" mask="url(#mask-46)" points="-240.616494 442.00529 -240.616494 433.179235 505.69828 -313.300617 507.902812 -315.505636 512.311876 -311.092609"></polygon>
                    </g>
                    <g id="Group-304">
                        <mask id="mask-48" fill="white">
                            <use xlink:href="#path-47"></use>
                        </mask>
                        <g id="Clip-303"></g>
                        <polygon id="Fill-302" fill="#FFFFFF" mask="url(#mask-48)" points="-240.616494 460.723159 -240.616494 451.900092 524.409918 -313.298525 526.617437 -315.503545 531.029489 -311.093505"></polygon>
                    </g>
                    <g id="Group-307">
                        <mask id="mask-50" fill="white">
                            <use xlink:href="#path-49"></use>
                        </mask>
                        <g id="Clip-306"></g>
                        <polygon id="Fill-305" fill="#FFFFFF" mask="url(#mask-50)" points="-240.616494 479.440729 -240.616494 470.614674 543.121557 -313.29972 545.329076 -315.50474 549.741127 -311.0947"></polygon>
                    </g>
                    <g id="Group-310">
                        <mask id="mask-52" fill="white">
                            <use xlink:href="#path-51"></use>
                        </mask>
                        <g id="Clip-309"></g>
                        <polygon id="Fill-308" fill="#FFFFFF" mask="url(#mask-52)" points="-240.616494 489.332244 561.836182 -313.300915 564.043701 -315.505935 566.926321 -312.616702 566.926321 -309.566126 -240.616494 498.158299"></polygon>
                    </g>
                    <g id="Group-313">
                        <mask id="mask-54" fill="white">
                            <use xlink:href="#path-53"></use>
                        </mask>
                        <g id="Clip-312"></g>
                        <polygon id="Fill-311" fill="#FFFFFF" mask="url(#mask-54)" points="-240.616494 513.99052 -240.616494 508.05071 566.926321 -299.670726 566.926321 -290.850647 -237.730887 513.99052"></polygon>
                    </g>
                    <g id="Group-316">
                        <mask id="mask-56" fill="white">
                            <use xlink:href="#path-55"></use>
                        </mask>
                        <g id="Clip-315"></g>
                        <polygon id="Fill-314" fill="#FFFFFF" mask="url(#mask-56)" points="-223.430105 513.99052 -225.634637 511.7855 566.924529 -280.954949 566.924529 -272.128894 -219.021041 513.99052"></polygon>
                    </g>
                    <g id="Group-319">
                        <mask id="mask-58" fill="white">
                            <use xlink:href="#path-57"></use>
                        </mask>
                        <g id="Clip-318"></g>
                        <polygon id="Fill-317" fill="#FFFFFF" mask="url(#mask-58)" points="-204.716675 513.99052 -206.924194 511.7855 566.929309 -262.239172 566.929309 -253.413117 -200.30761 513.99052"></polygon>
                    </g>
                    <g id="Group-322">
                        <mask id="mask-60" fill="white">
                            <use xlink:href="#path-59"></use>
                        </mask>
                        <g id="Clip-321"></g>
                        <polygon id="Fill-320" fill="#FFFFFF" mask="url(#mask-60)" points="-186.002945 513.99052 -188.210464 511.7855 566.925425 -243.520407 566.925425 -234.69734 -181.593881 513.99052"></polygon>
                    </g>
                    <g id="Group-325">
                        <mask id="mask-62" fill="white">
                            <use xlink:href="#path-61"></use>
                        </mask>
                        <g id="Clip-324"></g>
                        <polygon id="Fill-323" fill="#FFFFFF" mask="url(#mask-62)" points="-167.290709 513.99052 -169.495241 511.7855 566.92901 -224.804629 566.92901 -215.978575 -162.881645 513.99052"></polygon>
                    </g>
                    <g id="Group-328">
                        <mask id="mask-64" fill="white">
                            <use xlink:href="#path-63"></use>
                        </mask>
                        <g id="Clip-327"></g>
                        <polygon id="Fill-326" fill="#FFFFFF" mask="url(#mask-64)" points="-148.577279 513.99052 -150.784798 511.7855 566.924828 -206.088852 566.924828 -197.262797 -144.168214 513.99052"></polygon>
                    </g>
                    <g id="Group-331">
                        <mask id="mask-66" fill="white">
                            <use xlink:href="#path-65"></use>
                        </mask>
                        <g id="Clip-330"></g>
                        <polygon id="Fill-329" fill="#FFFFFF" mask="url(#mask-66)" points="-129.863549 513.99052 -132.071068 511.7855 566.926919 -187.367099 566.926919 -178.54702 -125.454485 513.99052"></polygon>
                    </g>
                    <g id="Group-334">
                        <mask id="mask-68" fill="white">
                            <use xlink:href="#path-67"></use>
                        </mask>
                        <g id="Clip-333"></g>
                        <polygon id="Fill-332" fill="#FFFFFF" mask="url(#mask-68)" points="-111.153106 513.99052 -113.360625 511.7855 566.928711 -168.65431 566.928711 -159.828255 -106.744041 513.99052"></polygon>
                    </g>
                    <g id="Group-337">
                        <mask id="mask-70" fill="white">
                            <use xlink:href="#path-69"></use>
                        </mask>
                        <g id="Clip-336"></g>
                        <polygon id="Fill-335" fill="#FFFFFF" mask="url(#mask-70)" points="-92.4393762 513.99052 -94.6468954 511.7855 566.924828 -149.938532 566.924828 -141.112478 -88.0303119 513.99052"></polygon>
                    </g>
                    <g id="Group-340">
                        <mask id="mask-72" fill="white">
                            <use xlink:href="#path-71"></use>
                        </mask>
                        <g id="Clip-339"></g>
                        <polygon id="Fill-338" fill="#FFFFFF" mask="url(#mask-72)" points="-73.7289326 513.99052 -75.9304775 511.7855 566.929607 -131.219767 566.929607 -122.393713 -69.3168812 513.99052"></polygon>
                    </g>
                    <g id="Group-343">
                        <mask id="mask-74" fill="white">
                            <use xlink:href="#path-73"></use>
                        </mask>
                        <g id="Clip-342"></g>
                        <polygon id="Fill-341" fill="#FFFFFF" mask="url(#mask-74)" points="-55.012216 513.99052 -57.2197353 511.7855 566.925724 -112.50399 566.925724 -103.677935 -50.6031517 513.99052"></polygon>
                    </g>
                    <g id="Group-346">
                        <mask id="mask-76" fill="white">
                            <use xlink:href="#path-75"></use>
                        </mask>
                        <g id="Clip-345"></g>
                        <polygon id="Fill-344" fill="#FFFFFF" mask="url(#mask-76)" points="-36.3017724 513.99052 -38.5063045 511.7855 566.924529 -93.785225 566.924529 -84.9621582 -31.889721 513.99052"></polygon>
                    </g>
                    <g id="Group-349">
                        <mask id="mask-78" fill="white">
                            <use xlink:href="#path-77"></use>
                        </mask>
                        <g id="Clip-348"></g>
                        <polygon id="Fill-347" fill="#FFFFFF" mask="url(#mask-78)" points="-17.588043 513.99052 -19.7925751 511.7855 566.92662 -75.0664599 566.92662 -66.2433931 -13.1789787 513.99052"></polygon>
                    </g>
                    <g id="Group-352">
                        <mask id="mask-80" fill="white">
                            <use xlink:href="#path-79"></use>
                        </mask>
                        <g id="Clip-351"></g>
                        <polygon id="Fill-350" fill="#FFFFFF" mask="url(#mask-80)" points="1.12538776 513.99052 -1.08213152 511.7855 566.928412 -56.3506826 566.928412 -47.524628 5.53445199 513.99052"></polygon>
                    </g>
                    <g id="Group-355" transform="translate(17.735075, 0.000000)">
                        <mask id="mask-82" fill="white">
                            <use xlink:href="#path-81"></use>
                        </mask>
                        <g id="Clip-354"></g>
                        <polygon id="Fill-353" fill="#FFFFFF" mask="url(#mask-82)" points="3.10615402 513.99052 0.900265283 511.7855 549.790456 -37.6319175 549.790456 -28.8058629 7.51196158 513.99052"></polygon>
                    </g>
                    <g id="Group-358" transform="translate(36.652488, 0.000000)">
                        <mask id="mask-84" fill="white">
                            <use xlink:href="#path-83"></use>
                        </mask>
                        <g id="Clip-357"></g>
                        <polygon id="Fill-356" fill="#FFFFFF" mask="url(#mask-84)" points="2.38388231 513.99052 0.182784974 511.7855 530.656204 -18.9161403 530.656204 -10.0930735 6.79503669 513.99052"></polygon>
                    </g>
                    <g id="Group-361" transform="translate(55.569901, 0.000000)">
                        <mask id="mask-86" fill="white">
                            <use xlink:href="#path-85"></use>
                        </mask>
                        <g id="Clip-360"></g>
                        <polygon id="Fill-359" fill="#FFFFFF" mask="url(#mask-86)" points="2.38403507 513.99052 0.181734554 511.7855 511.53025 -0.197375153 511.53025 8.62569162 6.79162024 513.99052"></polygon>
                    </g>
                    <g id="Group-364" transform="translate(72.122637, 17.738997)">
                        <mask id="mask-88" fill="white">
                            <use xlink:href="#path-87"></use>
                        </mask>
                        <g id="Clip-363"></g>
                        <polygon id="Fill-362" fill="#FFFFFF" mask="url(#mask-88)" points="2.50607485 498.219933 0.287404937 496.003907 496.605066 0.274505612 496.605066 9.14461834 6.94642099 498.219933"></polygon>
                    </g>
                    <g id="Group-367" transform="translate(92.071219, 37.843195)">
                        <mask id="mask-90" fill="white">
                            <use xlink:href="#path-89"></use>
                        </mask>
                        <g id="Clip-366"></g>
                        <polygon id="Fill-365" fill="#FFFFFF" mask="url(#mask-90)" points="2.24867215 472.357247 0.0445903386 470.173742 474.388083 0.252668424 474.388083 8.99260628 6.65683576 472.357247"></polygon>
                    </g>
                    <g id="Group-370" transform="translate(109.957463, 55.582192)">
                        <mask id="mask-92" fill="white">
                            <use xlink:href="#path-91"></use>
                        </mask>
                        <g id="Clip-369"></g>
                        <polygon id="Fill-368" fill="#FFFFFF" mask="url(#mask-92)" points="2.55458519 459.348924 0.355722369 457.139409 454.30039 0.377533691 454.30039 9.22158224 6.94635993 459.348924"></polygon>
                    </g>
                    <g id="Group-373" transform="translate(130.057214, 73.301723)">
                        <mask id="mask-94" fill="white">
                            <use xlink:href="#path-93"></use>
                        </mask>
                        <g id="Clip-372"></g>
                        <polygon id="Fill-371" fill="#FFFFFF" mask="url(#mask-94)" points="2.52269879 442.149089 0.332991375 439.929929 433.823945 0.0129017003 433.823945 8.89255132 6.89618747 442.149089"></polygon>
                    </g>
                    <g id="Group-376" transform="translate(146.609950, 91.060187)">
                        <mask id="mask-96" fill="white">
                            <use xlink:href="#path-95"></use>
                        </mask>
                        <g id="Clip-375"></g>
                        <polygon id="Fill-374" fill="#FFFFFF" mask="url(#mask-96)" points="2.66843739 420.659841 0.461706739 418.456889 419.746519 0.451226037 419.746519 9.26601904 7.09088132 420.659841"></polygon>
                    </g>
                    <g id="Group-379" transform="translate(167.892040, 113.529584)">
                        <mask id="mask-98" fill="white">
                            <use xlink:href="#path-97"></use>
                        </mask>
                        <g id="Clip-378"></g>
                        <polygon id="Fill-377" fill="#FFFFFF" mask="url(#mask-98)" points="2.22948873 402.237792 0.0343547392 400.033288 397.921724 0.447561255 397.921724 9.26856352 6.62273114 402.237792"></polygon>
                    </g>
                    <g id="Group-382" transform="translate(185.627115, 130.085982)">
                        <mask id="mask-100" fill="white">
                            <use xlink:href="#path-99"></use>
                        </mask>
                        <g id="Clip-381"></g>
                        <polygon id="Fill-380" fill="#FFFFFF" mask="url(#mask-100)" points="2.73447534 380.571249 0.542142042 378.384315 379.310793 0.545548151 379.310793 9.29921049 7.12211257 380.571249"></polygon>
                    </g>
                    <g id="Group-385" transform="translate(204.544528, 149.007579)">
                        <mask id="mask-102" fill="white">
                            <use xlink:href="#path-101"></use>
                        </mask>
                        <g id="Clip-384"></g>
                        <polygon id="Fill-383" fill="#FFFFFF" mask="url(#mask-102)" points="2.71685258 367.780292 0.52236872 365.556036 361.036222 0.148205443 361.036222 9.05125583 7.10582031 367.780292"></polygon>
                    </g>
                    <g id="Group-388" transform="translate(222.279602, 167.929176)">
                        <mask id="mask-104" fill="white">
                            <use xlink:href="#path-103"></use>
                        </mask>
                        <g id="Clip-387"></g>
                        <polygon id="Fill-386" fill="#FFFFFF" mask="url(#mask-104)" points="2.93222145 344.442927 0.650781513 342.25018 355.601467 0.633163323 355.601467 9.41009648 7.48892692 344.442927"></polygon>
                    </g>
                </g>
            </g>
        </g>
    </g>
</svg>