<?xml version="1.0" encoding="UTF-8"?>
<svg width="278px" height="305px" viewBox="0 0 278 305" version="1.1" xmlns="http://www.w3.org/2000/svg" xmlns:xlink="http://www.w3.org/1999/xlink">
    <!-- Generator: Sketch 48.2 (47327) - http://www.bohemiancoding.com/sketch -->
    <title>Pattern</title>
    <desc>Created with Sketch.</desc>
    <defs>
        <rect id="path-1" x="0" y="0" width="360" height="383"></rect>
        <path d="M158.920249,0 C91.5655906,1.29981386 32.7822189,37.7442012 0,91.8294066 L158.920249,91.8294066 L158.920249,0 Z" id="path-3"></path>
        <path d="M195.916388,1.23424368 C188.868239,0.418857004 181.702659,0 174.441469,0 C95.9027787,0 28.5517271,49.002422 0,118.754279 L195.916388,118.754279 L195.916388,1.23424368 Z" id="path-5"></path>
        <path d="M231.025957,5.90506127 C216.013428,2.04906339 200.288907,2.32660548e-13 184.091613,0 C95.6488578,0 21.3048713,61.0934922 0,143.861442 L231.025957,143.861442 L231.025957,5.90506127 Z" id="path-7"></path>
        <path d="M260.321218,14.2357096 C238.110115,5.0600303 213.783755,0 188.281715,0 C91.2328108,0 11.2136665,73.2798486 0,167.792682 L260.321218,167.792682 L260.321218,14.2356894 L260.321218,14.2357096 Z" id="path-9"></path>
        <path d="M0.0168692314,191.569992 C0.00563480229,190.722305 0,189.873271 0,189.022926 C0,84.628975 84.9322626,0 189.704366,0 C225.286524,0 258.580855,9.76095505 287.037336,26.7421056 L287.037336,191.569992 L0.0168692314,191.569992 Z" id="path-11"></path>
        <path d="M2.03115058,219.322304 C0.693018766,210.167487 0,200.801827 0,191.273493 C0,85.6365945 85.1874789,0 190.274416,0 C237.15258,0 280.071641,17.0413146 313.235274,45.2974193 L313.235274,219.322304 L2.03115058,219.322304 Z" id="path-13"></path>
        <path d="M7.54948954,243.748171 C2.63486964,226.836935 0,208.954452 0,190.456219 C0,85.2706862 85.2008884,0 190.304368,0 C250.260345,-2.30133764e-13 303.741138,27.7479267 338.623977,71.1118314 L338.623977,243.748171 L7.54948954,243.748171 Z" id="path-15"></path>
        <path d="M16.9673892,269.992387 C6.06920261,245.937185 0,219.218738 0,191.080166 C0,85.5500385 85.3716911,0 190.685872,0 C268.169664,0 334.860532,46.309302 364.697093,112.813696 L364.697066,269.350541 C364.601003,269.564676 364.504541,269.778636 364.407698,269.992387 L16.9673483,269.99238 L16.9673892,269.992387 Z" id="path-17"></path>
        <path d="M30.8649294,295.411757 C11.3458813,265.412415 0,229.568554 0,191.065523 C0,85.5434826 85.2252347,0 190.358748,0 C295.49226,0 380.721542,85.5434826 380.721542,191.065523 C380.721542,229.568554 369.375122,265.412415 349.855389,295.411757 L30.8649294,295.411757 Z" id="path-19"></path>
        <path d="M50.6549033,321.523548 C19.2159907,287.373134 0,241.674165 0,191.462137 C0,85.7210539 85.2252347,0 190.358748,0 C295.49226,0 380.721542,85.7210539 380.721542,191.462137 C380.721542,241.674165 361.504639,287.373134 330.064768,321.523548 L50.6549033,321.523548 Z" id="path-21"></path>
        <path d="M79.3373039,345.115567 C31.2890672,310.548433 0,254.135039 0,190.413362 C0,85.2514982 85.2252347,0 190.358748,0 C295.49226,0 380.721542,85.2514982 380.721542,190.413362 C380.721542,254.135039 349.430989,310.548433 301.381581,345.115567 L79.3373039,345.115567 Z" id="path-23"></path>
        <path d="M128.255092,369.67704 C53.6157176,343.975421 0,273.237579 0,190.003507 C0,85.0679987 85.2252347,0 190.358748,0 C295.49226,0 380.721542,85.0679987 380.721542,190.003507 C380.721542,273.237579 327.103278,343.975421 252.462851,369.67704 L128.255092,369.67704 Z" id="path-25"></path>
        <path d="M0,190.647942 C0,295.943412 85.2252347,381.308042 190.358748,381.308042 C295.49226,381.308042 380.721542,295.943412 380.721542,190.647942 C380.721542,85.3565238 295.49226,0 190.358748,0 C85.2252347,0 0,85.3565238 0,190.647942 Z" id="path-27"></path>
        <path d="M0,190.647942 C0,295.943412 85.2252347,381.308042 190.358748,381.308042 C295.49226,381.308042 380.721542,295.943412 380.721542,190.647942 C380.721542,85.3565238 295.49226,0 190.358748,0 C85.2252347,0 0,85.3565238 0,190.647942 Z" id="path-29"></path>
        <path d="M0,190.647942 C0,295.943412 85.2252347,381.308042 190.358748,381.308042 C295.49226,381.308042 380.721542,295.943412 380.721542,190.647942 C380.721542,85.3565238 295.49226,0 190.358748,0 C85.2252347,0 0,85.3565238 0,190.647942 Z" id="path-31"></path>
        <path d="M0,190.647942 C0,295.943412 85.2252347,381.308042 190.358748,381.308042 C295.49226,381.308042 380.721542,295.943412 380.721542,190.647942 C380.721542,85.3565238 295.49226,0 190.358748,0 C85.2252347,0 0,85.3565238 0,190.647942 Z" id="path-33"></path>
        <path d="M0,190.647942 C0,295.943412 85.2252347,381.308042 190.358748,381.308042 C295.49226,381.308042 380.721542,295.943412 380.721542,190.647942 C380.721542,85.3565238 295.49226,0 190.358748,0 C85.2252347,0 0,85.3565238 0,190.647942 Z" id="path-35"></path>
        <path d="M0,190.647942 C0,295.943412 85.2252347,381.308042 190.358748,381.308042 C295.49226,381.308042 380.721542,295.943412 380.721542,190.647942 C380.721542,85.3565238 295.49226,0 190.358748,0 C85.2252347,0 0,85.3565238 0,190.647942 Z" id="path-37"></path>
        <path d="M0,190.647942 C0,295.943412 85.2252347,381.308042 190.358748,381.308042 C295.49226,381.308042 380.721542,295.943412 380.721542,190.647942 C380.721542,85.3565238 295.49226,0 190.358748,0 C85.2252347,0 0,85.3565238 0,190.647942 Z" id="path-39"></path>
        <path d="M0,190.647942 C0,295.943412 85.2252347,381.308042 190.358748,381.308042 C295.49226,381.308042 380.721542,295.943412 380.721542,190.647942 C380.721542,85.3565238 295.49226,0 190.358748,0 C85.2252347,0 0,85.3565238 0,190.647942 Z" id="path-41"></path>
        <path d="M0,190.647942 C0,295.943412 85.2252347,381.308042 190.358748,381.308042 C295.49226,381.308042 380.721542,295.943412 380.721542,190.647942 C380.721542,85.3565238 295.49226,0 190.358748,0 C85.2252347,0 0,85.3565238 0,190.647942 Z" id="path-43"></path>
        <path d="M0,190.647942 C0,295.943412 85.2252347,381.308042 190.358748,381.308042 C295.49226,381.308042 380.721542,295.943412 380.721542,190.647942 C380.721542,85.3565238 295.49226,0 190.358748,0 C85.2252347,0 0,85.3565238 0,190.647942 Z" id="path-45"></path>
        <path d="M0,190.647942 C0,295.943412 85.2252347,381.308042 190.358748,381.308042 C295.49226,381.308042 380.721542,295.943412 380.721542,190.647942 C380.721542,85.3565238 295.49226,0 190.358748,0 C85.2252347,0 0,85.3565238 0,190.647942 Z" id="path-47"></path>
        <path d="M0,190.647942 C0,295.943412 85.2252347,381.308042 190.358748,381.308042 C295.49226,381.308042 380.721542,295.943412 380.721542,190.647942 C380.721542,85.3565238 295.49226,0 190.358748,0 C85.2252347,0 0,85.3565238 0,190.647942 Z" id="path-49"></path>
        <path d="M0,190.647942 C0,295.943412 85.2252347,381.308042 190.358748,381.308042 C295.49226,381.308042 380.721542,295.943412 380.721542,190.647942 C380.721542,85.3565238 295.49226,0 190.358748,0 C85.2252347,0 0,85.3565238 0,190.647942 Z" id="path-51"></path>
        <path d="M0,190.647942 C0,295.943412 85.2252347,381.308042 190.358748,381.308042 C295.49226,381.308042 380.721542,295.943412 380.721542,190.647942 C380.721542,85.3565238 295.49226,0 190.358748,0 C85.2252347,0 0,85.3565238 0,190.647942 Z" id="path-53"></path>
        <path d="M0,190.647942 C0,295.943412 85.2252347,381.308042 190.358748,381.308042 C295.49226,381.308042 380.721542,295.943412 380.721542,190.647942 C380.721542,85.3565238 295.49226,0 190.358748,0 C85.2252347,0 0,85.3565238 0,190.647942 Z" id="path-55"></path>
        <path d="M0,190.647942 C0,295.943412 85.2252347,381.308042 190.358748,381.308042 C295.49226,381.308042 380.721542,295.943412 380.721542,190.647942 C380.721542,85.3565238 295.49226,0 190.358748,0 C85.2252347,0 0,85.3565238 0,190.647942 Z" id="path-57"></path>
        <path d="M0,190.647942 C0,295.943412 85.2252347,381.308042 190.358748,381.308042 C295.49226,381.308042 380.721542,295.943412 380.721542,190.647942 C380.721542,85.3565238 295.49226,0 190.358748,0 C85.2252347,0 0,85.3565238 0,190.647942 Z" id="path-59"></path>
        <path d="M0,190.647942 C0,295.943412 85.2252347,381.308042 190.358748,381.308042 C295.49226,381.308042 380.721542,295.943412 380.721542,190.647942 C380.721542,85.3565238 295.49226,0 190.358748,0 C85.2252347,0 0,85.3565238 0,190.647942 Z" id="path-61"></path>
        <path d="M0,190.647942 C0,295.943412 85.2252347,381.308042 190.358748,381.308042 C295.49226,381.308042 380.721542,295.943412 380.721542,190.647942 C380.721542,85.3565238 295.49226,0 190.358748,0 C85.2252347,0 0,85.3565238 0,190.647942 Z" id="path-63"></path>
        <path d="M0,190.647942 C0,295.943412 85.2252347,381.308042 190.358748,381.308042 C295.49226,381.308042 380.721542,295.943412 380.721542,190.647942 C380.721542,85.3565238 295.49226,0 190.358748,0 C85.2252347,0 0,85.3565238 0,190.647942 Z" id="path-65"></path>
        <path d="M0,190.647942 C0,295.943412 85.2252347,381.308042 190.358748,381.308042 C295.49226,381.308042 380.721542,295.943412 380.721542,190.647942 C380.721542,85.3565238 295.49226,0 190.358748,0 C85.2252347,0 0,85.3565238 0,190.647942 Z" id="path-67"></path>
        <path d="M0,190.647942 C0,295.943412 85.2252347,381.308042 190.358748,381.308042 C295.49226,381.308042 380.721542,295.943412 380.721542,190.647942 C380.721542,85.3565238 295.49226,0 190.358748,0 C85.2252347,0 0,85.3565238 0,190.647942 Z" id="path-69"></path>
        <path d="M0,190.647942 C0,295.943412 85.2252347,381.308042 190.358748,381.308042 C295.49226,381.308042 380.721542,295.943412 380.721542,190.647942 C380.721542,85.3565238 295.49226,0 190.358748,0 C85.2252347,0 0,85.3565238 0,190.647942 Z" id="path-71"></path>
        <path d="M0,190.647942 C0,295.943412 85.2252347,381.308042 190.358748,381.308042 C295.49226,381.308042 380.721542,295.943412 380.721542,190.647942 C380.721542,85.3565238 295.49226,0 190.358748,0 C85.2252347,0 0,85.3565238 0,190.647942 Z" id="path-73"></path>
        <path d="M0,190.647942 C0,295.943412 85.2252347,381.308042 190.358748,381.308042 C295.49226,381.308042 380.721542,295.943412 380.721542,190.647942 C380.721542,85.3565238 295.49226,0 190.358748,0 C85.2252347,0 0,85.3565238 0,190.647942 Z" id="path-75"></path>
        <path d="M0,190.647942 C0,295.943412 85.2252347,381.308042 190.358748,381.308042 C295.49226,381.308042 380.721542,295.943412 380.721542,190.647942 C380.721542,85.3565238 295.49226,0 190.358748,0 C85.2252347,0 0,85.3565238 0,190.647942 Z" id="path-77"></path>
        <path d="M0,282.502239 C32.3964564,341.401112 94.9819371,381.308042 166.875685,381.308042 C272.024877,381.308042 357.26687,295.943412 357.26687,190.647942 C357.26687,85.3565238 272.024877,0 166.875685,0 C94.9819371,0 32.3964564,39.9031408 0,98.7983215 L6.6258631e-06,282.502251 L0,282.502239 Z" id="path-79"></path>
        <path d="M0,318.189214 C34.6865241,356.94236 84.9456064,381.308042 140.861593,381.308042 C245.522787,381.308042 330.369171,295.943412 330.369171,190.647942 C330.369171,85.3565238 245.522787,0 140.861593,0 C84.9456064,0 34.6865241,24.3633682 0,63.113741 L2.28977758e-13,318.189214 Z" id="path-81"></path>
        <path d="M0,341.712769 C32.1702501,366.540196 72.492074,381.308042 116.261206,381.308042 C221.493329,381.308042 306.802552,295.943412 306.802552,190.647942 C306.802552,85.3565238 221.493329,0 116.261206,0 C72.492074,0 32.1702501,14.7664435 2.30226838e-13,39.5919409 L2.30226838e-13,341.712769 Z" id="path-83"></path>
        <path d="M0,334.322572 C27.0925086,349.06806 58.1458106,357.444909 91.1539833,357.444909 C196.694079,357.444909 282.252966,271.805699 282.252966,166.171539 C282.252966,95.0214663 243.43431,32.9450846 185.837985,0 L0,0 L3.23654836e-05,334.32259 L0,334.322572 Z" id="path-85"></path>
        <path d="M0,318.14676 C20.4944965,325.6038 42.6322634,329.673527 65.7266919,329.673527 C171.298652,329.673527 256.883372,244.628683 256.883372,139.727661 C256.883372,84.4616806 233.126679,34.708519 195.206676,0 L0,0 L1.22183305e-10,318.14676 Z" id="path-87"></path>
        <path d="M0,300.829879 C12.9512352,303.603263 26.3906423,305.063183 40.1715756,305.063183 C145.470945,305.063183 230.834682,219.827148 230.834682,114.690296 C230.834682,71.6231651 216.509874,31.8962502 192.357927,0 L0,0 L2.30373957e-13,300.829879 Z" id="path-89"></path>
        <path d="M0,279.922233 C4.86270519,280.296804 9.77663848,280.487543 14.7349255,280.487543 C119.695264,280.487543 204.784157,195.015086 204.784157,89.5866108 C204.784157,57.2093155 196.758667,26.7146325 182.596816,0 L0,0 L9.6445535e-12,279.922233 Z" id="path-91"></path>
        <path d="M0,254.526167 C100.447562,249.01908 180.202348,165.867483 180.202348,64.1051486 C180.202348,41.615095 176.306545,20.0343099 169.152568,0 L0,0 L0,254.526167 Z" id="path-93"></path>
        <path d="M0,227.410774 C86.687664,210.471843 152.205791,132.530834 152.205791,38.9457437 C152.205791,25.60186 150.873663,12.5761198 148.337981,0 L0,0 L0,227.410774 Z" id="path-95"></path>
        <path d="M0,192.292776 C75.8521562,166.949093 130.427563,96.339928 130.427563,13.2038423 C130.427563,8.76518256 130.271982,4.36224107 129.96589,0 L0,0 L0,192.292776 Z" id="path-97"></path>
        <path d="M0,158.579895 C58.3448967,128.57192 99.2878161,69.2721268 103.597396,0 L0,0 L0,158.579895 Z" id="path-99"></path>
    </defs>
    <g id="Startup-Garage---Startups" stroke="none" stroke-width="1" fill="none" fill-rule="evenodd" transform="translate(0.000000, -2132.000000)" opacity="0.673913043">
        <g id="Pattern" transform="translate(180.000000, 2245.500000) rotate(-180.000000) translate(-180.000000, -2245.500000) translate(0.000000, 2054.000000)">
            <mask id="mask-2" fill="white">
                <use xlink:href="#path-1"></use>
            </mask>
            <g id="Mask"></g>
            <g opacity="0.0797101449" mask="url(#mask-2)">
                <g transform="translate(82.000000, -77.000000)">
                    <g id="Group-241" transform="translate(28.609348, 0.000000)">
                        <mask id="mask-4" fill="white">
                            <use xlink:href="#path-3"></use>
                        </mask>
                        <g id="Clip-240"></g>
                        <polygon id="Fill-239" fill="#223B98" mask="url(#mask-4)" points="-353.409596 91.8837382 -353.409596 79.8864506 150.333973 -425.957212 153.318797 -428.958564 159.288444 -422.959921"></polygon>
                    </g>
                    <g id="Group-244" transform="translate(15.146126, 0.000000)">
                        <mask id="mask-6" fill="white">
                            <use xlink:href="#path-5"></use>
                        </mask>
                        <g id="Clip-243"></g>
                        <polygon id="Fill-242" fill="#223B98" mask="url(#mask-6)" points="-339.104922 119.001743 -339.104922 106.860675 186.55682 -430.980811 189.52237 -434.01505 195.461506 -427.942461"></polygon>
                    </g>
                    <g id="Group-247" transform="translate(7.573063, 0.000000)">
                        <mask id="mask-8" fill="white">
                            <use xlink:href="#path-7"></use>
                        </mask>
                        <g id="Clip-246"></g>
                        <polygon id="Fill-245" fill="#223B98" mask="url(#mask-8)" points="-332.37331 143.847225 -332.37331 131.760573 221.917127 -429.308915 224.901271 -432.329555 230.869557 -426.288276"></polygon>
                    </g>
                    <g id="Group-250" transform="translate(2.524354, 0.000000)">
                        <mask id="mask-10" fill="white">
                            <use xlink:href="#path-9"></use>
                        </mask>
                        <g id="Clip-249"></g>
                        <polygon id="Fill-248" fill="#223B98" mask="url(#mask-10)" points="-326.48315 167.625753 -326.48315 155.657115 251.309765 -425.125683 254.288536 -428.115817 260.238017 -422.13555"></polygon>
                    </g>
                    <g id="Group-253">
                        <mask id="mask-12" fill="white">
                            <use xlink:href="#path-11"></use>
                        </mask>
                        <g id="Clip-252"></g>
                        <polygon id="Fill-251" fill="#223B98" mask="url(#mask-12)" points="-324.800247 192.07487 -324.800247 180.209456 278.49222 -420.932711 281.472229 -423.902078 287.428213 -417.967362"></polygon>
                    </g>
                    <g id="Group-256">
                        <mask id="mask-14" fill="white">
                            <use xlink:href="#path-13"></use>
                        </mask>
                        <g id="Clip-255"></g>
                        <polygon id="Fill-254" fill="#223B98" mask="url(#mask-14)" points="-325.641699 219.82138 -325.641699 207.814692 304.803079 -425.953843 307.792042 -428.958564 313.76188 -422.953187"></polygon>
                    </g>
                    <g id="Group-259">
                        <mask id="mask-16" fill="white">
                            <use xlink:href="#path-15"></use>
                        </mask>
                        <g id="Clip-258"></g>
                        <polygon id="Fill-257" fill="#223B98" mask="url(#mask-16)" points="-325.641699 244.09897 -325.641699 232.139536 330.241714 -424.281186 333.231148 -427.273069 339.201925 -421.293352"></polygon>
                    </g>
                    <g id="Group-262">
                        <mask id="mask-18" fill="white">
                            <use xlink:href="#path-17"></use>
                        </mask>
                        <g id="Clip-261"></g>
                        <polygon id="Fill-260" fill="#223B98" mask="url(#mask-18)" points="-326.48315 270.05617 -326.48315 258.057556 356.109364 -425.960942 359.100737 -428.958564 365.087538 -422.963319"></polygon>
                    </g>
                    <g id="Group-265">
                        <mask id="mask-20" fill="white">
                            <use xlink:href="#path-19"></use>
                        </mask>
                        <g id="Clip-264"></g>
                        <polygon id="Fill-263" fill="#223B98" mask="url(#mask-20)" points="-325.641699 295.443889 -325.641699 283.450256 381.130501 -425.961171 384.116743 -428.958564 390.089226 -422.963779"></polygon>
                    </g>
                    <g id="Group-268">
                        <mask id="mask-22" fill="white">
                            <use xlink:href="#path-21"></use>
                        </mask>
                        <g id="Clip-267"></g>
                        <polygon id="Fill-266" fill="#223B98" mask="url(#mask-22)" points="-325.641699 321.607094 -325.641699 309.584495 406.477138 -426.793627 409.46338 -429.801312 415.43991 -423.790012"></polygon>
                    </g>
                    <g id="Group-271">
                        <mask id="mask-24" fill="white">
                            <use xlink:href="#path-23"></use>
                        </mask>
                        <g id="Clip-270"></g>
                        <polygon id="Fill-269" fill="#223B98" mask="url(#mask-24)" points="-325.641699 345.369735 -325.641699 333.417039 431.823775 -424.285907 434.810017 -427.273069 440.786547 -421.294697"></polygon>
                    </g>
                    <g id="Group-274">
                        <mask id="mask-26" fill="white">
                            <use xlink:href="#path-25"></use>
                        </mask>
                        <g id="Clip-273"></g>
                        <polygon id="Fill-272" fill="#223B98" mask="url(#mask-26)" points="-325.641699 369.849282 -325.641699 357.918275 457.170412 -423.449589 460.1607 -426.430321 466.133184 -420.468857"></polygon>
                    </g>
                    <g id="Group-277">
                        <mask id="mask-28" fill="white">
                            <use xlink:href="#path-27"></use>
                        </mask>
                        <g id="Clip-276"></g>
                        <polygon id="Fill-275" fill="#223B98" mask="url(#mask-28)" points="-325.641699 396.254265 -325.641699 384.286844 482.521096 -425.124975 485.507337 -428.115817 491.479821 -422.13008"></polygon>
                    </g>
                    <g id="Group-280">
                        <mask id="mask-30" fill="white">
                            <use xlink:href="#path-29"></use>
                        </mask>
                        <g id="Clip-279"></g>
                        <polygon id="Fill-278" fill="#223B98" mask="url(#mask-30)" points="-325.641699 421.644001 -325.641699 409.672527 507.867733 -425.124975 510.858021 -428.115817 516.830504 -422.134133"></polygon>
                    </g>
                    <g id="Group-283">
                        <mask id="mask-32" fill="white">
                            <use xlink:href="#path-31"></use>
                        </mask>
                        <g id="Clip-282"></g>
                        <polygon id="Fill-281" fill="#223B98" mask="url(#mask-32)" points="-325.641699 447.029684 -325.641699 435.058211 533.218416 -425.124975 536.204658 -428.115817 542.181188 -422.134133"></polygon>
                    </g>
                    <g id="Group-286">
                        <mask id="mask-34" fill="white">
                            <use xlink:href="#path-33"></use>
                        </mask>
                        <g id="Clip-285"></g>
                        <polygon id="Fill-284" fill="#223B98" mask="url(#mask-34)" points="-325.641699 472.41942 -325.641699 460.452 558.565053 -425.124975 561.555341 -428.115817 567.527825 -422.126027"></polygon>
                    </g>
                    <g id="Group-289">
                        <mask id="mask-36" fill="white">
                            <use xlink:href="#path-35"></use>
                        </mask>
                        <g id="Clip-288"></g>
                        <polygon id="Fill-287" fill="#223B98" mask="url(#mask-36)" points="-325.641699 497.805104 -325.641699 485.833631 583.91169 -425.124975 586.906025 -428.115817 592.878508 -422.134133"></polygon>
                    </g>
                    <g id="Group-292">
                        <mask id="mask-38" fill="white">
                            <use xlink:href="#path-37"></use>
                        </mask>
                        <g id="Clip-291"></g>
                        <polygon id="Fill-290" fill="#223B98" mask="url(#mask-38)" points="-325.641699 523.190787 -325.641699 511.219314 609.262374 -425.124975 612.252662 -428.115817 618.225145 -422.134133"></polygon>
                    </g>
                    <g id="Group-295">
                        <mask id="mask-40" fill="white">
                            <use xlink:href="#path-39"></use>
                        </mask>
                        <g id="Clip-294"></g>
                        <polygon id="Fill-293" fill="#223B98" mask="url(#mask-40)" points="-325.641699 548.580523 -325.641699 536.613103 634.609011 -425.124975 637.599299 -428.115817 643.575829 -422.13008"></polygon>
                    </g>
                    <g id="Group-298">
                        <mask id="mask-42" fill="white">
                            <use xlink:href="#path-41"></use>
                        </mask>
                        <g id="Clip-297"></g>
                        <polygon id="Fill-296" fill="#223B98" mask="url(#mask-42)" points="-325.641699 573.97026 -325.641699 561.998786 659.959694 -425.124975 662.945936 -428.115817 668.922466 -422.134133"></polygon>
                    </g>
                    <g id="Group-301">
                        <mask id="mask-44" fill="white">
                            <use xlink:href="#path-43"></use>
                        </mask>
                        <g id="Clip-300"></g>
                        <polygon id="Fill-299" fill="#223B98" mask="url(#mask-44)" points="-325.641699 599.355943 -325.641699 587.38447 685.310378 -425.124975 688.29662 -428.115817 694.269103 -422.13008"></polygon>
                    </g>
                    <g id="Group-304">
                        <mask id="mask-46" fill="white">
                            <use xlink:href="#path-45"></use>
                        </mask>
                        <g id="Clip-303"></g>
                        <polygon id="Fill-302" fill="#223B98" mask="url(#mask-46)" points="-325.641699 624.741627 -325.641699 612.774206 710.657015 -425.124975 713.647303 -428.115817 719.623833 -422.134133"></polygon>
                    </g>
                    <g id="Group-307">
                        <mask id="mask-48" fill="white">
                            <use xlink:href="#path-47"></use>
                        </mask>
                        <g id="Clip-306"></g>
                        <polygon id="Fill-305" fill="#223B98" mask="url(#mask-48)" points="-325.641699 650.131363 -325.641699 638.159889 736.003652 -425.124975 738.99394 -428.115817 744.97047 -422.134133"></polygon>
                    </g>
                    <g id="Group-310">
                        <mask id="mask-50" fill="white">
                            <use xlink:href="#path-49"></use>
                        </mask>
                        <g id="Clip-309"></g>
                        <polygon id="Fill-308" fill="#223B98" mask="url(#mask-50)" points="-325.641699 663.549625 761.354336 -425.124975 764.344624 -428.115817 768.249398 -424.196922 768.249398 -420.059185 -325.641699 675.521099"></polygon>
                    </g>
                    <g id="Group-313">
                        <mask id="mask-52" fill="white">
                            <use xlink:href="#path-51"></use>
                        </mask>
                        <g id="Clip-312"></g>
                        <polygon id="Fill-311" fill="#223B98" mask="url(#mask-52)" points="-325.641699 697.428486 -325.641699 689.371854 768.249398 -406.204377 768.249398 -394.241009 -321.732878 697.428486"></polygon>
                    </g>
                    <g id="Group-316">
                        <mask id="mask-54" fill="white">
                            <use xlink:href="#path-53"></use>
                        </mask>
                        <g id="Clip-315"></g>
                        <polygon id="Fill-314" fill="#223B98" mask="url(#mask-54)" points="-302.460623 697.325232 -305.446865 694.33439 768.147499 -380.921947 768.147499 -368.950474 -296.48814 697.325232"></polygon>
                    </g>
                    <g id="Group-319">
                        <mask id="mask-56" fill="white">
                            <use xlink:href="#path-55"></use>
                        </mask>
                        <g id="Clip-318"></g>
                        <polygon id="Fill-317" fill="#223B98" mask="url(#mask-56)" points="-277.213034 697.221979 -280.203322 694.231137 768.052498 -355.639517 768.052498 -343.668044 -271.240551 697.221979"></polygon>
                    </g>
                    <g id="Group-322">
                        <mask id="mask-58" fill="white">
                            <use xlink:href="#path-57"></use>
                        </mask>
                        <g id="Clip-321"></g>
                        <polygon id="Fill-320" fill="#223B98" mask="url(#mask-58)" points="-251.969492 697.114673 -254.95978 694.123831 767.94131 -330.357087 767.94131 -318.389666 -245.997008 697.114673"></polygon>
                    </g>
                    <g id="Group-325">
                        <mask id="mask-60" fill="white">
                            <use xlink:href="#path-59"></use>
                        </mask>
                        <g id="Clip-324"></g>
                        <polygon id="Fill-323" fill="#223B98" mask="url(#mask-60)" points="-226.729995 697.011419 -229.716237 694.020577 767.838216 -305.074657 767.838216 -293.103183 -220.757512 697.011419"></polygon>
                    </g>
                    <g id="Group-328">
                        <mask id="mask-62" fill="white">
                            <use xlink:href="#path-61"></use>
                        </mask>
                        <g id="Clip-327"></g>
                        <polygon id="Fill-326" fill="#223B98" mask="url(#mask-62)" points="-201.482407 696.908166 -204.472695 693.917324 767.731075 -279.792227 767.731075 -267.820753 -195.509923 696.908166"></polygon>
                    </g>
                    <g id="Group-331">
                        <mask id="mask-64" fill="white">
                            <use xlink:href="#path-63"></use>
                        </mask>
                        <g id="Clip-330"></g>
                        <polygon id="Fill-329" fill="#223B98" mask="url(#mask-64)" points="-176.238864 696.796808 -179.229152 693.805965 767.62798 -254.509797 767.62798 -242.546428 -170.266381 696.796808"></polygon>
                    </g>
                    <g id="Group-334">
                        <mask id="mask-66" fill="white">
                            <use xlink:href="#path-65"></use>
                        </mask>
                        <g id="Clip-333"></g>
                        <polygon id="Fill-332" fill="#223B98" mask="url(#mask-66)" points="-150.15387 697.540354 -153.144158 694.549512 768.370384 -228.384619 768.370384 -216.413145 -144.181387 697.540354"></polygon>
                    </g>
                    <g id="Group-337">
                        <mask id="mask-68" fill="white">
                            <use xlink:href="#path-67"></use>
                        </mask>
                        <g id="Clip-336"></g>
                        <polygon id="Fill-335" fill="#223B98" mask="url(#mask-68)" points="-124.910327 697.437101 -127.900616 694.446259 768.259196 -203.102189 768.259196 -191.130715 -118.937844 697.437101"></polygon>
                    </g>
                    <g id="Group-340">
                        <mask id="mask-70" fill="white">
                            <use xlink:href="#path-69"></use>
                        </mask>
                        <g id="Clip-339"></g>
                        <polygon id="Fill-338" fill="#223B98" mask="url(#mask-70)" points="-99.6748777 697.329795 -102.657073 694.338953 768.156102 -177.819759 768.156102 -165.848285 -93.6983478 697.329795"></polygon>
                    </g>
                    <g id="Group-343">
                        <mask id="mask-72" fill="white">
                            <use xlink:href="#path-71"></use>
                        </mask>
                        <g id="Clip-342"></g>
                        <polygon id="Fill-341" fill="#223B98" mask="url(#mask-72)" points="-74.4232424 697.226542 -77.4135305 694.2357 768.048961 -152.537328 768.048961 -140.565855 -68.4507589 697.226542"></polygon>
                    </g>
                    <g id="Group-346">
                        <mask id="mask-74" fill="white">
                            <use xlink:href="#path-73"></use>
                        </mask>
                        <g id="Clip-345"></g>
                        <polygon id="Fill-344" fill="#223B98" mask="url(#mask-74)" points="-49.1837462 697.119236 -52.1699879 694.128394 767.94182 -127.254898 767.94182 -115.287478 -43.2072164 697.119236"></polygon>
                    </g>
                    <g id="Group-349">
                        <mask id="mask-76" fill="white">
                            <use xlink:href="#path-75"></use>
                        </mask>
                        <g id="Clip-348"></g>
                        <polygon id="Fill-347" fill="#223B98" mask="url(#mask-76)" points="-23.9402037 697.01193 -26.9264454 694.021088 767.838725 -101.972468 767.838725 -90.0050475 -17.9677202 697.01193"></polygon>
                    </g>
                    <g id="Group-352">
                        <mask id="mask-78" fill="white">
                            <use xlink:href="#path-77"></use>
                        </mask>
                        <g id="Clip-351"></g>
                        <polygon id="Fill-350" fill="#223B98" mask="url(#mask-78)" points="1.30738529 696.908676 -1.68290284 693.917834 767.739677 -76.690038 767.739677 -64.7185647 7.27986874 696.908676"></polygon>
                    </g>
                    <g id="Group-355" transform="translate(23.560640, 0.000000)">
                        <mask id="mask-80" fill="white">
                            <use xlink:href="#path-79"></use>
                        </mask>
                        <g id="Clip-354"></g>
                        <polygon id="Fill-353" fill="#223B98" mask="url(#mask-80)" points="2.9907341 696.80137 0 693.810528 744.182869 -51.4076079 744.182869 -39.4361346 8.96410829 696.80137"></polygon>
                    </g>
                    <g id="Group-358" transform="translate(50.487085, 0.000000)">
                        <mask id="mask-82" fill="white">
                            <use xlink:href="#path-81"></use>
                        </mask>
                        <g id="Clip-357"></g>
                        <polygon id="Fill-356" fill="#223B98" mask="url(#mask-82)" points="2.96879764 697.540865 0 694.550023 715.492315 -25.2824301 715.492315 -13.3150094 8.91847757 697.540865"></polygon>
                    </g>
                    <g id="Group-361" transform="translate(74.047725, 0.000000)">
                        <mask id="mask-84" fill="white">
                            <use xlink:href="#path-83"></use>
                        </mask>
                        <g id="Clip-360"></g>
                        <polygon id="Fill-359" fill="#223B98" mask="url(#mask-84)" points="2.9890427 697.433559 0 694.442717 694.020884 0 694.020884 11.9674207 8.9711783 697.433559"></polygon>
                    </g>
                    <g id="Group-364" transform="translate(98.449816, 23.596935)">
                        <mask id="mask-86" fill="white">
                            <use xlink:href="#path-85"></use>
                        </mask>
                        <g id="Clip-363"></g>
                        <polygon id="Fill-362" fill="#223B98" mask="url(#mask-86)" points="2.9977904 674.209558 0 671.209096 670.607338 0 670.607338 12.0099803 8.99743326 674.209558"></polygon>
                    </g>
                    <g id="Group-367" transform="translate(124.534810, 51.407608)">
                        <mask id="mask-88" fill="white">
                            <use xlink:href="#path-87"></use>
                        </mask>
                        <g id="Clip-366"></g>
                        <polygon id="Fill-365" fill="#223B98" mask="url(#mask-88)" points="2.9986955 644.239724 0 641.260086 645.353403 0 645.353403 11.9266269 8.99608649 644.239724"></polygon>
                    </g>
                    <g id="Group-370" transform="translate(150.619804, 76.690038)">
                        <mask id="mask-90" fill="white">
                            <use xlink:href="#path-89"></use>
                        </mask>
                        <g id="Clip-369"></g>
                        <polygon id="Fill-368" fill="#223B98" mask="url(#mask-90)" points="2.99500553 620.336561 0 617.350225 618.304505 0 618.304505 11.9534393 8.97691104 620.336561"></polygon>
                    </g>
                    <g id="Group-373" transform="translate(176.704798, 101.129720)">
                        <mask id="mask-92" fill="white">
                            <use xlink:href="#path-91"></use>
                        </mask>
                        <g id="Clip-372"></g>
                        <polygon id="Fill-371" fill="#223B98" mask="url(#mask-92)" points="2.98536257 596.63541 0 593.64079 591.004836 0 591.004836 11.9825374 8.94800825 596.63541"></polygon>
                    </g>
                    <g id="Group-376" transform="translate(201.106889, 125.569403)">
                        <mask id="mask-94" fill="white">
                            <use xlink:href="#path-93"></use>
                        </mask>
                        <g id="Clip-375"></g>
                        <polygon id="Fill-374" fill="#223B98" mask="url(#mask-94)" points="2.98939223 570.650503 0 567.658856 567.992636 0 567.992636 11.97064 8.98034518 570.650503"></polygon>
                    </g>
                    <g id="Group-379" transform="translate(228.874786, 153.380076)">
                        <mask id="mask-96" fill="white">
                            <use xlink:href="#path-95"></use>
                        </mask>
                        <g id="Clip-378"></g>
                        <polygon id="Fill-377" fill="#223B98" mask="url(#mask-96)" points="2.94335575 548.594618 0 545.584643 533.509153 0 533.509153 12.0439822 8.83405552 548.594618"></polygon>
                    </g>
                    <g id="Group-382" transform="translate(250.752523, 176.977011)">
                        <mask id="mask-98" fill="white">
                            <use xlink:href="#path-97"></use>
                        </mask>
                        <g id="Clip-381"></g>
                        <polygon id="Fill-380" fill="#223B98" mask="url(#mask-98)" points="3.01755698 515.480031 0 512.513598 521.342256 0 521.342256 11.873771 9.05675977 515.480031"></polygon>
                    </g>
                    <g id="Group-385" transform="translate(277.678968, 201.416693)">
                        <mask id="mask-100" fill="white">
                            <use xlink:href="#path-99"></use>
                        </mask>
                        <g id="Clip-384"></g>
                        <polygon id="Fill-383" fill="#223B98" mask="url(#mask-100)" points="2.993406 496.965282 0 493.958532 491.762254 0 491.762254 12.035149 8.98021799 496.965282"></polygon>
                    </g>
                </g>
            </g>
        </g>
    </g>
</svg>