<?xml version="1.0" encoding="UTF-8"?>
<svg width="18px" height="19px" viewBox="0 0 18 19" version="1.1" xmlns="http://www.w3.org/2000/svg" xmlns:xlink="http://www.w3.org/1999/xlink">
    <!-- Generator: Sketch 48.2 (47327) - http://www.bohemiancoding.com/sketch -->
    <title>Shape</title>
    <desc>Created with Sketch.</desc>
    <defs></defs>
    <g id="Startup-Garage---Programme-Objectives" stroke="none" stroke-width="1" fill="none" fill-rule="evenodd" transform="translate(-723.000000, -827.000000)">
        <g id="1_Mentoring-" transform="translate(-24.000000, 598.000000)" fill="#179FDC" fill-rule="nonzero">
            <g id="Copy" transform="translate(124.000000, 70.000000)">
                <g id="Bullets" transform="translate(612.000000, 111.000000)">
                    <path d="M29,50 L29,67 L11,67 L11,50 L13.25,50 L13.25,50.7727273 C13.25,51.6250455 13.92275,52.3181818 14.75,52.3181818 C15.57725,52.3181818 16.25,51.6250455 16.25,50.7727273 L16.25,50 L23.75,50 L23.75,50.7727273 C23.75,51.6250455 24.42275,52.3181818 25.25,52.3181818 C26.07725,52.3181818 26.75,51.6250455 26.75,50.7727273 L26.75,50 L29,50 Z M28,54 L13,54 L13,65 L28,65 L28,54 Z M27,48.75 C27,48.336 26.553,48 26,48 C25.447,48 25,48.336 25,48.75 L25,50.25 C25,50.664 25.447,51 26,51 C26.553,51 27,50.664 27,50.25 L27,48.75 Z M16,50.25 C16,50.664 15.553,51 15,51 C14.447,51 14,50.664 14,50.25 L14,48.75 C14,48.336 14.447,48 15,48 C15.553,48 16,48.336 16,48.75 L16,50.25 Z M16,59.0336845 L16.684,58.4843153 C17.484,58.8204653 17.992,59.0760505 18.892,59.6330594 C20.5824,57.9668943 21.7008,57.1216576 23.7768,56 L24,56.4444959 C22.2872,57.7425628 21.0328,59.1871744 19.2264,62 C18.112,60.8609793 17.3688,60.1345063 16,59.0336845 Z" id="Shape"></path>
                </g>
            </g>
        </g>
    </g>
</svg>