<svg width="120" height="14" viewBox="0 0 120 14" xmlns="http://www.w3.org/2000/svg"><title>Logo/Facebook/White</title><path d="M10.364.466v1.656c0 .108-.072.18-.18.18H3.093v3.383h5.853c.108 0 .18.072.18.18V7.52c0 .108-.072.18-.18.18H3.091v5.003c0 .108-.072.18-.179.18H1.136c-.109 0-.18-.072-.18-.18V.466c0-.108.072-.18.18-.18h9.05c.107 0 .18.072.18.18m14.472 12.418h-1.957c-.108 0-.18-.054-.207-.162A47.779 47.779 0 0 0 21.74 9.5h-6.007a43.32 43.32 0 0 0-.924 3.222c-.027.108-.099.162-.207.162h-1.885c-.126 0-.198-.072-.162-.198C13.686 8.673 15.41 4.245 17.152.52c.081-.171.18-.234.35-.234h2.55c.171 0 .27.063.351.234C22.162 4.236 23.859 8.673 25 12.686c.036.126-.036.198-.162.198zm-3.762-5.327a75.126 75.126 0 0 0-2.128-5.291h-.422a75.125 75.125 0 0 0-2.137 5.29h4.687zm6.976-.864c0-3.905 2.568-6.641 6.231-6.641h.27c2.298 0 4.076 1.17 5.019 2.862.063.108.045.198-.063.252l-1.58.782c-.108.054-.243.054-.315-.081-.664-1.151-1.661-1.763-3.133-1.763h-.27c-2.307 0-3.896 1.835-3.896 4.499 0 2.673 1.562 4.463 3.896 4.463h.27c1.508 0 2.388-.513 3.062-1.296.089-.1.188-.116.296-.063l1.625.792c.063.036.09.08.09.126 0 .045-.018.08-.054.135-.997 1.458-2.792 2.358-4.983 2.358h-.27c-3.726 0-6.195-2.565-6.195-6.425m25.823 4.355v1.656c0 .108-.072.18-.18.18h-9.427c-.108 0-.18-.072-.18-.18V.466c0-.108.072-.18.18-.18h9.266c.108 0 .179.072.179.18v1.655c0 .108-.071.18-.18.18h-7.308v3.276h5.944c.108 0 .18.072.18.18v1.638c0 .108-.072.18-.18.18h-5.944v3.293h7.47c.108 0 .18.072.18.18m16.233-1.62c0 2.205-1.688 3.455-4.67 3.455h-6.176c-.108 0-.18-.07-.18-.179V.465c0-.108.072-.18.18-.18h5.629c2.9 0 4.48 1.152 4.48 3.258 0 1.386-.7 2.295-2.118 2.717 1.993.423 2.855 1.62 2.855 3.168m-5.262-7.18h-3.627V5.63h3.627c1.626 0 2.37-.53 2.37-1.692 0-1.16-.744-1.692-2.37-1.692m3.07 6.992c0-1.17-.771-1.7-2.468-1.7h-4.23v3.383h4.23c1.724 0 2.469-.504 2.469-1.683m5.953-2.653c0-3.797 2.514-6.533 6.465-6.533h.269c3.95 0 6.465 2.736 6.465 6.533s-2.514 6.533-6.465 6.533h-.27c-3.95 0-6.464-2.736-6.464-6.533zm6.734 4.48c2.577 0 4.202-1.771 4.202-4.48 0-2.71-1.625-4.481-4.202-4.481h-.27c-2.576 0-4.201 1.772-4.201 4.48 0 2.71 1.625 4.482 4.202 4.482h.269zm10.109-4.48c0-3.797 2.514-6.533 6.465-6.533h.27c3.95 0 6.464 2.736 6.464 6.533s-2.514 6.533-6.465 6.533h-.269c-3.95 0-6.465-2.736-6.465-6.533zm6.734 4.48c2.577 0 4.202-1.771 4.202-4.48 0-2.71-1.625-4.481-4.202-4.481h-.269c-2.577 0-4.202 1.772-4.202 4.48 0 2.71 1.625 4.482 4.202 4.482h.27zm21.953 1.819h-2.317c-.152 0-.215-.036-.314-.153a49.048 49.048 0 0 0-5.18-5.228h-1.042v5.2c0 .109-.072.18-.18.18h-1.778c-.107 0-.179-.071-.179-.18V.467c0-.108.072-.18.18-.18h1.777c.108 0 .18.072.18.18v4.967h1.06c1.75-1.584 3.366-3.293 4.686-5.012.09-.117.162-.135.27-.135h2.191c.107 0 .161.054.161.126 0 .036-.018.08-.063.135-1.93 2.385-3.843 4.337-5.61 5.849a54.274 54.274 0 0 1 6.257 6.263c.098.117.045.225-.099.225" fill="#F5F6F6" fill-rule="evenodd"/></svg>