<svg width="101" height="101" viewBox="0 0 101 101" xmlns="http://www.w3.org/2000/svg"><title>Combined Shape</title><path d="M33.562 37.648L28.41 32.82c-1.75 1.085-3.802 1.74-6.019 1.74C16.1 34.56 11 29.51 11 23.277S16.1 12 22.39 12c6.29 0 11.382 5.047 11.382 11.277 0 1.966-.553 3.788-1.447 5.398l5.58 5.226A18.911 18.911 0 0 1 48 31c2.69 0 5.25.56 7.57 1.568l8.375-13.89c-1.99-1.984-3.222-4.703-3.222-7.712C60.723 4.905 65.702 0 71.855 0 78.018 0 83 4.907 83 10.966c0 6.061-4.982 10.972-11.145 10.972-1.069 0-2.088-.2-3.07-.476l-8.481 14.06a18.96 18.96 0 0 1 6.653 13.193l12.466 1.16C80.998 45.87 85.06 43 89.856 43 96.015 43 101 47.702 101 53.501 101 59.303 96.015 64 89.856 64c-5.561 0-10.144-3.845-10.983-8.859L66.58 53.997c-1.305 6.095-5.533 11.106-11.146 13.494l2.388 11.136c5.65.18 10.186 5.098 10.179 11.175C68 95.989 63.305 101 57.506 101 51.695 101 47 95.992 47 89.802c0-4.324 2.315-8.027 5.67-9.9l-2.37-11.04c-.754.091-1.522.138-2.3.138-6.21 0-11.724-2.979-15.19-7.586l-10.898 3.697c.021.252.076.489.076.746C21.988 72.017 17.059 77 10.99 77 4.916 77 0 72.017 0 65.857c0-6.152 4.916-11.135 10.99-11.135 3.85 0 7.233 2.018 9.198 5.06l9.922-3.368A18.967 18.967 0 0 1 29 50c0-4.716 1.718-9.03 4.562-12.352z" fill="#EEE"/></svg>