<?xml version="1.0" encoding="UTF-8"?>
<svg width="138px" height="118px" viewBox="0 0 138 118" version="1.1" xmlns="http://www.w3.org/2000/svg" xmlns:xlink="http://www.w3.org/1999/xlink">
    <!-- Generator: Sketch 48.2 (47327) - http://www.bohemiancoding.com/sketch -->
    <title>Group</title>
    <desc>Created with Sketch.</desc>
    <defs></defs>
    <g id="Page-1" stroke="none" stroke-width="1" fill="none" fill-rule="evenodd">
        <g id="Group" fill="#F2F2F2">
            <path d="M30.9202336,2.39672754 C31.6753253,2.39070661 32.1744899,2.43207152 32.1882305,2.43300503 L51.7578164,4.63102844 C56.4004922,5.05912713 56.9530313,12.2185037 51.2877539,12.769225 L38.8456523,14.3662897 L62.6290898,28.1262188 C64.5438398,29.232523 65.2071563,31.674171 64.1039648,33.5934576 C63.0002344,35.5116639 60.5531602,36.1712329 58.6381406,35.0651988 L56.4258281,33.787385 L61.2534023,36.5804251 C63.1700391,37.6894302 63.8274258,40.1459334 62.7201914,42.0671107 C61.6137656,43.9880179 59.1623789,44.6456963 57.2454727,43.5369612 L54.6215859,42.0187639 C56.5384922,43.1277691 57.1953398,45.5840022 56.0886445,47.5049093 C54.9816797,49.4260866 52.5305625,50.0840351 50.6136563,48.9750299 L44.3001563,45.3222813 C46.2151758,46.429936 46.8712148,48.8842784 45.7653281,50.8038351 C44.6599805,52.7225815 42.21075,53.3797198 40.2962695,52.2720651 L28.6942969,45.5599638 L28.7007656,45.5491601 C9.66512109,34.5549916 11.3658633,36.6644242 9.04627734,29.2538604 C7.17653906,23.9889218 -1.97189063,24.3532783 0.385699219,18.9330358 C1.04034637,17.7974744 5.44366421,10.1547672 8.12669127,5.49782122 C7.77622087,5.79578072 7.43768886,6.20135004 7.12711268,6.74387302 L9.79059155,2.09180952 C10.7249793,0.45975089 11.9124962,0.0672314014 12.9168566,0.115215353 C13.7950873,0.0715724347 14.575204,0.397807801 14.9964492,0.619325103 C16.9858594,1.78748083 16.2530039,1.3610027 17.4974297,2.0808027 L17.4971602,2.08134289 C19.7334436,3.34919504 21.0577503,3.86166653 22.2959127,3.91906705 C23.5040359,3.88475969 24.7125551,3.43571976 26.7169155,2.86301587 L26.7174507,2.86328571 C28.2838679,2.43171767 29.9566474,2.38083131 30.9202336,2.39672754 Z" id="Path"></path>
            <path d="M76.4518285,43.7765938 C76.4247602,43.7338598 76.3983894,43.6904492 76.3727395,43.6463682 C75.2635718,41.7407238 75.922157,39.3040069 77.8430757,38.2038135 L79.1162823,37.4748153 C77.5156435,37.6819977 75.8636532,36.9135049 75.0517852,35.3666098 L75.0600948,35.3618342 C75.0348254,35.3217391 75.010169,35.2810512 74.9861447,35.2397755 C73.876977,33.3338631 74.5352921,30.8971463 76.4564809,29.7969528 L81.462659,26.929989 C79.8803791,27.1510155 78.2119703,26.4250305 77.3608594,24.8264634 L77.3667922,24.8230537 C77.3447144,24.7876896 77.3231121,24.7518678 77.3019985,24.7155917 C76.1941813,22.8120909 76.8519562,20.3775176 78.7709839,19.2786639 L90.3991467,12.6196264 L90.4053598,12.6303443 C109.466784,1.69539668 106.78733,2.11285927 114.368624,3.79208782 C114.385373,3.79503525 116.581827,4.2055312 118.755051,2.95903827 C118.756671,2.95796648 122.696567,0.699166947 122.696567,0.699166947 C125.339012,-0.814201944 126.902815,0.453726808 127.648113,1.4547796 C128.563054,3.02736494 136.306159,16.3298989 137.371835,18.1607859 C137.856969,18.9943303 138.024043,19.7231045 137.997265,20.349628 C138.064107,21.9916276 136.810226,22.9870726 136.192793,23.3758049 C134.150824,24.5321463 134.954836,24.0728293 133.679145,24.8058049 L133.678875,24.8055366 C129.042398,27.523878 129.269074,28.4403659 128.181785,32.7252683 L128.181246,32.7258049 C127.298262,36.0698049 126.371883,36.8317561 114.34432,53.073122 C112.22912,56.0518655 107.786597,54.7860406 107.125491,51.6041514 C106.853588,50.6762818 106.913715,49.5651128 107.477521,48.3357217 L112.231087,37.0644669 C112.118611,37.168209 111.992813,37.2611539 111.854391,37.3407073 L87.9693398,51.0676341 C86.1230508,51.7410488 83.9694961,50.9911707 83.028293,49.1107073 L83.0521728,49.0969838 C83.0408371,49.0782567 83.0296328,49.0594033 83.0185617,49.0404243 C82.183735,47.607898 82.349196,45.8734721 83.3011639,44.6346285 L81.9854766,45.3908293 C80.0378438,46.5101463 77.5074844,45.8246585 76.4360977,43.7856341 L76.4518285,43.7765938 Z" id="Path"></path>
            <path d="M47.3653366,75.9086768 C47.5790733,76.0370524 47.7893558,76.1882691 47.9943804,76.3637705 C47.9737189,76.381793 47.9532339,76.4000114 47.9329292,76.4184226 C48.1276113,76.6207956 48.3162199,76.847731 48.4970408,77.1006194 L56.0857364,87.0529463 L56.0857364,59.6621384 C56.0841219,57.4583359 57.8595355,55.6698633 60.06629,55.6679816 C62.2722373,55.6666375 64.0629887,57.4518842 64.0646032,59.6562243 L64.0662177,62.2033124 L64.0662177,56.6435365 C64.0662177,54.4362393 65.8575072,52.6461538 68.0677598,52.6461538 C70.2777434,52.6461538 72.0687638,54.4359705 72.0687638,56.6435365 L72.0687638,59.6656331 C72.0687638,57.4580671 73.8597842,55.6682504 76.0697678,55.6682504 C78.2797514,55.6682504 80.0707718,57.4577982 80.0707718,59.6656331 L80.0707718,66.9364608 C80.0707718,64.7313142 81.8607158,62.9431105 84.0690849,62.9431105 C86.2763776,62.9431105 88.0657836,64.7310454 88.0657836,66.9364608 L88.0657836,80.2977191 L88.0534057,80.2977191 L88.0657836,97.1378024 C88.0725106,104.328252 82.340761,103.799748 82.3445282,109.581571 C82.3445282,109.585066 82.3466808,114.11149 82.3466808,114.112028 C82.3466808,117.148103 80.4647102,117.859944 79.2231584,118 L59.8512922,118 C55.562907,118 56.1417058,114.19375 56.1417058,111.606338 L56.142244,111.606338 C56.1188337,108.941775 55.8774657,106.719693 54.5484618,105.404616 C54.5484618,105.404616 52.0271485,102.909948 52.0069673,102.890592 L52.0069673,102.889786 C50.2514659,101.153196 49.1258892,98.770627 49.1129732,98.7415943 L41.2409326,80.7445012 C39.5001102,76.9715431 44.0255087,73.3442891 47.3653366,75.9086768 Z" id="Path"></path>
        </g>
    </g>
</svg>