<?xml version="1.0" encoding="UTF-8"?>
<svg width="238px" height="218px" viewBox="0 0 238 218" version="1.1" xmlns="http://www.w3.org/2000/svg" xmlns:xlink="http://www.w3.org/1999/xlink">
    <!-- Generator: Sketch 48.2 (47327) - http://www.bohemiancoding.com/sketch -->
    <title>Pattern</title>
    <desc>Created with Sketch.</desc>
    <defs>
        <rect id="path-1" x="0" y="0" width="280.289406" height="298"></rect>
        <path d="M123.650742,0 C71.2442454,1.01201696 25.5067918,29.3871091 0,71.4970964 L123.650742,71.4970964 L123.650742,0 Z" id="path-3"></path>
        <path d="M152.436249,0.960964933 C146.952311,0.326116227 141.377003,0 135.727305,0 C74.6188722,0 22.2151819,38.152603 0,92.4604265 L152.436249,92.4604265 L152.436249,0.960964933 Z" id="path-5"></path>
        <path d="M179.753878,4.59759842 C168.073111,1.59537221 155.838367,1.81146261e-13 143.235772,0 C74.4213045,0 16.5766362,47.5665417 0,112.008514 L179.753878,112.008514 L179.753878,4.59759842 Z" id="path-7"></path>
        <path d="M202.54758,11.0837251 C185.265834,3.93966908 166.338274,0 146.495956,0 C70.9853202,0 8.72499375,57.054669 0,130.641044 L202.54758,130.641044 L202.54758,11.0837094 L202.54758,11.0837251 Z" id="path-9"></path>
        <path d="M0.0131254072,149.153727 C0.0043842587,148.493729 0,147.832683 0,147.170616 C0,65.8909407 66.083066,0 147.602875,0 C175.288209,0 201.193459,7.59974359 223.334533,20.8210308 L223.334533,149.153727 L0.0131254072,149.153727 Z" id="path-11"></path>
        <path d="M1.58037304,170.76129 C0.539215645,163.633477 0,156.341505 0,148.922877 C0,66.6754592 66.2816416,0 148.046413,0 C184.520806,0 217.91475,13.2681301 243.718307,35.2679395 L243.718307,170.76129 L1.58037304,170.76129 Z" id="path-13"></path>
        <path d="M5.87401536,189.77893 C2.05010745,176.612077 0,162.689024 0,148.286558 C0,66.390568 66.2920751,0 148.069717,0 C194.719537,-1.79178942e-13 236.331225,21.6041491 263.472442,55.366681 L263.472442,189.77893 L5.87401536,189.77893 Z" id="path-15"></path>
        <path d="M13.2017806,210.21231 C4.72225164,191.483265 0,170.680655 0,148.772355 C0,66.6080679 66.4249712,0 148.366553,0 C208.654203,0 260.544226,36.0557772 283.759096,87.8351719 L283.759075,209.712578 C283.684331,209.8793 283.609277,210.045887 283.533927,210.21231 L13.2017488,210.212305 L13.2017806,210.21231 Z" id="path-17"></path>
        <path d="M24.0150103,230.003478 C8.82786585,206.646408 0,178.738877 0,148.760954 C0,66.6029636 66.3110181,0 148.112028,0 C229.913038,0 296.227205,66.6029636 296.227205,148.760954 C296.227205,178.738877 287.39892,206.646408 272.211243,230.003478 L24.0150103,230.003478 Z" id="path-19"></path>
        <path d="M39.4129535,250.333754 C14.9513452,223.744718 0,188.164137 0,149.069752 C0,66.7412181 66.3110181,0 148.112028,0 C229.913038,0 296.227205,66.7412181 296.227205,149.069752 C296.227205,188.164137 281.27515,223.744718 256.812796,250.333754 L39.4129535,250.333754 Z" id="path-21"></path>
        <path d="M61.7298083,268.702171 C24.3450183,241.788682 0,197.866 0,148.25319 C0,66.3756286 66.3110181,0 148.112028,0 C229.913038,0 296.227205,66.3756286 296.227205,148.25319 C296.227205,197.866 271.88103,241.788682 234.49533,268.702171 L61.7298083,268.702171 Z" id="path-23"></path>
        <path d="M99.7911685,287.825392 C41.716668,267.81447 0,212.738972 0,147.934083 C0,66.2327584 66.3110181,0 148.112028,0 C229.913038,0 296.227205,66.2327584 296.227205,147.934083 C296.227205,212.738972 254.508556,267.81447 196.433236,287.825392 L99.7911685,287.825392 Z" id="path-25"></path>
        <path d="M0,148.435831 C0,230.417417 66.3110181,296.881128 148.112028,296.881128 C229.913038,296.881128 296.227205,230.417417 296.227205,148.435831 C296.227205,66.4574001 229.913038,0 148.112028,0 C66.3110181,0 0,66.4574001 0,148.435831 Z" id="path-27"></path>
        <path d="M0,148.435831 C0,230.417417 66.3110181,296.881128 148.112028,296.881128 C229.913038,296.881128 296.227205,230.417417 296.227205,148.435831 C296.227205,66.4574001 229.913038,0 148.112028,0 C66.3110181,0 0,66.4574001 0,148.435831 Z" id="path-29"></path>
        <path d="M0,148.435831 C0,230.417417 66.3110181,296.881128 148.112028,296.881128 C229.913038,296.881128 296.227205,230.417417 296.227205,148.435831 C296.227205,66.4574001 229.913038,0 148.112028,0 C66.3110181,0 0,66.4574001 0,148.435831 Z" id="path-31"></path>
        <path d="M0,148.435831 C0,230.417417 66.3110181,296.881128 148.112028,296.881128 C229.913038,296.881128 296.227205,230.417417 296.227205,148.435831 C296.227205,66.4574001 229.913038,0 148.112028,0 C66.3110181,0 0,66.4574001 0,148.435831 Z" id="path-33"></path>
        <path d="M0,148.435831 C0,230.417417 66.3110181,296.881128 148.112028,296.881128 C229.913038,296.881128 296.227205,230.417417 296.227205,148.435831 C296.227205,66.4574001 229.913038,0 148.112028,0 C66.3110181,0 0,66.4574001 0,148.435831 Z" id="path-35"></path>
        <path d="M0,148.435831 C0,230.417417 66.3110181,296.881128 148.112028,296.881128 C229.913038,296.881128 296.227205,230.417417 296.227205,148.435831 C296.227205,66.4574001 229.913038,0 148.112028,0 C66.3110181,0 0,66.4574001 0,148.435831 Z" id="path-37"></path>
        <path d="M0,148.435831 C0,230.417417 66.3110181,296.881128 148.112028,296.881128 C229.913038,296.881128 296.227205,230.417417 296.227205,148.435831 C296.227205,66.4574001 229.913038,0 148.112028,0 C66.3110181,0 0,66.4574001 0,148.435831 Z" id="path-39"></path>
        <path d="M0,148.435831 C0,230.417417 66.3110181,296.881128 148.112028,296.881128 C229.913038,296.881128 296.227205,230.417417 296.227205,148.435831 C296.227205,66.4574001 229.913038,0 148.112028,0 C66.3110181,0 0,66.4574001 0,148.435831 Z" id="path-41"></path>
        <path d="M0,148.435831 C0,230.417417 66.3110181,296.881128 148.112028,296.881128 C229.913038,296.881128 296.227205,230.417417 296.227205,148.435831 C296.227205,66.4574001 229.913038,0 148.112028,0 C66.3110181,0 0,66.4574001 0,148.435831 Z" id="path-43"></path>
        <path d="M0,148.435831 C0,230.417417 66.3110181,296.881128 148.112028,296.881128 C229.913038,296.881128 296.227205,230.417417 296.227205,148.435831 C296.227205,66.4574001 229.913038,0 148.112028,0 C66.3110181,0 0,66.4574001 0,148.435831 Z" id="path-45"></path>
        <path d="M0,148.435831 C0,230.417417 66.3110181,296.881128 148.112028,296.881128 C229.913038,296.881128 296.227205,230.417417 296.227205,148.435831 C296.227205,66.4574001 229.913038,0 148.112028,0 C66.3110181,0 0,66.4574001 0,148.435831 Z" id="path-47"></path>
        <path d="M0,148.435831 C0,230.417417 66.3110181,296.881128 148.112028,296.881128 C229.913038,296.881128 296.227205,230.417417 296.227205,148.435831 C296.227205,66.4574001 229.913038,0 148.112028,0 C66.3110181,0 0,66.4574001 0,148.435831 Z" id="path-49"></path>
        <path d="M0,148.435831 C0,230.417417 66.3110181,296.881128 148.112028,296.881128 C229.913038,296.881128 296.227205,230.417417 296.227205,148.435831 C296.227205,66.4574001 229.913038,0 148.112028,0 C66.3110181,0 0,66.4574001 0,148.435831 Z" id="path-51"></path>
        <path d="M0,148.435831 C0,230.417417 66.3110181,296.881128 148.112028,296.881128 C229.913038,296.881128 296.227205,230.417417 296.227205,148.435831 C296.227205,66.4574001 229.913038,0 148.112028,0 C66.3110181,0 0,66.4574001 0,148.435831 Z" id="path-53"></path>
        <path d="M0,148.435831 C0,230.417417 66.3110181,296.881128 148.112028,296.881128 C229.913038,296.881128 296.227205,230.417417 296.227205,148.435831 C296.227205,66.4574001 229.913038,0 148.112028,0 C66.3110181,0 0,66.4574001 0,148.435831 Z" id="path-55"></path>
        <path d="M0,148.435831 C0,230.417417 66.3110181,296.881128 148.112028,296.881128 C229.913038,296.881128 296.227205,230.417417 296.227205,148.435831 C296.227205,66.4574001 229.913038,0 148.112028,0 C66.3110181,0 0,66.4574001 0,148.435831 Z" id="path-57"></path>
        <path d="M0,148.435831 C0,230.417417 66.3110181,296.881128 148.112028,296.881128 C229.913038,296.881128 296.227205,230.417417 296.227205,148.435831 C296.227205,66.4574001 229.913038,0 148.112028,0 C66.3110181,0 0,66.4574001 0,148.435831 Z" id="path-59"></path>
        <path d="M0,148.435831 C0,230.417417 66.3110181,296.881128 148.112028,296.881128 C229.913038,296.881128 296.227205,230.417417 296.227205,148.435831 C296.227205,66.4574001 229.913038,0 148.112028,0 C66.3110181,0 0,66.4574001 0,148.435831 Z" id="path-61"></path>
        <path d="M0,148.435831 C0,230.417417 66.3110181,296.881128 148.112028,296.881128 C229.913038,296.881128 296.227205,230.417417 296.227205,148.435831 C296.227205,66.4574001 229.913038,0 148.112028,0 C66.3110181,0 0,66.4574001 0,148.435831 Z" id="path-63"></path>
        <path d="M0,148.435831 C0,230.417417 66.3110181,296.881128 148.112028,296.881128 C229.913038,296.881128 296.227205,230.417417 296.227205,148.435831 C296.227205,66.4574001 229.913038,0 148.112028,0 C66.3110181,0 0,66.4574001 0,148.435831 Z" id="path-65"></path>
        <path d="M0,148.435831 C0,230.417417 66.3110181,296.881128 148.112028,296.881128 C229.913038,296.881128 296.227205,230.417417 296.227205,148.435831 C296.227205,66.4574001 229.913038,0 148.112028,0 C66.3110181,0 0,66.4574001 0,148.435831 Z" id="path-67"></path>
        <path d="M0,148.435831 C0,230.417417 66.3110181,296.881128 148.112028,296.881128 C229.913038,296.881128 296.227205,230.417417 296.227205,148.435831 C296.227205,66.4574001 229.913038,0 148.112028,0 C66.3110181,0 0,66.4574001 0,148.435831 Z" id="path-69"></path>
        <path d="M0,148.435831 C0,230.417417 66.3110181,296.881128 148.112028,296.881128 C229.913038,296.881128 296.227205,230.417417 296.227205,148.435831 C296.227205,66.4574001 229.913038,0 148.112028,0 C66.3110181,0 0,66.4574001 0,148.435831 Z" id="path-71"></path>
        <path d="M0,148.435831 C0,230.417417 66.3110181,296.881128 148.112028,296.881128 C229.913038,296.881128 296.227205,230.417417 296.227205,148.435831 C296.227205,66.4574001 229.913038,0 148.112028,0 C66.3110181,0 0,66.4574001 0,148.435831 Z" id="path-73"></path>
        <path d="M0,148.435831 C0,230.417417 66.3110181,296.881128 148.112028,296.881128 C229.913038,296.881128 296.227205,230.417417 296.227205,148.435831 C296.227205,66.4574001 229.913038,0 148.112028,0 C66.3110181,0 0,66.4574001 0,148.435831 Z" id="path-75"></path>
        <path d="M0,148.435831 C0,230.417417 66.3110181,296.881128 148.112028,296.881128 C229.913038,296.881128 296.227205,230.417417 296.227205,148.435831 C296.227205,66.4574001 229.913038,0 148.112028,0 C66.3110181,0 0,66.4574001 0,148.435831 Z" id="path-77"></path>
        <path d="M0,219.952307 C25.2066423,265.810148 73.902395,296.881128 129.840611,296.881128 C211.653821,296.881128 277.977878,230.417417 277.977878,148.435831 C277.977878,66.4574001 211.653821,0 129.840611,0 C73.902395,0 25.2066423,31.0680294 0,76.9229964 L5.15537129e-06,219.952316 L0,219.952307 Z" id="path-79"></path>
        <path d="M0,247.737688 C26.9884705,277.910348 66.0934483,296.881128 109.599882,296.881128 C191.033396,296.881128 257.049642,230.417417 257.049642,148.435831 C257.049642,66.4574001 191.033396,0 109.599882,0 C66.0934483,0 26.9884705,18.968979 0,49.1394793 L1.7816024e-13,247.737688 Z" id="path-81"></path>
        <path d="M0,266.0528 C25.0306384,285.383089 56.4037547,296.881128 90.4591103,296.881128 C172.336846,296.881128 238.713213,230.417417 238.713213,148.435831 C238.713213,66.4574001 172.336846,0 90.4591103,0 C56.4037547,0 25.0306384,11.4969471 1.79132109e-13,30.8257335 L1.79132109e-13,266.0528 Z" id="path-83"></path>
        <path d="M0,260.298896 C21.0798108,271.779528 45.2413879,278.301625 70.923987,278.301625 C153.041346,278.301625 219.611969,211.62413 219.611969,129.378845 C219.611969,73.9823896 189.408419,25.6505838 144.594568,0 L0,0 L2.51825434e-05,260.29891 L0,260.298896 Z" id="path-85"></path>
        <path d="M0,247.704634 C15.9461096,253.510582 33.170795,256.679214 51.1398282,256.679214 C133.28198,256.679214 199.872702,190.464484 199.872702,108.79001 C199.872702,65.7606876 181.388382,27.0235693 151.884046,0 L0,0 L9.50669058e-11,247.704634 Z" id="path-87"></path>
        <path d="M0,234.221952 C10.0769402,236.38127 20.5337113,237.517943 31.2562128,237.517943 C113.18627,237.517943 179.605052,171.154354 179.605052,89.2962666 C179.605052,55.7647983 168.45938,24.833976 149.667525,0 L0,0 L1.79246577e-13,234.221952 Z" id="path-89"></path>
        <path d="M0,217.94355 C3.78351475,218.235186 7.60688843,218.383693 11.4647724,218.383693 C93.1310412,218.383693 159.335976,151.836028 159.335976,69.7508868 C159.335976,44.5423759 153.0916,20.7996406 142.072718,0 L0,0 L7.50411734e-12,217.94355 Z" id="path-91"></path>
        <path d="M0,198.170527 C78.1550218,193.882786 140.20966,129.142111 140.20966,49.9113755 C140.20966,32.4009331 137.17846,15.5984346 131.612181,0 L0,0 L0,198.170527 Z" id="path-93"></path>
        <path d="M0,177.05886 C67.4488874,163.870444 118.426438,103.18666 118.426438,30.3226134 C118.426438,19.9332515 117.389952,9.79159161 115.417019,0 L0,0 L0,177.05886 Z" id="path-95"></path>
        <path d="M0,149.716476 C59.0181267,129.984237 101.481498,75.0089255 101.481498,10.2803277 C101.481498,6.824449 101.360446,3.39638011 101.122285,0 L0,0 L0,149.716476 Z" id="path-97"></path>
        <path d="M0,123.468097 C45.3962904,100.104306 77.2526611,53.9343127 80.6058069,0 L0,0 L0,123.468097 Z" id="path-99"></path>
    </defs>
    <g id="Startup-Garage---Programme-Objectives" stroke="none" stroke-width="1" fill="none" fill-rule="evenodd" transform="translate(0.000000, -3068.000000)" opacity="0.673913043">
        <g id="2_Mentoring-from-FB" transform="translate(0.000000, 2830.000000)">
            <g id="Pattern" transform="translate(149.000000, 315.500000) scale(1, -1) rotate(-90.000000) translate(-149.000000, -315.500000) translate(8.500000, 166.500000)">
                <mask id="mask-2" fill="white">
                    <use xlink:href="#path-1"></use>
                </mask>
                <g id="Mask"></g>
                <g opacity="0.0797101449" mask="url(#mask-2)">
                    <g transform="translate(63.142119, -59.291990)">
                        <g id="Group-241" transform="translate(22.260015, 0.000000)">
                            <mask id="mask-4" fill="white">
                                <use xlink:href="#path-3"></use>
                            </mask>
                            <g id="Clip-240"></g>
                            <polygon id="Fill-239" fill="#223B98" mask="url(#mask-4)" points="-274.976657 71.5393983 -274.976657 62.1984773 116.970037 -331.64435 119.292432 -333.981161 123.937223 -329.3107"></polygon>
                        </g>
                        <g id="Group-244" transform="translate(11.784714, 0.000000)">
                            <mask id="mask-6" fill="white">
                                <use xlink:href="#path-5"></use>
                            </mask>
                            <g id="Clip-243"></g>
                            <polygon id="Fill-242" fill="#223B98" mask="url(#mask-6)" points="-263.846649 92.6530985 -263.846649 83.2002324 145.15387 -335.555654 147.461269 -337.918071 152.08232 -333.190037"></polygon>
                        </g>
                        <g id="Group-247" transform="translate(5.892357, 0.000000)">
                            <mask id="mask-8" fill="white">
                                <use xlink:href="#path-7"></use>
                            </mask>
                            <g id="Clip-246"></g>
                            <polygon id="Fill-245" fill="#223B98" mask="url(#mask-8)" points="-258.608999 111.997445 -258.608999 102.586946 172.66659 -334.253939 174.988456 -336.605767 179.632188 -331.902111"></polygon>
                        </g>
                        <g id="Group-250" transform="translate(1.964119, 0.000000)">
                            <mask id="mask-10" fill="white">
                                <use xlink:href="#path-9"></use>
                            </mask>
                            <g id="Clip-249"></g>
                            <polygon id="Fill-248" fill="#223B98" mask="url(#mask-10)" points="-254.026054 130.511076 -254.026054 121.192461 195.536058 -330.996933 197.853744 -333.325009 202.482844 -328.668857"></polygon>
                        </g>
                        <g id="Group-253">
                            <mask id="mask-12" fill="white">
                                <use xlink:href="#path-11"></use>
                            </mask>
                            <g id="Clip-252"></g>
                            <polygon id="Fill-251" fill="#223B98" mask="url(#mask-12)" points="-252.716642 149.546818 -252.716642 140.308571 216.685853 -327.732343 219.004502 -330.044251 223.638662 -325.423564"></polygon>
                        </g>
                        <g id="Group-256">
                            <mask id="mask-14" fill="white">
                                <use xlink:href="#path-13"></use>
                            </mask>
                            <g id="Clip-255"></g>
                            <polygon id="Fill-254" fill="#223B98" mask="url(#mask-14)" points="-253.371348 171.149864 -253.371348 161.801624 237.157487 -331.641727 239.483103 -333.981161 244.128042 -329.305458"></polygon>
                        </g>
                        <g id="Group-259">
                            <mask id="mask-16" fill="white">
                                <use xlink:href="#path-15"></use>
                            </mask>
                            <g id="Clip-258"></g>
                            <polygon id="Fill-257" fill="#223B98" mask="url(#mask-16)" points="-253.371348 190.052057 -253.371348 180.740608 256.950472 -330.339419 259.276455 -332.668858 263.922125 -328.013133"></polygon>
                        </g>
                        <g id="Group-262">
                            <mask id="mask-18" fill="white">
                                <use xlink:href="#path-17"></use>
                            </mask>
                            <g id="Clip-261"></g>
                            <polygon id="Fill-260" fill="#223B98" mask="url(#mask-18)" points="-254.026054 210.261971 -254.026054 200.920017 277.07726 -331.647254 279.404751 -333.981161 284.062888 -329.313346"></polygon>
                        </g>
                        <g id="Group-265">
                            <mask id="mask-20" fill="white">
                                <use xlink:href="#path-19"></use>
                            </mask>
                            <g id="Clip-264"></g>
                            <polygon id="Fill-263" fill="#223B98" mask="url(#mask-20)" points="-253.371348 230.028495 -253.371348 220.690419 296.545403 -331.647433 298.868902 -333.981161 303.515899 -329.313704"></polygon>
                        </g>
                        <g id="Group-268">
                            <mask id="mask-22" fill="white">
                                <use xlink:href="#path-21"></use>
                            </mask>
                            <g id="Clip-267"></g>
                            <polygon id="Fill-266" fill="#223B98" mask="url(#mask-22)" points="-253.371348 250.398802 -253.371348 241.038174 316.266807 -332.295571 318.590306 -334.637313 323.240452 -329.956998"></polygon>
                        </g>
                        <g id="Group-271">
                            <mask id="mask-24" fill="white">
                                <use xlink:href="#path-23"></use>
                            </mask>
                            <g id="Clip-270"></g>
                            <polygon id="Fill-269" fill="#223B98" mask="url(#mask-24)" points="-253.371348 268.900063 -253.371348 259.593861 335.988211 -330.343095 338.31171 -332.668858 342.961856 -328.014181"></polygon>
                        </g>
                        <g id="Group-274">
                            <mask id="mask-26" fill="white">
                                <use xlink:href="#path-25"></use>
                            </mask>
                            <g id="Clip-273"></g>
                            <polygon id="Fill-272" fill="#223B98" mask="url(#mask-26)" points="-253.371348 287.959498 -253.371348 278.670182 355.709616 -329.69195 358.036263 -332.012706 362.68326 -327.371193"></polygon>
                        </g>
                        <g id="Group-277">
                            <mask id="mask-28" fill="white">
                                <use xlink:href="#path-27"></use>
                            </mask>
                            <g id="Clip-276"></g>
                            <polygon id="Fill-275" fill="#223B98" mask="url(#mask-28)" points="-253.371348 308.518049 -253.371348 299.200382 375.434168 -330.996381 377.757667 -333.325009 382.404665 -328.664598"></polygon>
                        </g>
                        <g id="Group-280">
                            <mask id="mask-30" fill="white">
                                <use xlink:href="#path-29"></use>
                            </mask>
                            <g id="Clip-279"></g>
                            <polygon id="Fill-278" fill="#223B98" mask="url(#mask-30)" points="-253.371348 328.286144 -253.371348 318.965321 395.155573 -330.996381 397.48222 -333.325009 402.129217 -328.667754"></polygon>
                        </g>
                        <g id="Group-283">
                            <mask id="mask-32" fill="white">
                                <use xlink:href="#path-31"></use>
                            </mask>
                            <g id="Clip-282"></g>
                            <polygon id="Fill-281" fill="#223B98" mask="url(#mask-32)" points="-253.371348 348.051083 -253.371348 338.730261 414.880125 -330.996381 417.203624 -333.325009 421.85377 -328.667754"></polygon>
                        </g>
                        <g id="Group-286">
                            <mask id="mask-34" fill="white">
                                <use xlink:href="#path-33"></use>
                            </mask>
                            <g id="Clip-285"></g>
                            <polygon id="Fill-284" fill="#223B98" mask="url(#mask-34)" points="-253.371348 367.819178 -253.371348 358.501511 434.60153 -330.996381 436.928177 -333.325009 441.575174 -328.661443"></polygon>
                        </g>
                        <g id="Group-289">
                            <mask id="mask-36" fill="white">
                                <use xlink:href="#path-35"></use>
                            </mask>
                            <g id="Clip-288"></g>
                            <polygon id="Fill-287" fill="#223B98" mask="url(#mask-36)" points="-253.371348 387.584117 -253.371348 378.263295 454.322934 -330.996381 456.65273 -333.325009 461.299727 -328.667754"></polygon>
                        </g>
                        <g id="Group-292">
                            <mask id="mask-38" fill="white">
                                <use xlink:href="#path-37"></use>
                            </mask>
                            <g id="Clip-291"></g>
                            <polygon id="Fill-290" fill="#223B98" mask="url(#mask-38)" points="-253.371348 407.349057 -253.371348 398.028234 474.047487 -330.996381 476.374134 -333.325009 481.021131 -328.667754"></polygon>
                        </g>
                        <g id="Group-295">
                            <mask id="mask-40" fill="white">
                                <use xlink:href="#path-39"></use>
                            </mask>
                            <g id="Clip-294"></g>
                            <polygon id="Fill-293" fill="#223B98" mask="url(#mask-40)" points="-253.371348 427.117151 -253.371348 417.799484 493.768891 -330.996381 496.095538 -333.325009 500.745684 -328.664598"></polygon>
                        </g>
                        <g id="Group-298">
                            <mask id="mask-42" fill="white">
                                <use xlink:href="#path-41"></use>
                            </mask>
                            <g id="Clip-297"></g>
                            <polygon id="Fill-296" fill="#223B98" mask="url(#mask-42)" points="-253.371348 446.885246 -253.371348 437.564424 513.493444 -330.996381 515.816943 -333.325009 520.467088 -328.667754"></polygon>
                        </g>
                        <g id="Group-301">
                            <mask id="mask-44" fill="white">
                                <use xlink:href="#path-43"></use>
                            </mask>
                            <g id="Clip-300"></g>
                            <polygon id="Fill-299" fill="#223B98" mask="url(#mask-44)" points="-253.371348 466.650186 -253.371348 457.329363 533.217996 -330.996381 535.541495 -333.325009 540.188493 -328.664598"></polygon>
                        </g>
                        <g id="Group-304">
                            <mask id="mask-46" fill="white">
                                <use xlink:href="#path-45"></use>
                            </mask>
                            <g id="Clip-303"></g>
                            <polygon id="Fill-302" fill="#223B98" mask="url(#mask-46)" points="-253.371348 486.415125 -253.371348 477.097458 552.939401 -330.996381 555.266048 -333.325009 559.916194 -328.667754"></polygon>
                        </g>
                        <g id="Group-307">
                            <mask id="mask-48" fill="white">
                                <use xlink:href="#path-47"></use>
                            </mask>
                            <g id="Clip-306"></g>
                            <polygon id="Fill-305" fill="#223B98" mask="url(#mask-48)" points="-253.371348 506.18322 -253.371348 496.862397 572.660805 -330.996381 574.987452 -333.325009 579.637598 -328.667754"></polygon>
                        </g>
                        <g id="Group-310">
                            <mask id="mask-50" fill="white">
                                <use xlink:href="#path-49"></use>
                            </mask>
                            <g id="Clip-309"></g>
                            <polygon id="Fill-308" fill="#223B98" mask="url(#mask-50)" points="-253.371348 516.630492 592.385358 -330.996381 594.712005 -333.325009 597.750184 -330.273813 597.750184 -327.052228 -253.371348 525.951314"></polygon>
                        </g>
                        <g id="Group-313">
                            <mask id="mask-52" fill="white">
                                <use xlink:href="#path-51"></use>
                            </mask>
                            <g id="Clip-312"></g>
                            <polygon id="Fill-311" fill="#223B98" mask="url(#mask-52)" points="-253.371348 543.008101 -253.371348 536.73532 597.750184 -316.265068 597.750184 -306.950556 -250.33002 543.008101"></polygon>
                        </g>
                        <g id="Group-316">
                            <mask id="mask-54" fill="white">
                                <use xlink:href="#path-53"></use>
                            </mask>
                            <g id="Clip-315"></g>
                            <polygon id="Fill-314" fill="#223B98" mask="url(#mask-54)" points="-235.334897 542.927709 -237.658396 540.599081 597.6709 -296.58052 597.6709 -287.259698 -230.6879 542.927709"></polygon>
                        </g>
                        <g id="Group-319">
                            <mask id="mask-56" fill="white">
                                <use xlink:href="#path-55"></use>
                            </mask>
                            <g id="Clip-318"></g>
                            <polygon id="Fill-317" fill="#223B98" mask="url(#mask-56)" points="-215.690559 542.847317 -218.017206 540.518689 597.596983 -276.895972 597.596983 -267.57515 -211.043562 542.847317"></polygon>
                        </g>
                        <g id="Group-322">
                            <mask id="mask-58" fill="white">
                                <use xlink:href="#path-57"></use>
                            </mask>
                            <g id="Clip-321"></g>
                            <polygon id="Fill-320" fill="#223B98" mask="url(#mask-58)" points="-196.049369 542.76377 -198.376017 540.435142 597.510471 -257.211425 597.510471 -247.893758 -191.402372 542.76377"></polygon>
                        </g>
                        <g id="Group-325">
                            <mask id="mask-60" fill="white">
                                <use xlink:href="#path-59"></use>
                            </mask>
                            <g id="Clip-324"></g>
                            <polygon id="Fill-323" fill="#223B98" mask="url(#mask-60)" points="-176.411328 542.683379 -178.734827 540.354751 597.430257 -237.526877 597.430257 -228.206054 -171.76433 542.683379"></polygon>
                        </g>
                        <g id="Group-328">
                            <mask id="mask-62" fill="white">
                                <use xlink:href="#path-61"></use>
                            </mask>
                            <g id="Clip-327"></g>
                            <polygon id="Fill-326" fill="#223B98" mask="url(#mask-62)" points="-156.76699 542.602987 -159.093637 540.274359 597.346894 -217.842329 597.346894 -208.521507 -152.119992 542.602987"></polygon>
                        </g>
                        <g id="Group-331">
                            <mask id="mask-64" fill="white">
                                <use xlink:href="#path-63"></use>
                            </mask>
                            <g id="Clip-330"></g>
                            <polygon id="Fill-329" fill="#223B98" mask="url(#mask-64)" points="-137.1258 542.516285 -139.452447 540.187657 597.266679 -198.157781 597.266679 -188.843269 -132.478803 542.516285"></polygon>
                        </g>
                        <g id="Group-334">
                            <mask id="mask-66" fill="white">
                                <use xlink:href="#path-65"></use>
                            </mask>
                            <g id="Clip-333"></g>
                            <polygon id="Fill-332" fill="#223B98" mask="url(#mask-66)" points="-116.829904 543.0952 -119.156551 540.766572 597.844319 -177.817082 597.844319 -168.496259 -112.182906 543.0952"></polygon>
                        </g>
                        <g id="Group-337">
                            <mask id="mask-68" fill="white">
                                <use xlink:href="#path-67"></use>
                            </mask>
                            <g id="Clip-336"></g>
                            <polygon id="Fill-335" fill="#223B98" mask="url(#mask-68)" points="-97.1887143 543.014809 -99.5153615 540.686181 597.757808 -158.132534 597.757808 -148.811712 -92.5417167 543.014809"></polygon>
                        </g>
                        <g id="Group-340">
                            <mask id="mask-70" fill="white">
                                <use xlink:href="#path-69"></use>
                            </mask>
                            <g id="Clip-339"></g>
                            <polygon id="Fill-338" fill="#223B98" mask="url(#mask-70)" points="-77.5538213 542.931262 -79.8741717 540.602634 597.677594 -138.447986 597.677594 -129.127164 -72.9036753 542.931262"></polygon>
                        </g>
                        <g id="Group-343">
                            <mask id="mask-72" fill="white">
                                <use xlink:href="#path-71"></use>
                            </mask>
                            <g id="Clip-342"></g>
                            <polygon id="Fill-341" fill="#223B98" mask="url(#mask-72)" points="-57.9063348 542.85087 -60.2329819 540.522242 597.594231 -118.763438 597.594231 -109.442616 -53.2593372 542.85087"></polygon>
                        </g>
                        <g id="Group-346">
                            <mask id="mask-74" fill="white">
                                <use xlink:href="#path-73"></use>
                            </mask>
                            <g id="Clip-345"></g>
                            <polygon id="Fill-344" fill="#223B98" mask="url(#mask-74)" points="-38.2682934 542.767323 -40.5917922 540.438695 597.510868 -99.0788906 597.510868 -89.7612236 -33.6181475 542.767323"></polygon>
                        </g>
                        <g id="Group-349">
                            <mask id="mask-76" fill="white">
                                <use xlink:href="#path-75"></use>
                            </mask>
                            <g id="Clip-348"></g>
                            <polygon id="Fill-347" fill="#223B98" mask="url(#mask-76)" points="-18.6271036 542.683776 -20.9506024 540.355148 597.430653 -79.3943428 597.430653 -70.0766758 -13.9801061 542.683776"></polygon>
                        </g>
                        <g id="Group-352">
                            <mask id="mask-78" fill="white">
                                <use xlink:href="#path-77"></use>
                            </mask>
                            <g id="Clip-351"></g>
                            <polygon id="Fill-350" fill="#223B98" mask="url(#mask-78)" points="1.01723451 542.603384 -1.30941265 540.274757 597.353587 -59.709795 597.353587 -50.3889727 5.66423207 542.603384"></polygon>
                        </g>
                        <g id="Group-355" transform="translate(18.331777, 0.000000)">
                            <mask id="mask-80" fill="white">
                                <use xlink:href="#path-79"></use>
                            </mask>
                            <g id="Clip-354"></g>
                            <polygon id="Fill-353" fill="#223B98" mask="url(#mask-80)" points="2.32699416 542.519838 0 540.19121 579.024791 -40.0252472 579.024791 -30.7044249 6.97468478 542.519838"></polygon>
                        </g>
                        <g id="Group-358" transform="translate(39.282380, 0.000000)">
                            <mask id="mask-82" fill="white">
                                <use xlink:href="#path-81"></use>
                            </mask>
                            <g id="Clip-357"></g>
                            <polygon id="Fill-356" fill="#223B98" mask="url(#mask-82)" points="2.3099261 543.095597 0 540.76697 556.701592 -19.6845478 556.701592 -10.3668808 6.93918098 543.095597"></polygon>
                        </g>
                        <g id="Group-361" transform="translate(57.614157, 0.000000)">
                            <mask id="mask-84" fill="white">
                                <use xlink:href="#path-83"></use>
                            </mask>
                            <g id="Clip-360"></g>
                            <polygon id="Fill-359" fill="#223B98" mask="url(#mask-84)" points="2.32567813 543.012051 0 540.683423 539.995361 0 539.995361 9.317667 6.98018573 543.012051"></polygon>
                        </g>
                        <g id="Group-364" transform="translate(76.600640, 18.372245)">
                            <mask id="mask-86" fill="white">
                                <use xlink:href="#path-85"></use>
                            </mask>
                            <g id="Clip-363"></g>
                            <polygon id="Fill-362" fill="#223B98" mask="url(#mask-86)" points="2.33248444 524.930167 0 522.594049 521.778033 0 521.778033 9.35080331 7.00061387 524.930167"></polygon>
                        </g>
                        <g id="Group-367" transform="translate(96.896536, 40.025247)">
                            <mask id="mask-88" fill="white">
                                <use xlink:href="#path-87"></use>
                            </mask>
                            <g id="Clip-366"></g>
                            <polygon id="Fill-365" fill="#223B98" mask="url(#mask-88)" points="2.33318866 501.596072 0 499.276167 502.128757 0 502.128757 9.28590549 6.99956599 501.596072"></polygon>
                        </g>
                        <g id="Group-370" transform="translate(117.192432, 59.709795)">
                            <mask id="mask-90" fill="white">
                                <use xlink:href="#path-89"></use>
                            </mask>
                            <g id="Clip-369"></g>
                            <polygon id="Fill-368" fill="#223B98" mask="url(#mask-90)" points="2.33031762 482.985402 0 480.660282 481.082879 0 481.082879 9.30678129 6.98464618 482.985402"></polygon>
                        </g>
                        <g id="Group-373" transform="translate(137.488328, 78.738191)">
                            <mask id="mask-92" fill="white">
                                <use xlink:href="#path-91"></use>
                            </mask>
                            <g id="Clip-372"></g>
                            <polygon id="Fill-371" fill="#223B98" mask="url(#mask-92)" points="2.32281474 464.532016 0 462.200447 459.841883 0 459.841883 9.32943662 6.96215786 464.532016"></polygon>
                        </g>
                        <g id="Group-376" transform="translate(156.474812, 97.766587)">
                            <mask id="mask-94" fill="white">
                                <use xlink:href="#path-93"></use>
                            </mask>
                            <g id="Clip-375"></g>
                            <polygon id="Fill-374" fill="#223B98" mask="url(#mask-94)" points="2.32595009 444.30053 0 441.971275 441.936829 0 441.936829 9.3201735 6.98731818 444.30053"></polygon>
                        </g>
                        <g id="Group-379" transform="translate(178.080121, 119.419590)">
                            <mask id="mask-96" fill="white">
                                <use xlink:href="#path-95"></use>
                            </mask>
                            <g id="Clip-378"></g>
                            <polygon id="Fill-377" fill="#223B98" mask="url(#mask-96)" points="2.29013058 427.128126 0 424.7846 415.106338 0 415.106338 9.37727668 6.8734949 427.128126"></polygon>
                        </g>
                        <g id="Group-382" transform="translate(195.102485, 137.791835)">
                            <mask id="mask-98" fill="white">
                                <use xlink:href="#path-97"></use>
                            </mask>
                            <g id="Clip-381"></g>
                            <polygon id="Fill-380" fill="#223B98" mask="url(#mask-98)" points="2.34786418 401.345569 0 399.035946 405.639667 0 405.639667 9.24475263 7.04677392 401.345569"></polygon>
                        </g>
                        <g id="Group-385" transform="translate(216.053087, 156.820231)">
                            <mask id="mask-100" fill="white">
                                <use xlink:href="#path-99"></use>
                            </mask>
                            <g id="Clip-384"></g>
                            <polygon id="Fill-383" fill="#223B98" mask="url(#mask-100)" points="2.32907307 386.930244 0 384.58923 382.624417 0 382.624417 9.37039933 6.98721922 386.930244"></polygon>
                        </g>
                    </g>
                </g>
            </g>
        </g>
    </g>
</svg>