<?xml version="1.0" encoding="UTF-8"?>
<svg width="202px" height="142px" viewBox="0 0 202 142" version="1.1" xmlns="http://www.w3.org/2000/svg" xmlns:xlink="http://www.w3.org/1999/xlink">
    <!-- Generator: Sketch 48.2 (47327) - http://www.bohemiancoding.com/sketch -->
    <title>Pattern</title>
    <desc>Created with Sketch.</desc>
    <defs>
        <rect id="path-1" x="0" y="0" width="175" height="214"></rect>
        <path d="M164.465752,9.02379913 C150.43322,3.20747602 135.064311,0 118.952631,0 C57.6390697,0 7.08457074,46.4509782 0,106.361221 L164.465752,106.361221 L164.465752,9.02378632 L164.465752,9.02379913 Z" id="path-3"></path>
        <path d="M0.0106361133,121.502779 C0.00355276384,120.965135 0,120.426638 0,119.887309 C0,53.6757115 53.550108,0 119.60931,0 C142.043993,0 163.036192,6.19086084 180.97811,16.9611122 L180.97811,121.502779 L0.0106361133,121.502779 Z" id="path-5"></path>
        <path d="M1.28649712,138.677036 C0.438946603,132.888465 0,126.966577 0,120.941832 C0,54.1478404 53.9563376,0 120.516662,0 C150.208514,0 177.392737,10.7751878 198.398032,28.6414639 L198.398032,138.677036 L1.28649712,138.677036 Z" id="path-7"></path>
        <path d="M4.77797143,153.988407 C1.66757392,143.304699 0,132.007403 0,120.321107 C0,53.8699307 53.922508,0 120.441101,0 C158.386441,-1.45387477e-13 192.233722,17.5298096 214.310607,44.9250452 L214.310607,153.988407 L4.77797143,153.988407 Z" id="path-9"></path>
        <path d="M10.7311845,170.448631 C3.83852413,155.262364 0,138.394768 0,120.630634 C0,54.0085115 53.994127,0 120.601069,0 C169.60642,0 211.785685,29.2354803 230.656098,71.2203046 L230.656081,170.043428 C230.595325,170.178613 230.534317,170.313688 230.473067,170.448631 L10.7311586,170.448626 L10.7311845,170.448631 Z" id="path-11"></path>
        <path d="M19.5260413,186.387769 C7.17773055,167.459915 0,144.844507 0,120.551318 C0,53.9730003 53.9159327,0 120.426414,0 C186.936896,0 240.855388,53.9730003 240.855388,120.551318 C240.855388,144.844507 233.677317,167.459915 221.328573,186.387769 L19.5260413,186.387769 Z" id="path-13"></path>
        <path d="M32.0457475,202.76358 C12.1565879,181.227178 0,152.407869 0,120.742473 C0,54.058584 53.9159327,0 120.426414,0 C186.936896,0 240.855388,54.058584 240.855388,120.742473 C240.855388,152.407869 228.698223,181.227178 208.808457,202.76358 L32.0457475,202.76358 Z" id="path-15"></path>
        <path d="M50.1910584,217.7877 C19.7943631,195.973858 0,160.373773 0,120.161743 C0,53.7985809 53.9159327,0 120.426414,0 C186.936896,0 240.855388,53.7985809 240.855388,120.161743 C240.855388,160.373773 221.060085,195.973858 190.662649,217.7877 L50.1910584,217.7877 Z" id="path-17"></path>
        <path d="M81.1378573,233.185481 C33.9188438,216.973372 0,172.353242 0,119.850719 C0,53.6593297 53.9159327,0 120.426414,0 C186.936896,0 240.855388,53.6593297 240.855388,119.850719 C240.855388,172.353242 206.934934,216.973372 159.715255,233.185481 L81.1378573,233.185481 Z" id="path-19"></path>
        <path d="M0,120.541849 C0,187.1175 53.9159327,241.091386 120.426414,241.091386 C186.936896,241.091386 240.855388,187.1175 240.855388,120.541849 C240.855388,53.9687611 186.936896,0 120.426414,0 C53.9159327,0 0,53.9687611 0,120.541849 Z" id="path-21"></path>
        <path d="M0,120.541849 C0,187.1175 53.9159327,241.091386 120.426414,241.091386 C186.936896,241.091386 240.855388,187.1175 240.855388,120.541849 C240.855388,53.9687611 186.936896,0 120.426414,0 C53.9159327,0 0,53.9687611 0,120.541849 Z" id="path-23"></path>
        <path d="M0,120.541849 C0,187.1175 53.9159327,241.091386 120.426414,241.091386 C186.936896,241.091386 240.855388,187.1175 240.855388,120.541849 C240.855388,53.9687611 186.936896,0 120.426414,0 C53.9159327,0 0,53.9687611 0,120.541849 Z" id="path-25"></path>
        <path d="M0,120.541849 C0,187.1175 53.9159327,241.091386 120.426414,241.091386 C186.936896,241.091386 240.855388,187.1175 240.855388,120.541849 C240.855388,53.9687611 186.936896,0 120.426414,0 C53.9159327,0 0,53.9687611 0,120.541849 Z" id="path-27"></path>
        <path d="M0,120.541849 C0,187.1175 53.9159327,241.091386 120.426414,241.091386 C186.936896,241.091386 240.855388,187.1175 240.855388,120.541849 C240.855388,53.9687611 186.936896,0 120.426414,0 C53.9159327,0 0,53.9687611 0,120.541849 Z" id="path-29"></path>
        <path d="M0,120.541849 C0,187.1175 53.9159327,241.091386 120.426414,241.091386 C186.936896,241.091386 240.855388,187.1175 240.855388,120.541849 C240.855388,53.9687611 186.936896,0 120.426414,0 C53.9159327,0 0,53.9687611 0,120.541849 Z" id="path-31"></path>
        <path d="M0,120.541849 C0,187.1175 53.9159327,241.091386 120.426414,241.091386 C186.936896,241.091386 240.855388,187.1175 240.855388,120.541849 C240.855388,53.9687611 186.936896,0 120.426414,0 C53.9159327,0 0,53.9687611 0,120.541849 Z" id="path-33"></path>
        <path d="M0,120.541849 C0,187.1175 53.9159327,241.091386 120.426414,241.091386 C186.936896,241.091386 240.855388,187.1175 240.855388,120.541849 C240.855388,53.9687611 186.936896,0 120.426414,0 C53.9159327,0 0,53.9687611 0,120.541849 Z" id="path-35"></path>
        <path d="M0,120.541849 C0,187.1175 53.9159327,241.091386 120.426414,241.091386 C186.936896,241.091386 240.855388,187.1175 240.855388,120.541849 C240.855388,53.9687611 186.936896,0 120.426414,0 C53.9159327,0 0,53.9687611 0,120.541849 Z" id="path-37"></path>
        <path d="M0,120.541849 C0,187.1175 53.9159327,241.091386 120.426414,241.091386 C186.936896,241.091386 240.855388,187.1175 240.855388,120.541849 C240.855388,53.9687611 186.936896,0 120.426414,0 C53.9159327,0 0,53.9687611 0,120.541849 Z" id="path-39"></path>
        <path d="M0,120.541849 C0,187.1175 53.9159327,241.091386 120.426414,241.091386 C186.936896,241.091386 240.855388,187.1175 240.855388,120.541849 C240.855388,53.9687611 186.936896,0 120.426414,0 C53.9159327,0 0,53.9687611 0,120.541849 Z" id="path-41"></path>
        <path d="M0,120.541849 C0,187.1175 53.9159327,241.091386 120.426414,241.091386 C186.936896,241.091386 240.855388,187.1175 240.855388,120.541849 C240.855388,53.9687611 186.936896,0 120.426414,0 C53.9159327,0 0,53.9687611 0,120.541849 Z" id="path-43"></path>
        <path d="M0,120.541849 C0,187.1175 53.9159327,241.091386 120.426414,241.091386 C186.936896,241.091386 240.855388,187.1175 240.855388,120.541849 C240.855388,53.9687611 186.936896,0 120.426414,0 C53.9159327,0 0,53.9687611 0,120.541849 Z" id="path-45"></path>
        <path d="M0,120.541849 C0,187.1175 53.9159327,241.091386 120.426414,241.091386 C186.936896,241.091386 240.855388,187.1175 240.855388,120.541849 C240.855388,53.9687611 186.936896,0 120.426414,0 C53.9159327,0 0,53.9687611 0,120.541849 Z" id="path-47"></path>
        <path d="M0,120.541849 C0,187.1175 53.9159327,241.091386 120.426414,241.091386 C186.936896,241.091386 240.855388,187.1175 240.855388,120.541849 C240.855388,53.9687611 186.936896,0 120.426414,0 C53.9159327,0 0,53.9687611 0,120.541849 Z" id="path-49"></path>
        <path d="M0,120.541849 C0,187.1175 53.9159327,241.091386 120.426414,241.091386 C186.936896,241.091386 240.855388,187.1175 240.855388,120.541849 C240.855388,53.9687611 186.936896,0 120.426414,0 C53.9159327,0 0,53.9687611 0,120.541849 Z" id="path-51"></path>
        <path d="M0,120.541849 C0,187.1175 53.9159327,241.091386 120.426414,241.091386 C186.936896,241.091386 240.855388,187.1175 240.855388,120.541849 C240.855388,53.9687611 186.936896,0 120.426414,0 C53.9159327,0 0,53.9687611 0,120.541849 Z" id="path-53"></path>
        <path d="M0,120.541849 C0,187.1175 53.9159327,241.091386 120.426414,241.091386 C186.936896,241.091386 240.855388,187.1175 240.855388,120.541849 C240.855388,53.9687611 186.936896,0 120.426414,0 C53.9159327,0 0,53.9687611 0,120.541849 Z" id="path-55"></path>
        <path d="M0,120.541849 C0,187.1175 53.9159327,241.091386 120.426414,241.091386 C186.936896,241.091386 240.855388,187.1175 240.855388,120.541849 C240.855388,53.9687611 186.936896,0 120.426414,0 C53.9159327,0 0,53.9687611 0,120.541849 Z" id="path-57"></path>
        <path d="M0,120.541849 C0,187.1175 53.9159327,241.091386 120.426414,241.091386 C186.936896,241.091386 240.855388,187.1175 240.855388,120.541849 C240.855388,53.9687611 186.936896,0 120.426414,0 C53.9159327,0 0,53.9687611 0,120.541849 Z" id="path-59"></path>
        <path d="M0,120.541849 C0,187.1175 53.9159327,241.091386 120.426414,241.091386 C186.936896,241.091386 240.855388,187.1175 240.855388,120.541849 C240.855388,53.9687611 186.936896,0 120.426414,0 C53.9159327,0 0,53.9687611 0,120.541849 Z" id="path-61"></path>
        <path d="M0,120.541849 C0,187.1175 53.9159327,241.091386 120.426414,241.091386 C186.936896,241.091386 240.855388,187.1175 240.855388,120.541849 C240.855388,53.9687611 186.936896,0 120.426414,0 C53.9159327,0 0,53.9687611 0,120.541849 Z" id="path-63"></path>
        <path d="M0,120.541849 C0,187.1175 53.9159327,241.091386 120.426414,241.091386 C186.936896,241.091386 240.855388,187.1175 240.855388,120.541849 C240.855388,53.9687611 186.936896,0 120.426414,0 C53.9159327,0 0,53.9687611 0,120.541849 Z" id="path-65"></path>
        <path d="M0,120.541849 C0,187.1175 53.9159327,241.091386 120.426414,241.091386 C186.936896,241.091386 240.855388,187.1175 240.855388,120.541849 C240.855388,53.9687611 186.936896,0 120.426414,0 C53.9159327,0 0,53.9687611 0,120.541849 Z" id="path-67"></path>
        <path d="M0,120.541849 C0,187.1175 53.9159327,241.091386 120.426414,241.091386 C186.936896,241.091386 240.855388,187.1175 240.855388,120.541849 C240.855388,53.9687611 186.936896,0 120.426414,0 C53.9159327,0 0,53.9687611 0,120.541849 Z" id="path-69"></path>
        <path d="M0,120.541849 C0,187.1175 53.9159327,241.091386 120.426414,241.091386 C186.936896,241.091386 240.855388,187.1175 240.855388,120.541849 C240.855388,53.9687611 186.936896,0 120.426414,0 C53.9159327,0 0,53.9687611 0,120.541849 Z" id="path-71"></path>
        <path d="M0,178.618987 C20.4865187,215.859248 60.0636441,241.091386 105.52703,241.091386 C172.020133,241.091386 225.924536,187.1175 225.924536,120.541849 C225.924536,53.9687611 172.020133,0 105.52703,0 C60.0636441,0 20.4865187,25.229742 0,62.4676682 L4.18999122e-06,178.618995 L0,178.618987 Z" id="path-73"></path>
        <path d="M0,201.182955 C21.9496185,225.685584 53.7535455,241.091386 89.1371592,241.091386 C155.366721,241.091386 209.057478,187.1175 209.057478,120.541849 C209.057478,53.9687611 155.366721,0 89.1371592,0 C53.7535455,0 21.9496185,15.4043387 0,39.9052147 L1.44897033e-13,201.182955 Z" id="path-75"></path>
        <path d="M0,216.056301 C20.3480595,231.754052 45.8520849,241.091386 73.5365726,241.091386 C140.097122,241.091386 194.056204,187.1175 194.056204,120.541849 C194.056204,53.9687611 140.097122,0 73.5365726,0 C45.8520849,0 20.3480595,9.336447 1.45621168e-13,25.0329782 L1.45621168e-13,216.056301 Z" id="path-77"></path>
        <path d="M0,211.283431 C17.1503648,220.602208 36.8080298,225.896164 57.7031862,225.896164 C124.51321,225.896164 178.674534,171.774345 178.674534,105.016221 C178.674534,60.0511695 154.101168,20.8204623 117.640979,0 L0,0 L2.0488315e-05,211.283442 L0,211.283431 Z" id="path-79"></path>
        <path d="M0,200.681128 C12.9863519,205.384891 27.0139631,207.952 41.6477637,207.952 C108.543509,207.952 162.774326,154.307276 162.774326,88.1376397 C162.774326,53.2768754 147.720881,21.8934957 123.692845,0 L0,0 L7.74215356e-11,200.681128 Z" id="path-81"></path>
        <path d="M0,189.617604 C8.16047886,191.365709 16.6285512,192.285919 25.3118168,192.285919 C91.6601812,192.285919 145.447249,138.560362 145.447249,72.2910212 C145.447249,45.1451597 136.421292,20.1046869 121.203327,0 L0,0 L1.4515695e-13,189.617604 Z" id="path-83"></path>
        <path d="M0,176.522308 C3.06595374,176.758517 6.16420699,176.878799 9.29042545,176.878799 C75.4683101,176.878799 129.117174,122.978845 129.117174,56.4943882 C129.117174,36.0768786 124.057072,16.8465667 115.127972,0 L0,0 L6.08092691e-12,176.522308 Z" id="path-85"></path>
        <path d="M0,160.597927 C63.3855154,157.12313 113.713251,104.657113 113.713251,40.4483127 C113.713251,26.2578032 111.254878,12.6410132 106.740497,0 L0,0 L0,160.597927 Z" id="path-87"></path>
        <path d="M0,143.82703 C54.8994553,133.113923 96.3922045,83.8197588 96.3922045,24.6314217 C96.3922045,16.1920187 95.5485652,7.95382702 93.9427133,0 L0,0 L0,143.82703 Z" id="path-89"></path>
        <path d="M0,121.961203 C47.8525211,105.887036 82.2822715,61.1033536 82.2822715,8.37450332 C82.2822715,5.55929468 82.1841211,2.76674027 81.9910178,0 L0,0 L0,121.961203 Z" id="path-91"></path>
        <path d="M0,99.744299 C37.0002404,80.8697473 62.964771,43.5710952 65.697752,0 L0,0 L0,99.744299 Z" id="path-93"></path>
        <path d="M0.0175714671,75.1939926 C24.2278682,57.3858826 41.6771791,30.7740423 47.7471574,0.0212003958 L0.0175714671,0.0212003958 L0.0175714671,75.1939926 Z" id="path-95"></path>
        <path d="M0.168784698,44.5811412 C11.6588351,31.9994734 20.6238826,16.8496803 26.2072717,0.0324998968 L0.168784698,0.0324998968 L0.168784698,44.5811412 Z" id="path-97"></path>
        <path d="M0.209513191,8.01701501 C1.69078531,5.42639064 3.09522791,2.78041837 4.41946833,0.0826779317 L0.209513191,0.0826779317 L0.209513191,8.01701501 Z" id="path-99"></path>
    </defs>
    <g id="Startup-Garage---FAQ" stroke="none" stroke-width="1" fill="none" fill-rule="evenodd" transform="translate(-1078.000000, -457.000000)" opacity="0.673913043">
        <g id="Pattern" transform="translate(1173.500000, 511.000000) rotate(-270.000000) translate(-1173.500000, -511.000000) translate(1086.000000, 404.000000)">
            <mask id="mask-2" fill="white">
                <use xlink:href="#path-1"></use>
            </mask>
            <g id="Mask"></g>
            <g opacity="0.0797101449" mask="url(#mask-2)">
                <g transform="translate(154.000000, 82.000000) rotate(-270.000000) translate(-154.000000, -82.000000) translate(33.000000, -39.000000)">
                    <g id="Group-250" transform="translate(2.000000, 0.000000)">
                        <mask id="mask-4" fill="white">
                            <use xlink:href="#path-3"></use>
                        </mask>
                        <g id="Clip-249"></g>
                        <polygon id="Fill-248" fill="#223B98" mask="url(#mask-4)" points="-206.265541 106.255408 -206.265541 98.668671 158.772496 -269.480685 160.654424 -271.376086 164.413187 -267.585285"></polygon>
                    </g>
                    <g id="Group-253">
                        <mask id="mask-6" fill="white">
                            <use xlink:href="#path-5"></use>
                        </mask>
                        <g id="Clip-252"></g>
                        <polygon id="Fill-251" fill="#223B98" mask="url(#mask-6)" points="-204.787766 121.822997 -204.787766 114.297388 175.590382 -266.975498 177.469289 -268.858812 181.224559 -265.094733"></polygon>
                    </g>
                    <g id="Group-256">
                        <mask id="mask-8" fill="white">
                            <use xlink:href="#path-7"></use>
                        </mask>
                        <g id="Clip-255"></g>
                        <polygon id="Fill-254" fill="#223B98" mask="url(#mask-8)" points="-206.256056 138.992601 -206.256056 131.400797 193.057219 -269.329728 194.950379 -271.229607 198.731575 -267.43242"></polygon>
                    </g>
                    <g id="Group-259">
                        <mask id="mask-10" fill="white">
                            <use xlink:href="#path-9"></use>
                        </mask>
                        <g id="Clip-258"></g>
                        <polygon id="Fill-257" fill="#223B98" mask="url(#mask-10)" points="-206.094296 154.210024 -206.094296 146.654627 209.005585 -268.040509 210.897558 -269.930637 214.676383 -266.152938"></polygon>
                    </g>
                    <g id="Group-262">
                        <mask id="mask-12" fill="white">
                            <use xlink:href="#path-11"></use>
                        </mask>
                        <g id="Clip-261"></g>
                        <polygon id="Fill-260" fill="#223B98" mask="url(#mask-12)" points="-206.487331 170.488897 -206.487331 162.914064 225.224708 -268.912987 227.11663 -270.805413 230.903038 -267.020561"></polygon>
                    </g>
                    <g id="Group-265">
                        <mask id="mask-14" fill="white">
                            <use xlink:href="#path-13"></use>
                        </mask>
                        <g id="Clip-264"></g>
                        <polygon id="Fill-263" fill="#223B98" mask="url(#mask-14)" points="-206.010297 186.408042 -206.010297 178.840752 241.114108 -268.756914 243.00329 -270.648096 246.781655 -266.865732"></polygon>
                    </g>
                    <g id="Group-268">
                        <mask id="mask-16" fill="white">
                            <use xlink:href="#path-15"></use>
                        </mask>
                        <g id="Clip-267"></g>
                        <polygon id="Fill-266" fill="#223B98" mask="url(#mask-16)" points="-206.010297 202.816267 -206.010297 195.23441 257.149119 -269.150437 259.038301 -271.047185 262.819226 -267.256257"></polygon>
                    </g>
                    <g id="Group-271">
                        <mask id="mask-18" fill="white">
                            <use xlink:href="#path-17"></use>
                        </mask>
                        <g id="Clip-270"></g>
                        <polygon id="Fill-269" fill="#223B98" mask="url(#mask-18)" points="-206.010297 217.948095 -206.010297 210.405259 273.18413 -267.748722 275.073312 -269.633792 278.854237 -265.861097"></polygon>
                    </g>
                    <g id="Group-274">
                        <mask id="mask-20" fill="white">
                            <use xlink:href="#path-19"></use>
                        </mask>
                        <g id="Clip-273"></g>
                        <polygon id="Fill-272" fill="#223B98" mask="url(#mask-20)" points="-206.010297 233.294128 -206.010297 225.768268 289.219141 -267.104216 291.110883 -268.984407 294.889248 -265.224025"></polygon>
                    </g>
                    <g id="Group-277">
                        <mask id="mask-22" fill="white">
                            <use xlink:href="#path-21"></use>
                        </mask>
                        <g id="Clip-276"></g>
                        <polygon id="Fill-275" fill="#223B98" mask="url(#mask-22)" points="-206.010297 250.541503 -206.010297 242.974807 305.256712 -268.795719 307.145894 -270.686753 310.924259 -266.902123"></polygon>
                    </g>
                    <g id="Group-280">
                        <mask id="mask-24" fill="white">
                            <use xlink:href="#path-23"></use>
                        </mask>
                        <g id="Clip-279"></g>
                        <polygon id="Fill-278" fill="#223B98" mask="url(#mask-24)" points="-206.010297 266.594788 -206.010297 259.025529 321.291723 -268.795719 323.183465 -270.686753 326.96183 -266.904686"></polygon>
                    </g>
                    <g id="Group-283">
                        <mask id="mask-26" fill="white">
                            <use xlink:href="#path-25"></use>
                        </mask>
                        <g id="Clip-282"></g>
                        <polygon id="Fill-281" fill="#223B98" mask="url(#mask-26)" points="-206.010297 282.64551 -206.010297 275.076252 337.329294 -268.795719 339.218476 -270.686753 342.999401 -266.904686"></polygon>
                    </g>
                    <g id="Group-286">
                        <mask id="mask-28" fill="white">
                            <use xlink:href="#path-27"></use>
                        </mask>
                        <g id="Clip-285"></g>
                        <polygon id="Fill-284" fill="#223B98" mask="url(#mask-28)" points="-206.010297 298.698795 -206.010297 291.132099 353.364305 -268.795719 355.256047 -270.686753 359.034412 -266.899561"></polygon>
                    </g>
                    <g id="Group-289">
                        <mask id="mask-30" fill="white">
                            <use xlink:href="#path-29"></use>
                        </mask>
                        <g id="Clip-288"></g>
                        <polygon id="Fill-287" fill="#223B98" mask="url(#mask-30)" points="-206.010297 314.749518 -206.010297 307.18026 369.399316 -268.795719 371.293618 -270.686753 375.071983 -266.904686"></polygon>
                    </g>
                    <g id="Group-292">
                        <mask id="mask-32" fill="white">
                            <use xlink:href="#path-31"></use>
                        </mask>
                        <g id="Clip-291"></g>
                        <polygon id="Fill-290" fill="#223B98" mask="url(#mask-32)" points="-206.010297 330.800241 -206.010297 323.230982 385.436887 -268.795719 387.328629 -270.686753 391.106994 -266.904686"></polygon>
                    </g>
                    <g id="Group-295">
                        <mask id="mask-34" fill="white">
                            <use xlink:href="#path-33"></use>
                        </mask>
                        <g id="Clip-294"></g>
                        <polygon id="Fill-293" fill="#223B98" mask="url(#mask-34)" points="-206.010297 346.853526 -206.010297 339.28683 401.471898 -268.795719 403.36364 -270.686753 407.144564 -266.902123"></polygon>
                    </g>
                    <g id="Group-298">
                        <mask id="mask-36" fill="white">
                            <use xlink:href="#path-35"></use>
                        </mask>
                        <g id="Clip-297"></g>
                        <polygon id="Fill-296" fill="#223B98" mask="url(#mask-36)" points="-206.010297 362.906811 -206.010297 355.337552 417.509469 -268.795719 419.398651 -270.686753 423.179575 -266.904686"></polygon>
                    </g>
                    <g id="Group-301">
                        <mask id="mask-38" fill="white">
                            <use xlink:href="#path-37"></use>
                        </mask>
                        <g id="Clip-300"></g>
                        <polygon id="Fill-299" fill="#223B98" mask="url(#mask-38)" points="-206.010297 378.957533 -206.010297 371.388275 433.54704 -268.795719 435.436222 -270.686753 439.214587 -266.902123"></polygon>
                    </g>
                    <g id="Group-304">
                        <mask id="mask-40" fill="white">
                            <use xlink:href="#path-39"></use>
                        </mask>
                        <g id="Clip-303"></g>
                        <polygon id="Fill-302" fill="#223B98" mask="url(#mask-40)" points="-206.010297 395.008256 -206.010297 387.44156 449.582051 -268.795719 451.473793 -270.686753 455.254717 -266.904686"></polygon>
                    </g>
                    <g id="Group-307">
                        <mask id="mask-42" fill="white">
                            <use xlink:href="#path-41"></use>
                        </mask>
                        <g id="Clip-306"></g>
                        <polygon id="Fill-305" fill="#223B98" mask="url(#mask-42)" points="-206.010297 411.061541 -206.010297 403.492282 465.617062 -268.795719 467.508804 -270.686753 471.289728 -266.904686"></polygon>
                    </g>
                    <g id="Group-310">
                        <mask id="mask-44" fill="white">
                            <use xlink:href="#path-43"></use>
                        </mask>
                        <g id="Clip-309"></g>
                        <polygon id="Fill-308" fill="#223B98" mask="url(#mask-44)" points="-206.010297 419.545567 481.654632 -268.795719 483.546375 -270.686753 486.016647 -268.208935 486.016647 -265.592749 -206.010297 427.114826"></polygon>
                    </g>
                    <g id="Group-313">
                        <mask id="mask-46" fill="white">
                            <use xlink:href="#path-45"></use>
                        </mask>
                        <g id="Clip-312"></g>
                        <polygon id="Fill-311" fill="#223B98" mask="url(#mask-46)" points="-206.010297 440.96631 -206.010297 435.872307 486.016647 -256.832706 486.016647 -249.268573 -203.537465 440.96631"></polygon>
                    </g>
                    <g id="Group-316">
                        <mask id="mask-48" fill="white">
                            <use xlink:href="#path-47"></use>
                        </mask>
                        <g id="Clip-315"></g>
                        <polygon id="Fill-314" fill="#223B98" mask="url(#mask-48)" points="-191.345282 440.901025 -193.234465 439.009992 485.952183 -240.847268 485.952183 -233.27801 -187.566918 440.901025"></polygon>
                    </g>
                    <g id="Group-319">
                        <mask id="mask-50" fill="white">
                            <use xlink:href="#path-49"></use>
                        </mask>
                        <g id="Clip-318"></g>
                        <polygon id="Fill-317" fill="#223B98" mask="url(#mask-50)" points="-175.372932 440.835741 -177.264674 438.944708 485.892082 -224.86183 485.892082 -217.292571 -171.594567 440.835741"></polygon>
                    </g>
                    <g id="Group-322">
                        <mask id="mask-52" fill="white">
                            <use xlink:href="#path-51"></use>
                        </mask>
                        <g id="Clip-321"></g>
                        <polygon id="Fill-320" fill="#223B98" mask="url(#mask-52)" points="-159.403141 440.767894 -161.294884 438.876861 485.821742 -208.876392 485.821742 -201.309696 -155.624777 440.767894"></polygon>
                    </g>
                    <g id="Group-325">
                        <mask id="mask-54" fill="white">
                            <use xlink:href="#path-53"></use>
                        </mask>
                        <g id="Clip-324"></g>
                        <polygon id="Fill-323" fill="#223B98" mask="url(#mask-54)" points="-143.435911 440.70261 -145.325093 438.811576 485.756521 -192.890954 485.756521 -185.321695 -139.657546 440.70261"></polygon>
                    </g>
                    <g id="Group-328">
                        <mask id="mask-56" fill="white">
                            <use xlink:href="#path-55"></use>
                        </mask>
                        <g id="Clip-327"></g>
                        <polygon id="Fill-326" fill="#223B98" mask="url(#mask-56)" points="-127.463561 440.637325 -129.355303 438.746292 485.688741 -176.905515 485.688741 -169.336257 -123.685196 440.637325"></polygon>
                    </g>
                    <g id="Group-331">
                        <mask id="mask-58" fill="white">
                            <use xlink:href="#path-57"></use>
                        </mask>
                        <g id="Clip-330"></g>
                        <polygon id="Fill-329" fill="#223B98" mask="url(#mask-58)" points="-111.49377 440.566916 -113.385512 438.675882 485.62352 -160.920077 485.62352 -153.355944 -107.715405 440.566916"></polygon>
                    </g>
                    <g id="Group-334">
                        <mask id="mask-60" fill="white">
                            <use xlink:href="#path-59"></use>
                        </mask>
                        <g id="Clip-333"></g>
                        <polygon id="Fill-332" fill="#223B98" mask="url(#mask-60)" points="-94.9916533 441.037042 -96.8833955 439.146008 486.093186 -144.401791 486.093186 -136.832533 -91.2132886 441.037042"></polygon>
                    </g>
                    <g id="Group-337">
                        <mask id="mask-62" fill="white">
                            <use xlink:href="#path-61"></use>
                        </mask>
                        <g id="Clip-336"></g>
                        <polygon id="Fill-335" fill="#223B98" mask="url(#mask-62)" points="-79.0218628 440.971757 -80.913605 439.080724 486.022846 -128.416353 486.022846 -120.847095 -75.2434981 440.971757"></polygon>
                    </g>
                    <g id="Group-340">
                        <mask id="mask-64" fill="white">
                            <use xlink:href="#path-63"></use>
                        </mask>
                        <g id="Clip-339"></g>
                        <polygon id="Fill-338" fill="#223B98" mask="url(#mask-64)" points="-63.0571921 440.90391 -64.9438145 439.012877 485.957625 -112.430915 485.957625 -104.861657 -59.2762675 440.90391"></polygon>
                    </g>
                    <g id="Group-343">
                        <mask id="mask-66" fill="white">
                            <use xlink:href="#path-65"></use>
                        </mask>
                        <g id="Clip-342"></g>
                        <polygon id="Fill-341" fill="#223B98" mask="url(#mask-66)" points="-47.0822819 440.838626 -48.9740241 438.947593 485.889845 -96.4454768 485.889845 -88.8762184 -43.3039172 440.838626"></polygon>
                    </g>
                    <g id="Group-346">
                        <mask id="mask-68" fill="white">
                            <use xlink:href="#path-67"></use>
                        </mask>
                        <g id="Clip-345"></g>
                        <polygon id="Fill-344" fill="#223B98" mask="url(#mask-68)" points="-31.1150513 440.770779 -33.0042336 438.879746 485.822064 -80.4600387 485.822064 -72.8933426 -27.3341268 440.770779"></polygon>
                    </g>
                    <g id="Group-349">
                        <mask id="mask-70" fill="white">
                            <use xlink:href="#path-69"></use>
                        </mask>
                        <g id="Clip-348"></g>
                        <polygon id="Fill-347" fill="#223B98" mask="url(#mask-70)" points="-15.1452608 440.702932 -17.0344432 438.811899 485.756844 -64.4746005 485.756844 -56.9079045 -11.3668962 440.702932"></polygon>
                    </g>
                    <g id="Group-352">
                        <mask id="mask-72" fill="white">
                            <use xlink:href="#path-71"></use>
                        </mask>
                        <g id="Clip-351"></g>
                        <polygon id="Fill-350" fill="#223B98" mask="url(#mask-72)" points="0.827089504 440.637648 -1.0646527 438.746614 485.694183 -48.4891624 485.694183 -40.919904 4.60545417 440.637648"></polygon>
                    </g>
                    <g id="Group-355" transform="translate(15.000000, 0.000000)">
                        <mask id="mask-74" fill="white">
                            <use xlink:href="#path-73"></use>
                        </mask>
                        <g id="Clip-354"></g>
                        <polygon id="Fill-353" fill="#223B98" mask="url(#mask-74)" points="1.89124789 440.569801 0 438.678768 470.598266 -32.5037242 470.598266 -24.9344658 5.66862528 440.569801"></polygon>
                    </g>
                    <g id="Group-358" transform="translate(32.000000, 0.000000)">
                        <mask id="mask-76" fill="white">
                            <use xlink:href="#path-75"></use>
                        </mask>
                        <g id="Clip-357"></g>
                        <polygon id="Fill-356" fill="#223B98" mask="url(#mask-76)" points="1.87865395 441.037364 0 439.146331 452.763249 -15.9854381 452.763249 -8.41874212 5.64360901 441.037364"></polygon>
                    </g>
                    <g id="Group-361" transform="translate(47.000000, 0.000000)">
                        <mask id="mask-78" fill="white">
                            <use xlink:href="#path-77"></use>
                        </mask>
                        <g id="Clip-360"></g>
                        <polygon id="Fill-359" fill="#223B98" mask="url(#mask-78)" points="1.89060448 440.969518 0 439.078484 438.976328 0 438.976328 7.56669602 5.67437523 440.969518"></polygon>
                    </g>
                    <g id="Group-364" transform="translate(62.000000, 15.000000)">
                        <mask id="mask-80" fill="white">
                            <use xlink:href="#path-79"></use>
                        </mask>
                        <g id="Clip-363"></g>
                        <polygon id="Fill-362" fill="#223B98" mask="url(#mask-80)" points="1.89769061 426.083431 0 424.187215 424.514417 0 424.514417 7.59000456 5.69564321 426.083431"></polygon>
                    </g>
                    <g id="Group-367" transform="translate(79.000000, 32.000000)">
                        <mask id="mask-82" fill="white">
                            <use xlink:href="#path-81"></use>
                        </mask>
                        <g id="Clip-366"></g>
                        <polygon id="Fill-365" fill="#223B98" mask="url(#mask-82)" points="1.90012547 406.374574 0 404.495073 408.928629 0 408.928629 7.52309697 5.70037642 406.374574"></polygon>
                    </g>
                    <g id="Group-370" transform="translate(95.000000, 48.000000)">
                        <mask id="mask-84" fill="white">
                            <use xlink:href="#path-83"></use>
                        </mask>
                        <g id="Clip-369"></g>
                        <polygon id="Fill-368" fill="#223B98" mask="url(#mask-84)" points="1.88713114 391.007478 0 389.125145 389.589159 0 389.589159 7.53443284 5.65628617 391.007478"></polygon>
                    </g>
                    <g id="Group-373" transform="translate(112.000000, 64.000000)">
                        <mask id="mask-86" fill="white">
                            <use xlink:href="#path-85"></use>
                        </mask>
                        <g id="Clip-372"></g>
                        <polygon id="Fill-371" fill="#223B98" mask="url(#mask-86)" points="1.88228222 376.245425 0 374.356982 372.630751 0 372.630751 7.55633137 5.64175254 376.245425"></polygon>
                    </g>
                    <g id="Group-376" transform="translate(127.000000, 79.000000)">
                        <mask id="mask-88" fill="white">
                            <use xlink:href="#path-87"></use>
                        </mask>
                        <g id="Clip-375"></g>
                        <polygon id="Fill-374" fill="#223B98" mask="url(#mask-88)" points="1.88639888 360.062342 0 358.174708 358.420906 0 358.420906 7.55309363 5.66687533 360.062342"></polygon>
                    </g>
                    <g id="Group-379" transform="translate(145.000000, 97.000000)">
                        <mask id="mask-90" fill="white">
                            <use xlink:href="#path-89"></use>
                        </mask>
                        <g id="Clip-378"></g>
                        <polygon id="Fill-377" fill="#223B98" mask="url(#mask-90)" points="1.86403255 346.961287 0 345.057613 337.872317 0 337.872317 7.61727405 5.59462343 346.961287"></polygon>
                    </g>
                    <g id="Group-382" transform="translate(158.000000, 112.000000)">
                        <mask id="mask-92" fill="white">
                            <use xlink:href="#path-91"></use>
                        </mask>
                        <g id="Clip-381"></g>
                        <polygon id="Fill-380" fill="#223B98" mask="url(#mask-92)" points="1.9036731 326.941895 0 325.060442 328.896931 0 328.896931 7.53090895 5.7135988 326.941895"></polygon>
                    </g>
                    <g id="Group-385" transform="translate(175.000000, 127.000000)">
                        <mask id="mask-94" fill="white">
                            <use xlink:href="#path-93"></use>
                        </mask>
                        <g id="Clip-384"></g>
                        <polygon id="Fill-383" fill="#223B98" mask="url(#mask-94)" points="1.89831069 312.583468 0 310.692269 311.857979 0 311.857979 7.5699224 5.69493208 312.583468"></polygon>
                    </g>
                    <g id="Group-388" transform="translate(190.000000, 79.000000)">
                        <mask id="mask-96" fill="white">
                            <use xlink:href="#path-95"></use>
                        </mask>
                        <g id="Clip-387"></g>
                        <polygon id="Fill-386" fill="#223B98" mask="url(#mask-96)" points="1.92807031 302.008077 0.0175714671 300.082067 297.256549 0.0212003958 297.256549 7.73045973 5.7438975 302.008077"></polygon>
                    </g>
                    <g id="Group-391" transform="translate(207.000000, 94.000000)">
                        <mask id="mask-98" fill="white">
                            <use xlink:href="#path-97"></use>
                        </mask>
                        <g id="Clip-390"></g>
                        <polygon id="Fill-389" fill="#223B98" mask="url(#mask-98)" points="2.00327706 285.674354 0.168784698 283.748309 270.032789 0.0324998968 270.032789 7.73928931 5.66729698 285.674354"></polygon>
                    </g>
                    <g id="Group-394" transform="translate(224.000000, 110.000000)">
                        <mask id="mask-100" fill="white">
                            <use xlink:href="#path-99"></use>
                        </mask>
                        <g id="Clip-393"></g>
                        <polygon id="Fill-392" fill="#223B98" mask="url(#mask-100)" points="2.26837784 306.79997 0.209513191 304.606265 286.009498 0.0826779317 286.009498 8.86046697 6.38610714 306.79997"></polygon>
                    </g>
                </g>
            </g>
        </g>
    </g>
</svg>