<?xml version="1.0" encoding="UTF-8"?>
<svg width="159px" height="146px" viewBox="0 0 159 146" version="1.1" xmlns="http://www.w3.org/2000/svg" xmlns:xlink="http://www.w3.org/1999/xlink">
    <!-- Generator: Sketch 48.2 (47327) - http://www.bohemiancoding.com/sketch -->
    <title>Pattern</title>
    <desc>Created with Sketch.</desc>
    <defs>
        <rect id="path-1" x="0" y="0" width="284" height="281.932039"></rect>
        <path d="M82.9467903,0 C47.7917187,0.678876303 17.1103422,19.7133178 0,47.961335 L82.9467903,47.961335 L82.9467903,0 Z" id="path-3"></path>
        <path d="M102.256544,0.644629829 C98.5778358,0.218763703 94.8378347,0 91.0479315,0 C50.0554695,0 14.9022804,25.5933438 0,62.0238542 L102.256544,62.0238542 L102.256544,0.644629829 Z" id="path-5"></path>
        <path d="M120.581623,3.08413864 C112.745988,1.07019983 104.538736,1.21515655e-13 96.0847247,0 C49.922938,0 11.1198586,31.9083565 0,75.1370075 L120.581623,75.1370075 L120.581623,3.08413864 Z" id="path-7"></path>
        <path d="M135.871984,7.43513063 C124.279127,2.64278968 111.582233,0 98.2717056,0 C47.6180277,0 5.85285793,38.273136 0,87.6359906 L135.871984,87.6359906 L135.871984,7.43512008 L135.871984,7.43513063 Z" id="path-9"></path>
        <path d="M0.00880472193,100.054578 C0.00294102713,99.6118419 0,99.1684024 0,98.7242781 C0,44.2006408 44.3295213,0 99.0142438,0 C117.585985,0 134.963619,5.09802308 149.816187,13.9670627 L149.816187,100.054578 L0.00880472193,100.054578 Z" id="path-11"></path>
        <path d="M1.06013816,114.549259 C0.36171402,109.767814 0,104.876249 0,99.8997207 C0,44.7269077 44.4627289,0 99.3117756,0 C123.779351,0 146.180514,8.9004626 163.489931,23.6582679 L163.489931,114.549259 L1.06013816,114.549259 Z" id="path-13"></path>
        <path d="M3.94037846,127.30658 C1.37524312,118.474056 0,109.134261 0,99.4728689 C0,44.5357984 44.4697278,0 99.3274084,0 C130.620814,-1.20195947e-13 158.534564,14.4923904 176.741304,37.140808 L176.741304,127.30658 L3.94037846,127.30658 Z" id="path-15"></path>
        <path d="M8.85595436,141.013601 C3.16775791,128.449874 0,114.495168 0,99.7987485 C0,44.6817006 44.5588765,0 99.5265306,0 C139.968399,0 174.777012,24.1867613 190.349898,58.9211634 L190.349885,140.678373 C190.299745,140.790213 190.249398,140.901962 190.198851,141.013601 L8.85593302,141.013597 L8.85595436,141.013601 Z" id="path-17"></path>
        <path d="M16.1096326,154.289816 C5.92186609,138.62154 0,119.900745 0,99.7911007 C0,44.6782765 44.4824351,0 99.3557914,0 C154.229148,0 198.713695,44.6782765 198.713695,99.7911007 C198.713695,119.900745 192.791547,138.62154 182.603424,154.289816 L16.1096326,154.289816 Z" id="path-19"></path>
        <path d="M26.438806,167.927673 C10.0295888,150.091345 0,126.223353 0,99.9982472 C0,44.7710198 44.4824351,0 99.3557914,0 C154.229148,0 198.713695,44.7710198 198.713695,99.9982472 C198.713695,126.223353 188.68363,150.091345 172.273912,167.927673 L26.438806,167.927673 Z" id="path-21"></path>
        <path d="M41.4092902,180.249485 C16.331007,162.195509 0,132.731509 0,99.4504851 C0,44.5257768 44.4824351,0 99.3557914,0 C154.229148,0 198.713695,44.5257768 198.713695,99.4504851 C198.713695,132.731509 182.381912,162.195509 157.303018,180.249485 L41.4092902,180.249485 Z" id="path-23"></path>
        <path d="M66.941427,193.077632 C27.9841726,179.654002 0,142.708524 0,99.236423 C0,44.4299373 44.4824351,0 99.3557914,0 C154.229148,0 198.713695,44.4299373 198.713695,99.236423 C198.713695,142.708524 170.728193,179.654002 131.770389,193.077632 L66.941427,193.077632 Z" id="path-25"></path>
        <path d="M0,99.5730032 C0,154.567493 44.4824351,199.152356 99.3557914,199.152356 C154.229148,199.152356 198.713695,154.567493 198.713695,99.5730032 C198.713695,44.5806303 154.229148,0 99.3557914,0 C44.4824351,0 0,44.5806303 0,99.5730032 Z" id="path-27"></path>
        <path d="M0,99.5730032 C0,154.567493 44.4824351,199.152356 99.3557914,199.152356 C154.229148,199.152356 198.713695,154.567493 198.713695,99.5730032 C198.713695,44.5806303 154.229148,0 99.3557914,0 C44.4824351,0 0,44.5806303 0,99.5730032 Z" id="path-29"></path>
        <path d="M0,99.5730032 C0,154.567493 44.4824351,199.152356 99.3557914,199.152356 C154.229148,199.152356 198.713695,154.567493 198.713695,99.5730032 C198.713695,44.5806303 154.229148,0 99.3557914,0 C44.4824351,0 0,44.5806303 0,99.5730032 Z" id="path-31"></path>
        <path d="M0,99.5730032 C0,154.567493 44.4824351,199.152356 99.3557914,199.152356 C154.229148,199.152356 198.713695,154.567493 198.713695,99.5730032 C198.713695,44.5806303 154.229148,0 99.3557914,0 C44.4824351,0 0,44.5806303 0,99.5730032 Z" id="path-33"></path>
        <path d="M0,99.5730032 C0,154.567493 44.4824351,199.152356 99.3557914,199.152356 C154.229148,199.152356 198.713695,154.567493 198.713695,99.5730032 C198.713695,44.5806303 154.229148,0 99.3557914,0 C44.4824351,0 0,44.5806303 0,99.5730032 Z" id="path-35"></path>
        <path d="M0,99.5730032 C0,154.567493 44.4824351,199.152356 99.3557914,199.152356 C154.229148,199.152356 198.713695,154.567493 198.713695,99.5730032 C198.713695,44.5806303 154.229148,0 99.3557914,0 C44.4824351,0 0,44.5806303 0,99.5730032 Z" id="path-37"></path>
        <path d="M0,99.5730032 C0,154.567493 44.4824351,199.152356 99.3557914,199.152356 C154.229148,199.152356 198.713695,154.567493 198.713695,99.5730032 C198.713695,44.5806303 154.229148,0 99.3557914,0 C44.4824351,0 0,44.5806303 0,99.5730032 Z" id="path-39"></path>
        <path d="M0,99.5730032 C0,154.567493 44.4824351,199.152356 99.3557914,199.152356 C154.229148,199.152356 198.713695,154.567493 198.713695,99.5730032 C198.713695,44.5806303 154.229148,0 99.3557914,0 C44.4824351,0 0,44.5806303 0,99.5730032 Z" id="path-41"></path>
        <path d="M0,99.5730032 C0,154.567493 44.4824351,199.152356 99.3557914,199.152356 C154.229148,199.152356 198.713695,154.567493 198.713695,99.5730032 C198.713695,44.5806303 154.229148,0 99.3557914,0 C44.4824351,0 0,44.5806303 0,99.5730032 Z" id="path-43"></path>
        <path d="M0,99.5730032 C0,154.567493 44.4824351,199.152356 99.3557914,199.152356 C154.229148,199.152356 198.713695,154.567493 198.713695,99.5730032 C198.713695,44.5806303 154.229148,0 99.3557914,0 C44.4824351,0 0,44.5806303 0,99.5730032 Z" id="path-45"></path>
        <path d="M0,99.5730032 C0,154.567493 44.4824351,199.152356 99.3557914,199.152356 C154.229148,199.152356 198.713695,154.567493 198.713695,99.5730032 C198.713695,44.5806303 154.229148,0 99.3557914,0 C44.4824351,0 0,44.5806303 0,99.5730032 Z" id="path-47"></path>
        <path d="M0,99.5730032 C0,154.567493 44.4824351,199.152356 99.3557914,199.152356 C154.229148,199.152356 198.713695,154.567493 198.713695,99.5730032 C198.713695,44.5806303 154.229148,0 99.3557914,0 C44.4824351,0 0,44.5806303 0,99.5730032 Z" id="path-49"></path>
        <path d="M0,99.5730032 C0,154.567493 44.4824351,199.152356 99.3557914,199.152356 C154.229148,199.152356 198.713695,154.567493 198.713695,99.5730032 C198.713695,44.5806303 154.229148,0 99.3557914,0 C44.4824351,0 0,44.5806303 0,99.5730032 Z" id="path-51"></path>
        <path d="M0,99.5730032 C0,154.567493 44.4824351,199.152356 99.3557914,199.152356 C154.229148,199.152356 198.713695,154.567493 198.713695,99.5730032 C198.713695,44.5806303 154.229148,0 99.3557914,0 C44.4824351,0 0,44.5806303 0,99.5730032 Z" id="path-53"></path>
        <path d="M0,99.5730032 C0,154.567493 44.4824351,199.152356 99.3557914,199.152356 C154.229148,199.152356 198.713695,154.567493 198.713695,99.5730032 C198.713695,44.5806303 154.229148,0 99.3557914,0 C44.4824351,0 0,44.5806303 0,99.5730032 Z" id="path-55"></path>
        <path d="M0,99.5730032 C0,154.567493 44.4824351,199.152356 99.3557914,199.152356 C154.229148,199.152356 198.713695,154.567493 198.713695,99.5730032 C198.713695,44.5806303 154.229148,0 99.3557914,0 C44.4824351,0 0,44.5806303 0,99.5730032 Z" id="path-57"></path>
        <path d="M0,99.5730032 C0,154.567493 44.4824351,199.152356 99.3557914,199.152356 C154.229148,199.152356 198.713695,154.567493 198.713695,99.5730032 C198.713695,44.5806303 154.229148,0 99.3557914,0 C44.4824351,0 0,44.5806303 0,99.5730032 Z" id="path-59"></path>
        <path d="M0,99.5730032 C0,154.567493 44.4824351,199.152356 99.3557914,199.152356 C154.229148,199.152356 198.713695,154.567493 198.713695,99.5730032 C198.713695,44.5806303 154.229148,0 99.3557914,0 C44.4824351,0 0,44.5806303 0,99.5730032 Z" id="path-61"></path>
        <path d="M0,99.5730032 C0,154.567493 44.4824351,199.152356 99.3557914,199.152356 C154.229148,199.152356 198.713695,154.567493 198.713695,99.5730032 C198.713695,44.5806303 154.229148,0 99.3557914,0 C44.4824351,0 0,44.5806303 0,99.5730032 Z" id="path-63"></path>
        <path d="M0,99.5730032 C0,154.567493 44.4824351,199.152356 99.3557914,199.152356 C154.229148,199.152356 198.713695,154.567493 198.713695,99.5730032 C198.713695,44.5806303 154.229148,0 99.3557914,0 C44.4824351,0 0,44.5806303 0,99.5730032 Z" id="path-65"></path>
        <path d="M0,99.5730032 C0,154.567493 44.4824351,199.152356 99.3557914,199.152356 C154.229148,199.152356 198.713695,154.567493 198.713695,99.5730032 C198.713695,44.5806303 154.229148,0 99.3557914,0 C44.4824351,0 0,44.5806303 0,99.5730032 Z" id="path-67"></path>
        <path d="M0,99.5730032 C0,154.567493 44.4824351,199.152356 99.3557914,199.152356 C154.229148,199.152356 198.713695,154.567493 198.713695,99.5730032 C198.713695,44.5806303 154.229148,0 99.3557914,0 C44.4824351,0 0,44.5806303 0,99.5730032 Z" id="path-69"></path>
        <path d="M0,99.5730032 C0,154.567493 44.4824351,199.152356 99.3557914,199.152356 C154.229148,199.152356 198.713695,154.567493 198.713695,99.5730032 C198.713695,44.5806303 154.229148,0 99.3557914,0 C44.4824351,0 0,44.5806303 0,99.5730032 Z" id="path-71"></path>
        <path d="M0,99.5730032 C0,154.567493 44.4824351,199.152356 99.3557914,199.152356 C154.229148,199.152356 198.713695,154.567493 198.713695,99.5730032 C198.713695,44.5806303 154.229148,0 99.3557914,0 C44.4824351,0 0,44.5806303 0,99.5730032 Z" id="path-73"></path>
        <path d="M0,99.5730032 C0,154.567493 44.4824351,199.152356 99.3557914,199.152356 C154.229148,199.152356 198.713695,154.567493 198.713695,99.5730032 C198.713695,44.5806303 154.229148,0 99.3557914,0 C44.4824351,0 0,44.5806303 0,99.5730032 Z" id="path-75"></path>
        <path d="M0,99.5730032 C0,154.567493 44.4824351,199.152356 99.3557914,199.152356 C154.229148,199.152356 198.713695,154.567493 198.713695,99.5730032 C198.713695,44.5806303 154.229148,0 99.3557914,0 C44.4824351,0 0,44.5806303 0,99.5730032 Z" id="path-77"></path>
        <path d="M0,147.547338 C16.9089974,178.309473 49.5748456,199.152356 87.0990481,199.152356 C141.980588,199.152356 186.47177,154.567493 186.47177,99.5730032 C186.47177,44.5806303 141.980588,0 87.0990481,0 C49.5748456,0 16.9089974,20.8409046 0,51.6011108 L3.45830113e-06,147.547344 L0,147.547338 Z" id="path-79"></path>
        <path d="M0,166.186193 C18.1042747,186.42647 44.336486,199.152356 73.5212603,199.152356 C128.148095,199.152356 172.432792,154.567493 172.432792,99.5730032 C172.432792,44.5806303 128.148095,0 73.5212603,0 C44.336486,0 18.1042747,12.7246784 0,32.9635068 L1.19512587e-13,166.186193 Z" id="path-81"></path>
        <path d="M0,178.472247 C16.7909313,191.439298 37.8364928,199.152356 60.681341,199.152356 C115.606166,199.152356 160.132438,154.567493 160.132438,99.5730032 C160.132438,44.5806303 115.606166,0 60.681341,0 C37.8364928,0 16.7909313,7.71232623 1.20164531e-13,20.6783688 L1.20164531e-13,178.472247 Z" id="path-83"></path>
        <path d="M0,174.612441 C14.1406563,182.313823 30.3486081,186.688944 47.5768845,186.688944 C102.662452,186.688944 147.319034,141.960671 147.319034,86.7892883 C147.319034,49.6285073 127.058036,17.2068 96.9962258,0 L0,0 L1.68928314e-05,174.61245 L0,174.612441 Z" id="path-85"></path>
        <path d="M0,166.16402 C10.6968918,170.058737 22.2514716,172.184304 34.3053711,172.184304 C89.4075703,172.184304 134.077635,127.76646 134.077635,72.9779859 C134.077635,44.113265 121.678073,18.1278195 101.886118,0 L0,0 L6.377232e-11,166.16402 Z" id="path-87"></path>
        <path d="M0,157.119632 C6.75976409,158.568136 13.7743244,159.330633 20.9671409,159.330633 C75.9270641,159.330633 120.481789,114.812933 120.481789,59.9012878 C120.481789,37.4078712 113.005103,16.6590071 100.399242,0 L0,0 L1.20241318e-13,157.119632 Z" id="path-89"></path>
        <path d="M0,146.199834 C2.53803899,146.395468 5.10281595,146.495088 7.69074291,146.495088 C62.4737127,146.495088 106.884986,101.853907 106.884986,46.7899511 C106.884986,29.8797002 102.696163,13.9527139 95.3045307,0 L0,0 L5.03387555e-12,146.199834 Z" id="path-91"></path>
        <path d="M0,132.935791 C52.4275721,130.059509 94.0547632,86.6304836 94.0547632,33.4813065 C94.0547632,21.7350366 92.0213886,10.4636661 88.2874437,0 L0,0 L0,132.935791 Z" id="path-93"></path>
        <path d="M0,118.773764 C45.245735,109.926776 79.4422481,69.2191743 79.4422481,20.3408682 C79.4422481,13.3715269 78.7469573,6.56834793 77.4234844,0 L0,0 L0,118.773764 Z" id="path-95"></path>
        <path d="M0,100.432079 C39.5902531,87.1953947 68.0753255,50.3171231 68.0753255,6.89619947 C68.0753255,4.57794373 67.9941219,2.27834321 67.8343601,0 L0,0 L0,100.432079 Z" id="path-97"></path>
        <path d="M0,82.824269 C30.452519,67.1514841 51.8222549,36.1799537 54.0715959,0 L0,0 L0,82.824269 Z" id="path-99"></path>
    </defs>
    <g id="Home---Mobile" stroke="none" stroke-width="1" fill="none" fill-rule="evenodd" transform="translate(-216.000000, -1725.000000)" opacity="0.673913043">
        <g id="2_Discover-the-startups" transform="translate(0.000000, 1385.000000)">
            <g id="Pattern" transform="translate(235.000000, 344.000000) rotate(-270.000000) translate(-235.000000, -344.000000) translate(93.000000, 203.000000)">
                <mask id="mask-2" fill="white">
                    <use xlink:href="#path-1"></use>
                </mask>
                <g id="Mask"></g>
                <g opacity="0.0797101449" mask="url(#mask-2)">
                    <g transform="translate(138.553398, -39.980583)">
                        <g id="Group-241" transform="translate(14.932355, 0.000000)">
                            <mask id="mask-4" fill="white">
                                <use xlink:href="#path-3"></use>
                            </mask>
                            <g id="Clip-240"></g>
                            <polygon id="Fill-239" fill="#223B98" mask="url(#mask-4)" points="-184.458505 47.9897117 -184.458505 41.7236804 78.4652719 -222.472052 80.0231698 -224.03962 83.1389657 -220.906605"></polygon>
                        </g>
                        <g id="Group-244" transform="translate(7.905365, 0.000000)">
                            <mask id="mask-6" fill="white">
                                <use xlink:href="#path-5"></use>
                            </mask>
                            <g id="Clip-243"></g>
                            <polygon id="Fill-242" fill="#223B98" mask="url(#mask-6)" points="-176.992328 62.1531015 -176.992328 55.8119758 97.3714144 -225.095814 98.9192525 -226.680559 102.019123 -223.508922"></polygon>
                        </g>
                        <g id="Group-247" transform="translate(3.952682, 0.000000)">
                            <mask id="mask-8" fill="white">
                                <use xlink:href="#path-7"></use>
                            </mask>
                            <g id="Clip-246"></g>
                            <polygon id="Fill-245" fill="#223B98" mask="url(#mask-8)" points="-173.478832 75.1295818 -173.478832 68.8168769 115.827363 -224.222604 117.384906 -225.800246 120.499992 -222.644962"></polygon>
                        </g>
                        <g id="Group-250" transform="translate(1.317561, 0.000000)">
                            <mask id="mask-10" fill="white">
                                <use xlink:href="#path-9"></use>
                            </mask>
                            <g id="Clip-249"></g>
                            <polygon id="Fill-248" fill="#223B98" mask="url(#mask-10)" points="-170.404524 87.5488058 -170.404524 81.2977381 131.168548 -222.037755 132.723287 -223.599464 135.828558 -220.476046"></polygon>
                        </g>
                        <g id="Group-253">
                            <mask id="mask-12" fill="white">
                                <use xlink:href="#path-11"></use>
                            </mask>
                            <g id="Clip-252"></g>
                            <polygon id="Fill-251" fill="#223B98" mask="url(#mask-12)" points="-169.52615 100.31827 -169.52615 94.1211142 145.356151 -219.847819 146.911536 -221.398682 150.020201 -218.299055"></polygon>
                        </g>
                        <g id="Group-256">
                            <mask id="mask-14" fill="white">
                                <use xlink:href="#path-13"></use>
                            </mask>
                            <g id="Clip-255"></g>
                            <polygon id="Fill-254" fill="#223B98" mask="url(#mask-14)" points="-169.965337 114.80992 -169.965337 108.538979 159.088833 -222.470292 160.648892 -224.03962 163.764787 -220.903088"></polygon>
                        </g>
                        <g id="Group-259">
                            <mask id="mask-16" fill="white">
                                <use xlink:href="#path-15"></use>
                            </mask>
                            <g id="Clip-258"></g>
                            <polygon id="Fill-257" fill="#223B98" mask="url(#mask-16)" points="-169.965337 127.489798 -169.965337 121.243537 172.366268 -221.596685 173.926572 -223.159307 177.042958 -220.036177"></polygon>
                        </g>
                        <g id="Group-262">
                            <mask id="mask-18" fill="white">
                                <use xlink:href="#path-17"></use>
                            </mask>
                            <g id="Clip-261"></g>
                            <polygon id="Fill-260" fill="#223B98" mask="url(#mask-18)" points="-170.404524 141.046914 -170.404524 134.78019 185.867622 -222.474 187.428938 -224.03962 190.553687 -220.90838"></polygon>
                        </g>
                        <g id="Group-265">
                            <mask id="mask-20" fill="white">
                                <use xlink:href="#path-19"></use>
                            </mask>
                            <g id="Clip-264"></g>
                            <polygon id="Fill-263" fill="#223B98" mask="url(#mask-20)" points="-169.965337 154.306598 -169.965337 148.042475 198.927147 -222.47412 200.485785 -224.03962 203.603061 -220.90862"></polygon>
                        </g>
                        <g id="Group-268">
                            <mask id="mask-22" fill="white">
                                <use xlink:href="#path-21"></use>
                            </mask>
                            <g id="Clip-267"></g>
                            <polygon id="Fill-266" fill="#223B98" mask="url(#mask-22)" points="-169.965337 167.971308 -169.965337 161.692057 212.156563 -222.908901 213.715202 -224.479777 216.83459 -221.340151"></polygon>
                        </g>
                        <g id="Group-271">
                            <mask id="mask-24" fill="white">
                                <use xlink:href="#path-23"></use>
                            </mask>
                            <g id="Clip-270"></g>
                            <polygon id="Fill-269" fill="#223B98" mask="url(#mask-24)" points="-169.965337 180.382234 -169.965337 174.139493 225.38598 -221.599151 226.944618 -223.159307 230.064007 -220.03688"></polygon>
                        </g>
                        <g id="Group-274">
                            <mask id="mask-26" fill="white">
                                <use xlink:href="#path-25"></use>
                            </mask>
                            <g id="Clip-273"></g>
                            <polygon id="Fill-272" fill="#223B98" mask="url(#mask-26)" points="-169.965337 193.167592 -169.965337 186.936178 238.615397 -221.162352 240.176147 -222.719151 243.293423 -219.605554"></polygon>
                        </g>
                        <g id="Group-277">
                            <mask id="mask-28" fill="white">
                                <use xlink:href="#path-27"></use>
                            </mask>
                            <g id="Clip-276"></g>
                            <polygon id="Fill-275" fill="#223B98" mask="url(#mask-28)" points="-169.965337 206.958579 -169.965337 200.708147 251.846925 -222.037385 253.405564 -223.599464 256.52284 -220.473189"></polygon>
                        </g>
                        <g id="Group-280">
                            <mask id="mask-30" fill="white">
                                <use xlink:href="#path-29"></use>
                            </mask>
                            <g id="Clip-279"></g>
                            <polygon id="Fill-278" fill="#223B98" mask="url(#mask-30)" points="-169.965337 220.219316 -169.965337 213.966768 265.076342 -222.037385 266.637092 -223.599464 269.754369 -220.475306"></polygon>
                        </g>
                        <g id="Group-283">
                            <mask id="mask-32" fill="white">
                                <use xlink:href="#path-31"></use>
                            </mask>
                            <g id="Clip-282"></g>
                            <polygon id="Fill-281" fill="#223B98" mask="url(#mask-32)" points="-169.965337 233.477937 -169.965337 227.225388 278.307871 -222.037385 279.866509 -223.599464 282.985897 -220.475306"></polygon>
                        </g>
                        <g id="Group-286">
                            <mask id="mask-34" fill="white">
                                <use xlink:href="#path-33"></use>
                            </mask>
                            <g id="Clip-285"></g>
                            <polygon id="Fill-284" fill="#223B98" mask="url(#mask-34)" points="-169.965337 246.738674 -169.965337 240.488242 291.537287 -222.037385 293.098037 -223.599464 296.215314 -220.471073"></polygon>
                        </g>
                        <g id="Group-289">
                            <mask id="mask-36" fill="white">
                                <use xlink:href="#path-35"></use>
                            </mask>
                            <g id="Clip-288"></g>
                            <polygon id="Fill-287" fill="#223B98" mask="url(#mask-36)" points="-169.965337 259.997295 -169.965337 253.744746 304.766704 -222.037385 306.329566 -223.599464 309.446842 -220.475306"></polygon>
                        </g>
                        <g id="Group-292">
                            <mask id="mask-38" fill="white">
                                <use xlink:href="#path-37"></use>
                            </mask>
                            <g id="Clip-291"></g>
                            <polygon id="Fill-290" fill="#223B98" mask="url(#mask-38)" points="-169.965337 273.255916 -169.965337 267.003367 317.998233 -222.037385 319.558983 -223.599464 322.676259 -220.475306"></polygon>
                        </g>
                        <g id="Group-295">
                            <mask id="mask-40" fill="white">
                                <use xlink:href="#path-39"></use>
                            </mask>
                            <g id="Clip-294"></g>
                            <polygon id="Fill-293" fill="#223B98" mask="url(#mask-40)" points="-169.965337 286.516653 -169.965337 280.266221 331.227649 -222.037385 332.788399 -223.599464 335.907788 -220.473189"></polygon>
                        </g>
                        <g id="Group-298">
                            <mask id="mask-42" fill="white">
                                <use xlink:href="#path-41"></use>
                            </mask>
                            <g id="Clip-297"></g>
                            <polygon id="Fill-296" fill="#223B98" mask="url(#mask-42)" points="-169.965337 299.77739 -169.965337 293.524842 344.459178 -222.037385 346.017816 -223.599464 349.137204 -220.475306"></polygon>
                        </g>
                        <g id="Group-301">
                            <mask id="mask-44" fill="white">
                                <use xlink:href="#path-43"></use>
                            </mask>
                            <g id="Clip-300"></g>
                            <polygon id="Fill-299" fill="#223B98" mask="url(#mask-44)" points="-169.965337 313.036011 -169.965337 306.783462 357.690707 -222.037385 359.249345 -223.599464 362.366621 -220.473189"></polygon>
                        </g>
                        <g id="Group-304">
                            <mask id="mask-46" fill="white">
                                <use xlink:href="#path-45"></use>
                            </mask>
                            <g id="Clip-303"></g>
                            <polygon id="Fill-302" fill="#223B98" mask="url(#mask-46)" points="-169.965337 326.294632 -169.965337 320.0442 370.920123 -222.037385 372.480873 -223.599464 375.600262 -220.475306"></polygon>
                        </g>
                        <g id="Group-307">
                            <mask id="mask-48" fill="white">
                                <use xlink:href="#path-47"></use>
                            </mask>
                            <g id="Clip-306"></g>
                            <polygon id="Fill-305" fill="#223B98" mask="url(#mask-48)" points="-169.965337 339.555369 -169.965337 333.30282 384.14954 -222.037385 385.71029 -223.599464 388.829678 -220.475306"></polygon>
                        </g>
                        <g id="Group-310">
                            <mask id="mask-50" fill="white">
                                <use xlink:href="#path-49"></use>
                            </mask>
                            <g id="Clip-309"></g>
                            <polygon id="Fill-308" fill="#223B98" mask="url(#mask-50)" points="-169.965337 346.563557 397.381068 -222.037385 398.941819 -223.599464 400.979875 -221.552675 400.979875 -219.391587 -169.965337 352.816106"></polygon>
                        </g>
                        <g id="Group-313">
                            <mask id="mask-52" fill="white">
                                <use xlink:href="#path-51"></use>
                            </mask>
                            <g id="Clip-312"></g>
                            <polygon id="Fill-311" fill="#223B98" mask="url(#mask-52)" points="-169.965337 364.258057 -169.965337 360.05018 400.979875 -212.155397 400.979875 -205.907081 -167.925168 364.258057"></polygon>
                        </g>
                        <g id="Group-316">
                            <mask id="mask-54" fill="white">
                                <use xlink:href="#path-53"></use>
                            </mask>
                            <g id="Clip-315"></g>
                            <polygon id="Fill-314" fill="#223B98" mask="url(#mask-54)" points="-157.866213 364.204129 -159.424851 362.64205 400.926691 -198.950704 400.926691 -192.698155 -154.748936 364.204129"></polygon>
                        </g>
                        <g id="Group-319">
                            <mask id="mask-56" fill="white">
                                <use xlink:href="#path-55"></use>
                            </mask>
                            <g id="Clip-318"></g>
                            <polygon id="Fill-317" fill="#223B98" mask="url(#mask-56)" points="-144.688493 364.150201 -146.249243 362.588122 400.877105 -185.746011 400.877105 -179.493463 -141.571217 364.150201"></polygon>
                        </g>
                        <g id="Group-322">
                            <mask id="mask-58" fill="white">
                                <use xlink:href="#path-57"></use>
                            </mask>
                            <g id="Clip-321"></g>
                            <polygon id="Fill-320" fill="#223B98" mask="url(#mask-58)" points="-131.512886 364.094156 -133.073636 362.532077 400.819072 -172.541319 400.819072 -166.290886 -128.395609 364.094156"></polygon>
                        </g>
                        <g id="Group-325">
                            <mask id="mask-60" fill="white">
                                <use xlink:href="#path-59"></use>
                            </mask>
                            <g id="Clip-324"></g>
                            <polygon id="Fill-323" fill="#223B98" mask="url(#mask-60)" points="-118.33939 364.040228 -119.898028 362.478149 400.765263 -159.336626 400.765263 -153.084077 -115.222114 364.040228"></polygon>
                        </g>
                        <g id="Group-328">
                            <mask id="mask-62" fill="white">
                                <use xlink:href="#path-61"></use>
                            </mask>
                            <g id="Clip-327"></g>
                            <polygon id="Fill-326" fill="#223B98" mask="url(#mask-62)" points="-105.161671 363.9863 -106.722421 362.424222 400.709342 -146.131933 400.709342 -139.879384 -102.044394 363.9863"></polygon>
                        </g>
                        <g id="Group-331">
                            <mask id="mask-64" fill="white">
                                <use xlink:href="#path-63"></use>
                            </mask>
                            <g id="Clip-330"></g>
                            <polygon id="Fill-329" fill="#223B98" mask="url(#mask-64)" points="-91.9860632 363.928139 -93.5468134 362.36606 400.655533 -132.92724 400.655533 -126.678925 -88.8687869 363.928139"></polygon>
                        </g>
                        <g id="Group-334">
                            <mask id="mask-66" fill="white">
                                <use xlink:href="#path-65"></use>
                            </mask>
                            <g id="Clip-333"></g>
                            <polygon id="Fill-332" fill="#223B98" mask="url(#mask-66)" points="-78.3712688 364.316484 -79.932019 362.754405 401.043023 -119.282391 401.043023 -113.029842 -75.2539925 364.316484"></polygon>
                        </g>
                        <g id="Group-337">
                            <mask id="mask-68" fill="white">
                                <use xlink:href="#path-67"></use>
                            </mask>
                            <g id="Clip-336"></g>
                            <polygon id="Fill-335" fill="#223B98" mask="url(#mask-68)" points="-65.1956613 364.262556 -66.7564114 362.700478 400.98499 -106.077698 400.98499 -99.8251496 -62.0783849 364.262556"></polygon>
                        </g>
                        <g id="Group-340">
                            <mask id="mask-70" fill="white">
                                <use xlink:href="#path-69"></use>
                            </mask>
                            <g id="Clip-339"></g>
                            <polygon id="Fill-338" fill="#223B98" mask="url(#mask-70)" points="-52.0242777 364.206512 -53.5808039 362.644433 400.93118 -92.8730056 400.93118 -86.6204569 -48.9048894 364.206512"></polygon>
                        </g>
                        <g id="Group-343">
                            <mask id="mask-72" fill="white">
                                <use xlink:href="#path-71"></use>
                            </mask>
                            <g id="Clip-342"></g>
                            <polygon id="Fill-341" fill="#223B98" mask="url(#mask-72)" points="-38.8444462 364.152584 -40.4051964 362.590505 400.875259 -79.6683129 400.875259 -73.4157641 -35.7271699 364.152584"></polygon>
                        </g>
                        <g id="Group-346">
                            <mask id="mask-74" fill="white">
                                <use xlink:href="#path-73"></use>
                            </mask>
                            <g id="Clip-345"></g>
                            <polygon id="Fill-344" fill="#223B98" mask="url(#mask-74)" points="-25.6709507 364.096539 -27.2295889 362.534461 400.819338 -66.4636202 400.819338 -60.213188 -22.5515624 364.096539"></polygon>
                        </g>
                        <g id="Group-349">
                            <mask id="mask-76" fill="white">
                                <use xlink:href="#path-75"></use>
                            </mask>
                            <g id="Clip-348"></g>
                            <polygon id="Fill-347" fill="#223B98" mask="url(#mask-76)" points="-12.4953432 364.040495 -14.0539814 362.478416 400.765529 -53.2589274 400.765529 -47.0084953 -9.37806685 364.040495"></polygon>
                        </g>
                        <g id="Group-352">
                            <mask id="mask-78" fill="white">
                                <use xlink:href="#path-77"></use>
                            </mask>
                            <g id="Clip-351"></g>
                            <polygon id="Fill-350" fill="#223B98" mask="url(#mask-78)" points="0.68237631 363.986567 -0.878373835 362.424488 400.713832 -40.0542347 400.713832 -33.8016859 3.79965265 363.986567"></polygon>
                        </g>
                        <g id="Group-355" transform="translate(12.297234, 0.000000)">
                            <mask id="mask-80" fill="white">
                                <use xlink:href="#path-79"></use>
                            </mask>
                            <g id="Clip-354"></g>
                            <polygon id="Fill-353" fill="#223B98" mask="url(#mask-80)" points="1.56098292 363.930522 0 362.368444 388.418598 -26.8495419 388.418598 -20.5969932 4.67872417 363.930522"></polygon>
                        </g>
                        <g id="Group-358" transform="translate(26.351215, 0.000000)">
                            <mask id="mask-82" fill="white">
                                <use xlink:href="#path-81"></use>
                            </mask>
                            <g id="Clip-357"></g>
                            <polygon id="Fill-356" fill="#223B98" mask="url(#mask-82)" points="1.54953341 364.316751 0 362.754672 373.443858 -13.2046927 373.443858 -6.95426062 4.65490768 364.316751"></polygon>
                        </g>
                        <g id="Group-361" transform="translate(38.648449, 0.000000)">
                            <mask id="mask-84" fill="white">
                                <use xlink:href="#path-83"></use>
                            </mask>
                            <g id="Clip-360"></g>
                            <polygon id="Fill-359" fill="#223B98" mask="url(#mask-84)" points="1.56010011 364.260706 0 362.698627 362.237066 0 362.237066 6.25043212 4.68241429 364.260706"></polygon>
                        </g>
                        <g id="Group-364" transform="translate(51.384869, 12.324380)">
                            <mask id="mask-86" fill="white">
                                <use xlink:href="#path-85"></use>
                            </mask>
                            <g id="Clip-363"></g>
                            <polygon id="Fill-362" fill="#223B98" mask="url(#mask-86)" points="1.56466588 352.131105 0 350.564002 350.016606 0 350.016606 6.27266046 4.69611779 352.131105"></polygon>
                        </g>
                        <g id="Group-367" transform="translate(64.999664, 26.849542)">
                            <mask id="mask-88" fill="white">
                                <use xlink:href="#path-87"></use>
                            </mask>
                            <g id="Clip-366"></g>
                            <polygon id="Fill-365" fill="#223B98" mask="url(#mask-88)" points="1.56513829 336.478241 0 334.922013 336.835574 0 336.835574 6.22912602 4.69541486 336.478241"></polygon>
                        </g>
                        <g id="Group-370" transform="translate(78.614458, 40.054235)">
                            <mask id="mask-90" fill="white">
                                <use xlink:href="#path-89"></use>
                            </mask>
                            <g id="Clip-369"></g>
                            <polygon id="Fill-368" fill="#223B98" mask="url(#mask-90)" points="1.56321235 323.993922 0 322.434196 322.71768 0 322.71768 6.24312982 4.68540643 323.993922"></polygon>
                        </g>
                        <g id="Group-373" transform="translate(92.229253, 52.818771)">
                            <mask id="mask-92" fill="white">
                                <use xlink:href="#path-91"></use>
                            </mask>
                            <g id="Clip-372"></g>
                            <polygon id="Fill-371" fill="#223B98" mask="url(#mask-92)" points="1.5581793 311.615111 0 310.051059 308.468898 0 308.468898 6.25832736 4.67032092 311.615111"></polygon>
                        </g>
                        <g id="Group-376" transform="translate(104.965673, 65.583307)">
                            <mask id="mask-94" fill="white">
                                <use xlink:href="#path-93"></use>
                            </mask>
                            <g id="Clip-375"></g>
                            <polygon id="Fill-374" fill="#223B98" mask="url(#mask-94)" points="1.56028254 298.043523 0 296.481024 296.457917 0 296.457917 6.25211352 4.68719885 298.043523"></polygon>
                        </g>
                        <g id="Group-379" transform="translate(119.458842, 80.108469)">
                            <mask id="mask-96" fill="white">
                                <use xlink:href="#path-95"></use>
                            </mask>
                            <g id="Clip-378"></g>
                            <polygon id="Fill-377" fill="#223B98" mask="url(#mask-96)" points="1.53625427 286.524015 0 284.951942 278.459618 0 278.459618 6.2904192 4.61084446 286.524015"></polygon>
                        </g>
                        <g id="Group-382" transform="translate(130.877701, 92.432849)">
                            <mask id="mask-98" fill="white">
                                <use xlink:href="#path-97"></use>
                            </mask>
                            <g id="Clip-381"></g>
                            <polygon id="Fill-380" fill="#223B98" mask="url(#mask-98)" points="1.57498284 269.228685 0 267.679355 272.109231 0 272.109231 6.20152005 4.72708265 269.228685"></polygon>
                        </g>
                        <g id="Group-385" transform="translate(144.931683, 105.197386)">
                            <mask id="mask-100" fill="white">
                                <use xlink:href="#path-99"></use>
                            </mask>
                            <g id="Clip-384"></g>
                            <polygon id="Fill-383" fill="#223B98" mask="url(#mask-100)" points="1.56237749 259.558667 0 257.988279 256.670253 0 256.670253 6.28580576 4.68713246 259.558667"></polygon>
                        </g>
                    </g>
                </g>
            </g>
        </g>
    </g>
</svg>