<?xml version="1.0" encoding="UTF-8"?>
<svg width="1280px" height="214px" viewBox="0 0 1280 214" version="1.1" xmlns="http://www.w3.org/2000/svg" xmlns:xlink="http://www.w3.org/1999/xlink">
    <!-- Generator: Sketch 48.2 (47327) - http://www.bohemiancoding.com/sketch -->
    <title>Pattern</title>
    <desc>Created with Sketch.</desc>
    <defs>
        <rect id="path-1" x="0" y="0" width="1280" height="214"></rect>
        <rect id="path-3" x="9.9475983e-14" y="0" width="214.420904" height="319"></rect>
        <path d="M147.085249,0.927396856 C141.793815,0.314724454 136.414218,0 130.962842,0 C71.9995108,0 21.4353579,36.8198702 0,89.2306326 L147.085249,89.2306326 L147.085249,0.927396856 Z" id="path-5"></path>
        <path d="M173.396108,4.43914027 C162.128482,1.54038704 150.326471,1.74902979e-13 138.169622,0 C71.7890745,0 15.990332,45.9271409 0,108.148094 L173.396108,108.148094 L173.396108,4.43914027 Z" id="path-7"></path>
        <path d="M194.896574,10.6365718 C178.267626,3.78073009 160.055033,0 140.962236,0 C68.3039298,0 8.39541696,54.7528992 0,125.370562 L194.896574,125.370562 L194.896574,10.6365567 L194.896574,10.6365718 Z" id="path-9"></path>
        <path d="M0.0126253844,143.471597 C0.00421723689,142.836742 0,142.20088 0,141.564035 C0,63.380773 63.5655791,0 141.979826,0 C168.610466,0 193.528834,7.31022532 214.826427,20.0278371 L214.826427,143.471597 L0.0126253844,143.471597 Z" id="path-11"></path>
        <path d="M1.52091015,164.011574 C0.518927197,157.165504 0,150.161763 0,143.036372 C0,64.039965 63.7877383,0 142.47604,0 C177.578054,0 209.715522,12.7436781 234.548198,33.8738966 L234.548198,164.011574 L1.52091015,164.011574 Z" id="path-13"></path>
        <path d="M5.65535012,182.598223 C1.97379045,169.929567 0,156.533324 0,142.675808 C0,63.8785337 63.8242959,0 142.557695,0 C187.470936,-1.72399309e-13 227.533593,20.7867082 253.664455,53.2717599 L253.664455,182.598223 L5.65535012,182.598223 Z" id="path-15"></path>
        <path d="M12.7064506,202.187778 C4.54507303,184.173685 0,164.165183 0,143.093198 C0,64.065407 63.9327102,0 142.799849,0 C200.82551,0 250.768622,34.6794032 273.112471,84.4821989 L273.112451,201.707122 C273.040512,201.86748 272.968274,202.027707 272.89575,202.187778 L12.70642,202.187772 L12.7064506,202.187778 Z" id="path-17"></path>
        <path d="M23.1293063,221.339381 C8.50228296,198.862158 0,172.005888 0,143.157216 C0,64.0940687 63.8653837,0 142.649469,0 C221.433554,0 285.30197,64.0940687 285.30197,143.157216 C285.30197,172.005888 276.799283,198.862158 262.171747,221.339381 L23.1293063,221.339381 Z" id="path-19"></path>
        <path d="M37.9593538,240.82972 C14.3999207,215.250148 0,181.0204 0,143.410251 C0,64.2073574 63.8653837,0 142.649469,0 C221.433554,0 285.30197,64.2073574 285.30197,143.410251 C285.30197,181.0204 270.901365,215.250148 247.341214,240.82972 L37.9593538,240.82972 Z" id="path-21"></path>
        <path d="M59.4531346,258.973894 C23.4471432,233.0348 0,190.702324 0,142.885731 C0,63.97252 63.8653837,0 142.649469,0 C221.433554,0 285.30197,63.97252 285.30197,142.885731 C285.30197,190.702324 261.853713,233.0348 225.846844,258.973894 L59.4531346,258.973894 Z" id="path-23"></path>
        <path d="M96.1107437,277.482246 C40.1781044,258.190426 0,205.094093 0,142.617999 C0,63.8526519 63.8653837,0 142.649469,0 C221.433554,0 285.30197,63.8526519 285.30197,142.617999 C285.30197,205.094093 245.121958,258.190426 189.188529,277.482246 L96.1107437,277.482246 Z" id="path-25"></path>
        <path d="M0,142.961329 C0,221.919331 63.8653837,285.931775 142.649469,285.931775 C221.433554,285.931775 285.30197,221.919331 285.30197,142.961329 C285.30197,64.0063669 221.433554,0 142.649469,0 C63.8653837,0 0,64.0063669 0,142.961329 Z" id="path-27"></path>
        <path d="M0,142.961329 C0,221.919331 63.8653837,285.931775 142.649469,285.931775 C221.433554,285.931775 285.30197,221.919331 285.30197,142.961329 C285.30197,64.0063669 221.433554,0 142.649469,0 C63.8653837,0 0,64.0063669 0,142.961329 Z" id="path-29"></path>
        <path d="M0,142.961329 C0,221.919331 63.8653837,285.931775 142.649469,285.931775 C221.433554,285.931775 285.30197,221.919331 285.30197,142.961329 C285.30197,64.0063669 221.433554,0 142.649469,0 C63.8653837,0 0,64.0063669 0,142.961329 Z" id="path-31"></path>
        <path d="M0,142.961329 C0,221.919331 63.8653837,285.931775 142.649469,285.931775 C221.433554,285.931775 285.30197,221.919331 285.30197,142.961329 C285.30197,64.0063669 221.433554,0 142.649469,0 C63.8653837,0 0,64.0063669 0,142.961329 Z" id="path-33"></path>
        <path d="M0,142.961329 C0,221.919331 63.8653837,285.931775 142.649469,285.931775 C221.433554,285.931775 285.30197,221.919331 285.30197,142.961329 C285.30197,64.0063669 221.433554,0 142.649469,0 C63.8653837,0 0,64.0063669 0,142.961329 Z" id="path-35"></path>
        <path d="M0,142.961329 C0,221.919331 63.8653837,285.931775 142.649469,285.931775 C221.433554,285.931775 285.30197,221.919331 285.30197,142.961329 C285.30197,64.0063669 221.433554,0 142.649469,0 C63.8653837,0 0,64.0063669 0,142.961329 Z" id="path-37"></path>
        <path d="M0,142.961329 C0,221.919331 63.8653837,285.931775 142.649469,285.931775 C221.433554,285.931775 285.30197,221.919331 285.30197,142.961329 C285.30197,64.0063669 221.433554,0 142.649469,0 C63.8653837,0 0,64.0063669 0,142.961329 Z" id="path-39"></path>
        <path d="M0,142.961329 C0,221.919331 63.8653837,285.931775 142.649469,285.931775 C221.433554,285.931775 285.30197,221.919331 285.30197,142.961329 C285.30197,64.0063669 221.433554,0 142.649469,0 C63.8653837,0 0,64.0063669 0,142.961329 Z" id="path-41"></path>
        <path d="M0,142.961329 C0,221.919331 63.8653837,285.931775 142.649469,285.931775 C221.433554,285.931775 285.30197,221.919331 285.30197,142.961329 C285.30197,64.0063669 221.433554,0 142.649469,0 C63.8653837,0 0,64.0063669 0,142.961329 Z" id="path-43"></path>
        <path d="M0,142.961329 C0,221.919331 63.8653837,285.931775 142.649469,285.931775 C221.433554,285.931775 285.30197,221.919331 285.30197,142.961329 C285.30197,64.0063669 221.433554,0 142.649469,0 C63.8653837,0 0,64.0063669 0,142.961329 Z" id="path-45"></path>
        <path d="M0,142.961329 C0,221.919331 63.8653837,285.931775 142.649469,285.931775 C221.433554,285.931775 285.30197,221.919331 285.30197,142.961329 C285.30197,64.0063669 221.433554,0 142.649469,0 C63.8653837,0 0,64.0063669 0,142.961329 Z" id="path-47"></path>
        <path d="M0,142.961329 C0,221.919331 63.8653837,285.931775 142.649469,285.931775 C221.433554,285.931775 285.30197,221.919331 285.30197,142.961329 C285.30197,64.0063669 221.433554,0 142.649469,0 C63.8653837,0 0,64.0063669 0,142.961329 Z" id="path-49"></path>
        <path d="M0,142.961329 C0,221.919331 63.8653837,285.931775 142.649469,285.931775 C221.433554,285.931775 285.30197,221.919331 285.30197,142.961329 C285.30197,64.0063669 221.433554,0 142.649469,0 C63.8653837,0 0,64.0063669 0,142.961329 Z" id="path-51"></path>
        <path d="M0,142.961329 C0,221.919331 63.8653837,285.931775 142.649469,285.931775 C221.433554,285.931775 285.30197,221.919331 285.30197,142.961329 C285.30197,64.0063669 221.433554,0 142.649469,0 C63.8653837,0 0,64.0063669 0,142.961329 Z" id="path-53"></path>
        <path d="M0,142.961329 C0,221.919331 63.8653837,285.931775 142.649469,285.931775 C221.433554,285.931775 285.30197,221.919331 285.30197,142.961329 C285.30197,64.0063669 221.433554,0 142.649469,0 C63.8653837,0 0,64.0063669 0,142.961329 Z" id="path-55"></path>
        <path d="M0,142.961329 C0,221.919331 63.8653837,285.931775 142.649469,285.931775 C221.433554,285.931775 285.30197,221.919331 285.30197,142.961329 C285.30197,64.0063669 221.433554,0 142.649469,0 C63.8653837,0 0,64.0063669 0,142.961329 Z" id="path-57"></path>
        <path d="M0,142.961329 C0,221.919331 63.8653837,285.931775 142.649469,285.931775 C221.433554,285.931775 285.30197,221.919331 285.30197,142.961329 C285.30197,64.0063669 221.433554,0 142.649469,0 C63.8653837,0 0,64.0063669 0,142.961329 Z" id="path-59"></path>
        <path d="M0,142.961329 C0,221.919331 63.8653837,285.931775 142.649469,285.931775 C221.433554,285.931775 285.30197,221.919331 285.30197,142.961329 C285.30197,64.0063669 221.433554,0 142.649469,0 C63.8653837,0 0,64.0063669 0,142.961329 Z" id="path-61"></path>
        <path d="M0,142.961329 C0,221.919331 63.8653837,285.931775 142.649469,285.931775 C221.433554,285.931775 285.30197,221.919331 285.30197,142.961329 C285.30197,64.0063669 221.433554,0 142.649469,0 C63.8653837,0 0,64.0063669 0,142.961329 Z" id="path-63"></path>
        <path d="M0,142.961329 C0,221.919331 63.8653837,285.931775 142.649469,285.931775 C221.433554,285.931775 285.30197,221.919331 285.30197,142.961329 C285.30197,64.0063669 221.433554,0 142.649469,0 C63.8653837,0 0,64.0063669 0,142.961329 Z" id="path-65"></path>
        <path d="M0,142.961329 C0,221.919331 63.8653837,285.931775 142.649469,285.931775 C221.433554,285.931775 285.30197,221.919331 285.30197,142.961329 C285.30197,64.0063669 221.433554,0 142.649469,0 C63.8653837,0 0,64.0063669 0,142.961329 Z" id="path-67"></path>
        <path d="M0,142.961329 C0,221.919331 63.8653837,285.931775 142.649469,285.931775 C221.433554,285.931775 285.30197,221.919331 285.30197,142.961329 C285.30197,64.0063669 221.433554,0 142.649469,0 C63.8653837,0 0,64.0063669 0,142.961329 Z" id="path-69"></path>
        <path d="M0,142.961329 C0,221.919331 63.8653837,285.931775 142.649469,285.931775 C221.433554,285.931775 285.30197,221.919331 285.30197,142.961329 C285.30197,64.0063669 221.433554,0 142.649469,0 C63.8653837,0 0,64.0063669 0,142.961329 Z" id="path-71"></path>
        <path d="M0,142.961329 C0,221.919331 63.8653837,285.931775 142.649469,285.931775 C221.433554,285.931775 285.30197,221.919331 285.30197,142.961329 C285.30197,64.0063669 221.433554,0 142.649469,0 C63.8653837,0 0,64.0063669 0,142.961329 Z" id="path-73"></path>
        <path d="M0,142.961329 C0,221.919331 63.8653837,285.931775 142.649469,285.931775 C221.433554,285.931775 285.30197,221.919331 285.30197,142.961329 C285.30197,64.0063669 221.433554,0 142.649469,0 C63.8653837,0 0,64.0063669 0,142.961329 Z" id="path-75"></path>
        <path d="M0,142.961329 C0,221.919331 63.8653837,285.931775 142.649469,285.931775 C221.433554,285.931775 285.30197,221.919331 285.30197,142.961329 C285.30197,64.0063669 221.433554,0 142.649469,0 C63.8653837,0 0,64.0063669 0,142.961329 Z" id="path-77"></path>
        <path d="M0,211.840187 C24.2523093,256.006733 71.1044223,285.931775 124.924796,285.931775 C203.640527,285.931775 267.45353,221.919331 267.45353,142.961329 C267.45353,64.0063669 203.640527,0 124.924796,0 C71.1044223,0 24.2523093,29.9222011 0,74.0859787 L4.96018698e-06,211.840196 L0,211.840187 Z" id="path-79"></path>
        <path d="M0,238.600808 C25.9740589,267.660662 63.6092038,285.931775 105.480367,285.931775 C183.853052,285.931775 247.387956,221.919331 247.387956,142.961329 C247.387956,64.0063669 183.853052,0 105.480367,0 C63.6092038,0 25.9740589,18.269379 0,47.327153 L1.71463758e-13,238.600808 Z" id="path-81"></path>
        <path d="M0,256.240436 C24.0599275,274.857799 54.2163657,285.931775 86.9510236,285.931775 C165.653467,285.931775 229.455697,221.919331 229.455697,142.961329 C229.455697,64.0063669 165.653467,0 86.9510236,0 C54.2163657,0 24.0599275,11.0729251 1.72185203e-13,29.6888413 L1.72185203e-13,256.240436 Z" id="path-83"></path>
        <path d="M0,250.443881 C20.2500125,261.489852 43.4604788,267.76502 68.1320926,267.76502 C147.016934,267.76502 210.967031,203.61196 210.967031,124.480513 C210.967031,71.1813883 181.952432,24.679443 138.902661,0 L0,0 L2.41912426e-05,250.443894 L0,250.443881 Z" id="path-85"></path>
        <path d="M0,238.394198 C15.3869879,243.981917 32.0077206,247.031451 49.3467019,247.031451 C128.608686,247.031451 192.864524,183.305524 192.864524,104.700936 C192.864524,63.2889505 175.028324,26.0078384 146.558504,0 L0,0 L9.17335553e-11,238.394198 Z" id="path-87"></path>
        <path d="M0,225.315211 C9.72052582,227.392416 19.8074481,228.485865 30.1507022,228.485865 C109.18295,228.485865 173.252546,164.64588 173.252546,85.9006038 C173.252546,53.6442343 162.501088,23.8896161 144.373888,0 L0,0 L1.7290675e-13,225.315211 Z" id="path-89"></path>
        <path d="M0,209.542671 C3.65259872,209.823066 7.34367718,209.965848 11.0680718,209.965848 C89.9085491,209.965848 153.822681,145.983338 153.822681,67.0622606 C153.822681,42.82544 147.79437,19.9978951 137.156761,0 L0,0 L7.24446215e-12,209.542671 Z" id="path-91"></path>
        <path d="M0,190.408609 C75.322915,186.288809 135.128877,124.083889 135.128877,47.956453 C135.128877,31.1318574 132.207519,14.987477 126.842944,0 L0,0 L0,190.408609 Z" id="path-93"></path>
        <path d="M0,170.16684 C65.1673496,157.491784 114.420525,99.1701174 114.420525,29.142305 C114.420525,19.1573492 113.419099,9.4104537 111.512903,0 L0,0 L0,170.16684 Z" id="path-95"></path>
        <path d="M0,143.83403 C56.7887836,124.877082 97.6481489,72.061782 97.6481489,9.87640771 C97.6481489,6.5563125 97.5316693,3.26293439 97.3025048,0 L0,0 L0,143.83403 Z" id="path-97"></path>
        <path d="M0,118.552169 C43.7220177,96.1186158 74.403485,51.7868981 77.6329625,0 L0,0 L0,118.552169 Z" id="path-99"></path>
        <path d="M0.0210414835,89.0100654 C29.0123918,67.9299102 49.9075957,36.4284356 57.1762744,0.0250957364 L0.0210414835,0.0250957364 L0.0210414835,89.0100654 Z" id="path-101"></path>
        <path d="M0.202951026,52.3136882 C14.0188807,37.5497448 24.7986825,19.7722377 31.5122919,0.038136966 L0.202951026,0.038136966 L0.202951026,52.3136882 Z" id="path-103"></path>
        <path d="M0.250435363,8.73638099 C2.02102994,5.91330014 3.69978864,3.02990504 5.28268005,0.0900966144 L0.250435363,0.0900966144 L0.250435363,8.73638099 Z" id="path-105"></path>
    </defs>
    <g id="Startup-Garage---Programme-Objectives" stroke="none" stroke-width="1" fill="none" fill-rule="evenodd" transform="translate(0.000000, -3233.000000)">
        <g id="3_Apply-now" transform="translate(0.000000, 3233.000000)">
            <g id="Pattern">
                <mask id="mask-2" fill="white">
                    <use xlink:href="#path-1"></use>
                </mask>
                <use id="Mask" fill="#F5F6F7" xlink:href="#path-1"></use>
                <g opacity="0.673913043" mask="url(#mask-2)">
                    <g transform="translate(1120.500000, 106.500000) scale(-1, -1) rotate(-90.000000) translate(-1120.500000, -106.500000) translate(1013.000000, -53.000000)">
                        <mask id="mask-4" fill="white">
                            <use xlink:href="#path-3"></use>
                        </mask>
                        <g id="Mask" stroke="none" fill="none"></g>
                        <g id="Pattern" opacity="0.0797101449" stroke="none" stroke-width="1" fill="none" fill-rule="evenodd" mask="url(#mask-4)">
                            <g transform="translate(193.500000, 72.500000) scale(-1, 1) translate(-193.500000, -72.500000) translate(50.000000, -71.000000)">
                                <g id="Group-244" transform="translate(11.000000, 0.000000)">
                                    <mask id="mask-6" fill="white">
                                        <use xlink:href="#path-5"></use>
                                    </mask>
                                    <g id="Clip-243"></g>
                                    <polygon id="Fill-242" fill="#223B98" mask="url(#mask-6)" points="-254.584787 89.4165743 -254.584787 80.2939123 140.058505 -323.834147 142.284907 -326.11404 146.743744 -321.551164"></polygon>
                                </g>
                                <g id="Group-247" transform="translate(6.000000, 0.000000)">
                                    <mask id="mask-8" fill="white">
                                        <use xlink:href="#path-7"></use>
                                    </mask>
                                    <g id="Clip-246"></g>
                                    <polygon id="Fill-245" fill="#223B98" mask="url(#mask-8)" points="-249.462177 108.137406 -249.462177 99.0512441 166.559492 -322.733737 168.799235 -325.004509 173.278722 -320.462966"></polygon>
                                </g>
                                <g id="Group-250" transform="translate(2.000000, 0.000000)">
                                    <mask id="mask-10" fill="white">
                                        <use xlink:href="#path-9"></use>
                                    </mask>
                                    <g id="Clip-249"></g>
                                    <polygon id="Fill-248" fill="#223B98" mask="url(#mask-10)" points="-244.430507 125.245837 -244.430507 116.303165 188.149904 -317.643446 190.380042 -319.877601 194.834283 -315.409292"></polygon>
                                </g>
                                <g id="Group-253">
                                    <mask id="mask-12" fill="white">
                                        <use xlink:href="#path-11"></use>
                                    </mask>
                                    <g id="Clip-252"></g>
                                    <polygon id="Fill-251" fill="#223B98" mask="url(#mask-12)" points="-243.089201 143.849713 -243.089201 134.963405 208.431033 -315.24712 210.661351 -317.470954 215.11897 -313.026295"></polygon>
                                </g>
                                <g id="Group-256">
                                    <mask id="mask-14" fill="white">
                                        <use xlink:href="#path-13"></use>
                                    </mask>
                                    <g id="Clip-255"></g>
                                    <polygon id="Fill-254" fill="#223B98" mask="url(#mask-14)" points="-243.838035 164.384789 -243.838035 155.406059 228.234234 -318.532858 230.472347 -320.779821 234.942517 -316.288936"></polygon>
                                </g>
                                <g id="Group-259">
                                    <mask id="mask-16" fill="white">
                                        <use xlink:href="#path-15"></use>
                                    </mask>
                                    <g id="Clip-258"></g>
                                    <polygon id="Fill-257" fill="#223B98" mask="url(#mask-16)" points="-243.939383 182.861016 -243.939383 173.901886 247.385271 -317.840295 249.624667 -320.081594 254.097398 -315.602029"></polygon>
                                </g>
                                <g id="Group-262">
                                    <mask id="mask-18" fill="white">
                                        <use xlink:href="#path-17"></use>
                                    </mask>
                                    <g id="Clip-261"></g>
                                    <polygon id="Fill-260" fill="#223B98" mask="url(#mask-18)" points="-244.495012 202.235542 -244.495012 193.250203 266.681337 -318.987128 268.921501 -321.231942 273.404865 -316.742314"></polygon>
                                </g>
                                <g id="Group-265">
                                    <mask id="mask-20" fill="white">
                                        <use xlink:href="#path-19"></use>
                                    </mask>
                                    <g id="Clip-264"></g>
                                    <polygon id="Fill-263" fill="#223B98" mask="url(#mask-20)" points="-244.026691 221.363456 -244.026691 212.37714 285.608432 -319.154467 287.846238 -321.400285 292.321848 -316.908649"></polygon>
                                </g>
                                <g id="Group-268">
                                    <mask id="mask-22" fill="white">
                                        <use xlink:href="#path-21"></use>
                                    </mask>
                                    <g id="Clip-267"></g>
                                    <polygon id="Fill-266" fill="#223B98" mask="url(#mask-22)" points="-244.026691 240.892298 -244.026691 231.88705 304.602486 -319.679819 306.840291 -321.932655 311.318934 -317.430031"></polygon>
                                </g>
                                <g id="Group-271">
                                    <mask id="mask-24" fill="white">
                                        <use xlink:href="#path-23"></use>
                                    </mask>
                                    <g id="Clip-270"></g>
                                    <polygon id="Fill-269" fill="#223B98" mask="url(#mask-24)" points="-244.026691 259.164621 -244.026691 250.195347 323.59654 -318.383128 325.834345 -320.624687 330.312988 -316.138531"></polygon>
                                </g>
                                <g id="Group-274">
                                    <mask id="mask-26" fill="white">
                                        <use xlink:href="#path-25"></use>
                                    </mask>
                                    <g id="Clip-273"></g>
                                    <polygon id="Fill-272" fill="#223B98" mask="url(#mask-26)" points="-244.026691 277.611532 -244.026691 268.656033 342.590594 -317.844308 344.831431 -320.081667 349.307042 -315.606949"></polygon>
                                </g>
                                <g id="Group-277">
                                    <mask id="mask-28" fill="white">
                                        <use xlink:href="#path-27"></use>
                                    </mask>
                                    <g id="Clip-276"></g>
                                    <polygon id="Fill-275" fill="#223B98" mask="url(#mask-28)" points="-244.026691 297.139512 -244.026691 288.165492 361.58768 -318.788815 363.825485 -321.03156 368.301096 -316.543031"></polygon>
                                </g>
                                <g id="Group-280">
                                    <mask id="mask-30" fill="white">
                                        <use xlink:href="#path-29"></use>
                                    </mask>
                                    <g id="Clip-279"></g>
                                    <polygon id="Fill-278" fill="#223B98" mask="url(#mask-30)" points="-244.026691 316.178534 -244.026691 307.201476 380.581734 -318.788815 382.822572 -321.03156 387.298182 -316.54607"></polygon>
                                </g>
                                <g id="Group-283">
                                    <mask id="mask-32" fill="white">
                                        <use xlink:href="#path-31"></use>
                                    </mask>
                                    <g id="Clip-282"></g>
                                    <polygon id="Fill-281" fill="#223B98" mask="url(#mask-32)" points="-244.026691 335.214518 -244.026691 326.237459 399.57882 -318.788815 401.816625 -321.03156 406.295268 -316.54607"></polygon>
                                </g>
                                <g id="Group-286">
                                    <mask id="mask-34" fill="white">
                                        <use xlink:href="#path-33"></use>
                                    </mask>
                                    <g id="Clip-285"></g>
                                    <polygon id="Fill-284" fill="#223B98" mask="url(#mask-34)" points="-244.026691 354.25354 -244.026691 345.27952 418.572874 -318.788815 420.813712 -321.03156 425.289322 -316.539992"></polygon>
                                </g>
                                <g id="Group-289">
                                    <mask id="mask-36" fill="white">
                                        <use xlink:href="#path-35"></use>
                                    </mask>
                                    <g id="Clip-288"></g>
                                    <polygon id="Fill-287" fill="#223B98" mask="url(#mask-36)" points="-244.026691 373.289523 -244.026691 364.312465 437.566928 -318.788815 439.810798 -321.03156 444.286408 -316.54607"></polygon>
                                </g>
                                <g id="Group-292">
                                    <mask id="mask-38" fill="white">
                                        <use xlink:href="#path-37"></use>
                                    </mask>
                                    <g id="Clip-291"></g>
                                    <polygon id="Fill-290" fill="#223B98" mask="url(#mask-38)" points="-244.026691 392.325507 -244.026691 383.348448 456.564014 -318.788815 458.804852 -321.03156 463.280462 -316.54607"></polygon>
                                </g>
                                <g id="Group-295">
                                    <mask id="mask-40" fill="white">
                                        <use xlink:href="#path-39"></use>
                                    </mask>
                                    <g id="Clip-294"></g>
                                    <polygon id="Fill-293" fill="#223B98" mask="url(#mask-40)" points="-244.026691 411.364529 -244.026691 402.39051 475.558068 -318.788815 477.798906 -321.03156 482.277548 -316.543031"></polygon>
                                </g>
                                <g id="Group-298">
                                    <mask id="mask-42" fill="white">
                                        <use xlink:href="#path-41"></use>
                                    </mask>
                                    <g id="Clip-297"></g>
                                    <polygon id="Fill-296" fill="#223B98" mask="url(#mask-42)" points="-244.026691 430.403552 -244.026691 421.426493 494.555154 -318.788815 496.79296 -321.03156 501.271602 -316.54607"></polygon>
                                </g>
                                <g id="Group-301">
                                    <mask id="mask-44" fill="white">
                                        <use xlink:href="#path-43"></use>
                                    </mask>
                                    <g id="Clip-300"></g>
                                    <polygon id="Fill-299" fill="#223B98" mask="url(#mask-44)" points="-244.026691 449.439535 -244.026691 440.462476 513.55224 -318.788815 515.790046 -321.03156 520.265656 -316.543031"></polygon>
                                </g>
                                <g id="Group-304">
                                    <mask id="mask-46" fill="white">
                                        <use xlink:href="#path-45"></use>
                                    </mask>
                                    <g id="Clip-303"></g>
                                    <polygon id="Fill-302" fill="#223B98" mask="url(#mask-46)" points="-244.026691 468.475518 -244.026691 459.501499 532.546294 -318.788815 534.787132 -321.03156 539.265775 -316.54607"></polygon>
                                </g>
                                <g id="Group-307">
                                    <mask id="mask-48" fill="white">
                                        <use xlink:href="#path-47"></use>
                                    </mask>
                                    <g id="Clip-306"></g>
                                    <polygon id="Fill-305" fill="#223B98" mask="url(#mask-48)" points="-244.026691 487.514541 -244.026691 478.537482 551.540348 -318.788815 553.781186 -321.03156 558.259828 -316.54607"></polygon>
                                </g>
                                <g id="Group-310">
                                    <mask id="mask-50" fill="white">
                                        <use xlink:href="#path-49"></use>
                                    </mask>
                                    <g id="Clip-309"></g>
                                    <polygon id="Fill-308" fill="#223B98" mask="url(#mask-50)" points="-244.026691 497.576504 570.537434 -318.788815 572.778272 -321.03156 575.704399 -318.092896 575.704399 -314.990128 -244.026691 506.553563"></polygon>
                                </g>
                                <g id="Group-313">
                                    <mask id="mask-52" fill="white">
                                        <use xlink:href="#path-51"></use>
                                    </mask>
                                    <g id="Clip-312"></g>
                                    <polygon id="Fill-311" fill="#223B98" mask="url(#mask-52)" points="-244.026691 522.981273 -244.026691 516.93984 575.704399 -304.600811 575.704399 -295.62983 -241.097532 522.981273"></polygon>
                                </g>
                                <g id="Group-316">
                                    <mask id="mask-54" fill="white">
                                        <use xlink:href="#path-53"></use>
                                    </mask>
                                    <g id="Clip-315"></g>
                                    <polygon id="Fill-314" fill="#223B98" mask="url(#mask-54)" points="-226.655448 522.903846 -228.893253 520.661101 575.62804 -285.642254 575.62804 -276.665196 -222.179837 522.903846"></polygon>
                                </g>
                                <g id="Group-319">
                                    <mask id="mask-56" fill="white">
                                        <use xlink:href="#path-55"></use>
                                    </mask>
                                    <g id="Clip-318"></g>
                                    <polygon id="Fill-317" fill="#223B98" mask="url(#mask-56)" points="-207.735618 522.82642 -209.976455 520.583675 575.556848 -266.683698 575.556848 -257.706639 -203.260007 522.82642"></polygon>
                                </g>
                                <g id="Group-322">
                                    <mask id="mask-58" fill="white">
                                        <use xlink:href="#path-57"></use>
                                    </mask>
                                    <g id="Clip-321"></g>
                                    <polygon id="Fill-320" fill="#223B98" mask="url(#mask-58)" points="-188.81882 522.745954 -191.059658 520.503209 575.473527 -247.725141 575.473527 -238.751121 -184.34321 522.745954"></polygon>
                                </g>
                                <g id="Group-325">
                                    <mask id="mask-60" fill="white">
                                        <use xlink:href="#path-59"></use>
                                    </mask>
                                    <g id="Clip-324"></g>
                                    <polygon id="Fill-323" fill="#223B98" mask="url(#mask-60)" points="-169.905055 522.668528 -172.14286 520.425782 575.396271 -228.766584 575.396271 -219.789526 -165.429444 522.668528"></polygon>
                                </g>
                                <g id="Group-328">
                                    <mask id="mask-62" fill="white">
                                        <use xlink:href="#path-61"></use>
                                    </mask>
                                    <g id="Clip-327"></g>
                                    <polygon id="Fill-326" fill="#223B98" mask="url(#mask-62)" points="-150.985225 522.591101 -153.226062 520.348356 575.315983 -209.808028 575.315983 -200.830969 -146.509614 522.591101"></polygon>
                                </g>
                                <g id="Group-331">
                                    <mask id="mask-64" fill="white">
                                        <use xlink:href="#path-63"></use>
                                    </mask>
                                    <g id="Clip-330"></g>
                                    <polygon id="Fill-329" fill="#223B98" mask="url(#mask-64)" points="-132.068427 522.507596 -134.309264 520.264851 575.238727 -190.849471 575.238727 -181.87849 -127.592816 522.507596"></polygon>
                                </g>
                                <g id="Group-334">
                                    <mask id="mask-66" fill="white">
                                        <use xlink:href="#path-65"></use>
                                    </mask>
                                    <g id="Clip-333"></g>
                                    <polygon id="Fill-332" fill="#223B98" mask="url(#mask-66)" points="-112.521069 523.06516 -114.761907 520.822415 575.795063 -171.258962 575.795063 -162.281904 -108.045459 523.06516"></polygon>
                                </g>
                                <g id="Group-337">
                                    <mask id="mask-68" fill="white">
                                        <use xlink:href="#path-67"></use>
                                    </mask>
                                    <g id="Clip-336"></g>
                                    <polygon id="Fill-335" fill="#223B98" mask="url(#mask-68)" points="-93.6042713 522.987734 -95.8451087 520.744989 575.711742 -152.300406 575.711742 -143.323347 -89.1286609 522.987734"></polygon>
                                </g>
                                <g id="Group-340">
                                    <mask id="mask-70" fill="white">
                                        <use xlink:href="#path-69"></use>
                                    </mask>
                                    <g id="Clip-339"></g>
                                    <polygon id="Fill-338" fill="#223B98" mask="url(#mask-70)" points="-74.693538 522.907268 -76.928311 520.664523 575.634486 -133.341849 575.634486 -124.36479 -70.2148953 522.907268"></polygon>
                                </g>
                                <g id="Group-343">
                                    <mask id="mask-72" fill="white">
                                        <use xlink:href="#path-71"></use>
                                    </mask>
                                    <g id="Clip-342"></g>
                                    <polygon id="Fill-341" fill="#223B98" mask="url(#mask-72)" points="-55.7706757 522.829841 -58.0115132 520.587096 575.554198 -114.383292 575.554198 -105.406234 -51.2950653 522.829841"></polygon>
                                </g>
                                <g id="Group-346">
                                    <mask id="mask-74" fill="white">
                                        <use xlink:href="#path-73"></use>
                                    </mask>
                                    <g id="Clip-345"></g>
                                    <polygon id="Fill-344" fill="#223B98" mask="url(#mask-74)" points="-36.8569102 522.749376 -39.0947154 520.506631 575.473909 -95.4247354 575.473909 -86.4507158 -32.3782675 522.749376"></polygon>
                                </g>
                                <g id="Group-349">
                                    <mask id="mask-76" fill="white">
                                        <use xlink:href="#path-75"></use>
                                    </mask>
                                    <g id="Clip-348"></g>
                                    <polygon id="Fill-347" fill="#223B98" mask="url(#mask-76)" points="-17.9401124 522.66891 -20.1779176 520.426165 575.396653 -76.4661787 575.396653 -67.4921591 -13.464502 522.66891"></polygon>
                                </g>
                                <g id="Group-352">
                                    <mask id="mask-78" fill="white">
                                        <use xlink:href="#path-77"></use>
                                    </mask>
                                    <g id="Clip-351"></g>
                                    <polygon id="Fill-350" fill="#223B98" mask="url(#mask-78)" points="0.979717607 522.591484 -1.26111985 520.348738 575.322429 -57.507622 575.322429 -48.5305634 5.45532801 522.591484"></polygon>
                                </g>
                                <g id="Group-355" transform="translate(18.000000, 0.000000)">
                                    <mask id="mask-80" fill="white">
                                        <use xlink:href="#path-79"></use>
                                    </mask>
                                    <g id="Clip-354"></g>
                                    <polygon id="Fill-353" fill="#223B98" mask="url(#mask-80)" points="2.23889327 522.511018 0 520.268273 557.102693 -38.5490653 557.102693 -29.5720067 6.71062057 522.511018"></polygon>
                                </g>
                                <g id="Group-358" transform="translate(38.000000, 0.000000)">
                                    <mask id="mask-82" fill="white">
                                        <use xlink:href="#path-81"></use>
                                    </mask>
                                    <g id="Clip-357"></g>
                                    <polygon id="Fill-356" fill="#223B98" mask="url(#mask-82)" points="2.22310325 523.065543 0 520.822798 535.776933 -18.9585567 535.776933 -9.98453708 6.67835903 523.065543"></polygon>
                                </g>
                                <g id="Group-361" transform="translate(55.000000, 0.000000)">
                                    <mask id="mask-84" fill="white">
                                        <use xlink:href="#path-83"></use>
                                    </mask>
                                    <g id="Clip-360"></g>
                                    <polygon id="Fill-359" fill="#223B98" mask="url(#mask-84)" points="2.23548622 522.985077 0 520.742332 519.053849 0 519.053849 8.97401963 6.70948777 522.985077"></polygon>
                                </g>
                                <g id="Group-364" transform="translate(74.000000, 18.000000)">
                                    <mask id="mask-86" fill="white">
                                        <use xlink:href="#path-85"></use>
                                    </mask>
                                    <g id="Clip-363"></g>
                                    <polygon id="Fill-362" fill="#223B98" mask="url(#mask-86)" points="2.24066712 505.056112 0 502.80844 501.23845 0 501.23845 8.99677835 6.7250375 505.056112"></polygon>
                                </g>
                                <g id="Group-367" transform="translate(93.000000, 39.000000)">
                                    <mask id="mask-88" fill="white">
                                        <use xlink:href="#path-87"></use>
                                    </mask>
                                    <g id="Clip-366"></g>
                                    <polygon id="Fill-365" fill="#223B98" mask="url(#mask-88)" points="2.25137959 482.742656 0 480.509949 484.522513 0 484.522513 8.93687756 6.75413877 482.742656"></polygon>
                                </g>
                                <g id="Group-370" transform="translate(113.000000, 57.000000)">
                                    <mask id="mask-90" fill="white">
                                        <use xlink:href="#path-89"></use>
                                    </mask>
                                    <g id="Clip-369"></g>
                                    <polygon id="Fill-368" fill="#223B98" mask="url(#mask-90)" points="2.2478959 464.618951 0 462.382248 464.06731 0 464.06731 8.95287298 6.73760408 464.618951"></polygon>
                                </g>
                                <g id="Group-373" transform="translate(132.000000, 76.000000)">
                                    <mask id="mask-92" fill="white">
                                        <use xlink:href="#path-91"></use>
                                    </mask>
                                    <g id="Clip-372"></g>
                                    <polygon id="Fill-371" fill="#223B98" mask="url(#mask-92)" points="2.24244141 446.626108 0 444.384411 443.930573 0 443.930573 8.96982301 6.72125538 446.626108"></polygon>
                                </g>
                                <g id="Group-376" transform="translate(151.000000, 94.000000)">
                                    <mask id="mask-94" fill="white">
                                        <use xlink:href="#path-93"></use>
                                    </mask>
                                    <g id="Clip-375"></g>
                                    <polygon id="Fill-374" fill="#223B98" mask="url(#mask-94)" points="2.24166454 426.898222 0 424.6602 425.922346 0 425.922346 8.95512211 6.73411844 426.898222"></polygon>
                                </g>
                                <g id="Group-379" transform="translate(171.000000, 115.000000)">
                                    <mask id="mask-96" fill="white">
                                        <use xlink:href="#path-95"></use>
                                    </mask>
                                    <g id="Clip-378"></g>
                                    <polygon id="Fill-377" fill="#223B98" mask="url(#mask-96)" points="2.21266423 410.502154 0 408.249851 401.064879 0 401.064879 9.01226599 6.64099087 410.502154"></polygon>
                                </g>
                                <g id="Group-382" transform="translate(188.000000, 133.000000)">
                                    <mask id="mask-98" fill="white">
                                        <use xlink:href="#path-97"></use>
                                    </mask>
                                    <g id="Clip-381"></g>
                                    <polygon id="Fill-380" fill="#223B98" mask="url(#mask-98)" points="2.25917626 385.576473 0 383.357596 390.317086 0 390.317086 8.88152102 6.78058999 385.576473"></polygon>
                                </g>
                                <g id="Group-385" transform="translate(208.000000, 151.000000)">
                                    <mask id="mask-100" fill="white">
                                        <use xlink:href="#path-99"></use>
                                    </mask>
                                    <g id="Clip-384"></g>
                                    <polygon id="Fill-383" fill="#223B98" mask="url(#mask-100)" points="2.2431739 371.524473 0 369.276667 368.512743 0 368.512743 8.99731341 6.72952171 371.524473"></polygon>
                                </g>
                                <g id="Group-388" transform="translate(226.000000, 94.000000)">
                                    <mask id="mask-102" fill="white">
                                        <use xlink:href="#path-101"></use>
                                    </mask>
                                    <g id="Clip-387"></g>
                                    <polygon id="Fill-386" fill="#223B98" mask="url(#mask-102)" points="2.30882597 357.498755 0.0210414835 355.218862 355.958824 0.0250957364 355.958824 9.15084707 6.87820338 357.498755"></polygon>
                                </g>
                                <g id="Group-391" transform="translate(246.000000, 111.000000)">
                                    <mask id="mask-104" fill="white">
                                        <use xlink:href="#path-103"></use>
                                    </mask>
                                    <g id="Clip-390"></g>
                                    <polygon id="Fill-389" fill="#223B98" mask="url(#mask-104)" points="2.40879143 335.224238 0.202951026 332.964123 324.694312 0.038136966 324.694312 9.08166003 6.81450244 335.224238"></polygon>
                                </g>
                                <g id="Group-394" transform="translate(265.000000, 130.000000)">
                                    <mask id="mask-106" fill="white">
                                        <use xlink:href="#path-105"></use>
                                    </mask>
                                    <g id="Clip-393"></g>
                                    <polygon id="Fill-392" fill="#223B98" mask="url(#mask-106)" points="2.711438 334.329101 0.250435363 331.938556 341.872949 0.0900966144 341.872949 9.65551581 7.63344326 334.329101"></polygon>
                                </g>
                            </g>
                        </g>
                    </g>
                </g>
            </g>
        </g>
    </g>
</svg>