<?xml version="1.0" encoding="UTF-8"?>
<svg width="18px" height="24px" viewBox="0 0 18 24" version="1.1" xmlns="http://www.w3.org/2000/svg" xmlns:xlink="http://www.w3.org/1999/xlink">
    <!-- Generator: Sketch 48.2 (47327) - http://www.bohemiancoding.com/sketch -->
    <title>Shape</title>
    <desc>Created with Sketch.</desc>
    <defs></defs>
    <g id="Startup-Garage---Programme-Objectives" stroke="none" stroke-width="1" fill="none" fill-rule="evenodd" transform="translate(-648.000000, -2027.000000)">
        <path d="M663,2037 L663,2033 C663,2029.687 660.313,2027 657,2027 C653.687,2027 651,2029.687 651,2033 L651,2037 L648,2037 L648,2051 L666,2051 L666,2037 L663,2037 Z M653,2033 C653,2030.794 654.795,2029 657,2029 C659.205,2029 661,2030.794 661,2033 L661,2037 L653,2037 L653,2033 Z M664,2049 L650,2049 L650,2039 L664,2039 L664,2049 Z M656.263,2047 L653.42,2044.244 L654.593,2043.071 L656.263,2044.654 L659.826,2041 L661,2042.173 L656.263,2047 Z" id="Shape" fill="#179FDC" fill-rule="nonzero"></path>
    </g>
</svg>