<?xml version="1.0" encoding="UTF-8"?>
<svg width="22px" height="20px" viewBox="0 0 22 20" version="1.1" xmlns="http://www.w3.org/2000/svg" xmlns:xlink="http://www.w3.org/1999/xlink">
    <!-- Generator: Sketch 48.2 (47327) - http://www.bohemiancoding.com/sketch -->
    <title>iconmonstr-school-7</title>
    <desc>Created with Sketch.</desc>
    <defs></defs>
    <g id="Startup-Garage---Programme-Objectives" stroke="none" stroke-width="1" fill="none" fill-rule="evenodd" transform="translate(-721.000000, -868.000000)">
        <g id="1_Mentoring-" transform="translate(-24.000000, 598.000000)" fill="#179FDC">
            <g id="Copy" transform="translate(124.000000, 70.000000)">
                <g id="Bullets" transform="translate(612.000000, 111.000000)">
                    <g id="iconmonstr-school-7" transform="translate(9.000000, 89.000000)">
                        <path d="M6.19575,8.18181818 C6.79066667,8.18181818 7.381,7.98818182 7.74675,7.78545455 C8.43883333,7.40363636 10.2171667,6.29181818 10.9413333,5.85454545 C11.1393333,5.73545455 11.3950833,5.77909091 11.5408333,5.95727273 L11.5481667,5.96727273 C11.6994167,6.15272727 11.682,6.42090909 11.50875,6.58545455 C10.9385833,7.12818182 9.26933333,8.70181818 8.41958333,9.50636364 C7.94108333,9.96 7.66608333,10.5818182 7.63766667,11.2372727 C7.55058333,13.2436364 7.39841667,17.5209091 7.33425,19.2672727 C7.31866667,19.6763636 6.9795,20 6.567,20 L6.56608333,20 C6.15908333,20 5.84558333,19.6845455 5.79975,19.2836364 C5.698,18.3918182 5.49816667,16.3018182 5.40925,15.4545455 C5.37258333,15.1054545 5.15258333,14.8972727 4.873,14.8954545 C4.59433333,14.8945455 4.39358333,15.1009091 4.36975,15.4490909 C4.31383333,16.2863636 4.12683333,18.4018182 4.05716667,19.2854545 C4.026,19.6872727 3.69325,20 3.28716667,20 L3.28625,20 C2.87191667,20 2.53091667,19.6754545 2.51441667,19.2654545 C2.4255,17.1363636 2.17616667,11.1163636 2.17616667,11.1163636 L0.996416667,13.2345455 C0.868083333,13.4645455 0.5885,13.5654545 0.341,13.4709091 L0.340083333,13.4709091 C0.0843333333,13.3727273 -0.0540833333,13.0972727 0.0201666667,12.8363636 L1.1605,8.84272727 C1.27233333,8.45181818 1.63258333,8.18181818 2.04233333,8.18181818 L6.19575,8.18181818 Z M22,13.6363636 L9.16666667,13.6363636 L9.16666667,11.8181818 L15.5833333,11.8181818 L15.5833333,10.9090909 L18.3333333,10.9090909 L18.3333333,11.8181818 L20.1666667,11.8181818 L20.1666667,1.81818182 L1.83333333,1.81818182 L1.83333333,5.77818182 L0,7.59636364 L0,0 L22,0 L22,13.6363636 Z M15.5833333,9.09090909 L12.8333333,9.09090909 L12.8333333,8.18181818 L15.5833333,8.18181818 L15.5833333,9.09090909 Z M4.92616667,3.63636364 C6.06375,3.63636364 6.98866667,4.55272727 6.98866667,5.68181818 C6.98866667,6.81090909 6.06375,7.72727273 4.92616667,7.72727273 C3.78766667,7.72727273 2.86366667,6.81090909 2.86366667,5.68181818 C2.86366667,4.55272727 3.78766667,3.63636364 4.92616667,3.63636364 Z M18.3333333,7.27272727 L12.8333333,7.27272727 L12.8333333,6.36363636 L18.3333333,6.36363636 L18.3333333,7.27272727 Z M18.3333333,5.45454545 L12.8333333,5.45454545 L12.8333333,4.54545455 L18.3333333,4.54545455 L18.3333333,5.45454545 Z" id="Shape"></path>
                    </g>
                </g>
            </g>
        </g>
    </g>
</svg>